<svg width="788" height="665" fill="none" xmlns="http://www.w3.org/2000/svg"><path d="m383.5 296.5-2.113 3.973 2.113-3.973Zm9.501 337 2.522-3.726-2.522 3.726Zm366.172-188.528a4.501 4.501 0 0 0-6.357-.304l-29.975 27.235a4.5 4.5 0 0 0 6.052 6.661l26.645-24.209L779.746 481a4.5 4.5 0 0 0 6.662-6.052l-27.235-29.976ZM15.5 296.5l-4.26 1.451.24.703.453.589L15.5 296.5Zm365.887 3.973c13.748 7.312 22.123 16.403 26.799 26.741 4.709 10.409 5.857 22.498 4.393 36.069-2.952 27.368-16.299 59.277-29.948 92.724-13.489 33.052-27.228 67.521-29.848 98.914-1.317 15.793.149 31.038 6.007 45.072 5.877 14.079 16.054 26.651 31.689 37.234l5.044-7.453c-14.324-9.696-23.289-20.938-28.427-33.247-5.157-12.354-6.577-26.072-5.344-40.858 2.484-29.763 15.601-62.912 29.211-96.262 13.45-32.955 27.444-66.233 30.564-95.159 1.572-14.577.438-28.411-5.141-40.744-5.611-12.404-15.532-22.871-30.773-30.977l-4.226 7.946Zm9.092 336.754c23.841 16.138 58.254 25.479 96.286 27.332 38.107 1.856 80.252-3.782 119.825-18.011 79.212-28.48 148.637-91.667 153.747-198.334l-8.99-.431c-4.89 102.084-71.023 162.691-147.802 190.296-38.421 13.814-79.379 19.291-116.342 17.49-37.037-1.804-69.659-10.89-91.68-25.795l-5.044 7.453ZM537.324 41.198C316.368-26.769 172.074-.902 89.161 61.715 6.248 124.333-14.277 223.022 11.24 297.951l8.52-2.901c-24.324-71.421-4.85-165.982 74.824-226.153 79.672-60.17 220.548-86.63 440.093-19.097l2.646-8.602ZM11.933 299.243c15.854 20.623 42.581 27.259 73.478 27.221 31.006-.039 67.528-6.804 104.455-14.39 37.121-7.626 74.682-16.086 108.415-19.816 33.87-3.746 62.824-2.571 83.106 8.215l4.226-7.946c-22.85-12.151-54.193-12.989-88.322-9.215-34.267 3.79-72.41 12.381-109.236 19.946-37.02 7.605-72.689 14.169-102.656 14.206-30.077.037-53.106-6.504-66.33-23.706l-7.136 5.485Z" fill="#000"/></svg>