<?xml version="1.0" standalone="no"?>
<!DOCTYPE svg PUBLIC "-//W3C//DTD SVG 1.1//EN" "http://www.w3.org/Graphics/SVG/1.1/DTD/svg11.dtd" >
<svg xmlns="http://www.w3.org/2000/svg" xmlns:xlink="http://www.w3.org/1999/xlink" version="1.1">
<metadata>
Created by FontForge 20170731 at Tue Oct  7 21:08:21 2014
 By Aleksey,,,
Copyright (c) 2013, Juergen Huber and Martin Wenzel. All rights reserved.
</metadata>
<defs>
<font id="MMTextProWebTT-Regular" horiz-adv-x="368">
  <font-face font-family="MM Text Pro WebTT Regular" font-weight="400" font-stretch="condensed" units-per-em="1000" panose-1="2 11 5 6 3 5 0 2 2 4" ascent="800" descent="-200" x-height="520" cap-height="660" bbox="-71 -216 927 948" underline-thickness="66" underline-position="-166" unicode-range="U+0020-FB02"></font-face>
<missing-glyph horiz-adv-x="505" d="M50 0v660h405v-660h-405zM100 50h305v560h-305v-560z"></missing-glyph>
    <glyph glyph-name="f_i" unicode="fi" horiz-adv-x="541" d="M478 0h-108v411l-181 -11v-400h-109v394l-49 -3v82l49 10v54q0 49 9 80.5t26.5 49.5t42.5 25t57 7q38 0 62 -4t36 -7l-8 -91q-9 2 -27.5 4t-44.5 2q-25 0 -41 -3q-2 -10 -3 -27.5t-1 -42.5v-41l290 17v-506zM481 575l-108 -9v98l108 9v-98z"></glyph>
    <glyph glyph-name=".notdef" horiz-adv-x="505" d="M50 0v660h405v-660h-405zM100 50h305v560h-305v-560z"></glyph>
    <glyph glyph-name=".null" horiz-adv-x="0"></glyph>
    <glyph glyph-name="nonmarkingreturn" horiz-adv-x="0"></glyph>
    <glyph glyph-name="space" unicode=" " horiz-adv-x="186"></glyph>
    <glyph glyph-name="exclam" unicode="!" horiz-adv-x="257" d="M176 194h-95l-12 464l123 11zM184 0h-115v116h115v-116z"></glyph>
    <glyph glyph-name="quotedbl" unicode="&#x22;" horiz-adv-x="353" d="M125 397h-69v263h103zM279 397h-69v263h103z"></glyph>
    <glyph glyph-name="numbersign" unicode="#" horiz-adv-x="598" d="M257 493h140l30 167h85l-30 -167h88l-15 -77h-87l-29 -164h89l-15 -77h-88l-31 -175h-85l31 175h-140l-31 -175h-85l31 175h-86l14 77h86l29 164h-88l15 77h87l30 167h85zM214 252h140l29 164h-140z"></glyph>
    <glyph glyph-name="dollar" unicode="$" horiz-adv-x="398" d="M362 165q0 -72 -30.5 -112.5t-89.5 -54.5v-109h-82v102q-35 2 -68 6t-47 9l6 105q15 -5 49.5 -12t76.5 -7q20 0 38 2.5t32 6.5q3 11 4 22.5t1 21.5q0 36 -13.5 62t-42.5 55l-69 70q-16 16 -31.5 34.5t-28 40.5t-20 46.5t-7.5 51.5q0 68 33 108t93 51v107h82v-103
q41 -2 66 -7.5t33 -7.5l-10 -97q-14 4 -43 9.5t-69 5.5q-36 0 -55.5 -14t-19.5 -47q0 -28 14 -51.5t39 -49.5l71 -74q17 -17 33 -35.5t28 -39t19.5 -44t7.5 -51.5z"></glyph>
    <glyph glyph-name="percent" unicode="%" horiz-adv-x="661" d="M287 502q0 -51 -10 -84t-28.5 -52t-44.5 -26.5t-57 -7.5q-30 0 -51.5 7.5t-35 27t-20 52.5t-6.5 83q0 51 10 84t28 52t44 26.5t58 7.5q30 0 51.5 -7.5t35 -27t20 -52.5t6.5 -83zM628 158q0 -51 -10 -84t-28 -52t-44 -26.5t-58 -7.5q-30 0 -51 7.5t-34.5 27t-20 52.5
t-6.5 83q0 51 10 84t28 52t43.5 26.5t57.5 7.5q30 0 51.5 -7.5t35 -27t20 -52.5t6.5 -83zM561 660l-375 -660h-86l375 660h86zM548 158q0 38 -3 61t-7 40q-5 2 -12.5 3t-15.5 1q-13 0 -23 -4t-17 -15.5t-10.5 -32t-3.5 -53.5q0 -38 2.5 -61.5t6.5 -40.5q10 -3 28 -3
q13 0 23.5 4t17.5 15.5t10.5 32t3.5 53.5zM206 502q0 38 -2.5 61t-6.5 40q-5 2 -12.5 3t-15.5 1q-14 0 -24 -4t-16.5 -15.5t-10 -32t-3.5 -53.5q0 -38 2 -61.5t6 -40.5q12 -3 29 -3q13 0 23 4t17 15.5t10.5 32t3.5 53.5z"></glyph>
    <glyph glyph-name="ampersand" unicode="&#x26;" horiz-adv-x="511" d="M472 291h-79v-269q-21 -11 -65 -21.5t-97 -10.5q-45 0 -79.5 9.5t-58 33t-35.5 64.5t-12 104q0 115 82 155q-29 25 -45 61.5t-16 90.5q0 44 13 74.5t36 49.5t54 27.5t68 8.5q45 0 71.5 -4.5t49.5 -12.5l-11 -93q-23 5 -47 8.5t-56 3.5q-38 0 -54.5 -15t-16.5 -51
q0 -25 3.5 -44t9 -33.5t12.5 -25l13 -19.5h270zM232 86q35 0 59 7v198h-28q-41 0 -63 -1.5t-36 -3.5q-10 -31 -10 -82q0 -66 17.5 -92t60.5 -26z"></glyph>
    <glyph glyph-name="quotesingle" unicode="'" horiz-adv-x="199" d="M125 397h-69v263h103z"></glyph>
    <glyph glyph-name="parenleft" unicode="(" horiz-adv-x="244" d="M44 298q0 72 7.5 132t21 112t32 98t39.5 89l71 -23q-18 -45 -33.5 -89.5t-26 -93t-16.5 -103.5t-6 -121t5.5 -120.5t16 -102.5t25.5 -92t34 -89l-73 -24q-20 43 -38 88t-31 97t-20.5 111.5t-7.5 130.5z"></glyph>
    <glyph glyph-name="parenright" unicode=")" horiz-adv-x="244" d="M200 302q0 -72 -7.5 -132t-21 -112t-32 -98t-39.5 -89l-71 23q18 45 33.5 89.5t26 93t16.5 103.5t6 121t-5.5 120.5t-16 102.5t-25.5 92t-34 89l73 24q20 -43 38 -88t31 -97t20.5 -111.5t7.5 -130.5z"></glyph>
    <glyph glyph-name="asterisk" unicode="*" horiz-adv-x="487" d="M455 482l-58 -18q-6 -2 -18 -5t-27 -6.5t-31 -7t-31 -6.5q21 -22 43 -46t30 -35l36 -50l-64 -47l-36 50q-4 5 -10.5 15.5t-14 23.5t-16 27.5t-15.5 27.5q-7 -13 -15 -27.5t-15.5 -27t-14 -23t-10.5 -16.5l-36 -50l-64 47l36 50q4 5 12 14.5t18 20.5t21 23t21 23
q-15 3 -31 6.5t-30.5 6.5t-26.5 6t-19 6l-57 18l24 75l58 -19q6 -2 17.5 -7t25.5 -11t28.5 -13t28.5 -13q-2 15 -3.5 31t-3 31.5t-2.5 28t-1 19.5v61h79v-61q0 -7 -1 -19.5t-2.5 -28t-3.5 -31.5t-4 -31q13 6 28 13t29 13t25.5 11t18.5 7l58 19z"></glyph>
    <glyph glyph-name="plus" unicode="+" horiz-adv-x="440" d="M406 269h-141v-161h-91v161h-140v88h140v159h91v-159h141v-88z"></glyph>
    <glyph glyph-name="comma" unicode="," horiz-adv-x="212" d="M159 20l-45 -130h-61v229h106v-99z"></glyph>
    <glyph glyph-name="hyphen" unicode="-" horiz-adv-x="365" d="M308 267h-251v95h251v-95z"></glyph>
    <glyph glyph-name="period" unicode="." horiz-adv-x="218" d="M165 0h-112v119h112v-119z"></glyph>
    <glyph glyph-name="slash" unicode="/" horiz-adv-x="390" d="M374 720l-268 -840h-90l268 840h90z"></glyph>
    <glyph glyph-name="zero" unicode="0" horiz-adv-x="501" d="M453 336q0 -104 -14.5 -171t-42.5 -106.5t-68 -55t-92 -15.5q-50 0 -86 11.5t-58.5 47.5t-33 102t-10.5 176q0 103 14.5 170t42 106.5t67.5 55t92 15.5q50 0 86 -11.5t59 -47t33.5 -102t10.5 -175.5zM342 329q0 92 -8 148t-17 91q-22 5 -51 5t-49 -9t-33 -35.5t-19 -73.5
t-6 -123q0 -92 7.5 -148.5t16.5 -91.5q23 -5 52 -5q28 0 48.5 9.5t33.5 35.5t19 73.5t6 123.5z"></glyph>
    <glyph glyph-name="one" unicode="1" horiz-adv-x="330" d="M258 0h-109v545l-115 -22l-6 96l186 41h44v-660z"></glyph>
    <glyph glyph-name="two" unicode="2" horiz-adv-x="425" d="M380 516q0 -35 -6 -63.5t-17.5 -54t-28.5 -49t-38 -47.5l-67 -76q-20 -23 -32.5 -40t-19.5 -30t-9.5 -22.5t-2.5 -18.5v-12h219l-5 -103h-329q-2 7 -4 23.5t-2 40.5q0 30 4 54.5t14.5 49.5t29.5 52.5t50 62.5l69 79q16 18 28 34.5t19.5 33t11.5 34.5t4 40q0 18 -2.5 32
t-5.5 25q-20 3 -49 3q-47 0 -83.5 -6.5t-63.5 -13.5l-9 102q26 8 68 15.5t102 7.5q82 0 118.5 -38t36.5 -115z"></glyph>
    <glyph glyph-name="three" unicode="3" horiz-adv-x="428" d="M376 511q0 -51 -20 -92t-52 -65q37 -19 56.5 -54t19.5 -90q0 -113 -52.5 -166t-158.5 -53q-41 0 -74 4.5t-56 10.5l8 100q20 -5 50 -9t65 -4q57 0 82 26.5t25 85.5q0 20 -3.5 40.5t-8.5 37.5q-15 2 -32.5 2.5t-33.5 0.5q-21 0 -45.5 -0.5t-48.5 -2.5l-2 95q3 0 11.5 0.5
t19 1.5t22 1.5t19.5 0.5q58 2 79 30t21 84q0 14 -2.5 32t-5.5 32q-11 2 -23.5 3t-29.5 1q-45 0 -83.5 -5.5t-65.5 -12.5l-7 99q24 8 64.5 16t100.5 8q84 0 122.5 -39t38.5 -119z"></glyph>
    <glyph glyph-name="four" unicode="4" horiz-adv-x="486" d="M449 144h-73v-144h-105v144h-231l-12 96l189 420h159v-420h79zM274 567h-3l-136 -329h137z"></glyph>
    <glyph glyph-name="five" unicode="5" horiz-adv-x="429" d="M385 226q0 -119 -56.5 -177t-162.5 -58q-42 0 -73 5t-54 12l12 100q17 -4 45 -9t64 -5q60 0 87 28t27 90q0 26 -2 46.5t-6 37.5q-8 1 -19 1.5t-25 0.5q-38 0 -71.5 -5t-53.5 -10l-35 27v350h313v-104h-207v-171q12 5 33 9t45 4q70 0 104.5 -39t34.5 -133z"></glyph>
    <glyph glyph-name="six" unicode="6" horiz-adv-x="465" d="M390 555q-15 4 -43.5 7.5t-63.5 3.5q-30 0 -52.5 -6.5t-37.5 -25.5t-23.5 -52t-10.5 -85q20 9 52 18t74 9q39 0 65.5 -11t43 -35.5t23.5 -64t7 -95.5q0 -63 -13.5 -106.5t-38.5 -71t-60.5 -40t-80.5 -12.5q-48 0 -83 11.5t-57 45.5t-32.5 94.5t-10.5 158.5
q0 108 13.5 179.5t42 114t71.5 60t103 17.5q39 0 68.5 -3.5t50.5 -7.5zM248 332q-28 0 -51 -3t-39 -8q0 -78 7.5 -139t18.5 -93q8 -2 18.5 -3t29.5 -1q26 0 42.5 6.5t26 21.5t13 39t3.5 59q0 14 -1 31t-2 33t-3 29.5t-3 19.5q-9 2 -24 5t-36 3z"></glyph>
    <glyph glyph-name="seven" unicode="7" horiz-adv-x="388" d="M104 274q5 19 23 56t40.5 78t45.5 81.5t39 67.5h-217v103h325v-103q-44 -69 -81.5 -143t-70.5 -162q-8 -53 -12.5 -120t-6.5 -132h-112q1 31 3.5 69.5t5.5 77t7.5 72.5t10.5 55z"></glyph>
    <glyph glyph-name="eight" unicode="8" horiz-adv-x="472" d="M415 500q0 -62 -21 -101t-55 -56q39 -17 63 -56.5t24 -111.5q0 -96 -49 -141t-148 -45q-50 0 -84.5 10t-56 32.5t-31.5 57.5t-10 86q0 69 23.5 107.5t62.5 55.5q-33 17 -54 57.5t-21 104.5q0 88 50.5 129.5t133.5 41.5q91 0 132 -40t41 -131zM311 486q0 33 -4 54.5
t-8 33.5q-15 6 -53 6q-42 0 -63 -19.5t-21 -79.5q0 -39 11 -64t19 -37l62 1q30 0 43.5 24t13.5 81zM318 191q0 41 -12.5 66.5t-20.5 36.5h-61q-37 0 -53 -23.5t-16 -84.5q0 -38 4.5 -61t9.5 -34q9 -3 22.5 -4.5t35.5 -1.5q26 0 43.5 4t28 16t15 32.5t4.5 53.5z"></glyph>
    <glyph glyph-name="nine" unicode="9" horiz-adv-x="467" d="M68 108q17 -4 44 -8.5t69 -4.5q35 0 58.5 6t37.5 22.5t20.5 47t8.5 80.5q-20 -8 -52.5 -16.5t-71.5 -8.5t-66 11.5t-43.5 37t-23.5 65t-7 95.5q0 68 15.5 113.5t41.5 72.5t61.5 38.5t76.5 11.5q48 0 82.5 -11.5t56.5 -45t32 -94t10 -157.5q0 -109 -11.5 -181t-38 -114.5
t-71 -59.5t-110.5 -17q-42 0 -72 4.5t-52 9.5zM219 318q27 0 49.5 3t39.5 7q-1 80 -6.5 145t-17.5 98q-4 1 -15 2t-29 1q-24 0 -41.5 -5.5t-29 -20t-17 -40t-5.5 -65.5q0 -42 3.5 -73.5t5.5 -44.5q9 -2 25 -4.5t38 -2.5z"></glyph>
    <glyph glyph-name="colon" unicode=":" horiz-adv-x="226" d="M169 0h-112v119h112v-119zM169 401h-112v119h112v-119z"></glyph>
    <glyph glyph-name="semicolon" unicode=";" horiz-adv-x="222" d="M165 20l-45 -130h-61v229h106v-99zM166 401h-112v119h112v-119z"></glyph>
    <glyph glyph-name="less" unicode="&#x3c;" horiz-adv-x="440" d="M385 423l-231 -116v-2l231 -117v-93l-348 178v66l348 178v-94z"></glyph>
    <glyph glyph-name="equal" unicode="=" horiz-adv-x="440" d="M396 198h-352v83h352v-83zM396 344h-352v82h352v-82z"></glyph>
    <glyph glyph-name="greater" unicode="&#x3e;" horiz-adv-x="440" d="M55 189l231 116v2l-231 117v93l348 -178v-66l-348 -178v94z"></glyph>
    <glyph glyph-name="question" unicode="?" horiz-adv-x="366" d="M173 393q27 28 39 55.5t12 65.5q0 12 -2 27t-5 24q-5 2 -20 4t-38 2q-40 0 -68.5 -5.5t-50.5 -12.5l-10 97q23 7 60.5 14.5t90.5 7.5q81 0 117.5 -34.5t36.5 -120.5q0 -36 -11.5 -68t-30.5 -60t-42 -53t-46 -47v-95h-103v126zM211 0h-115v116h115v-116z"></glyph>
    <glyph glyph-name="at" unicode="@" horiz-adv-x="678" d="M193 173q0 163 50.5 237t154.5 74q40 0 64.5 -7.5t41.5 -15.5l-63 -344q53 18 87 85t34 185q0 49 -6 79t-21 60q-25 10 -59.5 17.5t-81.5 7.5q-61 0 -112.5 -21t-88.5 -65t-57.5 -112t-20.5 -162q0 -72 12 -114t27 -68q18 -5 45.5 -8t65.5 -3q24 0 48 2t45 5.5t38 7.5
t27 7l-4 -64q-25 -8 -70 -15t-91 -7q-64 0 -105 15.5t-65 47t-33.5 79t-9.5 111.5q0 108 26.5 188.5t74 133.5t112 79t140.5 26q68 0 112.5 -14.5t71 -43t37.5 -71t11 -97.5q0 -77 -17.5 -138t-48.5 -103t-73 -64t-91 -22q-10 0 -19.5 1t-18.5 3l13 94q-12 -17 -26 -34.5
t-30 -31.5t-33.5 -23t-34.5 -9q-16 0 -27 10t-18 25.5t-10 35.5t-3 41zM276 150q32 14 58 36t45 45l33 180q-8 2 -16 3t-16 1q-51 0 -77.5 -60t-26.5 -190v-15z"></glyph>
    <glyph glyph-name="A" unicode="A" horiz-adv-x="470" d="M7 0l167 660h132l148 -660h-114l-28 147h-163l-32 -147h-110zM167 234h129l-48 265q-5 26 -7.5 41.5t-3.5 29.5h-3q-1 -14 -3 -30t-7 -42z"></glyph>
    <glyph glyph-name="B" unicode="B" horiz-adv-x="469" d="M424 200q0 -106 -50.5 -153t-153.5 -47h-156v660q16 1 33 2t37.5 2t44.5 1.5t55 0.5q93 0 135.5 -36.5t42.5 -129.5q0 -59 -16.5 -96.5t-54.5 -57.5q39 -14 61 -48.5t22 -97.5zM228 291q-14 0 -28.5 -0.5t-28.5 -1.5v-192h46q51 0 75.5 24t24.5 81q0 32 -6 52t-15 34
q-8 1 -28 2t-40 1zM227 572q-16 0 -30 -0.5t-26 -1.5v-194h44q28 0 46 4.5t28 16.5t13.5 32.5t3.5 53.5q0 25 -3.5 47.5t-9.5 35.5q-7 2 -23.5 4t-42.5 2z"></glyph>
    <glyph glyph-name="C" unicode="C" horiz-adv-x="406" d="M48 320q0 97 13.5 163.5t41 108t69 60t97.5 18.5q41 0 66 -5t41 -10l-10 -99q-11 2 -37 7.5t-58 5.5q-30 0 -51.5 -9.5t-35 -36t-20 -73.5t-6.5 -123q0 -49 2 -85.5t5.5 -64t7.5 -46.5t9 -34q11 -2 25.5 -3.5t32.5 -1.5q39 0 70.5 4.5t52.5 9.5l4 -97q-20 -6 -53 -12.5
t-75 -6.5q-55 0 -91.5 12.5t-58.5 48.5t-31.5 100.5t-9.5 168.5z"></glyph>
    <glyph glyph-name="D" unicode="D" horiz-adv-x="490" d="M443 345q0 -98 -14 -164.5t-42 -106.5t-70.5 -57t-98.5 -17h-154v660q24 2 68.5 4t95.5 2q59 0 100 -13t66.5 -48.5t37 -98t11.5 -161.5zM331 337q0 96 -11 148.5t-25 81.5q-23 3 -64 3q-15 0 -31 -0.5t-28 -1.5v-470h47q29 0 50 10t35 36t20.5 72.5t6.5 120.5z"></glyph>
    <glyph glyph-name="E" unicode="E" horiz-adv-x="408" d="M353 560h-181v-178h175v-98h-175v-183h190v-101h-298v660h296z"></glyph>
    <glyph glyph-name="F" unicode="F" horiz-adv-x="397" d="M350 560h-178v-216h172v-100h-172v-244h-108v660h292z"></glyph>
    <glyph glyph-name="G" unicode="G" horiz-adv-x="472" d="M419 23q-9 -4 -28 -9.5t-44 -11t-53 -9t-56 -3.5q-56 0 -92.5 13t-58 49.5t-30.5 101t-9 166.5q0 100 14 167t42.5 107.5t72 58t102.5 17.5q46 0 83 -7t55 -12l-10 -99q-13 3 -49 10t-77 7q-35 0 -58.5 -9t-37.5 -35t-20.5 -73.5t-6.5 -124.5q0 -49 2 -86t6 -64.5
t8 -47.5t9 -35q23 -5 51 -5q23 0 44 2.5t39 7.5v182h-60v96h162v-354z"></glyph>
    <glyph glyph-name="H" unicode="H" horiz-adv-x="522" d="M458 0h-108v282h-178v-282h-108v660h108v-277h178v277h108v-660z"></glyph>
    <glyph glyph-name="I" unicode="I" horiz-adv-x="237" d="M173 0h-109v660h109v-660z"></glyph>
    <glyph glyph-name="J" unicode="J" horiz-adv-x="238" d="M175 93q0 -44 -7.5 -74t-22.5 -54t-37 -45t-52 -45l-74 67q24 23 47.5 50.5t36.5 53.5v614h109v-567z"></glyph>
    <glyph glyph-name="K" unicode="K" horiz-adv-x="478" d="M289 336l173 -333l-118 -9l-143 291h-29v-285h-108v660h108v-279h33l137 279h112z"></glyph>
    <glyph glyph-name="L" unicode="L" horiz-adv-x="373" d="M343 0h-279v660h108v-559h181z"></glyph>
    <glyph glyph-name="M" unicode="M" horiz-adv-x="682" d="M629 0h-106l-10 426q-1 29 -1 52v38h-3q-3 -17 -7 -38.5t-10 -47.5l-104 -430h-100l-99 430q-6 26 -10.5 50t-6.5 37h-3v-37.5t-1 -53.5l-13 -426h-104l34 660h145l95 -425q7 -29 10.5 -53t5.5 -38h3q2 17 6 41.5t10 49.5l102 425h140z"></glyph>
    <glyph glyph-name="N" unicode="N" horiz-adv-x="524" d="M460 0h-109l-150 347q-11 26 -20.5 53t-14.5 41h-3q1 -14 1.5 -44t0.5 -62v-335h-101v660h108l150 -346q13 -30 22 -55t14 -42h3q-1 15 -2 42.5t-1 58.5v342h102v-660z"></glyph>
    <glyph glyph-name="O" unicode="O" horiz-adv-x="520" d="M474 339q0 -95 -15.5 -161.5t-45 -108.5t-72.5 -61.5t-98 -19.5q-50 0 -87 13.5t-61.5 50.5t-36.5 102t-12 168q0 95 15.5 161.5t45 108.5t72.5 61t98 19q51 0 88 -13.5t61 -50.5t36 -101.5t12 -167.5zM364 331q0 50 -2.5 87.5t-7 65t-9 47t-9.5 34.5q-10 3 -24.5 5.5
t-34.5 2.5q-30 0 -52.5 -10.5t-37.5 -37.5t-22.5 -74.5t-7.5 -121.5q0 -50 2.5 -87.5t6 -65.5t8.5 -47.5t10 -34.5q10 -3 25 -5t35 -2q30 0 52.5 10.5t37.5 38t22.5 74.5t7.5 121z"></glyph>
    <glyph glyph-name="P" unicode="P" horiz-adv-x="469" d="M433 457q0 -68 -16.5 -114t-46 -74t-69 -39.5t-85.5 -11.5h-44v-218h-108v660q35 2 74.5 4t95.5 2q57 0 95 -10.5t61 -34.5t33 -64t10 -100zM172 314h40q25 0 46 4.5t36 18t23 39.5t8 69q0 41 -6.5 73.5t-11.5 46.5q-11 2 -27 4t-44 2q-31 0 -64 -3v-254z"></glyph>
    <glyph glyph-name="Q" unicode="Q" horiz-adv-x="520" d="M474 339q0 -112 -21 -184.5t-62 -112.5l110 -95l-73 -77l-134 123q-12 -2 -24.5 -3.5t-26.5 -1.5q-50 0 -87 13.5t-61.5 50.5t-36.5 102t-12 168q0 95 15.5 161.5t45 108.5t72.5 61t98 19q51 0 88 -13.5t61 -50.5t36 -101.5t12 -167.5zM364 331q0 50 -2.5 87.5t-7 65
t-9.5 47t-9 34.5q-10 3 -24.5 5.5t-34.5 2.5q-30 0 -52.5 -10.5t-37.5 -37.5t-22.5 -74.5t-7.5 -121.5q0 -50 2.5 -87.5t6 -65.5t8.5 -47.5t10 -34.5q10 -3 25 -5t35 -2q30 0 52.5 10.5t37.5 38t22.5 74.5t7.5 121z"></glyph>
    <glyph glyph-name="R" unicode="R" horiz-adv-x="478" d="M336 -6l-103 251h-61v-245h-108v660q35 2 75 4t103 2q54 0 90 -9.5t57 -32t30 -61t9 -95.5q0 -85 -21.5 -134t-72.5 -70l119 -261zM172 333h36q31 0 52.5 4.5t34.5 18t19 37t6 62.5q0 45 -5.5 70.5t-9.5 37.5q-9 2 -27.5 4.5t-42.5 2.5q-20 0 -35.5 -0.5t-27.5 -1.5v-235
z"></glyph>
    <glyph glyph-name="S" unicode="S" horiz-adv-x="399" d="M362 167q0 -88 -49 -132t-139 -44q-19 0 -38.5 1.5t-37 3.5t-31.5 5t-21 5l3 105q15 -5 48.5 -12t73.5 -7q23 0 42 2.5t33 7.5q6 21 6 44q0 36 -13.5 62.5t-45.5 58.5l-63 63q-16 15 -32 34t-28.5 40.5t-20.5 46.5t-8 53q0 84 49 124.5t132 40.5q51 0 81 -5.5t44 -9.5
l-7 -97q-17 4 -45.5 9t-66.5 5q-37 0 -57 -14t-20 -48q0 -30 15 -54.5t44 -52.5l62 -62q17 -17 33 -35.5t29 -39.5t20.5 -45t7.5 -53z"></glyph>
    <glyph glyph-name="T" unicode="T" horiz-adv-x="426" d="M392 560h-123v-560h-109v560h-128v100h365z"></glyph>
    <glyph glyph-name="U" unicode="U" horiz-adv-x="508" d="M447 218q0 -66 -14 -110.5t-40 -71t-63 -37.5t-83 -11q-53 0 -88.5 11t-57.5 36.5t-31 66.5t-9 101v457h108v-439q0 -44 3 -74t7 -50q15 -3 31.5 -5t33.5 -2q27 0 46 6.5t30 21.5t16 40.5t5 63.5v438h106v-442z"></glyph>
    <glyph glyph-name="V" unicode="V" horiz-adv-x="466" d="M294 0h-129l-144 660h110l85 -445q6 -31 9.5 -58.5t5.5 -53.5h3q2 26 5.5 52t10.5 59l94 446h109z"></glyph>
    <glyph glyph-name="W" unicode="W" horiz-adv-x="707" d="M570 0h-135l-68 382q-5 29 -8 50.5t-6 43.5h-3q-2 -22 -4.5 -43t-8.5 -52l-77 -381h-129l-102 660h109l55 -438q4 -30 6.5 -51.5t3.5 -44.5h3q2 22 5 43.5t9 54.5l84 436h104l79 -438q6 -33 9 -53.5t5 -42.5h3q1 23 3 44.5t7 52.5l62 437h108z"></glyph>
    <glyph glyph-name="X" unicode="X" horiz-adv-x="475" d="M322 336l133 -336h-113l-87 231q-15 39 -20 70h-3q-3 -14 -8 -32.5t-13 -38.5l-85 -230h-108l130 339l-114 321h112l70 -217q15 -44 19 -71h3q3 14 8.5 31.5t13.5 40.5l78 216h109z"></glyph>
    <glyph glyph-name="Y" unicode="Y" horiz-adv-x="448" d="M278 241v-241h-109v238l-152 422h112l74 -241q8 -25 13.5 -47t7.5 -39h3q2 17 8 39t14 48l77 240h107z"></glyph>
    <glyph glyph-name="Z" unicode="Z" horiz-adv-x="424" d="M376 560l-219 -459h234l-9 -101h-348v101l224 459h-204v100h322v-100z"></glyph>
    <glyph glyph-name="bracketleft" unicode="[" horiz-adv-x="290" d="M255 645h-100v-690h100v-75h-185v840h185v-75z"></glyph>
    <glyph glyph-name="backslash" unicode="\" horiz-adv-x="405" d="M106 720l283 -840h-90l-283 840h90z"></glyph>
    <glyph glyph-name="bracketright" unicode="]" horiz-adv-x="290" d="M35 -45h100v690h-100v75h185v-840h-185v75z"></glyph>
    <glyph glyph-name="asciicircum" unicode="^" horiz-adv-x="465" d="M294 660l137 -250h-93l-107 189l-107 -189h-90l137 250h123z"></glyph>
    <glyph glyph-name="underscore" unicode="_" horiz-adv-x="463" d="M408 -95h-353v95h353v-95z"></glyph>
    <glyph glyph-name="grave" unicode="`" d="M263 574l-203 73l37 86l191 -104z"></glyph>
    <glyph glyph-name="a" unicode="a" horiz-adv-x="450" d="M290 0v47q-17 -18 -48 -37t-78 -19q-60 0 -94.5 37.5t-34.5 124.5q0 42 14.5 71.5t39.5 47.5t58 26t70 8q19 0 36 -1.5t30 -3.5v42q0 29 -2.5 50t-5.5 31q-7 3 -20.5 6t-42.5 3q-40 0 -74.5 -8.5t-56.5 -16.5l-15 91q23 10 73 21.5t114 11.5q69 0 103.5 -33t34.5 -112
v-387h-101zM203 80q24 0 44.5 7.5t35.5 16.5v122q-13 2 -30 2.5t-34 0.5q-35 0 -57 -15.5t-22 -56.5q0 -24 3.5 -41t8.5 -31q10 -3 22.5 -4t28.5 -1z"></glyph>
    <glyph glyph-name="b" unicode="b" horiz-adv-x="499" d="M454 284q0 -83 -16.5 -139t-47.5 -90.5t-76 -49.5t-102 -15q-54 0 -90.5 8t-61.5 18v670l108 11v-218q24 17 61.5 35t83.5 18q39 0 66 -13.5t43.5 -43t24 -77t7.5 -114.5zM278 432q-32 0 -60 -8.5t-50 -19.5v-315q13 -5 52 -5q30 0 53 8.5t39 30.5t24 59t8 94q0 55 -3 89
t-11 60q-5 2 -18.5 4.5t-33.5 2.5z"></glyph>
    <glyph glyph-name="c" unicode="c" horiz-adv-x="392" d="M354 20q-17 -8 -56 -19t-91 -11q-44 0 -74.5 13.5t-50.5 45t-29 82.5t-9 127t14 128t41 84t67 46t91 14q35 0 60.5 -5.5t39.5 -10.5l-13 -97q-11 4 -34.5 8.5t-48.5 4.5q-28 0 -48.5 -7t-33.5 -25.5t-19.5 -50.5t-6.5 -83q0 -63 6.5 -104t14.5 -69q7 -1 11.5 -1h11.5
q45 0 80.5 7t65.5 17z"></glyph>
    <glyph glyph-name="d" unicode="d" horiz-adv-x="497" d="M436 0h-102v49q-11 -10 -25.5 -20.5t-33.5 -19.5t-41 -15t-48 -6q-33 0 -59 13.5t-44.5 45t-28.5 83t-10 128.5q0 79 19 131t51.5 82.5t76 42.5t92.5 12q24 0 44 -3v163l109 11v-697zM224 88q30 0 56 8.5t47 19.5v313q-15 3 -43 3q-33 0 -57.5 -7t-41 -25t-24.5 -50.5
t-8 -83.5t5.5 -97.5t13.5 -75.5q7 -2 19 -3.5t33 -1.5z"></glyph>
    <glyph glyph-name="e" unicode="e" horiz-adv-x="447" d="M403 352q0 -43 -2.5 -76.5t-4.5 -56.5l-241 -13q2 -37 6.5 -66t9.5 -50q9 -2 23 -3.5t37 -1.5q51 0 92 9.5t61 17.5l11 -91q-19 -10 -62.5 -21.5t-111.5 -11.5q-51 0 -85 15t-54.5 47.5t-29 84t-8.5 125.5q0 76 15 128.5t42 84t64.5 45.5t82.5 14q44 0 74 -12t48 -35
t25.5 -56.5t7.5 -76.5zM248 443q-21 0 -38 -5.5t-29 -22.5t-19 -49t-8 -84l143 8q2 15 2 27.5v29.5q0 24 -3 49t-8 42q-5 2 -15 3.5t-25 1.5z"></glyph>
    <glyph glyph-name="f" unicode="f" horiz-adv-x="324" d="M299 401l-110 -4v-397h-109v393l-49 -2v82l49 10v54q0 49 9 80.5t26.5 49.5t42.5 25t57 7q39 0 66 -4.5t39 -7.5l-8 -91q-10 2 -30 4.5t-48 2.5q-26 0 -42 -3q-2 -10 -3 -27.5t-1 -42.5v-43l114 4z"></glyph>
    <glyph glyph-name="g" unicode="g" horiz-adv-x="465" d="M436 -5q0 -70 -56 -111t-168 -41q-96 0 -137.5 25t-41.5 77q0 38 21 60.5t47 35.5l-42 33q6 32 19.5 63.5t28.5 57.5q-38 23 -53 62.5t-15 93.5q0 89 53.5 134t145.5 45q16 0 29.5 -1.5t26.5 -3.5l13 109l119 13v-21l-58 -131q31 -24 44 -61.5t13 -86.5q0 -88 -55 -133
t-145 -45q-12 0 -22.5 0.5t-21.5 1.5q-14 -26 -23 -60h99q95 0 137 -26t42 -90zM318 345q0 32 -3 56.5t-6 34.5q-5 2 -24.5 5.5t-44.5 3.5q-26 0 -44 -4.5t-29 -15t-16 -28.5t-5 -46q0 -32 3 -56t5 -33q6 -2 25.5 -6t43.5 -4q53 0 74 19t21 74zM153 25q-10 -10 -15.5 -23.5
t-5.5 -34.5q0 -11 1 -21.5t3 -15.5q8 -3 29 -6t53 -3q35 0 57.5 4.5t36 13t18.5 20t5 25.5q0 10 -1 20.5t-3 15.5q-11 2 -28.5 3.5t-50.5 1.5h-99z"></glyph>
    <glyph glyph-name="h" unicode="h" horiz-adv-x="506" d="M338 0v350q0 30 -1.5 46.5t-5.5 29.5q-7 2 -18 4t-28 2q-35 0 -64.5 -9.5t-51.5 -20.5v-402h-108v686l108 11v-214q26 16 67 32.5t88 16.5q64 0 93.5 -29t29.5 -100v-403h-109z"></glyph>
    <glyph glyph-name="i" unicode="i" horiz-adv-x="234" d="M171 0h-108v517l108 9v-526zM174 597l-114 -9v92l114 9v-92z"></glyph>
    <glyph glyph-name="j" unicode="j" horiz-adv-x="229" d="M168 60q0 -44 -7 -74t-21.5 -54t-36.5 -45t-53 -46l-73 64q25 25 46.5 52.5t36.5 53.5v506l108 9v-466zM171 597l-114 -9v92l114 9v-92z"></glyph>
    <glyph glyph-name="k" unicode="k" horiz-adv-x="450" d="M322 -6l-124 230h-29v-224h-108v686l108 11v-383h29l123 206l115 3l-151 -248l159 -272z"></glyph>
    <glyph glyph-name="l" unicode="l" horiz-adv-x="234" d="M171 0h-108v686l108 11v-697z"></glyph>
    <glyph glyph-name="m" unicode="m" horiz-adv-x="761" d="M327 0v343q0 24 -1.5 45t-5.5 38q-4 2 -16 4t-26 2q-32 -1 -60 -8.5t-49 -18.5v-405h-108v517l101 9v-46q12 7 28.5 16.5t36 17t42 13t46.5 5.5q42 0 68 -13.5t39 -42.5q11 7 27.5 16.5t37.5 18.5t45 15t50 6q63 0 91.5 -30t28.5 -100v-402h-109v343q0 24 -1 45t-6 38
q-4 2 -16 4t-26 2q-33 -1 -60.5 -9t-48.5 -18v-405h-108z"></glyph>
    <glyph glyph-name="n" unicode="n" horiz-adv-x="505" d="M338 0v350q0 30 -2 46.5t-5 29.5q-8 2 -18.5 4t-27.5 2q-35 0 -64.5 -9.5t-51.5 -20.5v-402h-108v517l101 9v-48q13 8 30.5 17.5t38 17.5t44 13.5t48.5 5.5q64 0 93.5 -29t29.5 -100v-403h-108z"></glyph>
    <glyph glyph-name="o" unicode="o" horiz-adv-x="489" d="M445 265q0 -80 -17 -133t-47 -85t-70.5 -45.5t-86.5 -13.5q-48 0 -82 14t-56 46t-32 83t-10 125q0 79 17 132.5t47 85t70 45t86 13.5q48 0 82.5 -14t56 -46t32 -83t10.5 -124zM334 258q0 68 -6 107t-14 65q-9 2 -22 4t-29 2q-25 0 -45 -5.5t-34 -24t-21.5 -53t-7.5 -91.5
q0 -69 5 -107.5t13 -64.5q9 -2 22 -4t30 -2q25 0 45 5.5t34 24t22 53t8 91.5z"></glyph>
    <glyph glyph-name="p" unicode="p" horiz-adv-x="499" d="M454 284q0 -85 -16.5 -141t-47.5 -89t-76.5 -46.5t-102.5 -13.5q-11 0 -22.5 0.5t-19.5 1.5v-142l-108 -11v674l101 9v-53q24 20 61 39.5t89 19.5q39 0 66 -12.5t44 -41.5t24.5 -76.5t7.5 -117.5zM281 432q-35 0 -63 -8.5t-49 -19.5v-313q8 -2 20 -3t30 -1q28 0 51.5 6
t40 25.5t25.5 54.5t9 94q0 54 -5 95t-11 66q-6 2 -17 3t-31 1z"></glyph>
    <glyph glyph-name="q" unicode="q" horiz-adv-x="497" d="M436 -146l-109 -11v195q-22 -18 -57 -34t-85 -16q-38 0 -64.5 15t-43.5 47t-25 83t-8 123q0 75 18 127t49.5 84.5t72.5 47t88 14.5q24 0 43 -4.5t33 -11.5l88 16v-675zM222 88q30 0 56.5 7.5t48.5 18.5v317q-9 2 -20 3t-25 1q-32 0 -56 -8t-40 -27.5t-24.5 -52
t-8.5 -82.5q0 -22 1.5 -46t4 -47t6 -43.5t7.5 -34.5q5 -2 17 -4t33 -2z"></glyph>
    <glyph glyph-name="r" unicode="r" horiz-adv-x="328" d="M280 529q11 0 18.5 -1t13.5 -3l-7 -99q-48 -2 -80 -17t-56 -35v-374h-108v517l101 9v-91h2q9 16 20.5 33t26 30.5t32 22t37.5 8.5z"></glyph>
    <glyph glyph-name="s" unicode="s" horiz-adv-x="364" d="M328 135q0 -75 -43 -109.5t-118 -34.5q-37 0 -73 3.5t-53 9.5l6 104q11 -5 42.5 -11.5t67.5 -6.5q20 0 33.5 2t22.5 6q1 6 2 13t1 17q0 20 -10 36t-37 42l-51 48q-27 26 -51 61.5t-24 80.5q0 66 42.5 99.5t111.5 33.5q44 0 74.5 -6t41.5 -10l-7 -96q-14 4 -41 9t-59 5
q-53 0 -53 -41q0 -20 13 -36t32 -33l51 -48q14 -13 28 -27.5t25.5 -31.5t18.5 -36.5t7 -42.5z"></glyph>
    <glyph glyph-name="t" unicode="t" horiz-adv-x="318" d="M293 433l-108 -5v-262q0 -19 1 -41.5t3 -39.5h5q33 0 55.5 4.5t36.5 8.5l6 -88q-15 -8 -42.5 -15t-61.5 -7q-29 0 -50 7t-34.5 23.5t-20 44t-6.5 69.5v292l-50 -2v83l51 9l10 102l97 11v-109l111 4z"></glyph>
    <glyph glyph-name="u" unicode="u" horiz-adv-x="504" d="M443 0h-101v48q-11 -8 -27.5 -18.5t-37 -19.5t-45 -15t-52.5 -6q-64 0 -92.5 31t-28.5 106v391l108 9v-354q0 -52 7 -76q4 -2 15 -4t26 -2q35 0 66 11t54 23v393l108 9v-526z"></glyph>
    <glyph glyph-name="v" unicode="v" horiz-adv-x="452" d="M287 0h-126l-141 520h116l69 -312q8 -34 13 -60.5t7 -50.5h3q3 22 8.5 49.5t13.5 61.5l79 312h108z"></glyph>
    <glyph glyph-name="w" unicode="w" horiz-adv-x="673" d="M537 0h-118l-64 267q-8 34 -13 60.5t-7 50.5h-3q-3 -22 -8.5 -49.5t-13.5 -61.5l-69 -267h-111l-103 520h109l42 -286q5 -32 8.5 -63t5.5 -52h3q6 45 23 112l73 289h93l70 -290q8 -32 13.5 -60.5t9.5 -50.5h3q2 22 5.5 50.5t10.5 63.5l54 287h102z"></glyph>
    <glyph glyph-name="x" unicode="x" horiz-adv-x="442" d="M304 274l119 -271l-111 -12l-65 175q-9 24 -15 44.5t-10 36.5h-3q-6 -22 -11.5 -39t-15.5 -43l-62 -165h-117l123 274l-100 243l104 12l57 -147q8 -20 14 -38.5t11 -38.5h3q6 21 12.5 39t14.5 38l58 138h108z"></glyph>
    <glyph glyph-name="y" unicode="y" horiz-adv-x="455" d="M296 -16q-10 -39 -22.5 -65.5t-30.5 -43t-42.5 -24t-57.5 -7.5q-43 0 -67.5 5.5t-33.5 8.5l4 95q9 -3 32 -8.5t58 -5.5q32 0 48 18t26 66l3 17h-67l-126 480h113l74 -315q15 -61 21 -106h3q3 21 7.5 48t12.5 58l74 315h111z"></glyph>
    <glyph glyph-name="z" unicode="z" horiz-adv-x="392" d="M350 426l-196 -332h202l-9 -94h-314v94l196 332h-175v94h296v-94z"></glyph>
    <glyph glyph-name="braceleft" unicode="{" horiz-adv-x="297" d="M267 663q-32 -5 -52.5 -19.5t-20.5 -52.5v-149q0 -28 -5 -49t-16 -37.5t-30 -29.5t-47 -24v-3l98 -53v-197q0 -30 3.5 -49.5t11.5 -31.5t22.5 -19t36.5 -13l-27 -66q-30 6 -54 16.5t-41.5 29.5t-27 47.5t-9.5 69.5v181l-85 52v67q15 4 30 11.5t27 19t20 28.5t8 41v152
q0 36 10 62t27.5 43t41.5 26.5t53 13.5l26 -67v0z"></glyph>
    <glyph glyph-name="bar" unicode="|" horiz-adv-x="225" d="M155 -120h-85v840h85v-840z"></glyph>
    <glyph glyph-name="braceright" unicode="}" horiz-adv-x="297" d="M30 -64q32 5 52.5 19.5t20.5 52.5v149q0 28 5 49t16 37.5t30 29.5t47 24v3l-98 53v197q0 30 -3.5 49.5t-11.5 31.5t-22.5 19t-36.5 13l27 66q30 -6 54 -16.5t41.5 -29.5t27 -47.5t9.5 -69.5v-181l85 -52v-67q-15 -4 -30 -11.5t-27 -19t-20 -28.5t-8 -41v-152
q0 -36 -10 -62t-27.5 -43t-41.5 -26.5t-53 -13.5l-26 67v0z"></glyph>
    <glyph glyph-name="asciitilde" unicode="~" horiz-adv-x="440" d="M398 283q-21 -19 -44 -34t-45 -15t-46 9.5t-48 21.5t-47 23t-44 14l-71 -38l-11 73q21 19 44 34t45 15t45.5 -9.5t47.5 -21t47.5 -22.5t43.5 -14l72 37z"></glyph>
    <glyph glyph-name="uni00A0" unicode="&#xa0;" horiz-adv-x="186"></glyph>
    <glyph glyph-name="exclamdown" unicode="&#xa1;" horiz-adv-x="247" d="M77 326h95l12 -464l-123 -11zM69 520h115v-116h-115v116z"></glyph>
    <glyph glyph-name="cent" unicode="&#xa2;" horiz-adv-x="393" d="M185 -8q-39 2 -66.5 17t-45.5 46.5t-26 81t-8 121.5q0 63 9.5 109t28 77.5t45.5 50t63 26.5v112h82v-105q29 -2 51 -6.5t34 -9.5l-13 -97q-11 4 -34.5 8.5t-48.5 4.5q-28 0 -48.5 -6.5t-33.5 -24.5t-19.5 -50t-6.5 -83q0 -63 6.5 -104t15.5 -69q5 -1 10 -0.5t12 0.5
q45 0 80.5 7t65.5 17l11 -94q-11 -5 -32 -12t-50 -12v-110h-82v105z"></glyph>
    <glyph glyph-name="sterling" unicode="&#xa3;" horiz-adv-x="433" d="M364 267h-128l-80 -166h231l-10 -101h-331l-11 86l91 181h-76v73h72q-6 34 -10.5 59t-6.5 44t-3 33.5t-1 29.5q0 88 48.5 126t128.5 38q42 0 72.5 -6t38.5 -9l-13 -98q-10 3 -36 7.5t-50 4.5q-42 0 -60 -16t-18 -59q0 -11 0.5 -23.5t2.5 -30t5.5 -42t8.5 -58.5h135v-73z
"></glyph>
    <glyph glyph-name="currency" unicode="&#xa4;" horiz-adv-x="587" d="M468 447q33 -53 33 -115q0 -33 -8.5 -62t-24.5 -54l77 -76l-55 -56l-76 77q-26 -18 -56 -28.5t-65 -10.5t-65 10.5t-56 28.5l-76 -77l-54 56l77 76q-34 51 -34 116q0 62 34 115l-77 76l54 56l76 -76q26 17 56 27.5t65 10.5t65 -10.5t56 -28.5l76 78l55 -57zM411 332
q0 52 -32 86.5t-86 34.5t-86.5 -34.5t-32.5 -86.5q0 -53 32.5 -87.5t86.5 -34.5t86 34.5t32 87.5z"></glyph>
    <glyph glyph-name="yen" unicode="&#xa5;" horiz-adv-x="460" d="M304 326h99v-73h-120v-62h120v-73h-120v-118h-108v118h-120v73h120v62h-120v73h98l-120 334h111l85 -287h4l89 287h106z"></glyph>
    <glyph glyph-name="brokenbar" unicode="&#xa6;" horiz-adv-x="229" d="M157 377h-85v343h85v-343zM157 -120h-85v343h85v-343z"></glyph>
    <glyph glyph-name="section" unicode="&#xa7;" horiz-adv-x="478" d="M34 292q0 54 25.5 88.5t60.5 57.5q-12 19 -19 39t-7 43q0 37 13 64.5t36 46.5t55 28.5t71 9.5q55 0 89.5 -7.5t44.5 -10.5l-11 -96q-7 2 -20 5t-29.5 6t-34.5 5t-36 2q-34 0 -52.5 -12t-18.5 -42q0 -29 20.5 -49.5t49.5 -41.5l160 -120q8 -20 13 -44.5t5 -46.5
q0 -54 -26 -91t-64 -63q14 -28 14 -60q0 -82 -47 -122t-133 -40q-20 0 -41.5 1.5t-41 4t-34.5 5.5t-22 5l8 101q7 -2 20.5 -5.5t30.5 -6.5t37 -5t41 -2q23 0 42.5 3t34.5 7q1 8 1.5 16t0.5 14q0 19 -5.5 34.5t-16 29t-24.5 25.5t-30 25l-143 108q-6 17 -11.5 39t-5.5 52z
M203 353q-16 12 -34 28q-17 -15 -28 -34.5t-11 -45.5q0 -11 1 -19t3 -13l125 -95q14 -11 27.5 -23t26.5 -25q17 15 29 35t12 47q0 19 -4 31z"></glyph>
    <glyph glyph-name="dieresis" unicode="&#xa8;" d="M158 584l-108 -8v88l108 9v-89zM318 584l-108 -8v88l108 9v-89z"></glyph>
    <glyph glyph-name="copyright" unicode="&#xa9;" horiz-adv-x="644" d="M46 327q0 91 22.5 156t62 107t93.5 62t117 20q67 0 115.5 -17.5t80 -57t46.5 -104.5t15 -161q0 -90 -22.5 -155t-62 -107t-93.5 -62t-118 -20q-68 0 -116 17.5t-79.5 57.5t-46 105t-14.5 159zM114 331q0 -60 6 -103t15 -73.5t19.5 -50t19.5 -31.5q23 -8 51.5 -14.5
t76.5 -6.5q53 0 95.5 14t72 46t45.5 85.5t16 132.5q0 59 -6 101.5t-15 72.5t-19.5 49t-19.5 32q-23 10 -51.5 17t-78.5 7q-53 0 -95 -14t-71 -46t-45 -85.5t-16 -132.5zM201 323q0 112 31 166t109 54q26 0 43.5 -4t27.5 -7l-6 -73q-4 1 -21 4.5t-37 3.5q-19 0 -31 -5
t-19.5 -20.5t-10.5 -43.5t-3 -73q0 -54 3.5 -81.5t7.5 -44.5q6 -2 13.5 -2h16.5q24 0 45 3t35 6l1 -73q-12 -5 -35.5 -9t-47.5 -4q-38 0 -62 9.5t-37.5 33t-18 62.5t-4.5 98z"></glyph>
    <glyph glyph-name="ordfeminine" unicode="&#xaa;" horiz-adv-x="378" d="M238 264v37q-14 -14 -38 -29t-59 -15q-46 0 -72 30.5t-26 94.5q0 32 11 54.5t30 37t44 21.5t54 7q14 0 26.5 -1t22.5 -3v28q0 40 -5 58q-5 1 -15.5 3t-30.5 2q-31 0 -59.5 -6t-47.5 -12l-10 76q19 7 58.5 15t90.5 8q55 0 82 -25t27 -87v-294h-83zM173 329q17 0 32 4.5
t26 11.5v94q-10 1 -22 2t-23 1q-25 0 -41 -14t-16 -43q0 -17 2.5 -30t6.5 -23q6 -2 15.5 -2.5t19.5 -0.5z"></glyph>
    <glyph glyph-name="guillemotleft" unicode="&#xab;" horiz-adv-x="442" d="M138 275l88 -203h-97l-89 203l89 201h97zM310 275l88 -203h-97l-89 203l89 201h98z"></glyph>
    <glyph glyph-name="logicalnot" unicode="&#xac;" horiz-adv-x="440" d="M390 156h-90v117h-260v88h350v-205z"></glyph>
    <glyph glyph-name="uni00AD" unicode="&#xad;" horiz-adv-x="365" d="M308 267h-251v95h251v-95z"></glyph>
    <glyph glyph-name="registered" unicode="&#xae;" horiz-adv-x="481" d="M429 463q0 -59 -16.5 -99t-44 -65t-64 -36t-75.5 -11q-90 0 -133.5 49t-43.5 160q0 58 16.5 98.5t44 65.5t64 36t75.5 11q88 0 132.5 -49t44.5 -160zM380 463q0 32 -4.5 55.5t-11.5 41t-15 29.5t-15 21q-15 5 -36.5 9.5t-48.5 4.5q-31 0 -57.5 -8.5t-46 -27.5t-30.5 -50
t-11 -76q0 -33 4.5 -57.5t11.5 -42.5t15 -30t15 -20q15 -5 35.5 -8t46.5 -3q31 0 58 8.5t47 27.5t31.5 50t11.5 76zM273 353l-29 71h-26v-69h-45v218q12 1 29 1.5t40 0.5q38 0 55 -17t17 -55q0 -46 -27 -65l38 -82zM218 462h13q21 0 29 8t8 27q0 11 -1 19t-3 13
q-5 1 -10.5 1.5t-14.5 0.5h-10.5t-10.5 -1v-68z"></glyph>
    <glyph glyph-name="macron" unicode="&#xaf;" d="M307 595l-246 -11v75l246 11v-75z"></glyph>
    <glyph glyph-name="degree" unicode="&#xb0;" horiz-adv-x="399" d="M360 507q0 -41 -13.5 -71t-36 -50t-53 -30t-63.5 -10q-155 0 -155 161q0 41 13.5 71.5t36 51t52.5 30.5t63 10q156 0 156 -163zM281 507q0 23 -4 44t-9 33q-11 5 -25 7.5t-34 2.5q-37 0 -64.5 -18.5t-27.5 -67.5q0 -24 4.5 -44t8.5 -32q11 -5 25 -7.5t34 -2.5q18 0 35 4
t29.5 13.5t20 26t7.5 41.5z"></glyph>
    <glyph glyph-name="plusminus" unicode="&#xb1;" horiz-adv-x="440" d="M395 354h-131v-138h-91v138h-130v88h130v138h91v-138h131v-88zM396 86h-353v88h353v-88z"></glyph>
    <glyph glyph-name="twosuperior" unicode="&#xb2;" horiz-adv-x="305" d="M270 559q0 -47 -15 -78.5t-43 -60.5l-53 -55q-23 -25 -29.5 -38.5t-6.5 -24.5v-8h145l-4 -78h-230q-1 4 -2 17t-1 29q0 21 2 38.5t9 34.5t18.5 34.5t31.5 38.5l57 60q20 20 28 37.5t8 43.5q0 19 -5 34q-14 3 -32 3q-29 0 -54 -3.5t-45 -8.5l-6 76q20 6 49 11.5t68 5.5
q56 0 83 -25.5t27 -82.5z"></glyph>
    <glyph glyph-name="threesuperior" unicode="&#xb3;" horiz-adv-x="308" d="M267 558q0 -35 -13 -61.5t-34 -43.5q49 -27 49 -97q0 -75 -36.5 -110t-111.5 -35q-27 0 -50.5 3t-39.5 7l6 77q13 -3 32.5 -6t41.5 -3q39 0 56 15.5t17 52.5q0 22 -8 46q-8 1 -18 1h-19h-33t-36 -2l-1 72l53 3q35 2 48 18t13 49q0 10 -2 20.5t-4 20.5q-6 1 -13.5 1.5
t-16.5 0.5q-30 0 -56.5 -3.5t-45.5 -8.5l-6 75q18 6 46 11.5t68 5.5q59 0 86.5 -27t27.5 -82z"></glyph>
    <glyph glyph-name="acute" unicode="&#xb4;" d="M309 647l-202 -73l-26 55l191 104z"></glyph>
    <glyph glyph-name="mu" unicode="&#xb5;" horiz-adv-x="550" d="M449 177q0 -32 0.5 -52.5t3.5 -34.5h7q14 0 28.5 1t22.5 3l5 -92q-4 -2 -12 -3.5t-19.5 -3t-19.5 -2t-16 -0.5q-39 0 -62 11.5t-34 43.5q-11 -9 -27 -18.5t-36 -17.5t-45 -13t-55 -5q-10 0 -14 1v-141l-109 -11v674l109 9v-332q0 -29 2 -57t7 -41q4 -2 15 -4t26 -2
q35 0 64.5 10t51.5 22q-1 8 -1 16.5v17.5v361l108 9v-349z"></glyph>
    <glyph glyph-name="paragraph" unicode="&#xb6;" horiz-adv-x="577" d="M329 660v-810h-75v349h-23q-50 0 -87.5 12t-62.5 39.5t-38 72.5t-13 111q0 63 14 106.5t40 70t64.5 38t86.5 11.5h94zM552 660v-69h-82v-741h-75v810h157z"></glyph>
    <glyph glyph-name="periodcentered" unicode="&#xb7;" horiz-adv-x="226" d="M169 312h-112v119h112v-119z"></glyph>
    <glyph glyph-name="cedilla" unicode="&#xb8;" d="M264 -87q0 -38 -32.5 -54t-102.5 -16l-12 50q42 0 59 4t17 18q0 11 -12 21.5t-42 19.5l-3 11l36 47q11 -10 27 -17.5t30.5 -17.5t24.5 -25.5t10 -40.5z"></glyph>
    <glyph glyph-name="onesuperior" unicode="&#xb9;" horiz-adv-x="246" d="M187 216h-84v356l-76 -15l-5 75l133 28h32v-444z"></glyph>
    <glyph glyph-name="ordmasculine" unicode="&#xba;" horiz-adv-x="400" d="M356 465q0 -60 -13 -100t-36 -64.5t-54 -35t-66 -10.5q-79 0 -110.5 48.5t-31.5 155.5q0 60 13.5 100t36.5 65t53.5 35.5t65.5 10.5q79 0 110.5 -49t31.5 -156zM265 460q0 50 -4 79t-9 49q-17 5 -37 5q-17 0 -31.5 -4.5t-25 -18t-16 -39t-5.5 -67.5q0 -50 3.5 -79
t8.5 -49q8 -2 17.5 -3t20.5 -1q17 0 31.5 4t25 17.5t16 39t5.5 67.5z"></glyph>
    <glyph glyph-name="guillemotright" unicode="&#xbb;" horiz-adv-x="441" d="M303 273l-88 203h97l89 -203l-89 -201h-97zM131 273l-88 203h97l89 -203l-89 -201h-98z"></glyph>
    <glyph glyph-name="onequarter" unicode="&#xbc;" horiz-adv-x="760" d="M439 93l-6 74l123 278h124v-278h49l-4 -74h-45v-92h-81v92h-160zM515 164h85v121q0 26 0.5 53.5t2.5 42.5h-4q-5 -18 -12 -37t-18 -46zM586 660l-375 -660h-86l375 660h86zM192 216h-84v356l-76 -15l-5 75l133 28h32v-444z"></glyph>
    <glyph glyph-name="onehalf" unicode="&#xbd;" horiz-adv-x="753" d="M574 660l-375 -660h-86l375 660h86zM192 216h-84v356l-76 -15l-5 75l133 28h32v-444zM712 344q0 -47 -15 -78.5t-43 -60.5l-53 -55q-23 -25 -29.5 -38.5t-6.5 -24.5v-8h145l-4 -78h-230q-1 4 -2 17t-1 29q0 21 2 38.5t9 34.5t18.5 34.5t31.5 38.5l57 60q20 20 28 37.5
t8 43.5q0 19 -5 34q-14 3 -32 3q-29 0 -54 -3.5t-45 -8.5l-6 76q20 6 49 11.5t68 5.5q56 0 83 -25.5t27 -82.5z"></glyph>
    <glyph glyph-name="threequarters" unicode="&#xbe;" horiz-adv-x="806" d="M485 93l-6 74l123 278h124v-278h49l-4 -74h-45v-92h-81v92h-160zM561 164h85v121q0 26 0.5 53.5t2.5 42.5h-4q-5 -18 -12 -37t-18 -46zM631 660l-375 -660h-86l375 660h86zM276 558q0 -35 -13 -61.5t-34 -43.5q49 -27 49 -97q0 -75 -36.5 -110t-111.5 -35q-27 0 -50.5 3
t-39.5 7l6 77q13 -3 32.5 -6t41.5 -3q39 0 56 15.5t17 52.5q0 22 -8 46q-8 1 -18 1h-19h-33t-36 -2l-1 72l53 3q35 2 48 18t13 49q0 10 -2 20.5t-4 20.5q-6 1 -13.5 1.5t-16.5 0.5q-30 0 -56.5 -3.5t-45.5 -8.5l-6 75q18 6 46 11.5t68 5.5q59 0 86.5 -27t27.5 -82z"></glyph>
    <glyph glyph-name="questiondown" unicode="&#xbf;" horiz-adv-x="364" d="M192 126q-27 -28 -39 -55.5t-12 -65.5q0 -12 2 -27t5 -24q5 -2 20 -4t38 -2q40 0 68.5 5.5t50.5 12.5l10 -97q-23 -7 -60.5 -14.5t-90.5 -7.5q-81 0 -117.5 34.5t-36.5 120.5q0 36 11.5 68t30.5 60t42 53t46 47v95h103v-126zM154 519h115v-116h-115v116z"></glyph>
    <glyph glyph-name="Agrave" unicode="&#xc0;" horiz-adv-x="470" d="M7 0l167 660h132l148 -660h-114l-28 147h-163l-32 -147h-110zM167 234h129l-48 265q-5 26 -7.5 41.5t-3.5 29.5h-3q-1 -14 -3 -30t-7 -42zM313 693l-187 50l26 80l179 -80z"></glyph>
    <glyph glyph-name="Aacute" unicode="&#xc1;" horiz-adv-x="470" d="M7 0l167 660h132l148 -660h-114l-28 147h-163l-32 -147h-110zM167 234h129l-48 265q-5 26 -7.5 41.5t-3.5 29.5h-3q-1 -14 -3 -30t-7 -42zM155 743l179 80l26 -80l-187 -50z"></glyph>
    <glyph glyph-name="Acircumflex" unicode="&#xc2;" horiz-adv-x="470" d="M7 0l167 660h132l148 -660h-114l-28 147h-163l-32 -147h-110zM167 234h129l-48 265q-5 26 -7.5 41.5t-3.5 29.5h-3q-1 -14 -3 -30t-7 -42zM341 695l-100 41l-98 -41l-26 50l124 74l125 -74z"></glyph>
    <glyph glyph-name="Atilde" unicode="&#xc3;" horiz-adv-x="470" d="M7 0l167 660h132l148 -660h-114l-28 147h-163l-32 -147h-110zM167 234h129l-48 265q-5 26 -7.5 41.5t-3.5 29.5h-3q-1 -14 -3 -30t-7 -42zM359 738q-6 -6 -15 -12.5t-19 -12t-20.5 -9t-18.5 -3.5q-17 0 -31 5t-26 10.5t-23.5 10.5t-23.5 5q-10 -4 -23.5 -11.5
t-21.5 -13.5l-22 54q5 6 14 12.5t19 12t20.5 9.5t18.5 4q17 0 31 -5t26 -11t23.5 -11t23.5 -5q10 5 23.5 12.5t21.5 13.5z"></glyph>
    <glyph glyph-name="Adieresis" unicode="&#xc4;" horiz-adv-x="470" d="M7 0l167 660h132l148 -660h-114l-28 147h-163l-32 -147h-110zM167 234h129l-48 265q-5 26 -7.5 41.5t-3.5 29.5h-3q-1 -14 -3 -30t-7 -42zM215 710l-97 -8v80l97 8v-80zM364 710l-97 -8v80l97 8v-80z"></glyph>
    <glyph glyph-name="Aring" unicode="&#xc5;" horiz-adv-x="470" d="M337 695q0 -20 -7 -34.5t-19 -25.5l143 -635h-114l-28 147h-163l-32 -147h-110l161 635q-25 22 -25 60q0 42 27.5 61t69.5 19q47 0 72 -21t25 -59zM167 234h129l-48 265q-5 26 -7.5 41.5t-3.5 29.5h-3q-1 -14 -3 -30t-7 -42zM281 695q0 8 -1.5 16t-2.5 11q-4 2 -12 3.5
t-22 1.5q-44 0 -44 -32q0 -9 1.5 -16.5t3.5 -10.5q3 -2 11 -3.5t21 -1.5q45 0 45 32z"></glyph>
    <glyph glyph-name="AE" unicode="&#xc6;" horiz-adv-x="602" d="M7 0l167 660h380l-6 -98h-213l36 -181h170v-97h-150l38 -186h127v-98h-216l-28 147h-163l-32 -147h-110zM166 234h131l-51 277q-4 20 -5.5 36t-2.5 30h-3q-1 -14 -3.5 -31t-6.5 -36z"></glyph>
    <glyph glyph-name="Ccedilla" unicode="&#xc7;" horiz-adv-x="407" d="M314 -87q0 -38 -32.5 -54t-102.5 -16l-12 50q42 0 59 4t17 18q0 11 -12 21.5t-42 19.5l-3 11l18 25q-44 3 -74 19t-48 53t-26 99t-8 157q0 97 13.5 163.5t41 108t69 60t97.5 18.5q41 0 66 -5t41 -10l-10 -99q-11 2 -37 7.5t-58 5.5q-30 0 -51.5 -9.5t-35 -36t-20 -73.5
t-6.5 -123q0 -49 2 -85.5t5.5 -64t7.5 -46.5t9 -34q11 -2 25.5 -3.5t32.5 -1.5q39 0 70.5 4.5t52.5 9.5l4 -97q-18 -5 -45 -10.5t-62 -7.5q20 -11 37 -27.5t17 -50.5z"></glyph>
    <glyph glyph-name="Egrave" unicode="&#xc8;" horiz-adv-x="408" d="M353 560h-181v-178h175v-98h-175v-183h190v-101h-298v660h296zM286 693l-187 50l26 80l179 -80z"></glyph>
    <glyph glyph-name="Eacute" unicode="&#xc9;" horiz-adv-x="408" d="M353 560h-181v-178h175v-98h-175v-183h190v-101h-298v660h296zM128 743l179 80l26 -80l-187 -50z"></glyph>
    <glyph glyph-name="Ecircumflex" unicode="&#xca;" horiz-adv-x="408" d="M353 560h-181v-178h175v-98h-175v-183h190v-101h-298v660h296zM314 695l-100 41l-98 -41l-26 50l124 74l125 -74z"></glyph>
    <glyph glyph-name="Edieresis" unicode="&#xcb;" horiz-adv-x="408" d="M353 560h-181v-178h175v-98h-175v-183h190v-101h-298v660h296zM188 710l-97 -8v80l97 8v-80zM337 710l-97 -8v80l97 8v-80z"></glyph>
    <glyph glyph-name="Igrave" unicode="&#xcc;" horiz-adv-x="237" d="M173 0h-109v660h109v-660zM191 693l-187 50l26 80l179 -80z"></glyph>
    <glyph glyph-name="Iacute" unicode="&#xcd;" horiz-adv-x="237" d="M173 0h-109v660h109v-660zM33 743l179 80l26 -80l-187 -50z"></glyph>
    <glyph glyph-name="Icircumflex" unicode="&#xce;" horiz-adv-x="237" d="M173 0h-109v660h109v-660zM219 695l-100 41l-98 -41l-26 50l124 74l125 -74z"></glyph>
    <glyph glyph-name="Idieresis" unicode="&#xcf;" horiz-adv-x="237" d="M173 0h-109v660h109v-660zM93 710l-97 -8v80l97 8v-80zM242 710l-97 -8v80l97 8v-80z"></glyph>
    <glyph glyph-name="Eth" unicode="&#xd0;" horiz-adv-x="500" d="M453 345q0 -98 -14 -164.5t-42 -106.5t-70.5 -57t-98.5 -17h-154v298h-57v71h57v291q24 2 68.5 4t95.5 2q59 0 100 -13t66.5 -48.5t37 -98t11.5 -161.5zM341 337q0 96 -11 148.5t-25 81.5q-23 3 -64 3q-15 0 -31 -0.5t-28 -1.5v-199h83v-71h-83v-200h47q29 0 50 10t35 36
t20.5 72.5t6.5 120.5z"></glyph>
    <glyph glyph-name="Ntilde" unicode="&#xd1;" horiz-adv-x="524" d="M460 0h-109l-150 347q-11 26 -20.5 53t-14.5 41h-3q1 -14 1.5 -44t0.5 -62v-335h-101v660h108l150 -346q13 -30 22 -55t14 -42h3q-1 15 -2 42.5t-1 58.5v342h102v-660zM374 738q-6 -6 -15 -12.5t-19 -12t-20.5 -9t-18.5 -3.5q-17 0 -31 5t-26 10.5t-23.5 10.5t-23.5 5
q-10 -4 -23.5 -11.5t-21.5 -13.5l-22 54q5 6 14 12.5t19 12t20.5 9.5t18.5 4q17 0 31 -5t26 -11t23.5 -11t23.5 -5q10 5 23.5 12.5t21.5 13.5z"></glyph>
    <glyph glyph-name="Ograve" unicode="&#xd2;" horiz-adv-x="520" d="M474 339q0 -95 -15.5 -161.5t-45 -108.5t-72.5 -61.5t-98 -19.5q-50 0 -87 13.5t-61.5 50.5t-36.5 102t-12 168q0 95 15.5 161.5t45 108.5t72.5 61t98 19q51 0 88 -13.5t61 -50.5t36 -101.5t12 -167.5zM364 331q0 50 -2.5 87.5t-7 65t-9 47t-9.5 34.5q-10 3 -24.5 5.5
t-34.5 2.5q-30 0 -52.5 -10.5t-37.5 -37.5t-22.5 -74.5t-7.5 -121.5q0 -50 2.5 -87.5t6 -65.5t8.5 -47.5t10 -34.5q10 -3 25 -5t35 -2q30 0 52.5 10.5t37.5 38t22.5 74.5t7.5 121zM340 693l-187 50l26 80l179 -80z"></glyph>
    <glyph glyph-name="Oacute" unicode="&#xd3;" horiz-adv-x="520" d="M474 339q0 -95 -15.5 -161.5t-45 -108.5t-72.5 -61.5t-98 -19.5q-50 0 -87 13.5t-61.5 50.5t-36.5 102t-12 168q0 95 15.5 161.5t45 108.5t72.5 61t98 19q51 0 88 -13.5t61 -50.5t36 -101.5t12 -167.5zM364 331q0 50 -2.5 87.5t-7 65t-9 47t-9.5 34.5q-10 3 -24.5 5.5
t-34.5 2.5q-30 0 -52.5 -10.5t-37.5 -37.5t-22.5 -74.5t-7.5 -121.5q0 -50 2.5 -87.5t6 -65.5t8.5 -47.5t10 -34.5q10 -3 25 -5t35 -2q30 0 52.5 10.5t37.5 38t22.5 74.5t7.5 121zM182 743l179 80l26 -80l-187 -50z"></glyph>
    <glyph glyph-name="Ocircumflex" unicode="&#xd4;" horiz-adv-x="520" d="M474 339q0 -95 -15.5 -161.5t-45 -108.5t-72.5 -61.5t-98 -19.5q-50 0 -87 13.5t-61.5 50.5t-36.5 102t-12 168q0 95 15.5 161.5t45 108.5t72.5 61t98 19q51 0 88 -13.5t61 -50.5t36 -101.5t12 -167.5zM364 331q0 50 -2.5 87.5t-7 65t-9 47t-9.5 34.5q-10 3 -24.5 5.5
t-34.5 2.5q-30 0 -52.5 -10.5t-37.5 -37.5t-22.5 -74.5t-7.5 -121.5q0 -50 2.5 -87.5t6 -65.5t8.5 -47.5t10 -34.5q10 -3 25 -5t35 -2q30 0 52.5 10.5t37.5 38t22.5 74.5t7.5 121zM368 695l-100 41l-98 -41l-26 50l124 74l125 -74z"></glyph>
    <glyph glyph-name="Otilde" unicode="&#xd5;" horiz-adv-x="520" d="M474 339q0 -95 -15.5 -161.5t-45 -108.5t-72.5 -61.5t-98 -19.5q-50 0 -87 13.5t-61.5 50.5t-36.5 102t-12 168q0 95 15.5 161.5t45 108.5t72.5 61t98 19q51 0 88 -13.5t61 -50.5t36 -101.5t12 -167.5zM364 331q0 50 -2.5 87.5t-7 65t-9 47t-9.5 34.5q-10 3 -24.5 5.5
t-34.5 2.5q-30 0 -52.5 -10.5t-37.5 -37.5t-22.5 -74.5t-7.5 -121.5q0 -50 2.5 -87.5t6 -65.5t8.5 -47.5t10 -34.5q10 -3 25 -5t35 -2q30 0 52.5 10.5t37.5 38t22.5 74.5t7.5 121zM386 738q-6 -6 -15 -12.5t-19 -12t-20.5 -9t-18.5 -3.5q-17 0 -31 5t-26 10.5t-23.5 10.5
t-23.5 5q-10 -4 -23.5 -11.5t-21.5 -13.5l-22 54q5 6 14 12.5t19 12t20.5 9.5t18.5 4q17 0 31 -5t26 -11t23.5 -11t23.5 -5q10 5 23.5 12.5t21.5 13.5z"></glyph>
    <glyph glyph-name="Odieresis" unicode="&#xd6;" horiz-adv-x="520" d="M474 339q0 -95 -15.5 -161.5t-45 -108.5t-72.5 -61.5t-98 -19.5q-50 0 -87 13.5t-61.5 50.5t-36.5 102t-12 168q0 95 15.5 161.5t45 108.5t72.5 61t98 19q51 0 88 -13.5t61 -50.5t36 -101.5t12 -167.5zM364 331q0 50 -2.5 87.5t-7 65t-9 47t-9.5 34.5q-10 3 -24.5 5.5
t-34.5 2.5q-30 0 -52.5 -10.5t-37.5 -37.5t-22.5 -74.5t-7.5 -121.5q0 -50 2.5 -87.5t6 -65.5t8.5 -47.5t10 -34.5q10 -3 25 -5t35 -2q30 0 52.5 10.5t37.5 38t22.5 74.5t7.5 121zM242 710l-97 -8v80l97 8v-80zM391 710l-97 -8v80l97 8v-80z"></glyph>
    <glyph glyph-name="multiply" unicode="&#xd7;" horiz-adv-x="440" d="M283 312l123 -123l-64 -62l-122 123l-122 -123l-64 62l122 123l-122 123l64 62l122 -123l122 123l64 -62z"></glyph>
    <glyph glyph-name="Oslash" unicode="&#xd8;" horiz-adv-x="520" d="M474 339q0 -95 -15.5 -161.5t-45 -108.5t-72.5 -61.5t-98 -19.5q-26 0 -48 3t-42 11l-29 -63h-80l50 112q-25 37 -36.5 102.5t-11.5 168.5q0 95 15.5 161.5t45 108.5t72.5 61t98 19q26 0 48.5 -3.5t42.5 -11.5l28 64h80l-50 -113q25 -37 36.5 -102t11.5 -167zM148 329
q0 -31 0.5 -55t2 -43.5t3.5 -36t4 -31.5h2q8 23 19.5 56.5t24.5 62.5l129 294q-23 5 -55 5q-33 0 -57 -11t-40.5 -39t-24.5 -77t-8 -125zM372 332q0 31 -0.5 55t-2 43.5t-3 35.5t-3.5 31h-2q-8 -23 -20 -56t-25 -62l-128 -296q10 -2 23.5 -3t30.5 -1q33 0 57 11t40.5 39.5
t24.5 77.5t8 125z"></glyph>
    <glyph glyph-name="Ugrave" unicode="&#xd9;" horiz-adv-x="508" d="M447 218q0 -66 -14 -110.5t-40 -71t-63 -37.5t-83 -11q-53 0 -88.5 11t-57.5 36.5t-31 66.5t-9 101v457h108v-439q0 -44 3 -74t7 -50q15 -3 31.5 -5t33.5 -2q27 0 46 6.5t30 21.5t16 40.5t5 63.5v438h106v-442zM328 693l-187 50l26 80l179 -80z"></glyph>
    <glyph glyph-name="Uacute" unicode="&#xda;" horiz-adv-x="508" d="M447 218q0 -66 -14 -110.5t-40 -71t-63 -37.5t-83 -11q-53 0 -88.5 11t-57.5 36.5t-31 66.5t-9 101v457h108v-439q0 -44 3 -74t7 -50q15 -3 31.5 -5t33.5 -2q27 0 46 6.5t30 21.5t16 40.5t5 63.5v438h106v-442zM170 743l179 80l26 -80l-187 -50z"></glyph>
    <glyph glyph-name="Ucircumflex" unicode="&#xdb;" horiz-adv-x="508" d="M447 218q0 -66 -14 -110.5t-40 -71t-63 -37.5t-83 -11q-53 0 -88.5 11t-57.5 36.5t-31 66.5t-9 101v457h108v-439q0 -44 3 -74t7 -50q15 -3 31.5 -5t33.5 -2q27 0 46 6.5t30 21.5t16 40.5t5 63.5v438h106v-442zM356 695l-100 41l-98 -41l-26 50l124 74l125 -74z"></glyph>
    <glyph glyph-name="Udieresis" unicode="&#xdc;" horiz-adv-x="508" d="M447 218q0 -66 -14 -110.5t-40 -71t-63 -37.5t-83 -11q-53 0 -88.5 11t-57.5 36.5t-31 66.5t-9 101v457h108v-439q0 -44 3 -74t7 -50q15 -3 31.5 -5t33.5 -2q27 0 46 6.5t30 21.5t16 40.5t5 63.5v438h106v-442zM230 710l-97 -8v80l97 8v-80zM379 710l-97 -8v80l97 8v-80z
"></glyph>
    <glyph glyph-name="Yacute" unicode="&#xdd;" horiz-adv-x="448" d="M278 241v-241h-109v238l-152 422h112l74 -241q8 -25 13.5 -47t7.5 -39h3q2 17 8 39t14 48l77 240h107zM139 743l179 80l26 -80l-187 -50z"></glyph>
    <glyph glyph-name="Thorn" unicode="&#xde;" horiz-adv-x="467" d="M433 346q0 -68 -16.5 -114t-46 -74t-69 -39.5t-85.5 -11.5h-44v-107h-108v660h108v-107q9 1 26 1.5t36 0.5q57 0 95 -10t61 -34.5t33 -64.5t10 -100zM172 203h40q25 0 46 4.5t36 18t23 39.5t8 69q0 41 -6.5 73.5t-11.5 47.5q-11 2 -27 3.5t-44 1.5q-16 0 -31.5 -0.5
t-32.5 -1.5v-255z"></glyph>
    <glyph glyph-name="germandbls" unicode="&#xdf;" horiz-adv-x="498" d="M435 587q0 -12 -5 -30.5t-12.5 -39t-16.5 -42t-18 -40.5l-35 -80l89 -138q17 -26 26.5 -48.5t9.5 -59.5q0 -58 -38 -88t-95 -30q-31 0 -56 3.5t-43 8.5l6 96q12 -4 35.5 -9t55.5 -5q7 0 13.5 0.5t12.5 1.5q1 5 1.5 9.5t0.5 9.5q0 14 -7 30t-30 49l-35 50
q-14 21 -23.5 35.5t-14.5 27t-7 24.5t-2 28t9.5 42.5t23.5 58.5t28.5 67.5t25.5 68.5q-16 6 -36.5 10.5t-45.5 4.5q-44 0 -63.5 -18t-19.5 -62v-522h-108v527q0 91 49 131.5t146 40.5q39 0 72 -7.5t56.5 -21.5t37 -35t13.5 -48z"></glyph>
    <glyph glyph-name="agrave" unicode="&#xe0;" horiz-adv-x="450" d="M290 0v47q-17 -18 -48 -37t-78 -19q-60 0 -94.5 37.5t-34.5 124.5q0 42 14.5 71.5t39.5 47.5t58 26t70 8q19 0 36 -1.5t30 -3.5v42q0 29 -2.5 50t-5.5 31q-7 3 -20.5 6t-42.5 3q-40 0 -74.5 -8.5t-56.5 -16.5l-15 91q23 10 73 21.5t114 11.5q69 0 103.5 -33t34.5 -112
v-387h-101zM203 80q24 0 44.5 7.5t35.5 16.5v122q-13 2 -30 2.5t-34 0.5q-35 0 -57 -15.5t-22 -56.5q0 -24 3.5 -41t8.5 -31q10 -3 22.5 -4t28.5 -1zM307 574l-203 73l37 86l191 -104z"></glyph>
    <glyph glyph-name="aacute" unicode="&#xe1;" horiz-adv-x="450" d="M290 0v47q-17 -18 -48 -37t-78 -19q-60 0 -94.5 37.5t-34.5 124.5q0 42 14.5 71.5t39.5 47.5t58 26t70 8q19 0 36 -1.5t30 -3.5v42q0 29 -2.5 50t-5.5 31q-7 3 -20.5 6t-42.5 3q-40 0 -74.5 -8.5t-56.5 -16.5l-15 91q23 10 73 21.5t114 11.5q69 0 103.5 -33t34.5 -112
v-387h-101zM203 80q24 0 44.5 7.5t35.5 16.5v122q-13 2 -30 2.5t-34 0.5q-35 0 -57 -15.5t-22 -56.5q0 -24 3.5 -41t8.5 -31q10 -3 22.5 -4t28.5 -1zM353 647l-202 -73l-26 55l191 104z"></glyph>
    <glyph glyph-name="acircumflex" unicode="&#xe2;" horiz-adv-x="450" d="M290 0v47q-17 -18 -48 -37t-78 -19q-60 0 -94.5 37.5t-34.5 124.5q0 42 14.5 71.5t39.5 47.5t58 26t70 8q19 0 36 -1.5t30 -3.5v42q0 29 -2.5 50t-5.5 31q-7 3 -20.5 6t-42.5 3q-40 0 -74.5 -8.5t-56.5 -16.5l-15 91q23 10 73 21.5t114 11.5q69 0 103.5 -33t34.5 -112
v-387h-101zM203 80q24 0 44.5 7.5t35.5 16.5v122q-13 2 -30 2.5t-34 0.5q-35 0 -57 -15.5t-22 -56.5q0 -24 3.5 -41t8.5 -31q10 -3 22.5 -4t28.5 -1zM335 571l-108 51l-107 -51l-31 51l138 93l138 -93z"></glyph>
    <glyph glyph-name="atilde" unicode="&#xe3;" horiz-adv-x="450" d="M290 0v47q-17 -18 -48 -37t-78 -19q-60 0 -94.5 37.5t-34.5 124.5q0 42 14.5 71.5t39.5 47.5t58 26t70 8q19 0 36 -1.5t30 -3.5v42q0 29 -2.5 50t-5.5 31q-7 3 -20.5 6t-42.5 3q-40 0 -74.5 -8.5t-56.5 -16.5l-15 91q23 10 73 21.5t114 11.5q69 0 103.5 -33t34.5 -112
v-387h-101zM203 80q24 0 44.5 7.5t35.5 16.5v122q-13 2 -30 2.5t-34 0.5q-35 0 -57 -15.5t-22 -56.5q0 -24 3.5 -41t8.5 -31q10 -3 22.5 -4t28.5 -1zM361 617q-6 -6 -16 -13.5t-21 -13.5t-23 -10.5t-21 -4.5q-19 0 -35 5.5t-30 12.5t-27 12.5t-26 5.5q-11 -4 -26 -12
t-24 -16l-28 58q6 6 15.5 13.5t21 13.5t23 10.5t20.5 4.5q19 0 35 -6t30.5 -12.5t27 -12.5t25.5 -6q11 5 26.5 13t24.5 16z"></glyph>
    <glyph glyph-name="adieresis" unicode="&#xe4;" horiz-adv-x="450" d="M290 0v47q-17 -18 -48 -37t-78 -19q-60 0 -94.5 37.5t-34.5 124.5q0 42 14.5 71.5t39.5 47.5t58 26t70 8q19 0 36 -1.5t30 -3.5v42q0 29 -2.5 50t-5.5 31q-7 3 -20.5 6t-42.5 3q-40 0 -74.5 -8.5t-56.5 -16.5l-15 91q23 10 73 21.5t114 11.5q69 0 103.5 -33t34.5 -112
v-387h-101zM203 80q24 0 44.5 7.5t35.5 16.5v122q-13 2 -30 2.5t-34 0.5q-35 0 -57 -15.5t-22 -56.5q0 -24 3.5 -41t8.5 -31q10 -3 22.5 -4t28.5 -1zM201 584l-108 -8v88l108 9v-89zM361 584l-108 -8v88l108 9v-89z"></glyph>
    <glyph glyph-name="aring" unicode="&#xe5;" horiz-adv-x="450" d="M290 0v47q-17 -18 -48 -37t-78 -19q-60 0 -94.5 37.5t-34.5 124.5q0 42 14.5 71.5t39.5 47.5t58 26t70 8q19 0 36 -1.5t30 -3.5v42q0 29 -2.5 50t-5.5 31q-7 3 -20.5 6t-42.5 3q-40 0 -74.5 -8.5t-56.5 -16.5l-15 91q23 10 73 21.5t114 11.5q69 0 103.5 -33t34.5 -112
v-387h-101zM203 80q24 0 44.5 7.5t35.5 16.5v122q-13 2 -30 2.5t-34 0.5q-35 0 -57 -15.5t-22 -56.5q0 -24 3.5 -41t8.5 -31q10 -3 22.5 -4t28.5 -1zM334 654q0 -46 -30.5 -67.5t-76.5 -21.5q-52 0 -79.5 23t-27.5 66q0 47 30.5 68.5t76.5 21.5q52 0 79.5 -23.5t27.5 -66.5z
M272 654q0 10 -1 18t-3 13q-5 2 -14 3.5t-23 1.5q-49 0 -49 -36q0 -9 1 -17t3 -13q5 -2 14 -3.5t23 -1.5q49 0 49 35z"></glyph>
    <glyph glyph-name="ae" unicode="&#xe6;" horiz-adv-x="676" d="M36 153q0 42 14.5 71.5t39.5 47.5t58 26t70 8q18 0 34 -1.5t29 -3.5v42q0 29 -2 50t-4 31q-7 3 -21 6t-43 3q-40 0 -74.5 -8.5t-56.5 -16.5l-15 91q23 10 70 21.5t107 11.5q42 0 68.5 -14.5t40.5 -42.5q26 29 60.5 43t73.5 14q82 0 115 -44.5t33 -135.5q0 -43 -2.5 -76.5
t-4.5 -56.5l-239 -13q2 -37 6.5 -65.5t10.5 -50.5q18 -5 62 -5q50 0 87.5 9.5t57.5 17.5l12 -92q-19 -9 -60.5 -20.5t-109.5 -11.5q-52 0 -85 13t-53 45q-20 -18 -56.5 -36.5t-90.5 -18.5q-62 0 -97 37.5t-35 124.5zM478 443q-21 0 -37.5 -5.5t-28.5 -22.5t-18.5 -49
t-7.5 -85l141 9q2 15 2 27.5v29.5q0 24 -3 49t-8 42q-5 2 -15 3.5t-25 1.5zM204 80q28 0 50.5 9.5t37.5 19.5q-5 23 -7.5 52.5t-3.5 64.5q-13 2 -29 2.5t-32 0.5q-35 0 -57 -15.5t-22 -56.5q0 -24 3.5 -41t8.5 -31q10 -3 22.5 -4t28.5 -1z"></glyph>
    <glyph glyph-name="ccedilla" unicode="&#xe7;" horiz-adv-x="392" d="M293 -87q0 -38 -32.5 -54t-102.5 -16l-12 50q42 0 59 4t17 18q0 11 -12 21.5t-42 19.5l-3 11l18 24q-37 3 -63.5 19t-43 47.5t-24.5 80.5t-8 120q0 76 14 128t41 84t67 46t91 14q35 0 60.5 -5.5t39.5 -10.5l-13 -97q-11 4 -34.5 8.5t-48.5 4.5q-28 0 -48.5 -7
t-33.5 -25.5t-19.5 -50.5t-6.5 -83q0 -63 6.5 -104t14.5 -69q5 -1 10.5 -1h12.5q45 0 80.5 7t65.5 17l11 -94q-14 -7 -44.5 -16t-71.5 -13q20 -11 37.5 -27.5t17.5 -50.5z"></glyph>
    <glyph glyph-name="egrave" unicode="&#xe8;" horiz-adv-x="447" d="M403 352q0 -43 -2.5 -76.5t-4.5 -56.5l-241 -13q2 -37 6.5 -66t9.5 -50q9 -2 23 -3.5t37 -1.5q51 0 92 9.5t61 17.5l11 -91q-19 -10 -62.5 -21.5t-111.5 -11.5q-51 0 -85 15t-54.5 47.5t-29 84t-8.5 125.5q0 76 15 128.5t42 84t64.5 45.5t82.5 14q44 0 74 -12t48 -35
t25.5 -56.5t7.5 -76.5zM248 443q-21 0 -38 -5.5t-29 -22.5t-19 -49t-8 -84l143 8q2 15 2 27.5v29.5q0 24 -3 49t-8 42q-5 2 -15 3.5t-25 1.5zM317 574l-203 73l37 86l191 -104z"></glyph>
    <glyph glyph-name="eacute" unicode="&#xe9;" horiz-adv-x="447" d="M403 352q0 -43 -2.5 -76.5t-4.5 -56.5l-241 -13q2 -37 6.5 -66t9.5 -50q9 -2 23 -3.5t37 -1.5q51 0 92 9.5t61 17.5l11 -91q-19 -10 -62.5 -21.5t-111.5 -11.5q-51 0 -85 15t-54.5 47.5t-29 84t-8.5 125.5q0 76 15 128.5t42 84t64.5 45.5t82.5 14q44 0 74 -12t48 -35
t25.5 -56.5t7.5 -76.5zM248 443q-21 0 -38 -5.5t-29 -22.5t-19 -49t-8 -84l143 8q2 15 2 27.5v29.5q0 24 -3 49t-8 42q-5 2 -15 3.5t-25 1.5zM363 647l-202 -73l-26 55l191 104z"></glyph>
    <glyph glyph-name="ecircumflex" unicode="&#xea;" horiz-adv-x="447" d="M403 352q0 -43 -2.5 -76.5t-4.5 -56.5l-241 -13q2 -37 6.5 -66t9.5 -50q9 -2 23 -3.5t37 -1.5q51 0 92 9.5t61 17.5l11 -91q-19 -10 -62.5 -21.5t-111.5 -11.5q-51 0 -85 15t-54.5 47.5t-29 84t-8.5 125.5q0 76 15 128.5t42 84t64.5 45.5t82.5 14q44 0 74 -12t48 -35
t25.5 -56.5t7.5 -76.5zM248 443q-21 0 -38 -5.5t-29 -22.5t-19 -49t-8 -84l143 8q2 15 2 27.5v29.5q0 24 -3 49t-8 42q-5 2 -15 3.5t-25 1.5zM345 571l-108 51l-107 -51l-31 51l138 93l138 -93z"></glyph>
    <glyph glyph-name="edieresis" unicode="&#xeb;" horiz-adv-x="447" d="M403 352q0 -43 -2.5 -76.5t-4.5 -56.5l-241 -13q2 -37 6.5 -66t9.5 -50q9 -2 23 -3.5t37 -1.5q51 0 92 9.5t61 17.5l11 -91q-19 -10 -62.5 -21.5t-111.5 -11.5q-51 0 -85 15t-54.5 47.5t-29 84t-8.5 125.5q0 76 15 128.5t42 84t64.5 45.5t82.5 14q44 0 74 -12t48 -35
t25.5 -56.5t7.5 -76.5zM248 443q-21 0 -38 -5.5t-29 -22.5t-19 -49t-8 -84l143 8q2 15 2 27.5v29.5q0 24 -3 49t-8 42q-5 2 -15 3.5t-25 1.5zM211 584l-108 -8v88l108 9v-89zM371 584l-108 -8v88l108 9v-89z"></glyph>
    <glyph glyph-name="igrave" unicode="&#xec;" horiz-adv-x="234" d="M171 0h-108v517l108 9v-526zM200 574l-203 73l37 86l191 -104z"></glyph>
    <glyph glyph-name="iacute" unicode="&#xed;" horiz-adv-x="234" d="M171 0h-108v517l108 9v-526zM246 647l-202 -73l-26 55l191 104z"></glyph>
    <glyph glyph-name="icircumflex" unicode="&#xee;" horiz-adv-x="234" d="M171 0h-108v517l108 9v-526zM228 571l-108 51l-107 -51l-31 51l138 93l138 -93z"></glyph>
    <glyph glyph-name="idieresis" unicode="&#xef;" horiz-adv-x="234" d="M171 0h-108v517l108 9v-526zM94 584l-108 -8v88l108 9v-89zM254 584l-108 -8v88l108 9v-89z"></glyph>
    <glyph glyph-name="eth" unicode="&#xf0;" horiz-adv-x="485" d="M314 617q31 -25 54.5 -58t39.5 -77t24.5 -99.5t8.5 -124.5q0 -77 -17 -128.5t-46 -83t-69 -45t-86 -13.5q-48 0 -82 13.5t-56 44t-32 79t-10 119.5q0 66 14.5 113.5t41 78.5t62 46t77.5 15q22 0 34.5 -4.5t19.5 -8.5l2 2q-23 50 -66 81l-104 -61l-25 43l79 46
q-25 11 -53 18.5t-59 14.5l40 74q47 -9 87 -22t75 -32l97 57l25 -43zM332 251q0 90 -13 154q-9 2 -20 3.5t-23 1.5q-32 0 -55 -7.5t-38 -26t-22.5 -49t-7.5 -76.5q0 -33 1 -57.5t3.5 -43.5t5.5 -33.5t7 -26.5q11 -2 25 -4t29 -2q25 0 45 5.5t34 23t21.5 50.5t7.5 88z"></glyph>
    <glyph glyph-name="ntilde" unicode="&#xf1;" horiz-adv-x="505" d="M338 0v350q0 30 -2 46.5t-5 29.5q-8 2 -18.5 4t-27.5 2q-35 0 -64.5 -9.5t-51.5 -20.5v-402h-108v517l101 9v-48q13 8 30.5 17.5t38 17.5t44 13.5t48.5 5.5q64 0 93.5 -29t29.5 -100v-403h-108zM400 617q-6 -6 -16 -13.5t-21 -13.5t-23 -10.5t-21 -4.5q-19 0 -35 5.5
t-30 12.5t-27 12.5t-26 5.5q-11 -4 -26 -12t-24 -16l-28 58q6 6 15.5 13.5t21 13.5t23 10.5t20.5 4.5q19 0 35 -6t30.5 -12.5t27 -12.5t25.5 -6q11 5 26.5 13t24.5 16z"></glyph>
    <glyph glyph-name="ograve" unicode="&#xf2;" horiz-adv-x="489" d="M445 265q0 -80 -17 -133t-47 -85t-70.5 -45.5t-86.5 -13.5q-48 0 -82 14t-56 46t-32 83t-10 125q0 79 17 132.5t47 85t70 45t86 13.5q48 0 82.5 -14t56 -46t32 -83t10.5 -124zM334 258q0 68 -6 107t-14 65q-9 2 -22 4t-29 2q-25 0 -45 -5.5t-34 -24t-21.5 -53t-7.5 -91.5
q0 -69 5 -107.5t13 -64.5q9 -2 22 -4t30 -2q25 0 45 5.5t34 24t22 53t8 91.5zM338 574l-203 73l37 86l191 -104z"></glyph>
    <glyph glyph-name="oacute" unicode="&#xf3;" horiz-adv-x="489" d="M445 265q0 -80 -17 -133t-47 -85t-70.5 -45.5t-86.5 -13.5q-48 0 -82 14t-56 46t-32 83t-10 125q0 79 17 132.5t47 85t70 45t86 13.5q48 0 82.5 -14t56 -46t32 -83t10.5 -124zM334 258q0 68 -6 107t-14 65q-9 2 -22 4t-29 2q-25 0 -45 -5.5t-34 -24t-21.5 -53t-7.5 -91.5
q0 -69 5 -107.5t13 -64.5q9 -2 22 -4t30 -2q25 0 45 5.5t34 24t22 53t8 91.5zM384 647l-202 -73l-26 55l191 104z"></glyph>
    <glyph glyph-name="ocircumflex" unicode="&#xf4;" horiz-adv-x="489" d="M445 265q0 -80 -17 -133t-47 -85t-70.5 -45.5t-86.5 -13.5q-48 0 -82 14t-56 46t-32 83t-10 125q0 79 17 132.5t47 85t70 45t86 13.5q48 0 82.5 -14t56 -46t32 -83t10.5 -124zM334 258q0 68 -6 107t-14 65q-9 2 -22 4t-29 2q-25 0 -45 -5.5t-34 -24t-21.5 -53t-7.5 -91.5
q0 -69 5 -107.5t13 -64.5q9 -2 22 -4t30 -2q25 0 45 5.5t34 24t22 53t8 91.5zM366 571l-108 51l-107 -51l-31 51l138 93l138 -93z"></glyph>
    <glyph glyph-name="otilde" unicode="&#xf5;" horiz-adv-x="489" d="M445 265q0 -80 -17 -133t-47 -85t-70.5 -45.5t-86.5 -13.5q-48 0 -82 14t-56 46t-32 83t-10 125q0 79 17 132.5t47 85t70 45t86 13.5q48 0 82.5 -14t56 -46t32 -83t10.5 -124zM334 258q0 68 -6 107t-14 65q-9 2 -22 4t-29 2q-25 0 -45 -5.5t-34 -24t-21.5 -53t-7.5 -91.5
q0 -69 5 -107.5t13 -64.5q9 -2 22 -4t30 -2q25 0 45 5.5t34 24t22 53t8 91.5zM392 617q-6 -6 -16 -13.5t-21 -13.5t-23 -10.5t-21 -4.5q-19 0 -35 5.5t-30 12.5t-27 12.5t-26 5.5q-11 -4 -26 -12t-24 -16l-28 58q6 6 15.5 13.5t21 13.5t23 10.5t20.5 4.5q19 0 35 -6
t30.5 -12.5t27 -12.5t25.5 -6q11 5 26.5 13t24.5 16z"></glyph>
    <glyph glyph-name="odieresis" unicode="&#xf6;" horiz-adv-x="489" d="M445 265q0 -80 -17 -133t-47 -85t-70.5 -45.5t-86.5 -13.5q-48 0 -82 14t-56 46t-32 83t-10 125q0 79 17 132.5t47 85t70 45t86 13.5q48 0 82.5 -14t56 -46t32 -83t10.5 -124zM334 258q0 68 -6 107t-14 65q-9 2 -22 4t-29 2q-25 0 -45 -5.5t-34 -24t-21.5 -53t-7.5 -91.5
q0 -69 5 -107.5t13 -64.5q9 -2 22 -4t30 -2q25 0 45 5.5t34 24t22 53t8 91.5zM232 584l-108 -8v88l108 9v-89zM392 584l-108 -8v88l108 9v-89z"></glyph>
    <glyph glyph-name="divide" unicode="&#xf7;" horiz-adv-x="440" d="M268 116h-95v88h95v-88zM268 420h-95v88h95v-88zM396 269h-352v88h352v-88z"></glyph>
    <glyph glyph-name="oslash" unicode="&#xf8;" horiz-adv-x="489" d="M394 482q27 -32 39 -85.5t12 -131.5q0 -80 -17 -133t-47 -85t-70.5 -45.5t-86.5 -13.5q-39 0 -67 9l-28 -58h-83l49 97q-27 32 -39 85.5t-12 134.5q0 79 17 132.5t47 85t70 45t86 13.5q39 0 72 -11l30 60h77zM147 262q0 -45 2 -79.5t4 -57.5l2 -1q8 26 30 74l114 243
q-17 3 -34 3q-27 0 -49 -6t-37.5 -25t-23.5 -55t-8 -96zM342 258q0 42 -2.5 76t-4.5 57l-2 1q-4 -13 -11 -32.5t-18 -43.5l-111 -238q8 -1 15.5 -1.5t15.5 -0.5q27 0 49 6t37 25t23.5 55t8.5 96z"></glyph>
    <glyph glyph-name="ugrave" unicode="&#xf9;" horiz-adv-x="504" d="M443 0h-101v48q-11 -8 -27.5 -18.5t-37 -19.5t-45 -15t-52.5 -6q-64 0 -92.5 31t-28.5 106v391l108 9v-354q0 -52 7 -76q4 -2 15 -4t26 -2q35 0 66 11t54 23v393l108 9v-526zM332 574l-203 73l37 86l191 -104z"></glyph>
    <glyph glyph-name="uacute" unicode="&#xfa;" horiz-adv-x="504" d="M443 0h-101v48q-11 -8 -27.5 -18.5t-37 -19.5t-45 -15t-52.5 -6q-64 0 -92.5 31t-28.5 106v391l108 9v-354q0 -52 7 -76q4 -2 15 -4t26 -2q35 0 66 11t54 23v393l108 9v-526zM378 647l-202 -73l-26 55l191 104z"></glyph>
    <glyph glyph-name="ucircumflex" unicode="&#xfb;" horiz-adv-x="504" d="M443 0h-101v48q-11 -8 -27.5 -18.5t-37 -19.5t-45 -15t-52.5 -6q-64 0 -92.5 31t-28.5 106v391l108 9v-354q0 -52 7 -76q4 -2 15 -4t26 -2q35 0 66 11t54 23v393l108 9v-526zM360 571l-108 51l-107 -51l-31 51l138 93l138 -93z"></glyph>
    <glyph glyph-name="udieresis" unicode="&#xfc;" horiz-adv-x="504" d="M443 0h-101v48q-11 -8 -27.5 -18.5t-37 -19.5t-45 -15t-52.5 -6q-64 0 -92.5 31t-28.5 106v391l108 9v-354q0 -52 7 -76q4 -2 15 -4t26 -2q35 0 66 11t54 23v393l108 9v-526zM226 584l-108 -8v88l108 9v-89zM386 584l-108 -8v88l108 9v-89z"></glyph>
    <glyph glyph-name="yacute" unicode="&#xfd;" horiz-adv-x="455" d="M296 -16q-10 -39 -22.5 -65.5t-30.5 -43t-42.5 -24t-57.5 -7.5q-43 0 -67.5 5.5t-33.5 8.5l4 95q9 -3 32 -8.5t58 -5.5q32 0 48 18t26 66l3 17h-67l-126 480h113l74 -315q15 -61 21 -106h3q3 21 7.5 48t12.5 58l74 315h111zM355 647l-202 -73l-26 55l191 104z"></glyph>
    <glyph glyph-name="thorn" unicode="&#xfe;" horiz-adv-x="499" d="M454 284q0 -86 -16 -142t-47 -89t-76.5 -46t-103.5 -13q-11 0 -22.5 0.5t-19.5 1.5v-142l-108 -11v843l108 11v-218q24 17 61 35t83 18q39 0 66 -13.5t43.5 -43t24 -77t7.5 -114.5zM278 432q-32 0 -59.5 -8.5t-49.5 -19.5v-313q8 -2 20 -3t30 -1q30 0 53 6t39.5 25.5
t25 55.5t8.5 95q0 55 -4 92.5t-11 63.5q-5 2 -18.5 4.5t-33.5 2.5z"></glyph>
    <glyph glyph-name="ydieresis" unicode="&#xff;" horiz-adv-x="455" d="M296 -16q-10 -39 -22.5 -65.5t-30.5 -43t-42.5 -24t-57.5 -7.5q-43 0 -67.5 5.5t-33.5 8.5l4 95q9 -3 32 -8.5t58 -5.5q32 0 48 18t26 66l3 17h-67l-126 480h113l74 -315q15 -61 21 -106h3q3 21 7.5 48t12.5 58l74 315h111zM203 584l-108 -8v88l108 9v-89zM363 584
l-108 -8v88l108 9v-89z"></glyph>
    <glyph glyph-name="Amacron" unicode="&#x100;" horiz-adv-x="470" d="M7 0l167 660h132l148 -660h-114l-28 147h-163l-32 -147h-110zM167 234h129l-48 265q-5 26 -7.5 41.5t-3.5 29.5h-3q-1 -14 -3 -30t-7 -42zM352 717l-222 -10v69l222 10v-69z"></glyph>
    <glyph glyph-name="amacron" unicode="&#x101;" horiz-adv-x="450" d="M290 0v47q-17 -18 -48 -37t-78 -19q-60 0 -94.5 37.5t-34.5 124.5q0 42 14.5 71.5t39.5 47.5t58 26t70 8q19 0 36 -1.5t30 -3.5v42q0 29 -2.5 50t-5.5 31q-7 3 -20.5 6t-42.5 3q-40 0 -74.5 -8.5t-56.5 -16.5l-15 91q23 10 73 21.5t114 11.5q69 0 103.5 -33t34.5 -112
v-387h-101zM203 80q24 0 44.5 7.5t35.5 16.5v122q-13 2 -30 2.5t-34 0.5q-35 0 -57 -15.5t-22 -56.5q0 -24 3.5 -41t8.5 -31q10 -3 22.5 -4t28.5 -1zM350 595l-246 -11v75l246 11v-75z"></glyph>
    <glyph glyph-name="Abreve" unicode="&#x102;" horiz-adv-x="470" d="M7 0l167 660h132l148 -660h-114l-28 147h-163l-32 -147h-110zM167 234h129l-48 265q-5 26 -7.5 41.5t-3.5 29.5h-3q-1 -14 -3 -30t-7 -42zM241 769q29 0 44.5 14t21.5 37l61 -20q-11 -44 -41 -71t-86 -27t-86 27t-41 71l61 20q6 -23 21.5 -37t44.5 -14z"></glyph>
    <glyph glyph-name="abreve" unicode="&#x103;" horiz-adv-x="450" d="M290 0v47q-17 -18 -48 -37t-78 -19q-60 0 -94.5 37.5t-34.5 124.5q0 42 14.5 71.5t39.5 47.5t58 26t70 8q19 0 36 -1.5t30 -3.5v42q0 29 -2.5 50t-5.5 31q-7 3 -20.5 6t-42.5 3q-40 0 -74.5 -8.5t-56.5 -16.5l-15 91q23 10 73 21.5t114 11.5q69 0 103.5 -33t34.5 -112
v-387h-101zM203 80q24 0 44.5 7.5t35.5 16.5v122q-13 2 -30 2.5t-34 0.5q-35 0 -57 -15.5t-22 -56.5q0 -24 3.5 -41t8.5 -31q10 -3 22.5 -4t28.5 -1zM368 688q-6 -24 -17.5 -44.5t-28.5 -36t-40.5 -24.5t-54.5 -9t-54.5 9t-40.5 24.5t-28.5 36t-17.5 44.5l68 22
q7 -25 23.5 -43.5t49.5 -18.5q34 0 50 18.5t23 43.5l68 -22v0z"></glyph>
    <glyph glyph-name="Aogonek" unicode="&#x104;" horiz-adv-x="469" d="M251 -88q0 28 26 50t61 39l-27 146h-163l-32 -147h-110l167 660h132l148 -660h-15q-32 -10 -61 -29t-44 -39q7 -5 19.5 -9t26.5 -7t29 -4.5t28 -2.5l-13 -79q-31 0 -62 4t-55.5 14t-39.5 25.5t-15 38.5zM166 234h129l-48 265q-5 26 -7.5 41.5t-3.5 29.5h-3q-1 -14 -3 -30
t-7 -42z"></glyph>
    <glyph glyph-name="aogonek" unicode="&#x105;" horiz-adv-x="451" d="M200 -88q0 29 27 51.5t64 39.5v44q-17 -18 -48 -37t-78 -19q-60 0 -94.5 37.5t-34.5 124.5q0 42 14.5 71.5t39.5 47.5t58 26t70 8q19 0 36 -1.5t30 -3.5v42q0 29 -2.5 50t-5.5 31q-7 3 -20.5 6t-42.5 3q-40 0 -74.5 -8.5t-56.5 -16.5l-15 91q23 10 73 21.5t114 11.5
q69 0 103.5 -33t34.5 -112v-387h-5q-32 -10 -61 -29t-44 -39q7 -5 19.5 -9t26.5 -7t29 -4.5t28 -2.5l-13 -79q-31 0 -62 4t-55.5 14t-39.5 25.5t-15 38.5zM204 80q24 0 44.5 7.5t35.5 16.5v122q-13 2 -30 2.5t-34 0.5q-35 0 -57 -15.5t-22 -56.5q0 -24 3.5 -41t8.5 -31
q10 -3 22.5 -4t28.5 -1z"></glyph>
    <glyph glyph-name="Cacute" unicode="&#x106;" horiz-adv-x="406" d="M48 320q0 97 13.5 163.5t41 108t69 60t97.5 18.5q41 0 66 -5t41 -10l-10 -99q-11 2 -37 7.5t-58 5.5q-30 0 -51.5 -9.5t-35 -36t-20 -73.5t-6.5 -123q0 -49 2 -85.5t5.5 -64t7.5 -46.5t9 -34q11 -2 25.5 -3.5t32.5 -1.5q39 0 70.5 4.5t52.5 9.5l4 -97q-20 -6 -53 -12.5
t-75 -6.5q-55 0 -91.5 12.5t-58.5 48.5t-31.5 100.5t-9.5 168.5zM161 743l179 80l26 -80l-187 -50z"></glyph>
    <glyph glyph-name="cacute" unicode="&#x107;" horiz-adv-x="392" d="M354 20q-17 -8 -56 -19t-91 -11q-44 0 -74.5 13.5t-50.5 45t-29 82.5t-9 127t14 128t41 84t67 46t91 14q35 0 60.5 -5.5t39.5 -10.5l-13 -97q-11 4 -34.5 8.5t-48.5 4.5q-28 0 -48.5 -7t-33.5 -25.5t-19.5 -50.5t-6.5 -83q0 -63 6.5 -104t14.5 -69q7 -1 11.5 -1h11.5
q45 0 80.5 7t65.5 17zM351 647l-202 -73l-26 55l191 104z"></glyph>
    <glyph glyph-name="Ccircumflex" unicode="&#x108;" horiz-adv-x="406" d="M48 320q0 97 13.5 163.5t41 108t69 60t97.5 18.5q41 0 66 -5t41 -10l-10 -99q-11 2 -37 7.5t-58 5.5q-30 0 -51.5 -9.5t-35 -36t-20 -73.5t-6.5 -123q0 -49 2 -85.5t5.5 -64t7.5 -46.5t9 -34q11 -2 25.5 -3.5t32.5 -1.5q39 0 70.5 4.5t52.5 9.5l4 -97q-20 -6 -53 -12.5
t-75 -6.5q-55 0 -91.5 12.5t-58.5 48.5t-31.5 100.5t-9.5 168.5zM347 695l-100 41l-98 -41l-26 50l124 74l125 -74z"></glyph>
    <glyph glyph-name="ccircumflex" unicode="&#x109;" horiz-adv-x="392" d="M354 20q-17 -8 -56 -19t-91 -11q-44 0 -74.5 13.5t-50.5 45t-29 82.5t-9 127t14 128t41 84t67 46t91 14q35 0 60.5 -5.5t39.5 -10.5l-13 -97q-11 4 -34.5 8.5t-48.5 4.5q-28 0 -48.5 -7t-33.5 -25.5t-19.5 -50.5t-6.5 -83q0 -63 6.5 -104t14.5 -69q7 -1 11.5 -1h11.5
q45 0 80.5 7t65.5 17zM333 571l-108 51l-107 -51l-31 51l138 93l138 -93z"></glyph>
    <glyph glyph-name="Cdotaccent" unicode="&#x10a;" horiz-adv-x="406" d="M48 320q0 97 13.5 163.5t41 108t69 60t97.5 18.5q41 0 66 -5t41 -10l-10 -99q-11 2 -37 7.5t-58 5.5q-30 0 -51.5 -9.5t-35 -36t-20 -73.5t-6.5 -123q0 -49 2 -85.5t5.5 -64t7.5 -46.5t9 -34q11 -2 25.5 -3.5t32.5 -1.5q39 0 70.5 4.5t52.5 9.5l4 -97q-20 -6 -53 -12.5
t-75 -6.5q-55 0 -91.5 12.5t-58.5 48.5t-31.5 100.5t-9.5 168.5zM301 711l-108 -9v91l108 9v-91z"></glyph>
    <glyph glyph-name="cdotaccent" unicode="&#x10b;" horiz-adv-x="392" d="M354 20q-17 -8 -56 -19t-91 -11q-44 0 -74.5 13.5t-50.5 45t-29 82.5t-9 127t14 128t41 84t67 46t91 14q35 0 60.5 -5.5t39.5 -10.5l-13 -97q-11 4 -34.5 8.5t-48.5 4.5q-28 0 -48.5 -7t-33.5 -25.5t-19.5 -50.5t-6.5 -83q0 -63 6.5 -104t14.5 -69q7 -1 11.5 -1h11.5
q45 0 80.5 7t65.5 17zM280 583l-110 -9v94l110 9v-94z"></glyph>
    <glyph glyph-name="Ccaron" unicode="&#x10c;" horiz-adv-x="406" d="M48 320q0 97 13.5 163.5t41 108t69 60t97.5 18.5q41 0 66 -5t41 -10l-10 -99q-11 2 -37 7.5t-58 5.5q-30 0 -51.5 -9.5t-35 -36t-20 -73.5t-6.5 -123q0 -49 2 -85.5t5.5 -64t7.5 -46.5t9 -34q11 -2 25.5 -3.5t32.5 -1.5q39 0 70.5 4.5t52.5 9.5l4 -97q-20 -6 -53 -12.5
t-75 -6.5q-55 0 -91.5 12.5t-58.5 48.5t-31.5 100.5t-9.5 168.5zM372 769l-124 -74l-125 74l25 50l100 -41l98 41z"></glyph>
    <glyph glyph-name="ccaron" unicode="&#x10d;" horiz-adv-x="392" d="M354 20q-17 -8 -56 -19t-91 -11q-44 0 -74.5 13.5t-50.5 45t-29 82.5t-9 127t14 128t41 84t67 46t91 14q35 0 60.5 -5.5t39.5 -10.5l-13 -97q-11 4 -34.5 8.5t-48.5 4.5q-28 0 -48.5 -7t-33.5 -25.5t-19.5 -50.5t-6.5 -83q0 -63 6.5 -104t14.5 -69q7 -1 11.5 -1h11.5
q45 0 80.5 7t65.5 17zM363 664l-138 -93l-138 93l30 51l108 -51l107 51z"></glyph>
    <glyph glyph-name="Dcaron" unicode="&#x10e;" horiz-adv-x="490" d="M443 345q0 -98 -14 -164.5t-42 -106.5t-70.5 -57t-98.5 -17h-154v660q24 2 68.5 4t95.5 2q59 0 100 -13t66.5 -48.5t37 -98t11.5 -161.5zM331 337q0 96 -11 148.5t-25 81.5q-23 3 -64 3q-15 0 -31 -0.5t-28 -1.5v-470h47q29 0 50 10t35 36t20.5 72.5t6.5 120.5zM349 769
l-124 -74l-125 74l25 50l100 -41l98 41z"></glyph>
    <glyph glyph-name="dcaron" unicode="&#x10f;" horiz-adv-x="564" d="M436 0h-102v49q-11 -10 -25.5 -20.5t-33.5 -19.5t-41 -15t-48 -6q-33 0 -59 13.5t-44.5 45t-28.5 83t-10 128.5q0 79 19 131t51.5 82.5t76 42.5t92.5 12q24 0 44 -3v163l109 11v-697zM224 88q30 0 56 8.5t47 19.5v313q-15 3 -43 3q-33 0 -57.5 -7t-41 -25t-24.5 -50.5
t-8 -83.5t5.5 -97.5t13.5 -75.5q7 -2 19 -3.5t33 -1.5zM590 627l-41 -123h-53v186h94v-63z"></glyph>
    <glyph glyph-name="Dcroat" unicode="&#x110;" horiz-adv-x="500" d="M453 345q0 -98 -14 -164.5t-42 -106.5t-70.5 -57t-98.5 -17h-154v298h-57v71h57v291q24 2 68.5 4t95.5 2q59 0 100 -13t66.5 -48.5t37 -98t11.5 -161.5zM341 337q0 96 -11 148.5t-25 81.5q-23 3 -64 3q-15 0 -31 -0.5t-28 -1.5v-199h83v-71h-83v-200h47q29 0 50 10t35 36
t20.5 72.5t6.5 120.5z"></glyph>
    <glyph glyph-name="dcroat" unicode="&#x111;" horiz-adv-x="497" d="M489 575h-53v-575h-102v49q-11 -10 -25.5 -20.5t-33.5 -19.5t-41 -15t-48 -6q-33 0 -59 13t-44.5 44.5t-28.5 83t-10 128.5q0 79 19 130.5t51.5 81.5t76 42t92.5 12q24 0 44 -3v55h-116v59h116v52l109 11v-63h53v-59zM224 88q30 0 56 8.5t47 19.5v310q-15 3 -43 3
q-33 0 -57.5 -6.5t-41 -24.5t-24.5 -50t-8 -83t5.5 -97t13.5 -75q7 -2 19 -3.5t33 -1.5z"></glyph>
    <glyph glyph-name="Emacron" unicode="&#x112;" horiz-adv-x="408" d="M353 560h-181v-178h175v-98h-175v-183h190v-101h-298v660h296zM325 717l-222 -10v69l222 10v-69z"></glyph>
    <glyph glyph-name="emacron" unicode="&#x113;" horiz-adv-x="447" d="M403 352q0 -43 -2.5 -76.5t-4.5 -56.5l-241 -13q2 -37 6.5 -66t9.5 -50q9 -2 23 -3.5t37 -1.5q51 0 92 9.5t61 17.5l11 -91q-19 -10 -62.5 -21.5t-111.5 -11.5q-51 0 -85 15t-54.5 47.5t-29 84t-8.5 125.5q0 76 15 128.5t42 84t64.5 45.5t82.5 14q44 0 74 -12t48 -35
t25.5 -56.5t7.5 -76.5zM248 443q-21 0 -38 -5.5t-29 -22.5t-19 -49t-8 -84l143 8q2 15 2 27.5v29.5q0 24 -3 49t-8 42q-5 2 -15 3.5t-25 1.5zM360 595l-246 -11v75l246 11v-75z"></glyph>
    <glyph glyph-name="Ebreve" unicode="&#x114;" horiz-adv-x="408" d="M353 560h-181v-178h175v-98h-175v-183h190v-101h-298v660h296zM214 769q29 0 44.5 14t21.5 37l61 -20q-11 -44 -41 -71t-86 -27t-86 27t-41 71l61 20q6 -23 21.5 -37t44.5 -14z"></glyph>
    <glyph glyph-name="ebreve" unicode="&#x115;" horiz-adv-x="447" d="M403 352q0 -43 -2.5 -76.5t-4.5 -56.5l-241 -13q2 -37 6.5 -66t9.5 -50q9 -2 23 -3.5t37 -1.5q51 0 92 9.5t61 17.5l11 -91q-19 -10 -62.5 -21.5t-111.5 -11.5q-51 0 -85 15t-54.5 47.5t-29 84t-8.5 125.5q0 76 15 128.5t42 84t64.5 45.5t82.5 14q44 0 74 -12t48 -35
t25.5 -56.5t7.5 -76.5zM248 443q-21 0 -38 -5.5t-29 -22.5t-19 -49t-8 -84l143 8q2 15 2 27.5v29.5q0 24 -3 49t-8 42q-5 2 -15 3.5t-25 1.5zM378 688q-6 -24 -17.5 -44.5t-28.5 -36t-40.5 -24.5t-54.5 -9t-54.5 9t-40.5 24.5t-28.5 36t-17.5 44.5l68 22q7 -25 23.5 -43.5
t49.5 -18.5q34 0 50 18.5t23 43.5l68 -22v0z"></glyph>
    <glyph glyph-name="Edotaccent" unicode="&#x116;" horiz-adv-x="408" d="M353 560h-181v-178h175v-98h-175v-183h190v-101h-298v660h296zM268 711l-108 -9v91l108 9v-91z"></glyph>
    <glyph glyph-name="edotaccent" unicode="&#x117;" horiz-adv-x="447" d="M403 352q0 -43 -2.5 -76.5t-4.5 -56.5l-241 -13q2 -37 6.5 -66t9.5 -50q9 -2 23 -3.5t37 -1.5q51 0 92 9.5t61 17.5l11 -91q-19 -10 -62.5 -21.5t-111.5 -11.5q-51 0 -85 15t-54.5 47.5t-29 84t-8.5 125.5q0 76 15 128.5t42 84t64.5 45.5t82.5 14q44 0 74 -12t48 -35
t25.5 -56.5t7.5 -76.5zM248 443q-21 0 -38 -5.5t-29 -22.5t-19 -49t-8 -84l143 8q2 15 2 27.5v29.5q0 24 -3 49t-8 42q-5 2 -15 3.5t-25 1.5zM292 583l-110 -9v94l110 9v-94z"></glyph>
    <glyph glyph-name="Eogonek" unicode="&#x118;" horiz-adv-x="408" d="M153 -88q0 27 25 49t59 39h-173v660h296l-7 -100h-181v-178h175v-98h-175v-183h190v-101h-22q-32 -10 -61 -29t-44 -39q7 -5 19.5 -9t26.5 -7t29 -4.5t28 -2.5l-13 -79q-31 0 -62 4t-55.5 14t-39.5 25.5t-15 38.5z"></glyph>
    <glyph glyph-name="eogonek" unicode="&#x119;" horiz-adv-x="447" d="M171 -81q0 20 14 37.5t37 31.5h-1q-51 0 -85 15t-54.5 47.5t-29 84t-8.5 125.5q0 76 15 128.5t42 84t64.5 45.5t82.5 14q44 0 74 -12t48 -35t25.5 -56.5t7.5 -76.5t-2.5 -76.5t-4.5 -56.5l-241 -13q2 -37 6.5 -66t9.5 -50q9 -2 23 -3.5t37 -1.5q51 0 92 9.5t61 17.5
l11 -91q-8 -5 -21 -9.5t-30 -9.5q-28 -11 -52.5 -28.5t-38.5 -34.5q7 -5 19.5 -9t26.5 -7t29 -4.5t28 -2.5l-13 -79q-31 0 -62 4t-55.5 14t-39.5 25.5t-15 38.5zM248 443q-21 0 -38 -5.5t-29 -22.5t-19 -49t-8 -84l143 8q2 15 2 27.5v29.5q0 24 -3 49t-8 42q-5 2 -15 3.5
t-25 1.5z"></glyph>
    <glyph glyph-name="Ecaron" unicode="&#x11a;" horiz-adv-x="408" d="M353 560h-181v-178h175v-98h-175v-183h190v-101h-298v660h296zM339 769l-124 -74l-125 74l25 50l100 -41l98 41z"></glyph>
    <glyph glyph-name="ecaron" unicode="&#x11b;" horiz-adv-x="447" d="M403 352q0 -43 -2.5 -76.5t-4.5 -56.5l-241 -13q2 -37 6.5 -66t9.5 -50q9 -2 23 -3.5t37 -1.5q51 0 92 9.5t61 17.5l11 -91q-19 -10 -62.5 -21.5t-111.5 -11.5q-51 0 -85 15t-54.5 47.5t-29 84t-8.5 125.5q0 76 15 128.5t42 84t64.5 45.5t82.5 14q44 0 74 -12t48 -35
t25.5 -56.5t7.5 -76.5zM248 443q-21 0 -38 -5.5t-29 -22.5t-19 -49t-8 -84l143 8q2 15 2 27.5v29.5q0 24 -3 49t-8 42q-5 2 -15 3.5t-25 1.5zM375 664l-138 -93l-138 93l30 51l108 -51l107 51z"></glyph>
    <glyph glyph-name="Gcircumflex" unicode="&#x11c;" horiz-adv-x="472" d="M419 23q-9 -4 -28 -9.5t-44 -11t-53 -9t-56 -3.5q-56 0 -92.5 13t-58 49.5t-30.5 101t-9 166.5q0 100 14 167t42.5 107.5t72 58t102.5 17.5q46 0 83 -7t55 -12l-10 -99q-13 3 -49 10t-77 7q-35 0 -58.5 -9t-37.5 -35t-20.5 -73.5t-6.5 -124.5q0 -49 2 -86t6 -64.5
t8 -47.5t9 -35q23 -5 51 -5q23 0 44 2.5t39 7.5v182h-60v96h162v-354zM363 695l-100 41l-98 -41l-26 50l124 74l125 -74z"></glyph>
    <glyph glyph-name="gcircumflex" unicode="&#x11d;" horiz-adv-x="472" d="M436 -5q0 -70 -56 -111t-168 -41q-96 0 -137.5 25t-41.5 77q0 38 21 60.5t47 35.5l-42 33q6 32 19.5 63.5t28.5 57.5q-38 23 -53 62.5t-15 93.5q0 89 53.5 134t145.5 45q46 0 82 -11l16 61l115 12v-21l-62 -97q36 -45 36 -127q0 -88 -55 -133t-145 -45q-12 0 -22.5 0.5
t-21.5 1.5q-14 -26 -23 -60h99q95 0 137 -26t42 -90zM318 345q0 32 -3 56.5t-6 34.5q-5 2 -24.5 5.5t-44.5 3.5q-26 0 -44 -4.5t-29 -15t-16 -28.5t-5 -46q0 -32 3 -56t5 -33q6 -2 25.5 -6t43.5 -4q53 0 74 19t21 74zM153 25q-10 -10 -15.5 -23.5t-5.5 -34.5q0 -11 1 -21.5
t3 -15.5q8 -3 29 -6t53 -3q35 0 57.5 4.5t36 13t18.5 20t5 25.5q0 10 -1 20.5t-3 15.5q-11 2 -28.5 3.5t-50.5 1.5h-99zM335 588l-108 51l-107 -51l-31 51l138 93l138 -93z"></glyph>
    <glyph glyph-name="Gbreve" unicode="&#x11e;" horiz-adv-x="472" d="M419 23q-9 -4 -28 -9.5t-44 -11t-53 -9t-56 -3.5q-56 0 -92.5 13t-58 49.5t-30.5 101t-9 166.5q0 100 14 167t42.5 107.5t72 58t102.5 17.5q46 0 83 -7t55 -12l-10 -99q-13 3 -49 10t-77 7q-35 0 -58.5 -9t-37.5 -35t-20.5 -73.5t-6.5 -124.5q0 -49 2 -86t6 -64.5
t8 -47.5t9 -35q23 -5 51 -5q23 0 44 2.5t39 7.5v182h-60v96h162v-354zM263 769q29 0 44.5 14t21.5 37l61 -20q-11 -44 -41 -71t-86 -27t-86 27t-41 71l61 20q6 -23 21.5 -37t44.5 -14z"></glyph>
    <glyph glyph-name="gbreve" unicode="&#x11f;" horiz-adv-x="472" d="M436 -5q0 -70 -56 -111t-168 -41q-96 0 -137.5 25t-41.5 77q0 38 21 60.5t47 35.5l-42 33q6 32 19.5 63.5t28.5 57.5q-38 23 -53 62.5t-15 93.5q0 89 53.5 134t145.5 45q46 0 82 -11l16 61l115 12v-21l-62 -97q36 -45 36 -127q0 -88 -55 -133t-145 -45q-12 0 -22.5 0.5
t-21.5 1.5q-14 -26 -23 -60h99q95 0 137 -26t42 -90zM318 345q0 32 -3 56.5t-6 34.5q-5 2 -24.5 5.5t-44.5 3.5q-26 0 -44 -4.5t-29 -15t-16 -28.5t-5 -46q0 -32 3 -56t5 -33q6 -2 25.5 -6t43.5 -4q53 0 74 19t21 74zM153 25q-10 -10 -15.5 -23.5t-5.5 -34.5q0 -11 1 -21.5
t3 -15.5q8 -3 29 -6t53 -3q35 0 57.5 4.5t36 13t18.5 20t5 25.5q0 10 -1 20.5t-3 15.5q-11 2 -28.5 3.5t-50.5 1.5h-99zM368 705q-6 -24 -17.5 -44.5t-28.5 -36t-40.5 -24.5t-54.5 -9t-54.5 9t-40.5 24.5t-28.5 36t-17.5 44.5l68 22q7 -25 23.5 -43.5t49.5 -18.5
q34 0 50 18.5t23 43.5l68 -22v0z"></glyph>
    <glyph glyph-name="Gdotaccent" unicode="&#x120;" horiz-adv-x="472" d="M419 23q-9 -4 -28 -9.5t-44 -11t-53 -9t-56 -3.5q-56 0 -92.5 13t-58 49.5t-30.5 101t-9 166.5q0 100 14 167t42.5 107.5t72 58t102.5 17.5q46 0 83 -7t55 -12l-10 -99q-13 3 -49 10t-77 7q-35 0 -58.5 -9t-37.5 -35t-20.5 -73.5t-6.5 -124.5q0 -49 2 -86t6 -64.5
t8 -47.5t9 -35q23 -5 51 -5q23 0 44 2.5t39 7.5v182h-60v96h162v-354zM317 711l-108 -9v91l108 9v-91z"></glyph>
    <glyph glyph-name="gdotaccent" unicode="&#x121;" horiz-adv-x="472" d="M436 -5q0 -70 -56 -111t-168 -41q-96 0 -137.5 25t-41.5 77q0 38 21 60.5t47 35.5l-42 33q6 32 19.5 63.5t28.5 57.5q-38 23 -53 62.5t-15 93.5q0 89 53.5 134t145.5 45q46 0 82 -11l16 61l115 12v-21l-62 -97q36 -45 36 -127q0 -88 -55 -133t-145 -45q-12 0 -22.5 0.5
t-21.5 1.5q-14 -26 -23 -60h99q95 0 137 -26t42 -90zM318 345q0 32 -3 56.5t-6 34.5q-5 2 -24.5 5.5t-44.5 3.5q-26 0 -44 -4.5t-29 -15t-16 -28.5t-5 -46q0 -32 3 -56t5 -33q6 -2 25.5 -6t43.5 -4q53 0 74 19t21 74zM153 25q-10 -10 -15.5 -23.5t-5.5 -34.5q0 -11 1 -21.5
t3 -15.5q8 -3 29 -6t53 -3q35 0 57.5 4.5t36 13t18.5 20t5 25.5q0 10 -1 20.5t-3 15.5q-11 2 -28.5 3.5t-50.5 1.5h-99zM282 600l-110 -9v94l110 9v-94z"></glyph>
    <glyph glyph-name="Gcommaaccent" unicode="&#x122;" horiz-adv-x="472" d="M419 23q-9 -4 -28 -9.5t-44 -11t-53 -9t-56 -3.5q-56 0 -92.5 13t-58 49.5t-30.5 101t-9 166.5q0 100 14 167t42.5 107.5t72 58t102.5 17.5q46 0 83 -7t55 -12l-10 -99q-13 3 -49 10t-77 7q-35 0 -58.5 -9t-37.5 -35t-20.5 -73.5t-6.5 -124.5q0 -49 2 -86t6 -64.5
t8 -47.5t9 -35q23 -5 51 -5q23 0 44 2.5t39 7.5v182h-60v96h162v-354zM300 -105l-41 -111h-53v170h94v-59z"></glyph>
    <glyph glyph-name="gcommaaccent" unicode="&#x123;" horiz-adv-x="472" d="M436 -5q0 -70 -56 -111t-168 -41q-96 0 -137.5 25t-41.5 77q0 38 21 60.5t47 35.5l-42 33q6 32 19.5 63.5t28.5 57.5q-38 23 -53 62.5t-15 93.5q0 89 53.5 134t145.5 45q46 0 82 -11l16 61l115 12v-21l-62 -97q36 -45 36 -127q0 -88 -55 -133t-145 -45q-12 0 -22.5 0.5
t-21.5 1.5q-14 -26 -23 -60h99q95 0 137 -26t42 -90zM318 345q0 32 -3 56.5t-6 34.5q-5 2 -24.5 5.5t-44.5 3.5q-26 0 -44 -4.5t-29 -15t-16 -28.5t-5 -46q0 -32 3 -56t5 -33q6 -2 25.5 -6t43.5 -4q53 0 74 19t21 74zM153 25q-10 -10 -15.5 -23.5t-5.5 -34.5q0 -11 1 -21.5
t3 -15.5q8 -3 29 -6t53 -3q35 0 57.5 4.5t36 13t18.5 20t5 25.5q0 10 -1 20.5t-3 15.5q-11 2 -28.5 3.5t-50.5 1.5h-99zM180 661l41 105h53v-167h-94v62z"></glyph>
    <glyph glyph-name="Hcircumflex" unicode="&#x124;" horiz-adv-x="522" d="M458 0h-108v282h-178v-282h-108v660h108v-277h178v277h108v-660zM359 695l-100 41l-98 -41l-26 50l124 74l125 -74z"></glyph>
    <glyph glyph-name="hcircumflex" unicode="&#x125;" horiz-adv-x="506" d="M338 0v350q0 30 -1.5 46.5t-5.5 29.5q-7 2 -18 4t-28 2q-35 0 -64.5 -9.5t-51.5 -20.5v-402h-108v686l108 11v-214q26 16 67 32.5t88 16.5q64 0 93.5 -29t29.5 -100v-403h-109zM214 700l-100 41l-98 -41l-26 50l124 74l125 -74z"></glyph>
    <glyph glyph-name="Hbar" unicode="&#x126;" horiz-adv-x="542" d="M525 488h-57v-488h-108v282h-178v-282h-108v488h-57v70h57v102h108v-102h178v102h108v-102h57v-70zM360 383v105h-178v-105h178z"></glyph>
    <glyph glyph-name="hbar" unicode="&#x127;" horiz-adv-x="505" d="M338 0v350q0 30 -2 46.5t-5 29.5q-8 2 -18.5 4t-27.5 2q-35 0 -64.5 -9.5t-51.5 -20.5v-402h-108v575h-53v59h53v52l108 11v-63h117v-59h-117v-93q26 16 67 33t87 17q64 0 93.5 -29t29.5 -100v-403h-108z"></glyph>
    <glyph glyph-name="Itilde" unicode="&#x128;" horiz-adv-x="237" d="M173 0h-109v660h109v-660zM237 738q-6 -6 -15 -12.5t-19 -12t-20.5 -9t-18.5 -3.5q-17 0 -31 5t-26 10.5t-23.5 10.5t-23.5 5q-10 -4 -23.5 -11.5t-21.5 -13.5l-22 54q5 6 14 12.5t19 12t20.5 9.5t18.5 4q17 0 31 -5t26 -11t23.5 -11t23.5 -5q10 5 23.5 12.5t21.5 13.5z
"></glyph>
    <glyph glyph-name="itilde" unicode="&#x129;" horiz-adv-x="234" d="M171 0h-108v517l108 9v-526zM254 617q-6 -6 -16 -13.5t-21 -13.5t-23 -10.5t-21 -4.5q-19 0 -35 5.5t-30 12.5t-27 12.5t-26 5.5q-11 -4 -26 -12t-24 -16l-28 58q6 6 15.5 13.5t21 13.5t23 10.5t20.5 4.5q19 0 35 -6t30.5 -12.5t27 -12.5t25.5 -6q11 5 26.5 13t24.5 16z
"></glyph>
    <glyph glyph-name="Imacron" unicode="&#x12a;" horiz-adv-x="237" d="M173 0h-109v660h109v-660zM230 717l-222 -10v69l222 10v-69z"></glyph>
    <glyph glyph-name="imacron" unicode="&#x12b;" horiz-adv-x="234" d="M171 0h-108v517l108 9v-526zM243 595l-246 -11v75l246 11v-75z"></glyph>
    <glyph glyph-name="Ibreve" unicode="&#x12c;" horiz-adv-x="237" d="M173 0h-109v660h109v-660zM119 769q29 0 44.5 14t21.5 37l61 -20q-11 -44 -41 -71t-86 -27t-86 27t-41 71l61 20q6 -23 21.5 -37t44.5 -14z"></glyph>
    <glyph glyph-name="ibreve" unicode="&#x12d;" horiz-adv-x="234" d="M171 0h-108v517l108 9v-526zM261 688q-6 -24 -17.5 -44.5t-28.5 -36t-40.5 -24.5t-54.5 -9t-54.5 9t-40.5 24.5t-28.5 36t-17.5 44.5l68 22q7 -25 23.5 -43.5t49.5 -18.5q34 0 50 18.5t23 43.5l68 -22v0z"></glyph>
    <glyph glyph-name="Iogonek" unicode="&#x12e;" horiz-adv-x="237" d="M-22 -88q0 28 25.5 49.5t60.5 38.5v660h109v-660h-8q-32 -10 -61 -29t-44 -39q7 -5 19.5 -9t26.5 -7t29 -4.5t28 -2.5l-13 -79q-31 0 -62 4t-55.5 14t-39.5 25.5t-15 38.5z"></glyph>
    <glyph glyph-name="iogonek" unicode="&#x12f;" horiz-adv-x="234" d="M-22 -88q0 27 25 49t60 39v517l108 9v-526h-6q-32 -10 -61 -29t-44 -39q7 -5 19.5 -9t26.5 -7t29 -4.5t28 -2.5l-13 -79q-31 0 -62 4t-55.5 14t-39.5 25.5t-15 38.5zM174 597l-114 -9v92l114 9v-92z"></glyph>
    <glyph glyph-name="Idotaccent" unicode="&#x130;" horiz-adv-x="237" d="M173 0h-109v660h109v-660zM173 711l-108 -9v91l108 9v-91z"></glyph>
    <glyph glyph-name="dotlessi" unicode="&#x131;" horiz-adv-x="234" d="M171 0h-108v517l108 9v-526z"></glyph>
    <glyph glyph-name="IJ" unicode="&#x132;" horiz-adv-x="475" d="M173 0h-109v660h109v-660zM412 93q0 -44 -7.5 -74t-22.5 -54t-37 -45t-52 -45l-74 67q24 23 47.5 50.5t36.5 53.5v614h109v-567z"></glyph>
    <glyph glyph-name="ij" unicode="&#x133;" horiz-adv-x="463" d="M171 0h-108v517l108 9v-526zM174 597l-114 -9v92l114 9v-92zM402 60q0 -44 -7 -74t-21.5 -54t-36.5 -45t-53 -46l-73 64q25 25 46.5 52.5t36.5 53.5v506l108 9v-466zM405 597l-114 -9v92l114 9v-92z"></glyph>
    <glyph glyph-name="Jcircumflex" unicode="&#x134;" horiz-adv-x="238" d="M175 93q0 -44 -7.5 -74t-22.5 -54t-37 -45t-52 -45l-74 67q24 23 47.5 50.5t36.5 53.5v614h109v-567zM222 695l-100 41l-98 -41l-26 50l124 74l125 -74z"></glyph>
    <glyph glyph-name="jcircumflex" unicode="&#x135;" horiz-adv-x="229" d="M168 60q0 -44 -7 -74t-21.5 -54t-36.5 -45t-53 -46l-73 64q25 25 46.5 52.5t36.5 53.5v506l108 9v-466zM222 571l-108 51l-107 -51l-31 51l138 93l138 -93z"></glyph>
    <glyph glyph-name="Kcommaaccent" unicode="&#x136;" horiz-adv-x="477" d="M289 336l173 -333l-118 -9l-143 291h-29v-285h-108v660h108v-279h33l137 279h112zM292 -105l-41 -111h-53v170h94v-59z"></glyph>
    <glyph glyph-name="kcommaaccent" unicode="&#x137;" horiz-adv-x="450" d="M322 -6l-124 230h-29v-224h-108v686l108 11v-383h29l123 206l115 3l-151 -248l159 -272zM279 -105l-41 -111h-53v170h94v-59z"></glyph>
    <glyph glyph-name="kgreenlandic" unicode="&#x138;" horiz-adv-x="449" d="M322 -6l-124 225h-29v-219h-108v517l108 9v-217h29l123 211l115 3l-151 -253l159 -267z"></glyph>
    <glyph glyph-name="Lacute" unicode="&#x139;" horiz-adv-x="373" d="M343 0h-279v660h108v-559h181zM34 743l179 80l26 -80l-187 -50z"></glyph>
    <glyph glyph-name="lacute" unicode="&#x13a;" horiz-adv-x="234" d="M171 0h-108v686l108 11v-697zM31 755l179 80l26 -80l-187 -50z"></glyph>
    <glyph glyph-name="Lcommaaccent" unicode="&#x13b;" horiz-adv-x="373" d="M343 0h-279v660h108v-559h181zM244 -105l-41 -111h-53v170h94v-59z"></glyph>
    <glyph glyph-name="lcommaaccent" unicode="&#x13c;" horiz-adv-x="234" d="M171 0h-108v686l108 11v-697zM165 -105l-41 -111h-53v170h94v-59z"></glyph>
    <glyph glyph-name="Lcaron" unicode="&#x13d;" horiz-adv-x="390" d="M343 0h-279v660h108v-559h181zM357 597l-41 -123h-53v186h94v-63z"></glyph>
    <glyph glyph-name="lcaron" unicode="&#x13e;" horiz-adv-x="299" d="M171 0h-108v686l108 11v-697zM325 627l-41 -123h-53v186h94v-63z"></glyph>
    <glyph glyph-name="Ldot" unicode="&#x13f;" horiz-adv-x="387" d="M347 328l-102 -9v94l102 9v-94zM343 0h-279v660h108v-559h181z"></glyph>
    <glyph glyph-name="ldot" unicode="&#x140;" horiz-adv-x="343" d="M332 318l-102 -9v94l102 9v-94zM171 0h-108v686l108 11v-697z"></glyph>
    <glyph glyph-name="Lslash" unicode="&#x141;" horiz-adv-x="385" d="M354 0h-279v257l-57 -21v77l57 20v327h109v-287l116 42v-76l-116 -43v-195h180z"></glyph>
    <glyph glyph-name="lslash" unicode="&#x142;" horiz-adv-x="307" d="M279 371l-71 -32v-339h-109v290l-71 -31v76l71 31v320l109 11v-282l71 32v-76z"></glyph>
    <glyph glyph-name="Nacute" unicode="&#x143;" horiz-adv-x="524" d="M460 0h-109l-150 347q-11 26 -20.5 53t-14.5 41h-3q1 -14 1.5 -44t0.5 -62v-335h-101v660h108l150 -346q13 -30 22 -55t14 -42h3q-1 15 -2 42.5t-1 58.5v342h102v-660zM170 743l179 80l26 -80l-187 -50z"></glyph>
    <glyph glyph-name="nacute" unicode="&#x144;" horiz-adv-x="505" d="M338 0v350q0 30 -2 46.5t-5 29.5q-8 2 -18.5 4t-27.5 2q-35 0 -64.5 -9.5t-51.5 -20.5v-402h-108v517l101 9v-48q13 8 30.5 17.5t38 17.5t44 13.5t48.5 5.5q64 0 93.5 -29t29.5 -100v-403h-108zM392 647l-202 -73l-26 55l191 104z"></glyph>
    <glyph glyph-name="Ncommaaccent" unicode="&#x145;" horiz-adv-x="524" d="M460 0h-109l-150 347q-11 26 -20.5 53t-14.5 41h-3q1 -14 1.5 -44t0.5 -62v-335h-101v660h108l150 -346q13 -30 22 -55t14 -42h3q-1 15 -2 42.5t-1 58.5v342h102v-660zM308 -105l-41 -111h-53v170h94v-59z"></glyph>
    <glyph glyph-name="ncommaaccent" unicode="&#x146;" horiz-adv-x="505" d="M338 0v350q0 30 -2 46.5t-5 29.5q-8 2 -18.5 4t-27.5 2q-35 0 -64.5 -9.5t-51.5 -20.5v-402h-108v517l101 9v-48q13 8 30.5 17.5t38 17.5t44 13.5t48.5 5.5q64 0 93.5 -29t29.5 -100v-403h-108zM302 -105l-41 -111h-53v170h94v-59z"></glyph>
    <glyph glyph-name="Ncaron" unicode="&#x147;" horiz-adv-x="524" d="M460 0h-109l-150 347q-11 26 -20.5 53t-14.5 41h-3q1 -14 1.5 -44t0.5 -62v-335h-101v660h108l150 -346q13 -30 22 -55t14 -42h3q-1 15 -2 42.5t-1 58.5v342h102v-660zM381 769l-124 -74l-125 74l25 50l100 -41l98 41z"></glyph>
    <glyph glyph-name="ncaron" unicode="&#x148;" horiz-adv-x="505" d="M338 0v350q0 30 -2 46.5t-5 29.5q-8 2 -18.5 4t-27.5 2q-35 0 -64.5 -9.5t-51.5 -20.5v-402h-108v517l101 9v-48q13 8 30.5 17.5t38 17.5t44 13.5t48.5 5.5q64 0 93.5 -29t29.5 -100v-403h-108zM404 664l-138 -93l-138 93l30 51l108 -51l107 51z"></glyph>
    <glyph glyph-name="napostrophe" unicode="&#x149;" horiz-adv-x="615" d="M448 0v350q0 30 -2 46.5t-5 29.5q-8 2 -18.5 4t-27.5 2q-35 0 -64.5 -9.5t-51.5 -20.5v-402h-108v517l101 9v-48q13 8 30.5 17.5t38 17.5t44 13.5t48.5 5.5q64 0 93.5 -29t29.5 -100v-403h-108zM126 597l-41 -123h-53v186h94v-63z"></glyph>
    <glyph glyph-name="Eng" unicode="&#x14a;" horiz-adv-x="523" d="M460 93q0 -44 -8 -75t-23 -55.5t-37.5 -45t-50.5 -42.5l-72 64q25 22 48.5 48.5t35.5 49.5l-149 313q-13 26 -22.5 52t-13.5 39h-3q2 -17 2.5 -44t0.5 -60v-337h-104v660h111l142 -316q16 -34 25 -58.5t13 -41.5l3 1q-1 19 -1.5 44.5t-0.5 58.5v312h104v-567z"></glyph>
    <glyph glyph-name="eng" unicode="&#x14b;" horiz-adv-x="505" d="M323 532q64 0 93.5 -29t29.5 -100v-343q0 -44 -7 -74t-21.5 -54t-36.5 -45t-53 -46l-72 64q25 25 46.5 52.5t35.5 53.5v339q0 30 -2 46.5t-5 29.5q-8 2 -18.5 4t-27.5 2q-35 0 -64.5 -9.5t-51.5 -20.5v-402h-108v517l101 9v-48q13 8 30.5 17.5t38 17.5t44 13.5t48.5 5.5z
"></glyph>
    <glyph glyph-name="Omacron" unicode="&#x14c;" horiz-adv-x="520" d="M474 339q0 -95 -15.5 -161.5t-45 -108.5t-72.5 -61.5t-98 -19.5q-50 0 -87 13.5t-61.5 50.5t-36.5 102t-12 168q0 95 15.5 161.5t45 108.5t72.5 61t98 19q51 0 88 -13.5t61 -50.5t36 -101.5t12 -167.5zM364 331q0 50 -2.5 87.5t-7 65t-9 47t-9.5 34.5q-10 3 -24.5 5.5
t-34.5 2.5q-30 0 -52.5 -10.5t-37.5 -37.5t-22.5 -74.5t-7.5 -121.5q0 -50 2.5 -87.5t6 -65.5t8.5 -47.5t10 -34.5q10 -3 25 -5t35 -2q30 0 52.5 10.5t37.5 38t22.5 74.5t7.5 121zM379 717l-222 -10v69l222 10v-69z"></glyph>
    <glyph glyph-name="omacron" unicode="&#x14d;" horiz-adv-x="489" d="M445 265q0 -80 -17 -133t-47 -85t-70.5 -45.5t-86.5 -13.5q-48 0 -82 14t-56 46t-32 83t-10 125q0 79 17 132.5t47 85t70 45t86 13.5q48 0 82.5 -14t56 -46t32 -83t10.5 -124zM334 258q0 68 -6 107t-14 65q-9 2 -22 4t-29 2q-25 0 -45 -5.5t-34 -24t-21.5 -53t-7.5 -91.5
q0 -69 5 -107.5t13 -64.5q9 -2 22 -4t30 -2q25 0 45 5.5t34 24t22 53t8 91.5zM381 595l-246 -11v75l246 11v-75z"></glyph>
    <glyph glyph-name="Obreve" unicode="&#x14e;" horiz-adv-x="520" d="M474 339q0 -95 -15.5 -161.5t-45 -108.5t-72.5 -61.5t-98 -19.5q-50 0 -87 13.5t-61.5 50.5t-36.5 102t-12 168q0 95 15.5 161.5t45 108.5t72.5 61t98 19q51 0 88 -13.5t61 -50.5t36 -101.5t12 -167.5zM364 331q0 50 -2.5 87.5t-7 65t-9 47t-9.5 34.5q-10 3 -24.5 5.5
t-34.5 2.5q-30 0 -52.5 -10.5t-37.5 -37.5t-22.5 -74.5t-7.5 -121.5q0 -50 2.5 -87.5t6 -65.5t8.5 -47.5t10 -34.5q10 -3 25 -5t35 -2q30 0 52.5 10.5t37.5 38t22.5 74.5t7.5 121zM268 769q29 0 44.5 14t21.5 37l61 -20q-11 -44 -41 -71t-86 -27t-86 27t-41 71l61 20
q6 -23 21.5 -37t44.5 -14z"></glyph>
    <glyph glyph-name="obreve" unicode="&#x14f;" horiz-adv-x="489" d="M445 265q0 -80 -17 -133t-47 -85t-70.5 -45.5t-86.5 -13.5q-48 0 -82 14t-56 46t-32 83t-10 125q0 79 17 132.5t47 85t70 45t86 13.5q48 0 82.5 -14t56 -46t32 -83t10.5 -124zM334 258q0 68 -6 107t-14 65q-9 2 -22 4t-29 2q-25 0 -45 -5.5t-34 -24t-21.5 -53t-7.5 -91.5
q0 -69 5 -107.5t13 -64.5q9 -2 22 -4t30 -2q25 0 45 5.5t34 24t22 53t8 91.5zM399 688q-6 -24 -17.5 -44.5t-28.5 -36t-40.5 -24.5t-54.5 -9t-54.5 9t-40.5 24.5t-28.5 36t-17.5 44.5l68 22q7 -25 23.5 -43.5t49.5 -18.5q34 0 50 18.5t23 43.5l68 -22v0z"></glyph>
    <glyph glyph-name="Ohungarumlaut" unicode="&#x150;" horiz-adv-x="520" d="M474 339q0 -95 -15.5 -161.5t-45 -108.5t-72.5 -61.5t-98 -19.5q-50 0 -87 13.5t-61.5 50.5t-36.5 102t-12 168q0 95 15.5 161.5t45 108.5t72.5 61t98 19q51 0 88 -13.5t61 -50.5t36 -101.5t12 -167.5zM364 331q0 50 -2.5 87.5t-7 65t-9 47t-9.5 34.5q-10 3 -24.5 5.5
t-34.5 2.5q-30 0 -52.5 -10.5t-37.5 -37.5t-22.5 -74.5t-7.5 -121.5q0 -50 2.5 -87.5t6 -65.5t8.5 -47.5t10 -34.5q10 -3 25 -5t35 -2q30 0 52.5 10.5t37.5 38t22.5 74.5t7.5 121zM216 689l-41 34l84 105l55 -42zM348 689l-41 34l84 105l55 -42z"></glyph>
    <glyph glyph-name="ohungarumlaut" unicode="&#x151;" horiz-adv-x="489" d="M445 265q0 -80 -17 -133t-47 -85t-70.5 -45.5t-86.5 -13.5q-48 0 -82 14t-56 46t-32 83t-10 125q0 79 17 132.5t47 85t70 45t86 13.5q48 0 82.5 -14t56 -46t32 -83t10.5 -124zM334 258q0 68 -6 107t-14 65q-9 2 -22 4t-29 2q-25 0 -45 -5.5t-34 -24t-21.5 -53t-7.5 -91.5
q0 -69 5 -107.5t13 -64.5q9 -2 22 -4t30 -2q25 0 45 5.5t34 24t22 53t8 91.5zM205 565l-48 32l81 127l64 -40zM343 565l-48 32l81 127l64 -40z"></glyph>
    <glyph glyph-name="OE" unicode="&#x152;" horiz-adv-x="687" d="M633 562h-181v-181h174v-97h-174v-186h190v-98h-292q-22 -5 -48 -7t-52 -2q-53 0 -91 13t-63 49.5t-37 101t-12 167.5q0 99 16.5 165.5t47.5 107t75 57.5t99 17q24 0 42.5 -2.5t33.5 -6.5h279zM252 88q30 0 53 2t41 6v470q-11 2 -24 4t-30 2q-37 0 -62.5 -9.5t-41.5 -36
t-23 -74t-7 -123.5q0 -51 2.5 -88.5t6 -65t8.5 -47t10 -34.5q11 -2 28.5 -4t38.5 -2z"></glyph>
    <glyph glyph-name="oe" unicode="&#x153;" horiz-adv-x="735" d="M691 352q0 -43 -2.5 -76.5t-4.5 -56.5l-241 -13q2 -38 7.5 -67t10.5 -50q18 -5 65 -5q50 0 87.5 10t57.5 18l12 -92q-19 -10 -60.5 -21.5t-109.5 -11.5q-54 0 -87.5 17t-50.5 62q-27 -42 -67 -60t-88 -18t-81.5 14t-54.5 46t-30.5 83t-9.5 125q0 79 17 132.5t46 85t69 45
t86 13.5q50 0 82 -17.5t50 -57.5q26 41 63 58t82 17q86 0 119 -46t33 -134zM334 258q0 68 -6 107t-14 65q-9 2 -22 4t-29 2q-25 0 -45 -5.5t-34 -24t-21.5 -53t-7.5 -91.5q0 -69 5 -107.5t13 -64.5q9 -2 22 -4t30 -2q25 0 45 5.5t34 24t22 53t8 91.5zM536 443
q-21 0 -38 -5.5t-29 -22.5t-19 -49t-8 -85l143 9q1 15 1 27.5v29.5q0 24 -2.5 49t-7.5 42q-5 2 -15 3.5t-25 1.5z"></glyph>
    <glyph glyph-name="Racute" unicode="&#x154;" horiz-adv-x="478" d="M336 -6l-103 251h-61v-245h-108v660q35 2 75 4t103 2q54 0 90 -9.5t57 -32t30 -61t9 -95.5q0 -85 -21.5 -134t-72.5 -70l119 -261zM172 333h36q31 0 52.5 4.5t34.5 18t19 37t6 62.5q0 45 -5.5 70.5t-9.5 37.5q-9 2 -27.5 4.5t-42.5 2.5q-20 0 -35.5 -0.5t-27.5 -1.5v-235
zM138 743l179 80l26 -80l-187 -50z"></glyph>
    <glyph glyph-name="racute" unicode="&#x155;" horiz-adv-x="328" d="M280 529q11 0 18.5 -1t13.5 -3l-7 -99q-48 -2 -80 -17t-56 -35v-374h-108v517l101 9v-91h2q9 16 20.5 33t26 30.5t32 22t37.5 8.5zM309 647l-202 -73l-26 55l191 104z"></glyph>
    <glyph glyph-name="Rcommaaccent" unicode="&#x156;" horiz-adv-x="478" d="M336 -6l-103 251h-61v-245h-108v660q35 2 75 4t103 2q54 0 90 -9.5t57 -32t30 -61t9 -95.5q0 -85 -21.5 -134t-72.5 -70l119 -261zM172 333h36q31 0 52.5 4.5t34.5 18t19 37t6 62.5q0 45 -5.5 70.5t-9.5 37.5q-9 2 -27.5 4.5t-42.5 2.5q-20 0 -35.5 -0.5t-27.5 -1.5v-235
zM293 -105l-41 -111h-53v170h94v-59z"></glyph>
    <glyph glyph-name="rcommaaccent" unicode="&#x157;" horiz-adv-x="328" d="M280 529q11 0 18.5 -1t13.5 -3l-7 -99q-48 -2 -80 -17t-56 -35v-374h-108v517l101 9v-91h2q9 16 20.5 33t26 30.5t32 22t37.5 8.5zM162 -105l-41 -111h-53v170h94v-59z"></glyph>
    <glyph glyph-name="Rcaron" unicode="&#x158;" horiz-adv-x="478" d="M336 -6l-103 251h-61v-245h-108v660q35 2 75 4t103 2q54 0 90 -9.5t57 -32t30 -61t9 -95.5q0 -85 -21.5 -134t-72.5 -70l119 -261zM172 333h36q31 0 52.5 4.5t34.5 18t19 37t6 62.5q0 45 -5.5 70.5t-9.5 37.5q-9 2 -27.5 4.5t-42.5 2.5q-20 0 -35.5 -0.5t-27.5 -1.5v-235
zM349 769l-124 -74l-125 74l25 50l100 -41l98 41z"></glyph>
    <glyph glyph-name="rcaron" unicode="&#x159;" horiz-adv-x="328" d="M280 529q11 0 18.5 -1t13.5 -3l-7 -99q-48 -2 -80 -17t-56 -35v-374h-108v517l101 9v-91h2q9 16 20.5 33t26 30.5t32 22t37.5 8.5zM322 664l-138 -93l-138 93l30 51l108 -51l107 51z"></glyph>
    <glyph glyph-name="Sacute" unicode="&#x15a;" horiz-adv-x="399" d="M362 167q0 -88 -49 -132t-139 -44q-19 0 -38.5 1.5t-37 3.5t-31.5 5t-21 5l3 105q15 -5 48.5 -12t73.5 -7q23 0 42 2.5t33 7.5q6 21 6 44q0 36 -13.5 62.5t-45.5 58.5l-63 63q-16 15 -32 34t-28.5 40.5t-20.5 46.5t-8 53q0 84 49 124.5t132 40.5q51 0 81 -5.5t44 -9.5
l-7 -97q-17 4 -45.5 9t-66.5 5q-37 0 -57 -14t-20 -48q0 -30 15 -54.5t44 -52.5l62 -62q17 -17 33 -35.5t29 -39.5t20.5 -45t7.5 -53zM125 743l179 80l26 -80l-187 -50z"></glyph>
    <glyph glyph-name="sacute" unicode="&#x15b;" horiz-adv-x="364" d="M328 135q0 -75 -43 -109.5t-118 -34.5q-37 0 -73 3.5t-53 9.5l6 104q11 -5 42.5 -11.5t67.5 -6.5q20 0 33.5 2t22.5 6q1 6 2 13t1 17q0 20 -10 36t-37 42l-51 48q-27 26 -51 61.5t-24 80.5q0 66 42.5 99.5t111.5 33.5q44 0 74.5 -6t41.5 -10l-7 -96q-14 4 -41 9t-59 5
q-53 0 -53 -41q0 -20 13 -36t32 -33l51 -48q14 -13 28 -27.5t25.5 -31.5t18.5 -36.5t7 -42.5zM312 647l-202 -73l-26 55l191 104z"></glyph>
    <glyph glyph-name="Scircumflex" unicode="&#x15c;" horiz-adv-x="399" d="M362 167q0 -88 -49 -132t-139 -44q-19 0 -38.5 1.5t-37 3.5t-31.5 5t-21 5l3 105q15 -5 48.5 -12t73.5 -7q23 0 42 2.5t33 7.5q6 21 6 44q0 36 -13.5 62.5t-45.5 58.5l-63 63q-16 15 -32 34t-28.5 40.5t-20.5 46.5t-8 53q0 84 49 124.5t132 40.5q51 0 81 -5.5t44 -9.5
l-7 -97q-17 4 -45.5 9t-66.5 5q-37 0 -57 -14t-20 -48q0 -30 15 -54.5t44 -52.5l62 -62q17 -17 33 -35.5t29 -39.5t20.5 -45t7.5 -53zM311 695l-100 41l-98 -41l-26 50l124 74l125 -74z"></glyph>
    <glyph glyph-name="scircumflex" unicode="&#x15d;" horiz-adv-x="364" d="M328 135q0 -75 -43 -109.5t-118 -34.5q-37 0 -73 3.5t-53 9.5l6 104q11 -5 42.5 -11.5t67.5 -6.5q20 0 33.5 2t22.5 6q1 6 2 13t1 17q0 20 -10 36t-37 42l-51 48q-27 26 -51 61.5t-24 80.5q0 66 42.5 99.5t111.5 33.5q44 0 74.5 -6t41.5 -10l-7 -96q-14 4 -41 9t-59 5
q-53 0 -53 -41q0 -20 13 -36t32 -33l51 -48q14 -13 28 -27.5t25.5 -31.5t18.5 -36.5t7 -42.5zM294 571l-108 51l-107 -51l-31 51l138 93l138 -93z"></glyph>
    <glyph glyph-name="Scedilla" unicode="&#x15e;" horiz-adv-x="399" d="M266 -87q0 -38 -32.5 -54t-102.5 -16l-12 50q42 0 59 4t17 18q0 11 -12 21.5t-42 19.5l-3 11l18 25q-35 1 -66 5t-44 9l3 105q15 -5 48.5 -12t73.5 -7q23 0 42 2.5t33 7.5q6 21 6 44q0 36 -13.5 62.5t-45.5 58.5l-63 63q-16 15 -32 34t-28.5 40.5t-20.5 46.5t-8 53
q0 84 49 124.5t132 40.5q51 0 81 -5.5t44 -9.5l-7 -97q-17 4 -45.5 9t-66.5 5q-37 0 -57 -14t-20 -48q0 -30 15 -54.5t44 -52.5l62 -62q17 -17 33 -35.5t29 -39.5t20.5 -45t7.5 -53q0 -79 -40.5 -122.5t-114.5 -51.5q11 -6 21.5 -12.5t19 -15.5t13.5 -21.5t5 -30.5z"></glyph>
    <glyph glyph-name="scedilla" unicode="&#x15f;" horiz-adv-x="364" d="M256 -87q0 -38 -32.5 -54t-102.5 -16l-12 50q42 0 59 4t17 18q0 11 -12 21.5t-42 19.5l-3 11l18 24q-32 1 -61.5 4.5t-43.5 8.5l6 104q11 -5 42.5 -11.5t67.5 -6.5q20 0 33.5 2t22.5 6q1 6 2 13t1 17q0 20 -10 36t-37 42l-51 48q-27 26 -51 61.5t-24 80.5q0 66 42.5 99.5
t111.5 33.5q44 0 74.5 -6t41.5 -10l-7 -96q-14 4 -41 9t-59 5q-53 0 -53 -41q0 -20 13 -36t32 -33l51 -48q14 -13 28 -27.5t25.5 -31.5t18.5 -36.5t7 -42.5q0 -66 -34.5 -101t-95.5 -41q21 -11 39.5 -28t18.5 -52z"></glyph>
    <glyph glyph-name="Scaron" unicode="&#x160;" horiz-adv-x="399" d="M362 167q0 -88 -49 -132t-139 -44q-19 0 -38.5 1.5t-37 3.5t-31.5 5t-21 5l3 105q15 -5 48.5 -12t73.5 -7q23 0 42 2.5t33 7.5q6 21 6 44q0 36 -13.5 62.5t-45.5 58.5l-63 63q-16 15 -32 34t-28.5 40.5t-20.5 46.5t-8 53q0 84 49 124.5t132 40.5q51 0 81 -5.5t44 -9.5
l-7 -97q-17 4 -45.5 9t-66.5 5q-37 0 -57 -14t-20 -48q0 -30 15 -54.5t44 -52.5l62 -62q17 -17 33 -35.5t29 -39.5t20.5 -45t7.5 -53zM336 769l-124 -74l-125 74l25 50l100 -41l98 41z"></glyph>
    <glyph glyph-name="scaron" unicode="&#x161;" horiz-adv-x="364" d="M328 135q0 -75 -43 -109.5t-118 -34.5q-37 0 -73 3.5t-53 9.5l6 104q11 -5 42.5 -11.5t67.5 -6.5q20 0 33.5 2t22.5 6q1 6 2 13t1 17q0 20 -10 36t-37 42l-51 48q-27 26 -51 61.5t-24 80.5q0 66 42.5 99.5t111.5 33.5q44 0 74.5 -6t41.5 -10l-7 -96q-14 4 -41 9t-59 5
q-53 0 -53 -41q0 -20 13 -36t32 -33l51 -48q14 -13 28 -27.5t25.5 -31.5t18.5 -36.5t7 -42.5zM324 664l-138 -93l-138 93l30 51l108 -51l107 51z"></glyph>
    <glyph glyph-name="Tcommaaccent" unicode="&#x162;" horiz-adv-x="426" d="M297 -85q0 -38 -32.5 -54t-102.5 -16l-12 50q42 0 59 4t17 18q0 11 -12 21.5t-42 19.5l-3 11l23 31h-32v560h-128v100h365l-5 -100h-123v-560h-40q11 -6 23 -13t22 -16t16.5 -22.5t6.5 -33.5z"></glyph>
    <glyph glyph-name="tcommaaccent" unicode="&#x163;" horiz-adv-x="318" d="M258 -87q0 -38 -32.5 -54t-102.5 -16l-12 50q42 0 59 4t17 18q0 11 -12 21.5t-42 19.5l-3 11l19 25q-38 8 -55 40t-17 100v292l-50 -2v83l51 9l10 102l97 11v-109l111 4l-3 -89l-108 -5v-262q0 -19 1 -41.5t3 -39.5h5q33 0 55.5 4.5t36.5 8.5l6 -88q-13 -7 -35 -13
t-50 -8q20 -11 35.5 -27.5t15.5 -48.5z"></glyph>
    <glyph glyph-name="Tcaron" unicode="&#x164;" horiz-adv-x="426" d="M392 560h-123v-560h-109v560h-128v100h365zM341 769l-124 -74l-125 74l25 50l100 -41l98 41z"></glyph>
    <glyph glyph-name="tcaron" unicode="&#x165;" horiz-adv-x="318" d="M293 433l-108 -5v-262q0 -19 1 -41.5t3 -39.5h5q33 0 55.5 4.5t36.5 8.5l6 -88q-15 -8 -42.5 -15t-61.5 -7q-29 0 -50 7t-34.5 23.5t-20 44t-6.5 69.5v292l-50 -2v83l51 9l10 102l97 11v-109l111 4zM333 689l-41 -123h-53v186h94v-63z"></glyph>
    <glyph glyph-name="Tbar" unicode="&#x166;" horiz-adv-x="436" d="M373 291h-99v-291h-109v291h-100v71h100v198h-128v100h365l-5 -100h-123v-198h99v-71z"></glyph>
    <glyph glyph-name="tbar" unicode="&#x167;" horiz-adv-x="320" d="M295 433l-108 -5v-115h84v-60h-84v-87q0 -19 1 -41.5t3 -39.5h5q33 0 55.5 4.5t36.5 8.5l6 -88q-15 -8 -42.5 -15t-61.5 -7q-29 0 -50 7t-34.5 23.5t-20 44t-6.5 69.5v121h-49v60h49v111l-50 -2v83l51 9l10 102l97 11v-109l111 4z"></glyph>
    <glyph glyph-name="Utilde" unicode="&#x168;" horiz-adv-x="508" d="M447 218q0 -66 -14 -110.5t-40 -71t-63 -37.5t-83 -11q-53 0 -88.5 11t-57.5 36.5t-31 66.5t-9 101v457h108v-439q0 -44 3 -74t7 -50q15 -3 31.5 -5t33.5 -2q27 0 46 6.5t30 21.5t16 40.5t5 63.5v438h106v-442zM374 738q-6 -6 -15 -12.5t-19 -12t-20.5 -9t-18.5 -3.5
q-17 0 -31 5t-26 10.5t-23.5 10.5t-23.5 5q-10 -4 -23.5 -11.5t-21.5 -13.5l-22 54q5 6 14 12.5t19 12t20.5 9.5t18.5 4q17 0 31 -5t26 -11t23.5 -11t23.5 -5q10 5 23.5 12.5t21.5 13.5z"></glyph>
    <glyph glyph-name="utilde" unicode="&#x169;" horiz-adv-x="504" d="M443 0h-101v48q-11 -8 -27.5 -18.5t-37 -19.5t-45 -15t-52.5 -6q-64 0 -92.5 31t-28.5 106v391l108 9v-354q0 -52 7 -76q4 -2 15 -4t26 -2q35 0 66 11t54 23v393l108 9v-526zM386 617q-6 -6 -16 -13.5t-21 -13.5t-23 -10.5t-21 -4.5q-19 0 -35 5.5t-30 12.5t-27 12.5
t-26 5.5q-11 -4 -26 -12t-24 -16l-28 58q6 6 15.5 13.5t21 13.5t23 10.5t20.5 4.5q19 0 35 -6t30.5 -12.5t27 -12.5t25.5 -6q11 5 26.5 13t24.5 16z"></glyph>
    <glyph glyph-name="Umacron" unicode="&#x16a;" horiz-adv-x="508" d="M447 218q0 -66 -14 -110.5t-40 -71t-63 -37.5t-83 -11q-53 0 -88.5 11t-57.5 36.5t-31 66.5t-9 101v457h108v-439q0 -44 3 -74t7 -50q15 -3 31.5 -5t33.5 -2q27 0 46 6.5t30 21.5t16 40.5t5 63.5v438h106v-442zM367 717l-222 -10v69l222 10v-69z"></glyph>
    <glyph glyph-name="umacron" unicode="&#x16b;" horiz-adv-x="504" d="M443 0h-101v48q-11 -8 -27.5 -18.5t-37 -19.5t-45 -15t-52.5 -6q-64 0 -92.5 31t-28.5 106v391l108 9v-354q0 -52 7 -76q4 -2 15 -4t26 -2q35 0 66 11t54 23v393l108 9v-526zM375 595l-246 -11v75l246 11v-75z"></glyph>
    <glyph glyph-name="Ubreve" unicode="&#x16c;" horiz-adv-x="508" d="M447 218q0 -66 -14 -110.5t-40 -71t-63 -37.5t-83 -11q-53 0 -88.5 11t-57.5 36.5t-31 66.5t-9 101v457h108v-439q0 -44 3 -74t7 -50q15 -3 31.5 -5t33.5 -2q27 0 46 6.5t30 21.5t16 40.5t5 63.5v438h106v-442zM256 769q29 0 44.5 14t21.5 37l61 -20q-11 -44 -41 -71
t-86 -27t-86 27t-41 71l61 20q6 -23 21.5 -37t44.5 -14z"></glyph>
    <glyph glyph-name="ubreve" unicode="&#x16d;" horiz-adv-x="504" d="M443 0h-101v48q-11 -8 -27.5 -18.5t-37 -19.5t-45 -15t-52.5 -6q-64 0 -92.5 31t-28.5 106v391l108 9v-354q0 -52 7 -76q4 -2 15 -4t26 -2q35 0 66 11t54 23v393l108 9v-526zM393 688q-6 -24 -17.5 -44.5t-28.5 -36t-40.5 -24.5t-54.5 -9t-54.5 9t-40.5 24.5t-28.5 36
t-17.5 44.5l68 22q7 -25 23.5 -43.5t49.5 -18.5q34 0 50 18.5t23 43.5l68 -22v0z"></glyph>
    <glyph glyph-name="Uring" unicode="&#x16e;" horiz-adv-x="508" d="M447 218q0 -66 -14 -110.5t-40 -71t-63 -37.5t-83 -11q-53 0 -88.5 11t-57.5 36.5t-31 66.5t-9 101v457h108v-439q0 -44 3 -74t7 -50q15 -3 31.5 -5t33.5 -2q27 0 46 6.5t30 21.5t16 40.5t5 63.5v438h106v-442zM353 778q0 -42 -27.5 -61.5t-69.5 -19.5q-47 0 -72 21
t-25 60q0 42 27.5 61t69.5 19q47 0 72 -21t25 -59zM297 778q0 8 -1.5 16t-2.5 11q-4 2 -12 3.5t-22 1.5q-44 0 -44 -32q0 -9 1.5 -16.5t3.5 -10.5q3 -2 11 -3.5t21 -1.5q45 0 45 32z"></glyph>
    <glyph glyph-name="uring" unicode="&#x16f;" horiz-adv-x="504" d="M443 0h-101v48q-11 -8 -27.5 -18.5t-37 -19.5t-45 -15t-52.5 -6q-64 0 -92.5 31t-28.5 106v391l108 9v-354q0 -52 7 -76q4 -2 15 -4t26 -2q35 0 66 11t54 23v393l108 9v-526zM359 654q0 -46 -30.5 -67.5t-76.5 -21.5q-52 0 -79.5 23t-27.5 66q0 47 30.5 68.5t76.5 21.5
q52 0 79.5 -23.5t27.5 -66.5zM297 654q0 10 -1 18t-3 13q-5 2 -14 3.5t-23 1.5q-49 0 -49 -36q0 -9 1 -17t3 -13q5 -2 14 -3.5t23 -1.5q49 0 49 35z"></glyph>
    <glyph glyph-name="Uhungarumlaut" unicode="&#x170;" horiz-adv-x="508" d="M447 218q0 -66 -14 -110.5t-40 -71t-63 -37.5t-83 -11q-53 0 -88.5 11t-57.5 36.5t-31 66.5t-9 101v457h108v-439q0 -44 3 -74t7 -50q15 -3 31.5 -5t33.5 -2q27 0 46 6.5t30 21.5t16 40.5t5 63.5v438h106v-442zM204 689l-41 34l84 105l55 -42zM336 689l-41 34l84 105
l55 -42z"></glyph>
    <glyph glyph-name="uhungarumlaut" unicode="&#x171;" horiz-adv-x="504" d="M443 0h-101v48q-11 -8 -27.5 -18.5t-37 -19.5t-45 -15t-52.5 -6q-64 0 -92.5 31t-28.5 106v391l108 9v-354q0 -52 7 -76q4 -2 15 -4t26 -2q35 0 66 11t54 23v393l108 9v-526zM199 565l-48 32l81 127l64 -40zM337 565l-48 32l81 127l64 -40z"></glyph>
    <glyph glyph-name="Uogonek" unicode="&#x172;" horiz-adv-x="508" d="M162 -81q0 20 14.5 38t37.5 32q-43 3 -72.5 16.5t-47.5 39t-25.5 64.5t-7.5 94v457h108v-439q0 -44 3 -74t7 -50q15 -3 31.5 -5t33.5 -2q27 0 46 6.5t30 21.5t16 40.5t5 63.5v438h106v-442q0 -103 -33 -154t-91 -67q-25 -11 -46 -26.5t-33 -31.5q7 -5 19.5 -9t26.5 -7
t29 -4.5t28 -2.5l-13 -79q-31 0 -62 4t-55.5 14t-39.5 25.5t-15 38.5z"></glyph>
    <glyph glyph-name="uogonek" unicode="&#x173;" horiz-adv-x="504" d="M251 -88q0 29 27 51.5t64 39.5v45q-11 -8 -27.5 -18.5t-37 -19.5t-45 -15t-52.5 -6q-64 0 -92.5 31t-28.5 106v391l108 9v-354q0 -52 7 -76q4 -2 15 -4t26 -2q35 0 66 11t54 23v393l108 9v-526h-5q-32 -10 -61 -29t-44 -39q7 -5 19.5 -9t26.5 -7t29 -4.5t28 -2.5l-13 -79
q-31 0 -62 4t-55.5 14t-39.5 25.5t-15 38.5z"></glyph>
    <glyph glyph-name="Wcircumflex" unicode="&#x174;" horiz-adv-x="707" d="M570 0h-135l-68 382q-5 29 -8 50.5t-6 43.5h-3q-2 -22 -4.5 -43t-8.5 -52l-77 -381h-129l-102 660h109l55 -438q4 -30 6.5 -51.5t3.5 -44.5h3q2 22 5 43.5t9 54.5l84 436h104l79 -438q6 -33 9 -53.5t5 -42.5h3q1 23 3 44.5t7 52.5l62 437h108zM458 695l-100 41l-98 -41
l-26 50l124 74l125 -74z"></glyph>
    <glyph glyph-name="wcircumflex" unicode="&#x175;" horiz-adv-x="673" d="M537 0h-118l-64 267q-8 34 -13 60.5t-7 50.5h-3q-3 -22 -8.5 -49.5t-13.5 -61.5l-69 -267h-111l-103 520h109l42 -286q5 -32 8.5 -63t5.5 -52h3q6 45 23 112l73 289h93l70 -290q8 -32 13.5 -60.5t9.5 -50.5h3q2 22 5.5 50.5t10.5 63.5l54 287h102zM446 571l-108 51
l-107 -51l-31 51l138 93l138 -93z"></glyph>
    <glyph glyph-name="Ycircumflex" unicode="&#x176;" horiz-adv-x="448" d="M278 241v-241h-109v238l-152 422h112l74 -241q8 -25 13.5 -47t7.5 -39h3q2 17 8 39t14 48l77 240h107zM325 695l-100 41l-98 -41l-26 50l124 74l125 -74z"></glyph>
    <glyph glyph-name="ycircumflex" unicode="&#x177;" horiz-adv-x="455" d="M296 -16q-10 -39 -22.5 -65.5t-30.5 -43t-42.5 -24t-57.5 -7.5q-43 0 -67.5 5.5t-33.5 8.5l4 95q9 -3 32 -8.5t58 -5.5q32 0 48 18t26 66l3 17h-67l-126 480h113l74 -315q15 -61 21 -106h3q3 21 7.5 48t12.5 58l74 315h111zM337 571l-108 51l-107 -51l-31 51l138 93
l138 -93z"></glyph>
    <glyph glyph-name="Ydieresis" unicode="&#x178;" horiz-adv-x="448" d="M278 241v-241h-109v238l-152 422h112l74 -241q8 -25 13.5 -47t7.5 -39h3q2 17 8 39t14 48l77 240h107zM199 710l-97 -8v80l97 8v-80zM348 710l-97 -8v80l97 8v-80z"></glyph>
    <glyph glyph-name="Zacute" unicode="&#x179;" horiz-adv-x="424" d="M376 560l-219 -459h234l-9 -101h-348v101l224 459h-204v100h322v-100zM129 743l179 80l26 -80l-187 -50z"></glyph>
    <glyph glyph-name="zacute" unicode="&#x17a;" horiz-adv-x="392" d="M350 426l-196 -332h202l-9 -94h-314v94l196 332h-175v94h296v-94zM329 647l-202 -73l-26 55l191 104z"></glyph>
    <glyph glyph-name="Zdotaccent" unicode="&#x17b;" horiz-adv-x="424" d="M376 560l-219 -459h234l-9 -101h-348v101l224 459h-204v100h322v-100zM269 711l-108 -9v91l108 9v-91z"></glyph>
    <glyph glyph-name="zdotaccent" unicode="&#x17c;" horiz-adv-x="392" d="M350 426l-196 -332h202l-9 -94h-314v94l196 332h-175v94h296v-94zM258 583l-110 -9v94l110 9v-94z"></glyph>
    <glyph glyph-name="Zcaron" unicode="&#x17d;" horiz-adv-x="424" d="M376 560l-219 -459h234l-9 -101h-348v101l224 459h-204v100h322v-100zM340 769l-124 -74l-125 74l25 50l100 -41l98 41z"></glyph>
    <glyph glyph-name="zcaron" unicode="&#x17e;" horiz-adv-x="392" d="M350 426l-196 -332h202l-9 -94h-314v94l196 332h-175v94h296v-94zM341 664l-138 -93l-138 93l30 51l108 -51l107 51z"></glyph>
    <glyph glyph-name="uni018F" unicode="&#x18f;" horiz-adv-x="476" d="M429 334q0 -92 -13.5 -157.5t-40 -107.5t-66 -61.5t-92.5 -19.5t-87 16.5t-53 48.5t-26 79.5t-7 109.5q0 17 0.5 36t2 37t2.5 33.5t3 25.5h265q-2 72 -10.5 115.5t-16.5 70.5q-16 4 -37 6.5t-43 2.5q-44 0 -80.5 -4.5t-59.5 -10.5l-9 98q21 6 65 12t93 6
q63 0 103.5 -17.5t64.5 -57t33 -103.5t9 -158zM215 84q26 0 45 9.5t31 32t18 61t8 95.5h-168v-43q0 -51 5.5 -89t10.5 -59q9 -3 19.5 -5t30.5 -2z"></glyph>
    <glyph glyph-name="florin" unicode="&#x192;" horiz-adv-x="342" d="M321 566q-9 2 -29 4.5t-49 2.5q-26 0 -41 -3q-5 -22 -5 -70v-77h112v-73h-112v-496l-108 -11v507h-52v73h52v84q0 49 9 80.5t26.5 49.5t42 25t56.5 7q40 0 67.5 -4.5t38.5 -7.5z"></glyph>
    <glyph glyph-name="Aringacute" unicode="&#x1fa;" horiz-adv-x="470" d="M337 689q0 -34 -26 -53l143 -636h-114l-28 147h-163l-32 -147h-110l161 636q-23 18 -23 53q0 40 29.5 56t68.5 16q94 0 94 -72zM167 234h129l-48 265q-5 26 -7.5 41.5t-3.5 29.5h-3q-1 -14 -3 -30t-7 -42zM351 804l-190 -36l-13 45l185 62zM282 689q0 9 -1 14t-3 9
q-4 1 -12 2.5t-22 1.5q-24 0 -34 -6.5t-10 -20.5q0 -8 1 -13t2 -8q4 -2 12.5 -3.5t20.5 -1.5q26 0 36 6t10 20z"></glyph>
    <glyph glyph-name="aringacute" unicode="&#x1fb;" horiz-adv-x="450" d="M290 0v47q-17 -18 -48 -37t-78 -19q-60 0 -94.5 37.5t-34.5 124.5q0 42 14.5 71.5t39.5 47.5t58 26t70 8q19 0 36 -1.5t30 -3.5v42q0 29 -2.5 50t-5.5 31q-7 3 -20.5 6t-42.5 3q-40 0 -74.5 -8.5t-56.5 -16.5l-15 91q23 10 73 21.5t114 11.5q69 0 103.5 -33t34.5 -112
v-387h-101zM203 80q24 0 44.5 7.5t35.5 16.5v122q-13 2 -30 2.5t-34 0.5q-35 0 -57 -15.5t-22 -56.5q0 -24 3.5 -41t8.5 -31q10 -3 22.5 -4t28.5 -1zM335 639q0 -44 -31.5 -62t-75.5 -18q-51 0 -79 19.5t-28 60.5q0 22 8.5 37.5t23 25t34 13.5t41.5 4q50 0 78.5 -19.5
t28.5 -60.5zM273 639q0 10 -1 15.5t-3 9.5q-4 2 -13.5 3.5t-23.5 1.5q-50 0 -50 -30q0 -9 1 -14.5t3 -9.5q5 -2 14.5 -3.5t23.5 -1.5q49 0 49 29zM351 766l-211 -39l-15 51l205 70z"></glyph>
    <glyph glyph-name="AEacute" unicode="&#x1fc;" horiz-adv-x="602" d="M7 0l167 660h380l-6 -98h-213l36 -181h170v-97h-150l38 -186h127v-98h-216l-28 147h-163l-32 -147h-110zM166 234h131l-51 277q-4 20 -5.5 36t-2.5 30h-3q-1 -14 -3.5 -31t-6.5 -36zM258 743l179 80l26 -80l-187 -50z"></glyph>
    <glyph glyph-name="aeacute" unicode="&#x1fd;" horiz-adv-x="676" d="M36 153q0 42 14.5 71.5t39.5 47.5t58 26t70 8q18 0 34 -1.5t29 -3.5v42q0 29 -2 50t-4 31q-7 3 -21 6t-43 3q-40 0 -74.5 -8.5t-56.5 -16.5l-15 91q23 10 70 21.5t107 11.5q42 0 68.5 -14.5t40.5 -42.5q26 29 60.5 43t73.5 14q82 0 115 -44.5t33 -135.5q0 -43 -2.5 -76.5
t-4.5 -56.5l-239 -13q2 -37 6.5 -65.5t10.5 -50.5q18 -5 62 -5q50 0 87.5 9.5t57.5 17.5l12 -92q-19 -9 -60.5 -20.5t-109.5 -11.5q-52 0 -85 13t-53 45q-20 -18 -56.5 -36.5t-90.5 -18.5q-62 0 -97 37.5t-35 124.5zM478 443q-21 0 -37.5 -5.5t-28.5 -22.5t-18.5 -49
t-7.5 -85l141 9q2 15 2 27.5v29.5q0 24 -3 49t-8 42q-5 2 -15 3.5t-25 1.5zM204 80q28 0 50.5 9.5t37.5 19.5q-5 23 -7.5 52.5t-3.5 64.5q-13 2 -29 2.5t-32 0.5q-35 0 -57 -15.5t-22 -56.5q0 -24 3.5 -41t8.5 -31q10 -3 22.5 -4t28.5 -1zM478 647l-202 -73l-26 55l191 104z
"></glyph>
    <glyph glyph-name="Oslashacute" unicode="&#x1fe;" horiz-adv-x="520" d="M474 339q0 -95 -15.5 -161.5t-45 -108.5t-72.5 -61.5t-98 -19.5q-26 0 -48 3t-42 11l-29 -63h-80l50 112q-25 37 -36.5 102.5t-11.5 168.5q0 95 15.5 161.5t45 108.5t72.5 61t98 19q26 0 48.5 -3.5t42.5 -11.5l28 64h80l-50 -113q25 -37 36.5 -102t11.5 -167zM148 329
q0 -31 0.5 -55t2 -43.5t3.5 -36t4 -31.5h2q8 23 19.5 56.5t24.5 62.5l129 294q-23 5 -55 5q-33 0 -57 -11t-40.5 -39t-24.5 -77t-8 -125zM372 332q0 31 -0.5 55t-2 43.5t-3 35.5t-3.5 31h-2q-8 -23 -20 -56t-25 -62l-128 -296q10 -2 23.5 -3t30.5 -1q33 0 57 11t40.5 39.5
t24.5 77.5t8 125zM181 743l179 80l26 -80l-187 -50z"></glyph>
    <glyph glyph-name="oslashacute" unicode="&#x1ff;" horiz-adv-x="489" d="M394 482q27 -32 39 -85.5t12 -131.5q0 -80 -17 -133t-47 -85t-70.5 -45.5t-86.5 -13.5q-39 0 -67 9l-28 -58h-83l49 97q-27 32 -39 85.5t-12 134.5q0 79 17 132.5t47 85t70 45t86 13.5q39 0 72 -11l30 60h77zM147 262q0 -45 2 -79.5t4 -57.5l2 -1q8 26 30 74l114 243
q-17 3 -34 3q-27 0 -49 -6t-37.5 -25t-23.5 -55t-8 -96zM342 258q0 42 -2.5 76t-4.5 57l-2 1q-4 -13 -11 -32.5t-18 -43.5l-111 -238q8 -1 15.5 -1.5t15.5 -0.5q27 0 49 6t37 25t23.5 55t8.5 96zM383 647l-202 -73l-26 55l191 104z"></glyph>
    <glyph glyph-name="Scommaaccent" unicode="&#x218;" horiz-adv-x="399" d="M362 167q0 -88 -49 -132t-139 -44q-19 0 -38.5 1.5t-37 3.5t-31.5 5t-21 5l3 105q15 -5 48.5 -12t73.5 -7q23 0 42 2.5t33 7.5q6 21 6 44q0 36 -13.5 62.5t-45.5 58.5l-63 63q-16 15 -32 34t-28.5 40.5t-20.5 46.5t-8 53q0 84 49 124.5t132 40.5q51 0 81 -5.5t44 -9.5
l-7 -97q-17 4 -45.5 9t-66.5 5q-37 0 -57 -14t-20 -48q0 -30 15 -54.5t44 -52.5l62 -62q17 -17 33 -35.5t29 -39.5t20.5 -45t7.5 -53zM234 -105l-41 -111h-53v170h94v-59z"></glyph>
    <glyph glyph-name="scommaaccent" unicode="&#x219;" horiz-adv-x="364" d="M328 135q0 -75 -43 -109.5t-118 -34.5q-37 0 -73 3.5t-53 9.5l6 104q11 -5 42.5 -11.5t67.5 -6.5q20 0 33.5 2t22.5 6q1 6 2 13t1 17q0 20 -10 36t-37 42l-51 48q-27 26 -51 61.5t-24 80.5q0 66 42.5 99.5t111.5 33.5q44 0 74.5 -6t41.5 -10l-7 -96q-14 4 -41 9t-59 5
q-53 0 -53 -41q0 -20 13 -36t32 -33l51 -48q14 -13 28 -27.5t25.5 -31.5t18.5 -36.5t7 -42.5zM221 -105l-41 -111h-53v170h94v-59z"></glyph>
    <glyph glyph-name="uni021A" unicode="&#x21a;" horiz-adv-x="426" d="M392 560h-123v-560h-109v560h-128v100h365zM261 -105l-41 -111h-53v170h94v-59z"></glyph>
    <glyph glyph-name="uni021B" unicode="&#x21b;" horiz-adv-x="318" d="M293 433l-108 -5v-262q0 -19 1 -41.5t3 -39.5h5q33 0 55.5 4.5t36.5 8.5l6 -88q-15 -8 -42.5 -15t-61.5 -7q-29 0 -50 7t-34.5 23.5t-20 44t-6.5 69.5v292l-50 -2v83l51 9l10 102l97 11v-109l111 4zM229 -105l-41 -111h-53v170h94v-59z"></glyph>
    <glyph glyph-name="uni0237" unicode="&#x237;" horiz-adv-x="229" d="M168 60q0 -44 -7 -74t-21.5 -54t-36.5 -45t-53 -46l-73 64q25 25 46.5 52.5t36.5 53.5v506l108 9v-466z"></glyph>
    <glyph glyph-name="uni0259" unicode="&#x259;" horiz-adv-x="448" d="M44 171q0 43 2.5 73t5.5 53l240 12q-1 38 -5 68t-9 53q-8 2 -22.5 3.5t-38.5 1.5q-47 0 -87.5 -7.5t-63.5 -15.5l-15 90q23 10 67 20t110 10q52 0 85.5 -15t53.5 -47.5t28 -84.5t8 -125q0 -77 -14.5 -129t-41.5 -83.5t-64.5 -45.5t-83.5 -14q-45 0 -75 11t-47.5 33.5
t-25 57t-7.5 81.5zM200 77q22 0 38.5 5.5t28.5 22t18.5 47t7.5 81.5l-143 -9q-1 -15 -1 -26.5v-28.5q0 -32 2.5 -51.5t6.5 -35.5q13 -5 42 -5z"></glyph>
    <glyph glyph-name="uni02BB" unicode="&#x2bb;" horiz-adv-x="196" d="M47 530l40 134h55v-217h-95v83z"></glyph>
    <glyph glyph-name="afii57929" unicode="&#x2bc;" horiz-adv-x="194" d="M150 577l-40 -134h-55v217h95v-83z"></glyph>
    <glyph glyph-name="circumflex" unicode="&#x2c6;" d="M292 571l-108 51l-107 -51l-31 51l138 93l138 -93z"></glyph>
    <glyph glyph-name="caron" unicode="&#x2c7;" d="M322 664l-138 -93l-138 93l30 51l108 -51l107 51z"></glyph>
    <glyph glyph-name="breve" unicode="&#x2d8;" d="M325 688q-6 -24 -17.5 -44.5t-28.5 -36t-40.5 -24.5t-54.5 -9t-54.5 9t-40.5 24.5t-28.5 36t-17.5 44.5l68 22q7 -25 23.5 -43.5t49.5 -18.5q34 0 50 18.5t23 43.5l68 -22v0z"></glyph>
    <glyph glyph-name="dotaccent" unicode="&#x2d9;" d="M239 583l-110 -9v94l110 9v-94z"></glyph>
    <glyph glyph-name="ring" unicode="&#x2da;" d="M291 654q0 -46 -30.5 -67.5t-76.5 -21.5q-52 0 -79.5 23t-27.5 66q0 47 30.5 68.5t76.5 21.5q52 0 79.5 -23.5t27.5 -66.5zM229 654q0 10 -1 18t-3 13q-5 2 -14 3.5t-23 1.5q-49 0 -49 -36q0 -9 1 -17t3 -13q5 -2 14 -3.5t23 -1.5q49 0 49 35z"></glyph>
    <glyph glyph-name="ogonek" unicode="&#x2db;" d="M85 -96q0 20 15 37.5t37.5 32t49.5 26.5t52 21l33 -29q-32 -10 -61 -29t-44 -39q7 -5 19.5 -9t26.5 -7t29 -4.5t28 -2.5l-13 -79q-31 0 -62 4t-55.5 14t-39.5 25.5t-15 38.5z"></glyph>
    <glyph glyph-name="tilde" unicode="&#x2dc;" d="M318 617q-6 -6 -16 -13.5t-21 -13.5t-23 -10.5t-21 -4.5q-19 0 -35 5.5t-30 12.5t-27 12.5t-26 5.5q-11 -4 -26 -12t-24 -16l-28 58q6 6 15.5 13.5t21 13.5t23 10.5t20.5 4.5q19 0 35 -6t30.5 -12.5t27 -12.5t25.5 -6q11 5 26.5 13t24.5 16z"></glyph>
    <glyph glyph-name="hungarumlaut" unicode="&#x2dd;" d="M127 565l-48 32l81 127l64 -40zM265 565l-48 32l81 127l64 -40z"></glyph>
    <glyph glyph-name="uni037E" unicode="&#x37e;" horiz-adv-x="224" d="M166 20l-45 -130h-61v229h106v-99zM167 401h-112v119h112v-119z"></glyph>
    <glyph glyph-name="tonos" unicode="&#x384;" horiz-adv-x="328" d="M148 565l-59 34l78 131l76 -40z"></glyph>
    <glyph glyph-name="dieresistonos" unicode="&#x385;" d="M95 584l-96 -7v88l96 8v-89zM369 584l-96 -7v88l96 8v-89zM175 576l-53 32l72 131l70 -38z"></glyph>
    <glyph glyph-name="Alphatonos" unicode="&#x386;" horiz-adv-x="519" d="M56 0l167 660h132l148 -660h-114l-28 147h-163l-32 -147h-110zM216 234h129l-48 265q-5 26 -7.5 41.5t-3.5 29.5h-3q-1 -14 -3 -30t-7 -42zM73 517l-59 34l78 131l76 -40z"></glyph>
    <glyph glyph-name="anoteleia" unicode="&#x387;" horiz-adv-x="206" d="M160 401h-112v119h112v-119z"></glyph>
    <glyph glyph-name="Epsilontonos" unicode="&#x388;" horiz-adv-x="549" d="M495 560h-181v-178h175v-98h-175v-183h190v-101h-298v660h296zM70 517l-59 34l78 131l76 -40z"></glyph>
    <glyph glyph-name="Etatonos" unicode="&#x389;" horiz-adv-x="664" d="M600 0h-108v282h-178v-282h-108v660h108v-277h178v277h108v-660zM70 517l-59 34l78 131l76 -40z"></glyph>
    <glyph glyph-name="Iotatonos" unicode="&#x38a;" horiz-adv-x="379" d="M315 0h-109v660h109v-660zM70 517l-59 34l78 131l76 -40z"></glyph>
    <glyph glyph-name="Omicrontonos" unicode="&#x38c;" horiz-adv-x="616" d="M570 339q0 -95 -15.5 -161.5t-45 -108.5t-72.5 -61.5t-98 -19.5q-50 0 -87 13.5t-61.5 50.5t-36.5 102t-12 168q0 95 15.5 161.5t45 108.5t72.5 61t98 19q51 0 88 -13.5t61 -50.5t36 -101.5t12 -167.5zM460 331q0 50 -2.5 87.5t-7 65t-9 47t-9.5 34.5q-10 3 -24.5 5.5
t-34.5 2.5q-30 0 -52.5 -10.5t-37.5 -37.5t-22.5 -74.5t-7.5 -121.5q0 -50 2.5 -87.5t6 -65.5t8.5 -47.5t10 -34.5q10 -3 25 -5t35 -2q30 0 52.5 10.5t37.5 38t22.5 74.5t7.5 121zM72 517l-59 34l78 131l76 -40z"></glyph>
    <glyph glyph-name="Upsilontonos" unicode="&#x38e;" horiz-adv-x="650" d="M355 0v202q-14 59 -30.5 116t-36 113t-44 112t-55.5 113l118 10q16 -38 29 -71t24 -66t20 -67.5t18 -74.5q6 -26 9 -51t4 -42h3q1 17 5 43.5t12 56.5q10 37 19.5 69t20.5 63.5t23.5 64t28.5 69.5h118q-32 -59 -58.5 -116t-48.5 -113.5t-39 -113.5t-31 -115v-202h-109z
M86 517l-59 34l78 131l76 -40z"></glyph>
    <glyph glyph-name="Omegatonos" unicode="&#x38f;" horiz-adv-x="627" d="M572 391q0 -59 -7.5 -107t-19 -85t-24.5 -62.5t-24 -38.5v-2h85l-5 -96h-187v83q29 46 50 114.5t21 164.5q0 42 -2 73.5t-5.5 55t-8.5 41.5t-11 33q-10 3 -23 5.5t-30 2.5q-29 0 -50.5 -7.5t-36 -30t-22 -64.5t-7.5 -111q0 -93 19.5 -162t45.5 -115v-83h-180l-4 96h83v2
q-7 9 -19.5 34t-24.5 62t-21 83.5t-9 98.5q0 85 16.5 141.5t46 91t70.5 49t90 14.5q46 0 82.5 -11t61 -41.5t37.5 -85.5t13 -143zM73 517l-59 34l78 131l76 -40z"></glyph>
    <glyph glyph-name="iotadieresistonos" unicode="&#x390;" horiz-adv-x="255" d="M167 177q0 -32 1 -52.5t3 -34.5h7q14 0 29 1t22 3l5 -92q-4 -2 -13 -4t-23 -3.5t-30 -1.5q-29 0 -50 5.5t-34 22t-19 46.5t-6 79v371l108 9v-349zM25 584l-96 -7v88l96 8v-89zM299 584l-96 -7v88l96 8v-89zM105 576l-53 32l72 131l70 -38z"></glyph>
    <glyph glyph-name="Alpha" unicode="&#x391;" horiz-adv-x="470" d="M7 0l167 660h132l148 -660h-114l-28 147h-163l-32 -147h-110zM167 234h129l-48 265q-5 26 -7.5 41.5t-3.5 29.5h-3q-1 -14 -3 -30t-7 -42z"></glyph>
    <glyph glyph-name="Beta" unicode="&#x392;" horiz-adv-x="469" d="M424 200q0 -106 -50.5 -153t-153.5 -47h-156v660q16 1 33 2t37.5 2t44.5 1.5t55 0.5q93 0 135.5 -36.5t42.5 -129.5q0 -59 -16.5 -96.5t-54.5 -57.5q39 -14 61 -48.5t22 -97.5zM228 291q-14 0 -28.5 -0.5t-28.5 -1.5v-192h46q51 0 75.5 24t24.5 81q0 32 -6 52t-15 34
q-8 1 -28 2t-40 1zM227 572q-16 0 -30 -0.5t-26 -1.5v-194h44q28 0 46 4.5t28 16.5t13.5 32.5t3.5 53.5q0 25 -3.5 47.5t-9.5 35.5q-7 2 -23.5 4t-42.5 2z"></glyph>
    <glyph glyph-name="Gamma" unicode="&#x393;" horiz-adv-x="365" d="M331 560h-159v-560h-108v660h273z"></glyph>
    <glyph glyph-name="uni0394" unicode="&#x394;" horiz-adv-x="464" d="M29 0v97l147 563h127l130 -563v-97h-404zM139 100h180l-70 366q-6 30 -8 51t-4 40h-3q-2 -20 -5 -41t-9 -51z"></glyph>
    <glyph glyph-name="Epsilon" unicode="&#x395;" horiz-adv-x="407" d="M353 560h-181v-178h175v-98h-175v-183h190v-101h-298v660h296z"></glyph>
    <glyph glyph-name="Zeta" unicode="&#x396;" horiz-adv-x="424" d="M376 560l-219 -459h234l-9 -101h-348v101l224 459h-204v100h322v-100z"></glyph>
    <glyph glyph-name="Eta" unicode="&#x397;" horiz-adv-x="522" d="M458 0h-108v282h-178v-282h-108v660h108v-277h178v277h108v-660z"></glyph>
    <glyph glyph-name="Theta" unicode="&#x398;" horiz-adv-x="525" d="M333 286h-141v93h141v-93zM479 339q0 -95 -16 -161.5t-46 -108.5t-73 -61t-98 -19q-51 0 -88.5 13.5t-62 50t-37 101.5t-12.5 168q0 95 16 161.5t46 108.5t73.5 61t98.5 19q50 0 87.5 -13.5t62 -50.5t37 -101.5t12.5 -167.5zM368 331q0 50 -2.5 87.5t-7 65t-9.5 47
t-10 34.5q-10 3 -25 5.5t-35 2.5q-30 0 -52.5 -10.5t-38 -37.5t-23.5 -74.5t-8 -121.5q0 -50 2.5 -87t7 -64.5t9 -47.5t9.5 -35q10 -2 25.5 -4.5t35.5 -2.5q30 0 53 10.5t38 37.5t23 74t8 121z"></glyph>
    <glyph glyph-name="Iota" unicode="&#x399;" horiz-adv-x="237" d="M173 0h-109v660h109v-660z"></glyph>
    <glyph glyph-name="Kappa" unicode="&#x39a;" horiz-adv-x="478" d="M289 336l173 -333l-118 -9l-143 291h-29v-285h-108v660h108v-279h33l137 279h112z"></glyph>
    <glyph glyph-name="Lambda" unicode="&#x39b;" horiz-adv-x="455" d="M8 0l161 660h127l142 -660h-111l-82 445q-6 31 -9 58.5t-5 53.5h-3q-2 -26 -6 -52t-11 -59l-94 -446h-109z"></glyph>
    <glyph glyph-name="Mu" unicode="&#x39c;" horiz-adv-x="680" d="M629 0h-106l-10 426q-1 29 -1 52v38h-3q-3 -17 -7 -38.5t-10 -47.5l-104 -430h-100l-99 430q-6 26 -10.5 50t-6.5 37h-3v-37.5t-1 -53.5l-13 -426h-104l34 660h145l95 -425q7 -29 10.5 -53t5.5 -38h3q2 17 6 41.5t10 49.5l102 425h140z"></glyph>
    <glyph glyph-name="Nu" unicode="&#x39d;" horiz-adv-x="524" d="M460 0h-109l-150 347q-11 26 -20.5 53t-14.5 41h-3q1 -14 1.5 -44t0.5 -62v-335h-101v660h108l150 -346q13 -30 22 -55t14 -42h3q-1 15 -2 42.5t-1 58.5v342h102v-660z"></glyph>
    <glyph glyph-name="Xi" unicode="&#x39e;" horiz-adv-x="390" d="M324 279h-258v108h258v-108zM337 553h-284l-6 107h295zM345 0h-301v109h301v-109z"></glyph>
    <glyph glyph-name="Omicron" unicode="&#x39f;" horiz-adv-x="520" d="M474 339q0 -95 -15.5 -161.5t-45 -108.5t-72.5 -61.5t-98 -19.5q-50 0 -87 13.5t-61.5 50.5t-36.5 102t-12 168q0 95 15.5 161.5t45 108.5t72.5 61t98 19q51 0 88 -13.5t61 -50.5t36 -101.5t12 -167.5zM364 331q0 50 -2.5 87.5t-7 65t-9 47t-9.5 34.5q-10 3 -24.5 5.5
t-34.5 2.5q-30 0 -52.5 -10.5t-37.5 -37.5t-22.5 -74.5t-7.5 -121.5q0 -50 2.5 -87.5t6 -65.5t8.5 -47.5t10 -34.5q10 -3 25 -5t35 -2q30 0 52.5 10.5t37.5 38t22.5 74.5t7.5 121z"></glyph>
    <glyph glyph-name="Pi" unicode="&#x3a0;" horiz-adv-x="515" d="M451 0h-108v560h-171v-560h-108v660h387v-660z"></glyph>
    <glyph glyph-name="Rho" unicode="&#x3a1;" horiz-adv-x="468" d="M433 457q0 -68 -16.5 -114t-46 -74t-69 -39.5t-85.5 -11.5h-44v-218h-108v660q35 2 74.5 4t95.5 2q57 0 95 -10.5t61 -34.5t33 -64t10 -100zM172 314h40q25 0 46 4.5t36 18t23 39.5t8 69q0 41 -6.5 73.5t-11.5 46.5q-11 2 -27 4t-44 2q-31 0 -64 -3v-254z"></glyph>
    <glyph glyph-name="Sigma" unicode="&#x3a3;" horiz-adv-x="402" d="M357 560h-185l126 -219l-145 -240h210v-101h-324v101l144 236l-136 223v100h315z"></glyph>
    <glyph glyph-name="Tau" unicode="&#x3a4;" horiz-adv-x="426" d="M392 560h-123v-560h-109v560h-128v100h365z"></glyph>
    <glyph glyph-name="Upsilon" unicode="&#x3a5;" horiz-adv-x="478" d="M183 0v202q-14 59 -30.5 116t-36 113t-44 112t-55.5 113l118 10q16 -38 29 -71t24 -66t20 -67.5t18 -74.5q6 -26 9 -51t4 -42h3q1 17 5 43.5t12 56.5q10 37 19.5 69t20.5 63.5t23.5 64t28.5 69.5h118q-32 -59 -58.5 -116t-48.5 -113.5t-39 -113.5t-31 -115v-202h-109z
"></glyph>
    <glyph glyph-name="Phi" unicode="&#x3a6;" horiz-adv-x="599" d="M40 324q0 77 14 131.5t41 90.5t65.5 55t87.5 25v74h102v-71q55 -3 94.5 -17.5t65 -47.5t37.5 -88t12 -140q0 -77 -14.5 -131.5t-41.5 -90.5t-65.5 -55.5t-87.5 -25.5v-73h-102v71q-55 3 -94.5 17t-64.5 47t-37 88.5t-12 140.5zM424 520q-9 3 -28 7t-46 6v-406q24 4 43 16
t33 35t21.5 60t7.5 93q0 81 -9 121t-22 68zM174 140q8 -3 27 -7.5t47 -6.5v406q-24 -5 -43 -16.5t-32.5 -34.5t-21 -60t-7.5 -92q1 -80 11 -124t19 -65z"></glyph>
    <glyph glyph-name="Chi" unicode="&#x3a7;" horiz-adv-x="475" d="M322 336l133 -336h-113l-87 231q-15 39 -20 70h-3q-3 -14 -8 -32.5t-13 -38.5l-85 -230h-108l130 339l-114 321h112l70 -217q15 -44 19 -71h3q3 14 8.5 31.5t13.5 40.5l78 216h109z"></glyph>
    <glyph glyph-name="Psi" unicode="&#x3a8;" horiz-adv-x="637" d="M593 445q0 -69 -14.5 -117t-42.5 -78t-69.5 -44t-95.5 -17v-189h-108v188q-61 2 -102.5 13t-67 38.5t-37 75t-11.5 122.5v223h110v-214q0 -41 3 -74t9 -65q18 -9 40 -14t56 -7v374h108v-374q28 2 49 9.5t35 25t21 46.5t7 74v219h110v-215z"></glyph>
    <glyph glyph-name="uni03A9" unicode="&#x3a9;" horiz-adv-x="526" d="M471 391q0 -59 -7.5 -107t-19 -85t-24.5 -62.5t-24 -38.5v-2h85l-5 -96h-187v83q29 46 50 114.5t21 164.5q0 42 -2 73.5t-5.5 55t-8.5 41.5t-11 33q-10 3 -23 5.5t-30 2.5q-29 0 -50.5 -7.5t-36 -30t-22 -64.5t-7.5 -111q0 -93 19.5 -162t45.5 -115v-83h-180l-4 96h83v2
q-7 9 -19.5 34t-24.5 62t-21 83.5t-9 98.5q0 85 16.5 141.5t46 91t70.5 49t90 14.5q46 0 82.5 -11t61 -41.5t37.5 -85.5t13 -143z"></glyph>
    <glyph glyph-name="Iotadieresis" unicode="&#x3aa;" horiz-adv-x="237" d="M173 0h-109v660h109v-660zM93 710l-97 -8v80l97 8v-80zM242 710l-97 -8v80l97 8v-80z"></glyph>
    <glyph glyph-name="Upsilondieresis" unicode="&#x3ab;" horiz-adv-x="478" d="M183 0v202q-14 59 -30.5 116t-36 113t-44 112t-55.5 113l118 10q16 -38 29 -71t24 -66t20 -67.5t18 -74.5q6 -26 9 -51t4 -42h3q1 17 5 43.5t12 56.5q10 37 19.5 69t20.5 63.5t23.5 64t28.5 69.5h118q-32 -59 -58.5 -116t-48.5 -113.5t-39 -113.5t-31 -115v-202h-109z
M218 710l-97 -8v80l97 8v-80zM367 710l-97 -8v80l97 8v-80z"></glyph>
    <glyph glyph-name="alphatonos" unicode="&#x3ac;" horiz-adv-x="552" d="M369 393l23 127h102l-68 -250q8 -54 22 -103t25 -80q14 1 27 2t20 3l5 -91q-8 -4 -26 -6t-34 -2q-48 0 -71.5 37.5t-37.5 116.5h-3q-8 -28 -20.5 -56t-31.5 -50.5t-46.5 -36.5t-64.5 -14q-35 0 -62 12.5t-46 42t-29 79t-10 123.5q0 78 16 132t42.5 88t59.5 49.5t67 15.5
t58.5 -11.5t40.5 -30.5t25 -44.5t14 -52.5h3zM189 88q29 0 50 13.5t36.5 36.5t27 55t22.5 68q-9 41 -17.5 74t-19 56t-23.5 35.5t-31 12.5q-15 0 -30 -8t-26 -29.5t-18 -58t-7 -93.5q0 -46 4.5 -89t15.5 -72q5 -1 16 -1zM252 565l-59 34l78 131l76 -40z"></glyph>
    <glyph glyph-name="epsilontonos" unicode="&#x3ad;" horiz-adv-x="381" d="M117 261q-14 6 -26 14.5t-21 22t-14.5 33.5t-5.5 48q0 39 13.5 67.5t38 47t57.5 27.5t72 9q37 0 64.5 -4t44.5 -9l-7 -95q-16 4 -38.5 7t-45.5 3q-45 0 -68.5 -13.5t-23.5 -55.5q0 -16 3 -30.5t8 -26.5l142 7l-2 -89l-138 -6q-7 -12 -13 -28.5t-6 -45.5q0 -12 2 -25.5
t5 -24.5q10 -2 22 -3t26 -1q38 0 72 5.5t54 10.5l10 -96q-17 -6 -53.5 -13t-92.5 -7q-152 0 -152 145q0 30 6.5 51t17 35t23.5 22.5t26 14.5v3zM223 565l-59 34l78 131l76 -40z"></glyph>
    <glyph glyph-name="etatonos" unicode="&#x3ae;" horiz-adv-x="504" d="M337 -157v507q0 30 -2 46.5t-5 29.5q-8 2 -18.5 4t-27.5 2q-35 0 -64.5 -9.5t-51.5 -20.5v-402h-108v517l101 9v-50h2q12 8 28.5 18t36.5 18.5t44 14t50 5.5q64 0 93.5 -29t29.5 -100v-549zM269 565l-59 34l78 131l76 -40z"></glyph>
    <glyph glyph-name="iotatonos" unicode="&#x3af;" horiz-adv-x="254" d="M166 177q0 -32 1 -52.5t3 -34.5h7q14 0 29 1t22 3l5 -92q-4 -2 -13 -4t-23 -3.5t-30 -1.5q-29 0 -50 5.5t-34 22t-19 46.5t-6 79v371l108 9v-349zM117 565l-59 34l78 131l76 -40z"></glyph>
    <glyph glyph-name="upsilondieresistonos" unicode="&#x3b0;" horiz-adv-x="492" d="M165 526v-329q0 -30 2.5 -60t6.5 -46q8 -3 17.5 -4.5t24.5 -1.5q31 0 54.5 9.5t39 31.5t23 57.5t7.5 86.5q0 85 -11 145.5t-21 101.5l105 9q12 -40 23.5 -98.5t11.5 -148.5q0 -77 -15.5 -132.5t-45 -90.5t-72.5 -51.5t-98 -16.5q-42 0 -72 10t-49.5 34t-29 62.5
t-9.5 95.5v327zM149 584l-96 -7v88l96 8v-89zM423 584l-96 -7v88l96 8v-89zM229 576l-53 32l72 131l70 -38z"></glyph>
    <glyph glyph-name="alpha" unicode="&#x3b1;" horiz-adv-x="552" d="M369 393l23 127h102l-68 -250q8 -54 22 -103t25 -80q14 1 27 2t20 3l5 -91q-8 -4 -26 -6t-34 -2q-48 0 -71.5 37.5t-37.5 116.5h-3q-8 -28 -20.5 -56t-31.5 -50.5t-46.5 -36.5t-64.5 -14q-35 0 -62 12.5t-46 42t-29 79t-10 123.5q0 78 16 132t42.5 88t59.5 49.5t67 15.5
t58.5 -11.5t40.5 -30.5t25 -44.5t14 -52.5h3zM189 88q29 0 50 13.5t36.5 36.5t27 55t22.5 68q-9 41 -17.5 74t-19 56t-23.5 35.5t-31 12.5q-15 0 -30 -8t-26 -29.5t-18 -58t-7 -93.5q0 -46 4.5 -89t15.5 -72q5 -1 16 -1z"></glyph>
    <glyph glyph-name="beta" unicode="&#x3b2;" horiz-adv-x="467" d="M330 360q19 -5 36 -16t30 -30.5t20.5 -48t7.5 -67.5q0 -58 -13.5 -97t-39.5 -62.5t-64.5 -33.5t-88.5 -10q-31 0 -50 4v-145l-108 -11v684q0 90 48.5 129.5t137.5 39.5q82 0 123 -41t41 -134q0 -72 -21 -107.5t-59 -50.5v-3zM168 94q19 -3 46 -3q28 0 48 4t32.5 15.5
t18 33.5t5.5 58q0 33 -6.5 60t-13.5 40q-15 3 -39 3q-14 0 -28.5 -0.5t-25.5 -1.5l-4 86q19 0 37 3q39 5 53.5 30t14.5 84q0 25 -3.5 52t-8.5 40q-5 2 -19 3.5t-31 1.5q-38 0 -57 -14.5t-19 -58.5v-436z"></glyph>
    <glyph glyph-name="gamma" unicode="&#x3b3;" horiz-adv-x="449" d="M161 -157v123q0 64 -13.5 135t-34.5 142.5t-47 141.5t-51 132l117 9q34 -99 61.5 -203t34.5 -210h3q7 22 19 66.5t25 101t24 119t16 120.5h110q-9 -69 -25 -138.5t-37 -134.5t-45 -124.5t-50 -107.5v-161z"></glyph>
    <glyph glyph-name="delta" unicode="&#x3b4;" horiz-adv-x="478" d="M220 506q-32 29 -66 48t-63 33v94l321 16v-87l-109 -4h-20h-24.5t-23.5 0.5t-17 0.5v-3q34 -12 72.5 -38.5t71 -69t53.5 -103t21 -140.5q0 -74 -15.5 -124.5t-44 -82t-68 -45t-86.5 -13.5q-42 0 -75.5 13.5t-57 44.5t-35.5 81.5t-12 124.5q0 62 15 105.5t40 73.5t57 47.5
t66 27.5zM153 257q0 -57 5.5 -101t12.5 -64q12 -4 22.5 -6t29.5 -2q52 0 77 34.5t25 122.5q0 64 -13 112.5t-36 84.5q-24 -6 -46 -18t-39 -33t-27.5 -52.5t-10.5 -77.5z"></glyph>
    <glyph glyph-name="epsilon" unicode="&#x3b5;" horiz-adv-x="381" d="M117 261q-14 6 -26 14.5t-21 22t-14.5 33.5t-5.5 48q0 39 13.5 67.5t38 47t57.5 27.5t72 9q37 0 64.5 -4t44.5 -9l-7 -95q-16 4 -38.5 7t-45.5 3q-45 0 -68.5 -13.5t-23.5 -55.5q0 -16 3 -30.5t8 -26.5l142 7l-2 -89l-138 -6q-7 -12 -13 -28.5t-6 -45.5q0 -12 2 -25.5
t5 -24.5q10 -2 22 -3t26 -1q38 0 72 5.5t54 10.5l10 -96q-17 -6 -53.5 -13t-92.5 -7q-152 0 -152 145q0 30 6.5 51t17 35t23.5 22.5t26 14.5v3z"></glyph>
    <glyph glyph-name="zeta" unicode="&#x3b6;" horiz-adv-x="351" d="M236 -99l4 98q-47 10 -84 21t-62.5 31t-38.5 54.5t-13 91.5q0 78 22.5 144t53.5 118.5t64.5 89.5t56.5 56v3q-10 -2 -30.5 -4t-45.5 -3l-91 -3v90l279 6v-73q-29 -30 -63.5 -70.5t-64.5 -91t-50 -111t-20 -130.5q0 -31 1.5 -50.5t5.5 -39.5q26 -14 56.5 -21.5t56.5 -16.5
t43 -26t17 -51q0 -29 -6 -55.5t-15 -46.5z"></glyph>
    <glyph glyph-name="eta" unicode="&#x3b7;" horiz-adv-x="504" d="M337 -157v507q0 30 -2 46.5t-5 29.5q-8 2 -18.5 4t-27.5 2q-35 0 -64.5 -9.5t-51.5 -20.5v-402h-108v517l101 9v-50h2q12 8 28.5 18t36.5 18.5t44 14t50 5.5q64 0 93.5 -29t29.5 -100v-549z"></glyph>
    <glyph glyph-name="theta" unicode="&#x3b8;" horiz-adv-x="491" d="M440 349q0 -101 -13 -170t-39 -111.5t-64.5 -61t-90.5 -18.5q-48 0 -82.5 15.5t-56 55.5t-31.5 107t-10 171q0 101 13 170.5t38.5 112t64.5 61.5t91 19q48 0 82.5 -16t56 -56t31.5 -108t10 -171zM230 84q26 0 44.5 9.5t30.5 34t18 65.5t7 104h-169q2 -73 10 -125t17 -84
q13 -4 42 -4zM264 604q-26 0 -45 -10t-31.5 -34.5t-19 -65.5t-7.5 -102h169q-2 74 -10 126t-17 83q-14 3 -39 3z"></glyph>
    <glyph glyph-name="iota" unicode="&#x3b9;" horiz-adv-x="254" d="M166 177q0 -32 1 -52.5t3 -34.5h7q14 0 29 1t22 3l5 -92q-4 -2 -13 -4t-23 -3.5t-30 -1.5q-29 0 -50 5.5t-34 22t-19 46.5t-6 79v371l108 9v-349z"></glyph>
    <glyph glyph-name="kappa" unicode="&#x3ba;" horiz-adv-x="471" d="M326 -6l-122 220h-36v-214h-108v517l108 9v-222h27q10 46 29.5 86t49 69.5t69.5 48t91 23.5l12 -97q-73 -14 -107 -59.5t-43 -106.5l154 -264z"></glyph>
    <glyph glyph-name="lambda" unicode="&#x3bb;" horiz-adv-x="458" d="M19 0l134 505l63 4q-10 30 -25 54.5t-31 43.5t-31 32t-24 21l87 42q45 -34 79 -91.5t57 -154.5l110 -456h-111l-70 334q-8 37 -14 67t-8 53h-3q-3 -23 -9 -53t-14 -67l-78 -334h-112z"></glyph>
    <glyph glyph-name="uni03BC" unicode="&#x3bc;" horiz-adv-x="550" d="M449 177q0 -32 0.5 -52.5t3.5 -34.5h7q14 0 28.5 1t22.5 3l5 -92q-4 -2 -12 -3.5t-19.5 -3t-19.5 -2t-16 -0.5q-39 0 -62 11.5t-34 43.5q-11 -9 -27 -18.5t-36 -17.5t-45 -13t-55 -5q-10 0 -14 1v-141l-109 -11v674l109 9v-332q0 -29 2 -57t7 -41q4 -2 15 -4t26 -2
q35 0 64.5 10t51.5 22q-1 8 -1 16.5v17.5v361l108 9v-349z"></glyph>
    <glyph glyph-name="nu" unicode="&#x3bd;" horiz-adv-x="450" d="M154 0l-134 517l113 9l72 -338q5 -26 9.5 -53.5t6.5 -52.5h3q12 36 24.5 82t24.5 97t21.5 106t13 87.5t4 43.5t1.5 22h110q-7 -78 -22.5 -152t-36 -141t-43.5 -124.5t-45 -102.5h-122z"></glyph>
    <glyph glyph-name="xi" unicode="&#x3be;" horiz-adv-x="365" d="M144 353q-17 8 -33 21t-28 32t-19.5 45.5t-7.5 62.5q0 51 14.5 85.5t40.5 56.5t61.5 31.5t77.5 9.5q33 0 58 -4t39 -9l-9 -98q-14 5 -33.5 8.5t-45.5 3.5q-49 0 -72 -21t-23 -74q0 -39 9 -63t19 -35l113 4l3 -92l-39 -2q-60 -3 -90 -40t-30 -105q0 -30 6 -49
q22 -11 48 -16t55 -12q17 -4 31.5 -9.5t24.5 -14.5t15.5 -23t5.5 -35q0 -30 -7 -55t-15 -45l-76 -10l4 97q-44 8 -80.5 15t-63 23.5t-41.5 46.5t-15 83q0 36 10 65.5t25 53t33 40t35 25.5v3z"></glyph>
    <glyph glyph-name="omicron" unicode="&#x3bf;" horiz-adv-x="487" d="M445 265q0 -80 -17 -133t-47 -85t-70.5 -45.5t-86.5 -13.5q-48 0 -82 14t-56 46t-32 83t-10 125q0 79 17 132.5t47 85t70 45t86 13.5q48 0 82.5 -14t56 -46t32 -83t10.5 -124zM334 258q0 68 -6 107t-14 65q-9 2 -22 4t-29 2q-25 0 -45 -5.5t-34 -24t-21.5 -53t-7.5 -91.5
q0 -69 5 -107.5t13 -64.5q9 -2 22 -4t30 -2q25 0 45 5.5t34 24t22 53t8 91.5z"></glyph>
    <glyph glyph-name="pi" unicode="&#x3c0;" horiz-adv-x="554" d="M103 0v425h-69v95h481l-7 -95h-71v-248q0 -32 0.5 -53.5t3.5 -36.5h6q14 0 29 1t22 3l5 -89q-4 -2 -12 -4t-22.5 -3.5t-31.5 -1.5q-29 0 -49.5 5.5t-34 22t-19.5 46.5t-6 79v279h-116v-425h-109z"></glyph>
    <glyph glyph-name="rho" unicode="&#x3c1;" horiz-adv-x="495" d="M223 -7q-17 0 -32.5 3t-26.5 7v-149l-108 -11v448q0 70 16.5 116.5t45.5 74.5t68 39t84 11q47 0 81 -12.5t56.5 -42t33 -77t10.5 -117.5q0 -84 -14.5 -140t-43 -89.5t-71 -47t-99.5 -13.5zM271 436q-26 0 -46 -5.5t-33.5 -21t-20.5 -44.5t-7 -76v-196q9 -2 23.5 -4.5
t33.5 -2.5q30 0 52 6t37 25.5t22.5 55t7.5 94.5q0 56 -4 97t-11 67q-9 2 -20.5 3.5t-33.5 1.5z"></glyph>
    <glyph glyph-name="sigma1" unicode="&#x3c2;" horiz-adv-x="385" d="M242 -1q-48 8 -85 17t-62 33.5t-38 71.5t-13 130q0 145 57 212t156 67q36 0 61.5 -5.5t39.5 -10.5l-14 -97q-10 4 -34 8.5t-48 4.5q-57 0 -82.5 -39.5t-25.5 -133.5q0 -48 2.5 -74.5t8.5 -53.5q23 -13 48 -18.5t49 -12.5q34 -9 54 -26t20 -58q0 -30 -7 -56.5t-15 -46.5
l-76 -10z"></glyph>
    <glyph glyph-name="sigma" unicode="&#x3c3;" horiz-adv-x="511" d="M490 424h-87q37 -60 37 -163q0 -78 -17 -129t-46 -81.5t-69.5 -42.5t-86.5 -12q-48 0 -81.5 13.5t-54.5 44t-31 81t-10 124.5q0 79 17 129.5t46.5 79.5t69.5 40.5t86 11.5h229zM329 253q0 67 -8.5 107t-17.5 66q-11 1 -22 1h-20q-25 0 -44.5 -5t-33 -23t-21 -51.5
t-7.5 -90.5q0 -35 1 -60.5t3.5 -45t5.5 -34t7 -27.5q11 -3 24 -4.5t27 -1.5q25 0 44.5 5t33 22t21 51t7.5 91z"></glyph>
    <glyph glyph-name="tau" unicode="&#x3c4;" horiz-adv-x="389" d="M360 427h-120v-250q0 -32 0.5 -52.5t3.5 -34.5h6q7 0 16 0.5l18 1t16 1.5t11 1l5 -92q-4 -2 -13.5 -4t-27.5 -3.5t-35 -1.5q-29 0 -49.5 5.5t-34 22t-19.5 46.5t-6 79v281h-108v93h341z"></glyph>
    <glyph glyph-name="upsilon" unicode="&#x3c5;" horiz-adv-x="492" d="M165 526v-329q0 -30 2.5 -60t6.5 -46q8 -3 17.5 -4.5t24.5 -1.5q31 0 54.5 9.5t39 31.5t23 57.5t7.5 86.5q0 85 -11 145.5t-21 101.5l105 9q12 -40 23.5 -98.5t11.5 -148.5q0 -77 -15.5 -132.5t-45 -90.5t-72.5 -51.5t-98 -16.5q-42 0 -72 10t-49.5 34t-29 62.5
t-9.5 95.5v327z"></glyph>
    <glyph glyph-name="phi" unicode="&#x3c6;" horiz-adv-x="679" d="M284 -157v152q-68 3 -114 19t-73.5 51t-39 92.5t-11.5 142.5q0 36 3.5 69.5t8 63t10 53.5t9.5 40l103 -9q-8 -39 -16.5 -96.5t-8.5 -123.5q0 -29 1.5 -53t5 -45t8 -40.5t10.5 -39.5q18 -11 42 -17.5t62 -8.5v421q32 5 72 9t91 4q54 0 90 -12t58 -40t31 -74.5t9 -114.5
q0 -147 -61.5 -214t-181.5 -76v-142zM392 93q37 3 62 12.5t40.5 30t22.5 53t7 80.5q0 54 -4.5 92.5t-11.5 64.5q-11 2 -23.5 3t-34.5 1q-23 0 -34.5 -0.5t-23.5 -2.5v-334z"></glyph>
    <glyph glyph-name="chi" unicode="&#x3c7;" horiz-adv-x="440" d="M13 -150l125 351l-104 316l103 14l56 -186q9 -29 15 -53.5t10 -50.5h4q5 26 10.5 49.5t15.5 52.5l58 177h108l-118 -319l127 -347l-113 -15l-63 210q-6 21 -11 37t-8.5 29.5t-6 26t-4.5 26.5h-3q-2 -14 -4 -26t-5 -25t-7.5 -29t-10.5 -37l-60 -201h-114z"></glyph>
    <glyph glyph-name="psi" unicode="&#x3c8;" horiz-adv-x="671" d="M621 306q0 -83 -14 -140.5t-42.5 -94t-72.5 -54.5t-104 -21v-142l-107 -11v153q-69 1 -113 14.5t-69 48.5t-34 97t-9 161v200l108 9v-212q0 -66 4.5 -114t12.5 -90q18 -6 41.5 -10.5t58.5 -6.5v524l107 10v-534q40 2 64.5 13t38 35t18 62.5t4.5 95.5q0 59 -6.5 118
t-13.5 100l105 9q4 -19 8 -44.5t7.5 -54.5t5.5 -60t2 -61z"></glyph>
    <glyph glyph-name="omega" unicode="&#x3c9;" horiz-adv-x="687" d="M460 -12q-32 0 -53.5 7t-36 18.5t-22.5 26.5t-13 30h-3q-11 -31 -41 -56.5t-88 -25.5q-39 0 -68 14.5t-49 49t-30 92t-10 142.5q0 88 11.5 147t22.5 93l104 -9q-11 -37 -20.5 -94t-9.5 -138q0 -73 7 -119.5t16 -76.5q18 -5 41 -5q19 0 32.5 6t22.5 22.5t13 46t4 75.5v172
l108 10v-205q0 -43 2.5 -72t7.5 -51q15 -4 40 -4q47 0 66.5 43.5t19.5 147.5q0 79 -10 136.5t-23 105.5l105 9q14 -48 25 -108t11 -139q0 -78 -13 -133.5t-36.5 -90.5t-57 -51t-75.5 -16z"></glyph>
    <glyph glyph-name="iotadieresis" unicode="&#x3ca;" horiz-adv-x="255" d="M167 177q0 -32 1 -52.5t3 -34.5h7q14 0 29 1t22 3l5 -92q-4 -2 -13 -4t-23 -3.5t-30 -1.5q-29 0 -50 5.5t-34 22t-19 46.5t-6 79v371l108 9v-349zM88 584l-108 -8v88l108 9v-89zM248 584l-108 -8v88l108 9v-89z"></glyph>
    <glyph glyph-name="upsilondieresis" unicode="&#x3cb;" horiz-adv-x="492" d="M165 526v-329q0 -30 2.5 -60t6.5 -46q8 -3 17.5 -4.5t24.5 -1.5q31 0 54.5 9.5t39 31.5t23 57.5t7.5 86.5q0 85 -11 145.5t-21 101.5l105 9q12 -40 23.5 -98.5t11.5 -148.5q0 -77 -15.5 -132.5t-45 -90.5t-72.5 -51.5t-98 -16.5q-42 0 -72 10t-49.5 34t-29 62.5
t-9.5 95.5v327zM212 584l-108 -8v88l108 9v-89zM372 584l-108 -8v88l108 9v-89z"></glyph>
    <glyph glyph-name="omicrontonos" unicode="&#x3cc;" horiz-adv-x="487" d="M445 265q0 -80 -17 -133t-47 -85t-70.5 -45.5t-86.5 -13.5q-48 0 -82 14t-56 46t-32 83t-10 125q0 79 17 132.5t47 85t70 45t86 13.5q48 0 82.5 -14t56 -46t32 -83t10.5 -124zM334 258q0 68 -6 107t-14 65q-9 2 -22 4t-29 2q-25 0 -45 -5.5t-34 -24t-21.5 -53t-7.5 -91.5
q0 -69 5 -107.5t13 -64.5q9 -2 22 -4t30 -2q25 0 45 5.5t34 24t22 53t8 91.5zM261 565l-59 34l78 131l76 -40z"></glyph>
    <glyph glyph-name="upsilontonos" unicode="&#x3cd;" horiz-adv-x="492" d="M165 526v-329q0 -30 2.5 -60t6.5 -46q8 -3 17.5 -4.5t24.5 -1.5q31 0 54.5 9.5t39 31.5t23 57.5t7.5 86.5q0 85 -11 145.5t-21 101.5l105 9q12 -40 23.5 -98.5t11.5 -148.5q0 -77 -15.5 -132.5t-45 -90.5t-72.5 -51.5t-98 -16.5q-42 0 -72 10t-49.5 34t-29 62.5
t-9.5 95.5v327zM242 565l-59 34l78 131l76 -40z"></glyph>
    <glyph glyph-name="omegatonos" unicode="&#x3ce;" horiz-adv-x="687" d="M460 -12q-32 0 -53.5 7t-36 18.5t-22.5 26.5t-13 30h-3q-11 -31 -41 -56.5t-88 -25.5q-39 0 -68 14.5t-49 49t-30 92t-10 142.5q0 88 11.5 147t22.5 93l104 -9q-11 -37 -20.5 -94t-9.5 -138q0 -73 7 -119.5t16 -76.5q18 -5 41 -5q19 0 32.5 6t22.5 22.5t13 46t4 75.5v172
l108 10v-205q0 -43 2.5 -72t7.5 -51q15 -4 40 -4q47 0 66.5 43.5t19.5 147.5q0 79 -10 136.5t-23 105.5l105 9q14 -48 25 -108t11 -139q0 -78 -13 -133.5t-36.5 -90.5t-57 -51t-75.5 -16zM350 565l-59 34l78 131l76 -40z"></glyph>
    <glyph glyph-name="uni03D0" unicode="&#x3d0;" horiz-adv-x="467" d="M424 200q0 -108 -51.5 -159.5t-141.5 -51.5q-49 0 -83 13t-55 50.5t-30.5 105t-9.5 177.5q0 111 14.5 181t40.5 109.5t63.5 54t84.5 14.5q87 0 120 -45.5t33 -132.5q0 -40 -5.5 -67t-16 -45t-25.5 -28.5t-33 -17.5v-3q19 -4 36.5 -14.5t30.5 -29.5t20.5 -46.5t7.5 -64.5z
M257 601q-22 0 -40 -10.5t-30.5 -39t-19.5 -79.5t-7 -132q0 -87 7.5 -148.5t16.5 -103.5q16 -3 45 -3q43 0 65.5 26t22.5 89q0 33 -6 59.5t-13 40.5q-8 1 -18 1.5t-22 0.5q-14 0 -28.5 -0.5t-26.5 -1.5l-3 86q21 0 39 3q19 3 32 9.5t20.5 19t10.5 33t3 50.5q0 12 -1 25.5
t-2.5 27t-4 25t-5.5 18.5q-2 1 -10 2.5t-25 1.5z"></glyph>
    <glyph glyph-name="phi1" unicode="&#x3d5;" horiz-adv-x="620" d="M360 697v-172q62 -2 103.5 -14t66.5 -40.5t35.5 -76.5t10.5 -121q0 -71 -13 -121t-39.5 -83t-67.5 -50t-96 -22v-143l-102 -11v153q-62 2 -103 14t-66 41t-35 77t-10 122q0 70 13 119.5t39.5 82t66.5 49t95 22.5v163zM454 411q-15 7 -36 12t-58 8v-341q30 4 50 15t33 31
t18.5 52.5t5.5 80.5q0 54 -4 87t-9 55zM165 110q14 -7 35 -12.5t58 -7.5v340q-30 -5 -50.5 -15.5t-32.5 -31t-17.5 -52.5t-5.5 -79q0 -55 4 -87.5t9 -54.5z"></glyph>
    <glyph glyph-name="uni0400" unicode="&#x400;" horiz-adv-x="407" d="M353 560h-181v-178h175v-98h-175v-183h190v-101h-298v660h296zM286 693l-187 50l26 80l179 -80z"></glyph>
    <glyph glyph-name="afii10023" unicode="&#x401;" horiz-adv-x="407" d="M353 560h-181v-178h175v-98h-175v-183h190v-101h-298v660h296zM188 710l-97 -8v80l97 8v-80zM337 710l-97 -8v80l97 8v-80z"></glyph>
    <glyph glyph-name="afii10051" unicode="&#x402;" horiz-adv-x="568" d="M532 206q0 -63 -12.5 -104.5t-36 -66t-57 -34.5t-75.5 -10q-14 0 -26 1t-20 3l-2 95q8 -2 18.5 -2.5t20.5 -0.5q24 0 40 4.5t25.5 18t13.5 36.5t4 61q0 35 -4.5 61.5t-9.5 46.5q-7 1 -12.5 1.5t-12.5 1t-16.5 0.5h-22.5q-28 0 -52 -3t-43 -7v-308h-109v562h-110v98h347
l-5 -98h-123v-164q23 7 53 12.5t64 5.5q47 0 78.5 -9.5t50 -33.5t26.5 -64.5t8 -102.5z"></glyph>
    <glyph glyph-name="afii10052" unicode="&#x403;" horiz-adv-x="365" d="M331 560h-159v-560h-108v660h273zM115 743l179 80l26 -80l-187 -50z"></glyph>
    <glyph glyph-name="afii10053" unicode="&#x404;" horiz-adv-x="414" d="M47 322q0 99 14.5 165.5t43 107t71 58t98.5 17.5q36 0 62 -5t43 -10l-9 -98q-11 3 -38.5 7.5t-59.5 4.5q-29 0 -49.5 -8.5t-34 -29.5t-20.5 -57.5t-9 -92.5l174 7l-3 -100l-172 -6q2 -71 9 -114t16 -72q17 -4 49 -4q42 0 76 4.5t57 9.5l5 -98q-20 -7 -53.5 -12.5
t-75.5 -5.5q-52 0 -89 11.5t-60 46.5t-34 100.5t-11 173.5z"></glyph>
    <glyph glyph-name="afii10054" unicode="&#x405;" horiz-adv-x="398" d="M362 167q0 -88 -49 -132t-139 -44q-19 0 -38.5 1.5t-37 3.5t-31.5 5t-21 5l3 105q15 -5 48.5 -12t73.5 -7q23 0 42 2.5t33 7.5q6 21 6 44q0 36 -13.5 62.5t-45.5 58.5l-63 63q-16 15 -32 34t-28.5 40.5t-20.5 46.5t-8 53q0 84 49 124.5t132 40.5q51 0 81 -5.5t44 -9.5
l-7 -97q-17 4 -45.5 9t-66.5 5q-37 0 -57 -14t-20 -48q0 -30 15 -54.5t44 -52.5l62 -62q17 -17 33 -35.5t29 -39.5t20.5 -45t7.5 -53z"></glyph>
    <glyph glyph-name="afii10055" unicode="&#x406;" horiz-adv-x="237" d="M173 0h-109v660h109v-660z"></glyph>
    <glyph glyph-name="afii10056" unicode="&#x407;" horiz-adv-x="237" d="M173 0h-109v660h109v-660zM93 710l-97 -8v80l97 8v-80zM242 710l-97 -8v80l97 8v-80z"></glyph>
    <glyph glyph-name="afii10057" unicode="&#x408;" horiz-adv-x="238" d="M175 93q0 -44 -7.5 -74t-22.5 -54t-37 -45t-52 -45l-74 67q24 23 47.5 50.5t36.5 53.5v614h109v-567z"></glyph>
    <glyph glyph-name="afii10058" unicode="&#x409;" horiz-adv-x="759" d="M533 408q52 0 89 -10t59.5 -32.5t33 -59.5t10.5 -91q0 -62 -18 -103t-48.5 -66t-72 -35.5t-87.5 -10.5h-141v560h-101l-28 -382q-3 -39 -11.5 -72.5t-26.5 -58t-47 -39t-72 -14.5q-16 0 -25.5 1t-21.5 3l-2 99q10 -2 27 -2q39 0 54.5 22.5t19.5 73.5l37 469h305v-257
q14 2 31 3.5t36 1.5zM529 314q-16 0 -31.5 -1.5t-31.5 -2.5v-215h34q27 0 48.5 4.5t36.5 16.5t23 34t8 57q0 34 -5.5 60.5t-10.5 41.5q-11 2 -28 3.5t-43 1.5z"></glyph>
    <glyph glyph-name="afii10059" unicode="&#x40a;" horiz-adv-x="743" d="M518 408q52 0 88.5 -10t59 -32.5t33 -59.5t10.5 -91q0 -62 -17.5 -103t-48.5 -66t-72 -35.5t-88 -10.5h-141v282h-170v-282h-108v660h108v-277h170v277h109v-256q14 2 30.5 3t36.5 1zM513 314q-17 0 -31 -0.5t-31 -2.5v-216h34q27 0 48.5 4.5t36.5 16.5t23 34t8 57
q0 34 -6 60.5t-11 41.5q-11 2 -27.5 3.5t-43.5 1.5z"></glyph>
    <glyph glyph-name="afii10060" unicode="&#x40b;" horiz-adv-x="566" d="M414 229q0 31 -1 51t-3 34q-10 2 -20 2.5t-35 0.5q-29 0 -56 -3t-48 -8v-306h-109v562h-110v98h347l-5 -98h-123v-166q26 8 59.5 14t72.5 6q75 0 107 -30.5t32 -106.5v-279h-108v229z"></glyph>
    <glyph glyph-name="afii10061" unicode="&#x40c;" horiz-adv-x="478" d="M289 336l173 -333l-118 -9l-143 291h-29v-285h-108v660h108v-279h33l137 279h112zM159 743l179 80l26 -80l-187 -50z"></glyph>
    <glyph glyph-name="uni040D" unicode="&#x40d;" horiz-adv-x="517" d="M350 335q0 37 1 66.5t2 43.5h-3q-5 -14 -14.5 -41.5t-20.5 -53.5l-144 -350h-107v660h103v-342q0 -35 -1.5 -62t-2.5 -42h3q5 17 14.5 42.5t21.5 55.5l144 348h107v-660h-103v335zM336 693l-187 50l26 80l179 -80z"></glyph>
    <glyph glyph-name="afii10062" unicode="&#x40e;" horiz-adv-x="448" d="M218 380q8 -29 15 -55.5t9 -46.5h3q2 19 7 48t12 58l62 276h109l-140 -502q-12 -43 -27 -74.5t-36 -52.5t-50.5 -31t-71.5 -10q-23 0 -40.5 4t-26.5 7l6 99q5 -2 18.5 -5t30.5 -3q40 0 61 21.5t33 65.5l-168 481h113zM239 769q29 0 44.5 14t21.5 37l61 -20
q-11 -44 -41 -71t-86 -27t-86 27t-41 71l61 20q6 -23 21.5 -37t44.5 -14z"></glyph>
    <glyph glyph-name="afii10145" unicode="&#x40f;" horiz-adv-x="511" d="M338 660h109v-660h-143v-122h-93v122h-147v660h109v-559h165v559z"></glyph>
    <glyph glyph-name="afii10017" unicode="&#x410;" horiz-adv-x="470" d="M7 0l167 660h132l148 -660h-114l-28 147h-163l-32 -147h-110zM167 234h129l-48 265q-5 26 -7.5 41.5t-3.5 29.5h-3q-1 -14 -3 -30t-7 -42z"></glyph>
    <glyph glyph-name="afii10018" unicode="&#x411;" horiz-adv-x="466" d="M429 209q0 -62 -17 -102t-47 -64t-71 -33.5t-90 -9.5h-140v660h330l-4 -99h-219v-172q15 2 38.5 3.5t50.5 1.5q48 0 80.5 -11t52 -34t28 -57.5t8.5 -82.5zM258 300q-25 0 -47.5 -1.5t-39.5 -3.5v-201h34q31 0 53.5 5t36.5 18t20.5 35t6.5 55q0 28 -5 53t-10 38
q-7 1 -18.5 1.5t-30.5 0.5z"></glyph>
    <glyph glyph-name="afii10019" unicode="&#x412;" horiz-adv-x="469" d="M424 200q0 -106 -50.5 -153t-153.5 -47h-156v660q16 1 33 2t37.5 2t44.5 1.5t55 0.5q93 0 135.5 -36.5t42.5 -129.5q0 -59 -16.5 -96.5t-54.5 -57.5q39 -14 61 -48.5t22 -97.5zM228 291q-14 0 -28.5 -0.5t-28.5 -1.5v-192h46q51 0 75.5 24t24.5 81q0 32 -6 52t-15 34
q-8 1 -28 2t-40 1zM227 572q-16 0 -30 -0.5t-26 -1.5v-194h44q28 0 46 4.5t28 16.5t13.5 32.5t3.5 53.5q0 25 -3.5 47.5t-9.5 35.5q-7 2 -23.5 4t-42.5 2z"></glyph>
    <glyph glyph-name="afii10020" unicode="&#x413;" horiz-adv-x="365" d="M331 560h-159v-560h-108v660h273z"></glyph>
    <glyph glyph-name="afii10021" unicode="&#x414;" horiz-adv-x="532" d="M500 -122h-94v122h-293v-122h-93v223h49q20 20 28.5 61t13.5 110l30 388h307v-559h52v-223zM217 268q-4 -58 -12 -98.5t-23 -68.5h157v459h-102z"></glyph>
    <glyph glyph-name="afii10022" unicode="&#x415;" horiz-adv-x="407" d="M353 560h-181v-178h175v-98h-175v-183h190v-101h-298v660h296z"></glyph>
    <glyph glyph-name="afii10024" unicode="&#x416;" horiz-adv-x="699" d="M522 337l161 -334l-114 -9l-136 291h-29v-285h-109v285h-31l-132 -285h-116l162 337l-154 320l108 9l131 -285h32v279h109v-279h34l128 279h110z"></glyph>
    <glyph glyph-name="afii10025" unicode="&#x417;" horiz-adv-x="406" d="M361 197q0 -59 -15.5 -98.5t-43 -62.5t-66.5 -32.5t-86 -9.5q-35 0 -65 4t-51 9l9 101q15 -4 44.5 -8.5t58.5 -4.5q51 0 79.5 21.5t28.5 81.5q0 29 -6 49.5t-14 35.5q-8 2 -26.5 2.5t-41.5 0.5q-22 0 -45 -0.5t-44 -1.5l-2 93l39 1.5t24 1t13 0.5q30 1 48 5.5t28 15.5
t13.5 30.5t3.5 51.5q0 22 -4 42.5t-11 35.5q-8 1 -26.5 2.5t-39.5 1.5q-35 0 -62.5 -2.5t-47.5 -6.5l-7 101q21 3 55 6.5t74 3.5q92 0 134 -38t42 -130q0 -39 -6 -66t-16.5 -44.5t-25 -28t-30.5 -16.5v-3q16 -4 31.5 -13.5t28 -26.5t20.5 -42.5t8 -61.5z"></glyph>
    <glyph glyph-name="afii10026" unicode="&#x418;" horiz-adv-x="517" d="M350 335q0 37 1 66.5t2 43.5h-3q-5 -14 -14.5 -41.5t-20.5 -53.5l-144 -350h-107v660h103v-342q0 -35 -1.5 -62t-2.5 -42h3q5 17 14.5 42.5t21.5 55.5l144 348h107v-660h-103v335z"></glyph>
    <glyph glyph-name="afii10027" unicode="&#x419;" horiz-adv-x="517" d="M350 335q0 37 1 66.5t2 43.5h-3q-5 -14 -14.5 -41.5t-20.5 -53.5l-144 -350h-107v660h103v-342q0 -35 -1.5 -62t-2.5 -42h3q5 17 14.5 42.5t21.5 55.5l144 348h107v-660h-103v335zM264 769q29 0 44.5 14t21.5 37l61 -20q-11 -44 -41 -71t-86 -27t-86 27t-41 71l61 20
q6 -23 21.5 -37t44.5 -14z"></glyph>
    <glyph glyph-name="afii10028" unicode="&#x41a;" horiz-adv-x="478" d="M289 336l173 -333l-118 -9l-143 291h-29v-285h-108v660h108v-279h33l137 279h112z"></glyph>
    <glyph glyph-name="afii10029" unicode="&#x41b;" horiz-adv-x="535" d="M471 0h-108v560h-106l-28 -382q-3 -39 -11.5 -72.5t-26.5 -58t-47 -39t-72 -14.5q-16 0 -25.5 1t-21.5 3l-2 99q10 -2 27 -2q39 0 54.5 22.5t19.5 73.5l37 469h310v-660z"></glyph>
    <glyph glyph-name="afii10030" unicode="&#x41c;" horiz-adv-x="680" d="M629 0h-106l-10 426q-1 29 -1 52v38h-3q-3 -17 -7 -38.5t-10 -47.5l-104 -430h-100l-99 430q-6 26 -10.5 50t-6.5 37h-3v-37.5t-1 -53.5l-13 -426h-104l34 660h145l95 -425q7 -29 10.5 -53t5.5 -38h3q2 17 6 41.5t10 49.5l102 425h140z"></glyph>
    <glyph glyph-name="afii10031" unicode="&#x41d;" horiz-adv-x="522" d="M458 0h-108v282h-178v-282h-108v660h108v-277h178v277h108v-660z"></glyph>
    <glyph glyph-name="afii10032" unicode="&#x41e;" horiz-adv-x="520" d="M474 339q0 -95 -15.5 -161.5t-45 -108.5t-72.5 -61.5t-98 -19.5q-50 0 -87 13.5t-61.5 50.5t-36.5 102t-12 168q0 95 15.5 161.5t45 108.5t72.5 61t98 19q51 0 88 -13.5t61 -50.5t36 -101.5t12 -167.5zM364 331q0 50 -2.5 87.5t-7 65t-9 47t-9.5 34.5q-10 3 -24.5 5.5
t-34.5 2.5q-30 0 -52.5 -10.5t-37.5 -37.5t-22.5 -74.5t-7.5 -121.5q0 -50 2.5 -87.5t6 -65.5t8.5 -47.5t10 -34.5q10 -3 25 -5t35 -2q30 0 52.5 10.5t37.5 38t22.5 74.5t7.5 121z"></glyph>
    <glyph glyph-name="afii10033" unicode="&#x41f;" horiz-adv-x="515" d="M451 0h-108v560h-171v-560h-108v660h387v-660z"></glyph>
    <glyph glyph-name="afii10034" unicode="&#x420;" horiz-adv-x="468" d="M433 457q0 -68 -16.5 -114t-46 -74t-69 -39.5t-85.5 -11.5h-44v-218h-108v660q35 2 74.5 4t95.5 2q57 0 95 -10.5t61 -34.5t33 -64t10 -100zM172 314h40q25 0 46 4.5t36 18t23 39.5t8 69q0 41 -6.5 73.5t-11.5 46.5q-11 2 -27 4t-44 2q-31 0 -64 -3v-254z"></glyph>
    <glyph glyph-name="afii10035" unicode="&#x421;" horiz-adv-x="406" d="M48 320q0 97 13.5 163.5t41 108t69 60t97.5 18.5q41 0 66 -5t41 -10l-10 -99q-11 2 -37 7.5t-58 5.5q-30 0 -51.5 -9.5t-35 -36t-20 -73.5t-6.5 -123q0 -49 2 -85.5t5.5 -64t7.5 -46.5t9 -34q11 -2 25.5 -3.5t32.5 -1.5q39 0 70.5 4.5t52.5 9.5l4 -97q-20 -6 -53 -12.5
t-75 -6.5q-55 0 -91.5 12.5t-58.5 48.5t-31.5 100.5t-9.5 168.5z"></glyph>
    <glyph glyph-name="afii10036" unicode="&#x422;" horiz-adv-x="426" d="M392 560h-123v-560h-109v560h-128v100h365z"></glyph>
    <glyph glyph-name="afii10037" unicode="&#x423;" horiz-adv-x="448" d="M218 380q8 -29 15 -55.5t9 -46.5h3q2 19 7 48t12 58l62 276h109l-140 -502q-12 -43 -27 -74.5t-36 -52.5t-50.5 -31t-71.5 -10q-23 0 -40.5 4t-26.5 7l6 99q5 -2 18.5 -5t30.5 -3q40 0 61 21.5t33 65.5l-168 481h113z"></glyph>
    <glyph glyph-name="afii10038" unicode="&#x424;" horiz-adv-x="599" d="M40 324q0 77 14 131.5t41 90.5t65.5 55t87.5 25v74h102v-71q55 -3 94.5 -17.5t65 -47.5t37.5 -88t12 -140q0 -77 -14.5 -131.5t-41.5 -90.5t-65.5 -55.5t-87.5 -25.5v-73h-102v71q-55 3 -94.5 17t-64.5 47t-37 88.5t-12 140.5zM424 520q-9 3 -28 7t-46 6v-406q24 4 43 16
t33 35t21.5 60t7.5 93q0 81 -9 121t-22 68zM174 140q8 -3 27 -7.5t47 -6.5v406q-24 -5 -43 -16.5t-32.5 -34.5t-21 -60t-7.5 -92q1 -80 11 -124t19 -65z"></glyph>
    <glyph glyph-name="afii10039" unicode="&#x425;" horiz-adv-x="475" d="M322 336l133 -336h-113l-87 231q-15 39 -20 70h-3q-3 -14 -8 -32.5t-13 -38.5l-85 -230h-108l130 339l-114 321h112l70 -217q15 -44 19 -71h3q3 14 8.5 31.5t13.5 40.5l78 216h109z"></glyph>
    <glyph glyph-name="afii10040" unicode="&#x426;" horiz-adv-x="530" d="M498 -122h-93v122h-341v660h109v-559h165v559h109v-559h51v-223z"></glyph>
    <glyph glyph-name="afii10041" unicode="&#x427;" horiz-adv-x="496" d="M155 660v-237q0 -30 1 -50t3 -34q9 -2 19.5 -2.5t34.5 -0.5q30 0 59.5 3.5t51.5 8.5v312h108v-660h-108v258q-26 -8 -61 -14.5t-77 -6.5q-75 0 -107.5 30.5t-32.5 106.5v286h109z"></glyph>
    <glyph glyph-name="afii10042" unicode="&#x428;" horiz-adv-x="697" d="M633 0h-569v660h107v-561h124v561h107v-561h124v561h107v-660z"></glyph>
    <glyph glyph-name="afii10043" unicode="&#x429;" horiz-adv-x="717" d="M685 -122h-93v122h-528v660h107v-561h124v561h107v-561h124v561h107v-561h52v-221z"></glyph>
    <glyph glyph-name="afii10044" unicode="&#x42a;" horiz-adv-x="554" d="M519 219q0 -63 -17.5 -105.5t-48.5 -67.5t-73.5 -35.5t-91.5 -10.5h-143v562h-113v98h221v-253q17 2 41 4t51 2q50 0 83.5 -11.5t53.5 -35.5t28.5 -60.5t8.5 -86.5zM342 319q-25 0 -48.5 -1t-40.5 -3v-220h37q33 0 56 6t37 20t20.5 37.5t6.5 59.5q0 29 -4.5 56.5
t-8.5 41.5q-7 1 -20.5 2t-34.5 1z"></glyph>
    <glyph glyph-name="afii10045" unicode="&#x42b;" horiz-adv-x="658" d="M438 219q0 -63 -17.5 -105.5t-48.5 -67.5t-73.5 -35.5t-91.5 -10.5h-143v660h108v-253q17 2 41 4t51 2q50 0 83.5 -11.5t53.5 -35.5t28.5 -60.5t8.5 -86.5zM261 319q-25 0 -48.5 -1t-40.5 -3v-220h37q33 0 56 6t37 20t20.5 37.5t6.5 59.5q0 29 -4.5 56.5t-8.5 41.5
q-7 1 -20.5 2t-34.5 1zM594 0h-109v660h109v-660z"></glyph>
    <glyph glyph-name="afii10046" unicode="&#x42c;" horiz-adv-x="473" d="M438 219q0 -63 -17.5 -105.5t-48.5 -67.5t-73.5 -35.5t-91.5 -10.5h-143v660h108v-253q17 2 41 4t51 2q50 0 83.5 -11.5t53.5 -35.5t28.5 -60.5t8.5 -86.5zM261 319q-25 0 -48.5 -1t-40.5 -3v-220h37q33 0 56 6t37 20t20.5 37.5t6.5 59.5q0 29 -4.5 56.5t-8.5 41.5
q-7 1 -20.5 2t-34.5 1z"></glyph>
    <glyph glyph-name="afii10047" unicode="&#x42d;" horiz-adv-x="410" d="M76 381l173 6q-3 60 -9 105t-14 72q-11 2 -25 3.5t-31 1.5q-39 0 -72 -4.5t-49 -8.5l-10 98q21 5 55 10.5t76 5.5q57 0 94 -15t59 -53t30.5 -103.5t8.5 -167.5q0 -99 -12.5 -164.5t-39.5 -105t-68.5 -55.5t-99.5 -16q-36 0 -60.5 4t-42.5 9l7 101q14 -4 37.5 -8t56.5 -4
q30 0 50.5 8t33.5 30t19.5 60t7.5 97l-172 -5z"></glyph>
    <glyph glyph-name="afii10048" unicode="&#x42e;" horiz-adv-x="718" d="M672 339q0 -95 -14.5 -161.5t-42.5 -108.5t-69 -61.5t-95 -19.5q-48 0 -83 12.5t-58 45.5t-35.5 90t-14.5 146h-87v-282h-109v660h109v-277h89q4 78 20.5 133t44.5 89.5t66.5 50.5t87.5 16q50 0 86 -14t59.5 -50.5t34.5 -101.5t11 -167zM562 331q0 96 -8.5 150.5
t-17.5 84.5q-10 2 -23 4.5t-31 2.5q-28 0 -49 -11t-35 -38.5t-21 -74.5t-7 -120q0 -95 8.5 -149.5t18.5 -85.5q9 -3 22 -5t31 -2q28 0 49.5 11t35 38.5t20.5 74.5t7 120z"></glyph>
    <glyph glyph-name="afii10049" unicode="&#x42f;" horiz-adv-x="475" d="M22 3l119 252q-46 16 -70 62.5t-24 139.5q0 61 15 101.5t43.5 64.5t69.5 34t92 10q47 0 84 -3t60 -6v-658h-108v249q-14 -2 -30.5 -3.5t-31.5 -2.5l-105 -249zM220 334q22 0 44 2t39 4v229q-6 1 -18.5 2t-30.5 1q-47 0 -73 -22.5t-26 -84.5q0 -46 5 -77.5t11 -50.5
q12 -2 21.5 -2.5t27.5 -0.5z"></glyph>
    <glyph glyph-name="afii10065" unicode="&#x430;" horiz-adv-x="451" d="M291 0v47q-17 -18 -48 -37t-78 -19q-60 0 -94.5 37.5t-34.5 124.5q0 42 14.5 71.5t39.5 47.5t58 26t70 8q19 0 36 -1.5t30 -3.5v42q0 29 -2.5 50t-5.5 31q-7 3 -20.5 6t-42.5 3q-40 0 -74.5 -8.5t-56.5 -16.5l-15 91q23 10 73 21.5t114 11.5q69 0 103.5 -33t34.5 -112
v-387h-101zM204 80q24 0 44.5 7.5t35.5 16.5v122q-13 2 -30 2.5t-34 0.5q-35 0 -57 -15.5t-22 -56.5q0 -24 3.5 -41t8.5 -31q10 -3 22.5 -4t28.5 -1z"></glyph>
    <glyph glyph-name="afii10066" unicode="&#x431;" horiz-adv-x="493" d="M136 629q18 18 44 31t61 21t81.5 12.5t106.5 5.5l2 -95q-97 -2 -154 -10t-86 -36q-27 -26 -40 -63t-20 -73h4q7 14 19 30.5t30 30t43.5 22.5t59.5 9q42 0 73 -12t50.5 -41t29 -78.5t9.5 -125.5q0 -78 -17 -129.5t-47 -82.5t-70 -44t-86 -13q-48 0 -82 15t-56 49t-32.5 89
t-10.5 135q0 131 21.5 219.5t66.5 133.5zM159 253q0 -65 5.5 -101.5t12.5 -61.5q11 -3 24.5 -4.5t28.5 -1.5q25 0 45 5t34 21.5t21.5 49t7.5 86.5q0 65 -4 105t-12 67q-20 5 -48 5q-26 0 -47 -7.5t-36 -26.5t-23.5 -52t-8.5 -84z"></glyph>
    <glyph glyph-name="afii10067" unicode="&#x432;" horiz-adv-x="452" d="M325 275q17 -3 32.5 -11t27 -22t18.5 -34.5t7 -48.5q0 -89 -49 -127t-155 -38q-28 0 -48.5 0.5t-37 2t-30.5 3t-30 3.5v515q27 3 70.5 6t100.5 3q44 0 75 -7t50.5 -22.5t28.5 -41t9 -62.5q0 -50 -20 -79t-49 -37v-3zM226 441q-18 0 -34 -1t-27 -3v-134h48q21 0 36 2.5
t24.5 11t14 23.5t4.5 39q0 19 -3 34.5t-6 24.5q-10 2 -22 2.5t-35 0.5zM229 225q-14 0 -32 -0.5t-32 -1.5v-140q11 -1 21 -1h21q29 0 48 4t30 13t15.5 23.5t4.5 36.5q0 40 -13 61q-8 2 -25 3.5t-38 1.5z"></glyph>
    <glyph glyph-name="afii10068" unicode="&#x433;" horiz-adv-x="330" d="M305 423h-137v-423h-108v520h248z"></glyph>
    <glyph glyph-name="afii10069" unicode="&#x434;" horiz-adv-x="493" d="M456 -108l-92 -8v116h-254v-108l-91 -8v212h42q15 15 25.5 47.5t16.5 95.5l27 281h281v-424h45v-204zM204 236q-5 -48 -15 -82.5t-24 -57.5h138v329h-84z"></glyph>
    <glyph glyph-name="afii10070" unicode="&#x435;" horiz-adv-x="447" d="M403 352q0 -43 -2.5 -76.5t-4.5 -56.5l-241 -13q2 -37 6.5 -66t9.5 -50q9 -2 23 -3.5t37 -1.5q51 0 92 9.5t61 17.5l11 -91q-19 -10 -62.5 -21.5t-111.5 -11.5q-51 0 -85 15t-54.5 47.5t-29 84t-8.5 125.5q0 76 15 128.5t42 84t64.5 45.5t82.5 14q44 0 74 -12t48 -35
t25.5 -56.5t7.5 -76.5zM248 443q-21 0 -38 -5.5t-29 -22.5t-19 -49t-8 -84l143 8q2 15 2 27.5v29.5q0 24 -3 49t-8 42q-5 2 -15 3.5t-25 1.5z"></glyph>
    <glyph glyph-name="afii10072" unicode="&#x436;" horiz-adv-x="660" d="M499 271l147 -268l-118 -9l-116 229h-28v-223h-109v223h-30l-113 -223h-119l148 272l-139 245l112 9l114 -214h27v208h109v-208h28l113 208h113z"></glyph>
    <glyph glyph-name="afii10073" unicode="&#x437;" horiz-adv-x="391" d="M271 263q15 -5 28.5 -13t24 -21.5t16.5 -33.5t6 -50q0 -42 -14.5 -71t-40.5 -47.5t-61 -27t-76 -8.5q-35 0 -68.5 3t-51.5 7l7 95q16 -3 45.5 -6t53.5 -3q50 0 74 14t24 55q0 19 -3.5 34.5t-8.5 29.5h-36q-10 0 -27 -0.5t-34.5 -1.5t-32 -2t-18.5 -1l-3 89q3 0 16.5 0.5
t29.5 1t29.5 1t16.5 0.5q22 1 36 4t21.5 11t10 21.5t2.5 34.5q0 11 -2 24.5t-5 24.5q-8 2 -19 3t-23 1q-38 0 -72 -4.5t-56 -9.5l-12 94q20 7 55.5 13t89.5 6q79 0 114 -36t35 -105q0 -31 -6 -51.5t-15.5 -34.5t-22.5 -22.5t-27 -14.5v-3z"></glyph>
    <glyph glyph-name="afii10074" unicode="&#x438;" horiz-adv-x="506" d="M163 259q0 -29 -1 -54.5t-3 -42.5h3q5 14 14.5 39.5t20.5 45.5l141 273h108v-520h-103v261q0 29 1 54.5t3 42.5h-3q-5 -14 -14.5 -39.5t-20.5 -45.5l-141 -273h-108v520h103v-261z"></glyph>
    <glyph glyph-name="afii10075" unicode="&#x439;" horiz-adv-x="506" d="M163 259q0 -29 -1 -54.5t-3 -42.5h3q5 14 14.5 39.5t20.5 45.5l141 273h108v-520h-103v261q0 29 1 54.5t3 42.5h-3q-5 -14 -14.5 -39.5t-20.5 -45.5l-141 -273h-108v520h103v-261zM397 688q-6 -24 -17.5 -44.5t-28.5 -36t-40.5 -24.5t-54.5 -9t-54.5 9t-40.5 24.5
t-28.5 36t-17.5 44.5l68 22q7 -25 23.5 -43.5t49.5 -18.5q34 0 50 18.5t23 43.5l68 -22v0z"></glyph>
    <glyph glyph-name="afii10076" unicode="&#x43a;" horiz-adv-x="453" d="M322 -6l-124 228h-29v-222h-108v520h108v-208h29l124 208l114 2l-150 -251l158 -267z"></glyph>
    <glyph glyph-name="afii10077" unicode="&#x43b;" horiz-adv-x="489" d="M428 0h-108v423h-85l-20 -264q-6 -79 -37.5 -122t-104.5 -43q-17 0 -28 1t-20 3l-5 97q4 -1 12.5 -2t16.5 -1q30 0 44.5 16t18.5 60l32 352h284v-520z"></glyph>
    <glyph glyph-name="afii10078" unicode="&#x43c;" horiz-adv-x="625" d="M49 0l30 520h138l78 -307q5 -22 10 -45t7 -36h2q2 13 7 37t10 44l82 307h137l25 -520h-100l-9 267q-2 35 -1.5 69t0.5 50h-3q-2 -8 -4.5 -20t-6 -26t-7.5 -29t-8 -28l-81 -283h-89l-79 283q-4 13 -7.5 28t-6.5 29t-6 26t-4 20h-3v-50t-2 -69l-10 -267h-99z"></glyph>
    <glyph glyph-name="afii10079" unicode="&#x43d;" horiz-adv-x="499" d="M439 0h-108v214h-162v-214h-109v520h109v-213h162v213h108v-520z"></glyph>
    <glyph glyph-name="afii10080" unicode="&#x43e;" horiz-adv-x="487" d="M445 265q0 -80 -17 -133t-47 -85t-70.5 -45.5t-86.5 -13.5q-48 0 -82 14t-56 46t-32 83t-10 125q0 79 17 132.5t47 85t70 45t86 13.5q48 0 82.5 -14t56 -46t32 -83t10.5 -124zM334 258q0 68 -6 107t-14 65q-9 2 -22 4t-29 2q-25 0 -45 -5.5t-34 -24t-21.5 -53t-7.5 -91.5
q0 -69 5 -107.5t13 -64.5q9 -2 22 -4t30 -2q25 0 45 5.5t34 24t22 53t8 91.5z"></glyph>
    <glyph glyph-name="afii10081" unicode="&#x43f;" horiz-adv-x="487" d="M427 0h-109v423h-150v-423h-108v520h367v-520z"></glyph>
    <glyph glyph-name="afii10082" unicode="&#x440;" horiz-adv-x="498" d="M454 284q0 -85 -16.5 -141t-47.5 -89t-76.5 -46.5t-102.5 -13.5q-11 0 -22.5 0.5t-19.5 1.5v-142l-108 -11v674l101 9v-53q24 20 61 39.5t89 19.5q39 0 66 -12.5t44 -41.5t24.5 -76.5t7.5 -117.5zM281 432q-35 0 -63 -8.5t-49 -19.5v-313q8 -2 20 -3t30 -1q28 0 51.5 6
t40 25.5t25.5 54.5t9 94q0 54 -5 95t-11 66q-6 2 -17 3t-31 1z"></glyph>
    <glyph glyph-name="afii10083" unicode="&#x441;" horiz-adv-x="392" d="M354 20q-17 -8 -56 -19t-91 -11q-44 0 -74.5 13.5t-50.5 45t-29 82.5t-9 127t14 128t41 84t67 46t91 14q35 0 60.5 -5.5t39.5 -10.5l-13 -97q-11 4 -34.5 8.5t-48.5 4.5q-28 0 -48.5 -7t-33.5 -25.5t-19.5 -50.5t-6.5 -83q0 -63 6.5 -104t14.5 -69q7 -1 11.5 -1h11.5
q45 0 80.5 7t65.5 17z"></glyph>
    <glyph glyph-name="afii10084" unicode="&#x442;" horiz-adv-x="406" d="M381 423h-124v-423h-109v423h-124v97h360z"></glyph>
    <glyph glyph-name="afii10085" unicode="&#x443;" horiz-adv-x="456" d="M296 -16q-10 -39 -22.5 -65.5t-30.5 -43t-42.5 -24t-57.5 -7.5q-43 0 -67.5 5.5t-33.5 8.5l4 95q9 -3 32 -8.5t58 -5.5q32 0 48 18t26 66l3 17h-67l-126 480h113l74 -315q15 -61 21 -106h3q3 21 7.5 48t12.5 58l74 315h111z"></glyph>
    <glyph glyph-name="afii10086" unicode="&#x444;" horiz-adv-x="620" d="M360 697v-172q62 -2 103.5 -14t66.5 -40.5t35.5 -76.5t10.5 -121q0 -71 -13 -121t-39.5 -83t-67.5 -50t-96 -22v-143l-102 -11v153q-62 2 -103 14t-66 41t-35 77t-10 122q0 70 13 119.5t39.5 82t66.5 49t95 22.5v163zM454 411q-15 7 -36 12t-58 8v-341q30 4 50 15t33 31
t18.5 52.5t5.5 80.5q0 54 -4 87t-9 55zM165 110q14 -7 35 -12.5t58 -7.5v340q-30 -5 -50.5 -15.5t-32.5 -31t-17.5 -52.5t-5.5 -79q0 -55 4 -87.5t9 -54.5z"></glyph>
    <glyph glyph-name="afii10087" unicode="&#x445;" horiz-adv-x="444" d="M305 274l119 -271l-111 -12l-65 175q-9 24 -15 44.5t-10 36.5h-3q-6 -22 -11.5 -39t-15.5 -43l-62 -165h-117l123 274l-100 243l104 12l57 -147q8 -20 14 -38.5t11 -38.5h3q6 21 12.5 39t14.5 38l58 138h108z"></glyph>
    <glyph glyph-name="afii10088" unicode="&#x446;" horiz-adv-x="505" d="M473 -108l-91 -8v116h-321v520h108v-424h145v424h108v-424h51v-204z"></glyph>
    <glyph glyph-name="afii10089" unicode="&#x447;" horiz-adv-x="464" d="M151 339q0 -53 5 -78q12 -4 44 -4q29 0 52.5 5t43.5 13v245h108v-520h-108v194h-2q-21 -11 -53 -23t-83 -12q-54 0 -84.5 31t-30.5 106v224h108v-181z"></glyph>
    <glyph glyph-name="afii10090" unicode="&#x448;" horiz-adv-x="664" d="M604 0h-544v520h107v-424h111v424h107v-424h112v424h107v-520z"></glyph>
    <glyph glyph-name="afii10091" unicode="&#x449;" horiz-adv-x="688" d="M605 96h51v-204l-91 -8v116h-504v520h107v-424h111v424h107v-424h112v424h107v-424z"></glyph>
    <glyph glyph-name="afii10092" unicode="&#x44a;" horiz-adv-x="507" d="M229 333q19 4 43.5 7t53.5 3q82 0 115.5 -37.5t33.5 -121.5q0 -102 -50.5 -146t-157.5 -44q-57 0 -89.5 2.5t-56.5 6.5v422h-96v95h204v-187zM311 250q-25 0 -47 -2t-35 -4v-157q13 -1 20 -1h13.5h7.5q58 0 78.5 20t20.5 68q0 23 -2 42t-6 33q-8 1 -17.5 1h-32.5z"></glyph>
    <glyph glyph-name="afii10093" unicode="&#x44b;" horiz-adv-x="636" d="M575 0h-109v520h109v-520zM168 333q19 4 43.5 7t53.5 3q82 0 115.5 -37.5t33.5 -121.5q0 -102 -50.5 -146t-157.5 -44q-57 0 -89.5 2.5t-56.5 6.5v517h108v-187zM250 250q-25 0 -47 -2t-35 -4v-157q13 -1 20 -1h13.5h7.5q58 0 78.5 20t20.5 68q0 23 -2 42t-6 33
q-8 1 -17.5 1h-32.5z"></glyph>
    <glyph glyph-name="afii10094" unicode="&#x44c;" horiz-adv-x="446" d="M168 333q19 4 43.5 7t53.5 3q82 0 115.5 -37.5t33.5 -121.5q0 -102 -50.5 -146t-157.5 -44q-57 0 -89.5 2.5t-56.5 6.5v517h108v-187zM250 250q-25 0 -47 -2t-35 -4v-157q13 -1 20 -1h13.5h7.5q58 0 78.5 20t20.5 68q0 23 -2 42t-6 33q-8 1 -17.5 1h-32.5z"></glyph>
    <glyph glyph-name="afii10095" unicode="&#x44d;" horiz-adv-x="399" d="M243 311q-3 42 -9.5 69.5t-15.5 50.5q-8 1 -16.5 1h-15.5q-43 0 -74.5 -5.5t-54.5 -13.5l-16 95q19 6 54 14t84 8q46 0 79.5 -13.5t55 -44.5t31.5 -81.5t10 -124.5q0 -79 -14 -132t-42 -85t-68.5 -45.5t-93.5 -13.5q-36 0 -64 5.5t-39 10.5l8 94q5 -1 14.5 -3t22 -4
t26.5 -3.5t27 -1.5q27 0 47.5 6t34.5 21.5t21 41.5t9 67l-167 -5l3 85z"></glyph>
    <glyph glyph-name="afii10096" unicode="&#x44e;" horiz-adv-x="681" d="M637 265q0 -79 -15.5 -132t-43.5 -85.5t-67 -46t-86 -13.5q-89 0 -129 53t-44 173h-83v-214h-108v520h108v-213h84q4 63 21.5 106t45.5 69.5t64.5 38t79.5 11.5q48 0 81 -15t53.5 -47t29.5 -82.5t9 -122.5zM526 258q0 68 -5.5 107t-13.5 66q-20 5 -44 5q-25 0 -44 -6.5
t-31.5 -25t-19 -53t-6.5 -89.5q0 -68 5.5 -107t13.5 -66q18 -5 44 -5q25 0 43.5 6.5t31.5 25t19.5 52.5t6.5 90z"></glyph>
    <glyph glyph-name="afii10097" unicode="&#x44f;" horiz-adv-x="445" d="M27 3l92 192q-36 16 -53 54t-17 107q0 90 49 130t144 40q49 0 84 -2t59 -4v-520h-106v184q-12 -2 -27.5 -3t-32.5 -1l-80 -186zM206 266q44 0 73 3v165q-23 3 -48 3q-39 0 -59 -17.5t-20 -61.5q0 -29 2.5 -51.5t6.5 -39.5q6 -1 16.5 -1h28.5z"></glyph>
    <glyph glyph-name="uni0450" unicode="&#x450;" horiz-adv-x="447" d="M403 352q0 -43 -2.5 -76.5t-4.5 -56.5l-241 -13q2 -37 6.5 -66t9.5 -50q9 -2 23 -3.5t37 -1.5q51 0 92 9.5t61 17.5l11 -91q-19 -10 -62.5 -21.5t-111.5 -11.5q-51 0 -85 15t-54.5 47.5t-29 84t-8.5 125.5q0 76 15 128.5t42 84t64.5 45.5t82.5 14q44 0 74 -12t48 -35
t25.5 -56.5t7.5 -76.5zM248 443q-21 0 -38 -5.5t-29 -22.5t-19 -49t-8 -84l143 8q2 15 2 27.5v29.5q0 24 -3 49t-8 42q-5 2 -15 3.5t-25 1.5zM317 574l-203 73l37 86l191 -104z"></glyph>
    <glyph glyph-name="afii10071" unicode="&#x451;" horiz-adv-x="447" d="M403 352q0 -43 -2.5 -76.5t-4.5 -56.5l-241 -13q2 -37 6.5 -66t9.5 -50q9 -2 23 -3.5t37 -1.5q51 0 92 9.5t61 17.5l11 -91q-19 -10 -62.5 -21.5t-111.5 -11.5q-51 0 -85 15t-54.5 47.5t-29 84t-8.5 125.5q0 76 15 128.5t42 84t64.5 45.5t82.5 14q44 0 74 -12t48 -35
t25.5 -56.5t7.5 -76.5zM248 443q-21 0 -38 -5.5t-29 -22.5t-19 -49t-8 -84l143 8q2 15 2 27.5v29.5q0 24 -3 49t-8 42q-5 2 -15 3.5t-25 1.5zM211 584l-108 -8v88l108 9v-89zM371 584l-108 -8v88l108 9v-89z"></glyph>
    <glyph glyph-name="afii10099" unicode="&#x452;" horiz-adv-x="501" d="M290 566l-121 -5v-79h2q23 19 55.5 33.5t78.5 14.5q42 0 70.5 -11.5t46.5 -38.5t26 -71t8 -110q0 -93 -13 -159.5t-34.5 -114.5t-49 -80.5t-55.5 -57.5l-75 65q20 21 41 46t38 62.5t28 91.5t11 134q0 59 -4.5 91t-8.5 46q-8 2 -22.5 4t-37.5 2q-32 0 -58.5 -7t-46.5 -17
v-405h-108v556l-53 -2v80l53 2v50l108 11v-57l123 6z"></glyph>
    <glyph glyph-name="afii10100" unicode="&#x453;" horiz-adv-x="330" d="M305 423h-137v-423h-108v520h248zM309 647l-202 -73l-26 55l191 104z"></glyph>
    <glyph glyph-name="afii10101" unicode="&#x454;" horiz-adv-x="403" d="M320 226l-164 -7q2 -45 8.5 -76.5t15.5 -54.5h28q45 0 81.5 7t66.5 17l12 -92q-16 -8 -57.5 -19t-93.5 -11q-47 0 -79.5 14t-53.5 46t-30.5 83t-9.5 126q0 78 15 130t43.5 83.5t68 44.5t89.5 13q36 0 64 -5.5t39 -10.5l-13 -95q-10 3 -34.5 8t-50.5 5t-45 -5.5
t-32.5 -19.5t-21.5 -38.5t-10 -63.5l166 7z"></glyph>
    <glyph glyph-name="afii10102" unicode="&#x455;" horiz-adv-x="364" d="M328 135q0 -75 -43 -109.5t-118 -34.5q-37 0 -73 3.5t-53 9.5l6 104q11 -5 42.5 -11.5t67.5 -6.5q20 0 33.5 2t22.5 6q1 6 2 13t1 17q0 20 -10 36t-37 42l-51 48q-27 26 -51 61.5t-24 80.5q0 66 42.5 99.5t111.5 33.5q44 0 74.5 -6t41.5 -10l-7 -96q-14 4 -41 9t-59 5
q-53 0 -53 -41q0 -20 13 -36t32 -33l51 -48q14 -13 28 -27.5t25.5 -31.5t18.5 -36.5t7 -42.5z"></glyph>
    <glyph glyph-name="afii10103" unicode="&#x456;" horiz-adv-x="232" d="M171 0h-108v517l108 9v-526zM174 597l-114 -9v92l114 9v-92z"></glyph>
    <glyph glyph-name="afii10104" unicode="&#x457;" horiz-adv-x="233" d="M171 0h-108v517l108 9v-526zM93 584l-108 -8v88l108 9v-89zM253 584l-108 -8v88l108 9v-89z"></glyph>
    <glyph glyph-name="afii10105" unicode="&#x458;" horiz-adv-x="228" d="M168 60q0 -44 -7 -74t-21.5 -54t-36.5 -45t-53 -46l-73 64q25 25 46.5 52.5t36.5 53.5v506l108 9v-466zM171 597l-114 -9v92l114 9v-92z"></glyph>
    <glyph glyph-name="afii10106" unicode="&#x459;" horiz-adv-x="705" d="M427 333q19 4 43.5 7t53.5 3q82 0 115.5 -37.5t33.5 -121.5q0 -102 -50.5 -146t-157.5 -44q-57 0 -89.5 2.5t-56.5 6.5v420h-84l-20 -264q-6 -79 -37.5 -122t-104.5 -43q-17 0 -28 1t-20 3l-5 97q4 -1 12.5 -2t16.5 -1q30 0 44.5 16t18.5 60l32 352h283v-187zM509 250
q-25 0 -47 -2t-35 -4v-157q13 -1 20 -1h13.5h7.5q58 0 78.5 20t20.5 68q0 23 -2 42t-6 33q-8 1 -17.5 1h-32.5z"></glyph>
    <glyph glyph-name="afii10107" unicode="&#x45a;" horiz-adv-x="707" d="M429 333q19 4 43.5 7t53.5 3q82 0 115.5 -37.5t33.5 -121.5q0 -102 -50.5 -146t-157.5 -44q-57 0 -89.5 2.5t-56.5 6.5v224h-152v-227h-108v520h108v-201h152v201h108v-187zM511 250q-25 0 -47 -2t-35 -4v-157q13 -1 20 -1h13.5h7.5q58 0 78.5 20t20.5 68q0 23 -2 42
t-6 33q-8 1 -17.5 1h-32.5z"></glyph>
    <glyph glyph-name="afii10108" unicode="&#x45b;" horiz-adv-x="506" d="M338 0v347q0 30 -1.5 46.5t-5.5 29.5q-7 2 -18 4t-28 2q-35 0 -64.5 -9.5t-51.5 -20.5v-399h-108v556l-53 -2v80l53 2v50l108 11v-57l123 6l-3 -80l-120 -5v-83h2q23 17 63.5 34t89.5 17q64 0 93.5 -29t29.5 -100v-400h-109z"></glyph>
    <glyph glyph-name="afii10109" unicode="&#x45c;" horiz-adv-x="453" d="M322 -6l-124 228h-29v-222h-108v520h108v-208h29l124 208l114 2l-150 -251l158 -267zM357 647l-202 -73l-26 55l191 104z"></glyph>
    <glyph glyph-name="uni045D" unicode="&#x45d;" horiz-adv-x="506" d="M163 259q0 -29 -1 -54.5t-3 -42.5h3q5 14 14.5 39.5t20.5 45.5l141 273h108v-520h-103v261q0 29 1 54.5t3 42.5h-3q-5 -14 -14.5 -39.5t-20.5 -45.5l-141 -273h-108v520h103v-261zM336 574l-203 73l37 86l191 -104z"></glyph>
    <glyph glyph-name="afii10110" unicode="&#x45e;" horiz-adv-x="456" d="M296 -16q-10 -39 -22.5 -65.5t-30.5 -43t-42.5 -24t-57.5 -7.5q-43 0 -67.5 5.5t-33.5 8.5l4 95q9 -3 32 -8.5t58 -5.5q32 0 48 18t26 66l3 17h-67l-126 480h113l74 -315q15 -61 21 -106h3q3 21 7.5 48t12.5 58l74 315h111zM370 688q-6 -24 -17.5 -44.5t-28.5 -36
t-40.5 -24.5t-54.5 -9t-54.5 9t-40.5 24.5t-28.5 36t-17.5 44.5l68 22q7 -25 23.5 -43.5t49.5 -18.5q34 0 50 18.5t23 43.5l68 -22v0z"></glyph>
    <glyph glyph-name="afii10193" unicode="&#x45f;" horiz-adv-x="483" d="M314 520h108v-520h-135v-108l-91 -8v116h-135v520h108v-424h145v424z"></glyph>
    <glyph glyph-name="afii10050" unicode="&#x490;" d="M172 0h-108v660h183v116h90v-216h-165v-560z"></glyph>
    <glyph glyph-name="afii10098" unicode="&#x491;" horiz-adv-x="333" d="M169 0h-108v520h160v101l88 8v-206h-140v-423z"></glyph>
    <glyph glyph-name="uni0492" unicode="&#x492;" horiz-adv-x="393" d="M357 560h-159v-194h110v-71h-110v-295h-108v295h-70v71h70v294h273z"></glyph>
    <glyph glyph-name="uni0493" unicode="&#x493;" horiz-adv-x="346" d="M316 423h-137v-128h101v-62h-101v-233h-108v233h-51v62h51v225h248z"></glyph>
    <glyph glyph-name="uni0496" unicode="&#x496;" horiz-adv-x="719" d="M694 -122h-93v120l-45 -4l-125 291h-28v-285h-109v285h-31l-132 -285h-116l162 337l-154 320l108 9l131 -285h32v279h109v-279h34l128 279h110l-154 -323l105 -236h68v-223z"></glyph>
    <glyph glyph-name="uni0497" unicode="&#x497;" horiz-adv-x="665" d="M637 -108l-91 -8v113l-42 -3l-94 229h-26v-223h-109v223h-30l-113 -223h-119l148 272l-139 245l112 9l114 -214h27v208h109v-208h28l113 208h113l-139 -249l80 -175h58v-204z"></glyph>
    <glyph glyph-name="uni049A" unicode="&#x49a;" horiz-adv-x="494" d="M468 -122h-93v120l-43 -4l-131 291h-29v-285h-108v660h108v-279h33l137 279h112l-165 -324l113 -235h66v-223z"></glyph>
    <glyph glyph-name="uni049B" unicode="&#x49b;" horiz-adv-x="472" d="M447 -108l-91 -8v114l-46 -4l-111 228h-30v-222h-108v520h108v-208h29l124 208l114 2l-150 -251l95 -175h66v-204z"></glyph>
    <glyph glyph-name="uni04A2" unicode="&#x4a2;" horiz-adv-x="542" d="M510 -122h-93v122h-67v282h-178v-282h-108v660h108v-277h178v277h108v-559h52v-223z"></glyph>
    <glyph glyph-name="uni04A3" unicode="&#x4a3;" horiz-adv-x="523" d="M491 -108l-91 -8v116h-68v214h-162v-214h-109v520h109v-213h162v213h108v-424h51v-204z"></glyph>
    <glyph glyph-name="uni04AE" unicode="&#x4ae;" horiz-adv-x="450" d="M279 241v-241h-109v238l-152 422h112l74 -241q8 -25 13.5 -47t7.5 -39h3q2 17 8 39t14 48l77 240h107z"></glyph>
    <glyph glyph-name="uni04AF" unicode="&#x4af;" horiz-adv-x="446" d="M428 520l-149 -520v-146l-109 -11v157l-153 520h114l72 -302q14 -59 20 -105h3q3 20 8 47.5t13 57.5l76 302h105z"></glyph>
    <glyph glyph-name="uni04B0" unicode="&#x4b0;" horiz-adv-x="483" d="M302 258h125v-73h-131v-185h-109v185h-132v73h125l-145 402h112l74 -241q8 -25 13.5 -47t7.5 -39h3q2 17 8 39t14 48l77 240h107z"></glyph>
    <glyph glyph-name="uni04B1" unicode="&#x4b1;" horiz-adv-x="467" d="M438 520l-129 -450h109v-70h-129v-146l-109 -11v157h-130v70h109l-132 450h114l72 -302q14 -59 20 -105h3q3 20 8 47.5t13 57.5l76 302h105z"></glyph>
    <glyph glyph-name="uni04B2" unicode="&#x4b2;" horiz-adv-x="486" d="M460 -122h-93v122h-38l-75 231q-7 20 -12 38t-8 32h-3q-3 -14 -8 -32.5t-13 -38.5l-85 -230h-108l130 339l-114 321h112l70 -217q15 -44 19 -71h3q3 14 8.5 31.5t13.5 40.5l78 216h109l-125 -324l84 -235h55v-223z"></glyph>
    <glyph glyph-name="uni04B3" unicode="&#x4b3;" horiz-adv-x="460" d="M436 -108l-91 -8v112l-44 -5l-53 175q-8 25 -14 46l-10 35h-4q-6 -22 -11.5 -39t-15.5 -43l-62 -165h-117l123 274l-100 243l104 12l57 -147q8 -20 14 -38.5t11 -38.5h3q6 21 12.5 39t14.5 38l58 138h108l-114 -246l70 -178h61v-204z"></glyph>
    <glyph glyph-name="uni04B6" unicode="&#x4b6;" horiz-adv-x="516" d="M155 660v-237q0 -30 1 -50t3 -34q9 -2 19.5 -2.5t34.5 -0.5q30 0 59.5 3.5t51.5 8.5v312h108v-559h52v-223h-93v122h-67v258q-26 -8 -61 -14.5t-77 -6.5q-75 0 -107.5 30.5t-32.5 106.5v286h109z"></glyph>
    <glyph glyph-name="uni04B7" unicode="&#x4b7;" horiz-adv-x="487" d="M455 -108l-91 -8v116h-68v194h-2q-21 -11 -53 -23t-83 -12q-54 0 -84.5 31t-30.5 106v224h108v-181q0 -53 5 -78q12 -4 44 -4q29 0 52.5 5t43.5 13v245h108v-424h51v-204z"></glyph>
    <glyph glyph-name="uni04BA" unicode="&#x4ba;" horiz-adv-x="495" d="M341 0v237q0 30 -1 50t-3 34q-9 2 -19.5 2.5t-34.5 0.5q-30 0 -60 -3.5t-51 -8.5v-312h-108v660h108v-259q26 8 61 15t77 7q75 0 107.5 -30.5t32.5 -106.5v-286h-109z"></glyph>
    <glyph glyph-name="uni04BB" unicode="&#x4bb;" horiz-adv-x="505" d="M338 0v350q0 30 -1.5 46.5t-5.5 29.5q-7 2 -18 4t-28 2q-35 0 -64.5 -9.5t-51.5 -20.5v-402h-108v686l108 11v-214q26 16 67 32.5t88 16.5q64 0 93.5 -29t29.5 -100v-403h-109z"></glyph>
    <glyph glyph-name="uni04C0" unicode="&#x4c0;" horiz-adv-x="237" d="M173 0h-109v660h109v-660z"></glyph>
    <glyph glyph-name="uni04CF" unicode="&#x4cf;" horiz-adv-x="236" d="M172 0h-108v690h108v-690z"></glyph>
    <glyph glyph-name="uni04D8" unicode="&#x4d8;" horiz-adv-x="476" d="M429 334q0 -92 -13.5 -157.5t-40 -107.5t-66 -61.5t-92.5 -19.5t-87 16.5t-53 48.5t-26 79.5t-7 109.5q0 17 0.5 36t2 37t2.5 33.5t3 25.5h265q-2 72 -10.5 115.5t-16.5 70.5q-16 4 -37 6.5t-43 2.5q-44 0 -80.5 -4.5t-59.5 -10.5l-9 98q21 6 65 12t93 6
q63 0 103.5 -17.5t64.5 -57t33 -103.5t9 -158zM215 84q26 0 45 9.5t31 32t18 61t8 95.5h-168v-43q0 -51 5.5 -89t10.5 -59q9 -3 19.5 -5t30.5 -2z"></glyph>
    <glyph glyph-name="afii10846" unicode="&#x4d9;" horiz-adv-x="447" d="M44 171q0 43 2.5 73t5.5 53l240 12q-1 38 -5 68t-9 53q-8 2 -22.5 3.5t-38.5 1.5q-47 0 -87.5 -7.5t-63.5 -15.5l-15 90q23 10 67 20t110 10q52 0 85.5 -15t53.5 -47.5t28 -84.5t8 -125q0 -77 -14.5 -129t-41.5 -83.5t-64.5 -45.5t-83.5 -14q-45 0 -75 11t-47.5 33.5
t-25 57t-7.5 81.5zM200 77q22 0 38.5 5.5t28.5 22t18.5 47t7.5 81.5l-143 -9q-1 -15 -1 -26.5v-28.5q0 -32 2.5 -51.5t6.5 -35.5q13 -5 42 -5z"></glyph>
    <glyph glyph-name="uni04E2" unicode="&#x4e2;" horiz-adv-x="517" d="M350 335q0 37 1 66.5t2 43.5h-3q-5 -14 -14.5 -41.5t-20.5 -53.5l-144 -350h-107v660h103v-342q0 -35 -1.5 -62t-2.5 -42h3q5 17 14.5 42.5t21.5 55.5l144 348h107v-660h-103v335zM375 717l-222 -10v69l222 10v-69z"></glyph>
    <glyph glyph-name="uni04E3" unicode="&#x4e3;" horiz-adv-x="506" d="M163 259q0 -29 -1 -54.5t-3 -42.5h3q5 14 14.5 39.5t20.5 45.5l141 273h108v-520h-103v261q0 29 1 54.5t3 42.5h-3q-5 -14 -14.5 -39.5t-20.5 -45.5l-141 -273h-108v520h103v-261zM379 595l-246 -11v75l246 11v-75z"></glyph>
    <glyph glyph-name="uni04E8" unicode="&#x4e8;" horiz-adv-x="523" d="M477 339q0 -95 -15.5 -161.5t-45.5 -108.5t-73 -61t-98 -19q-51 0 -88 13.5t-62 50t-37 101.5t-12 168q0 95 15.5 161.5t45.5 108.5t73 61t98 19q51 0 88 -13.5t62 -50.5t37 -101.5t12 -167.5zM244 88q28 0 49.5 8.5t36.5 30.5t24 61t11 100h-208q1 -40 3.5 -70t6.5 -53
t8 -40t9 -30q9 -3 24.5 -5t35.5 -2zM279 573q-27 0 -48.5 -8t-37 -29.5t-24.5 -59.5t-11 -97h207q-1 38 -4 67t-6.5 51.5t-8 38.5t-8.5 29q-10 3 -24.5 5.5t-34.5 2.5z"></glyph>
    <glyph glyph-name="uni04E9" unicode="&#x4e9;" horiz-adv-x="487" d="M444 265q0 -81 -17 -134t-46 -85t-69 -45t-86 -13q-49 0 -83.5 14.5t-56.5 46.5t-32.5 83t-10.5 124q0 80 17 133.5t46 85t69 44.5t86 13q49 0 83.5 -14.5t56.5 -46.5t32.5 -82.5t10.5 -123.5zM224 78q25 0 45.5 5t35 20t23 43t10.5 75h-190q2 -52 7 -83t12 -54
q11 -3 26.5 -4.5t30.5 -1.5zM263 442q-25 0 -45 -4.5t-35 -19t-23.5 -41.5t-11.5 -71h190q-2 49 -7 78.5t-12 51.5q-11 3 -26.5 4.5t-29.5 1.5z"></glyph>
    <glyph glyph-name="uni04EE" unicode="&#x4ee;" horiz-adv-x="448" d="M218 380q8 -29 15 -55.5t9 -46.5h3q2 19 7 48t12 58l62 276h109l-140 -502q-12 -43 -27 -74.5t-36 -52.5t-50.5 -31t-71.5 -10q-23 0 -40.5 4t-26.5 7l6 99q5 -2 18.5 -5t30.5 -3q40 0 61 21.5t33 65.5l-168 481h113zM350 717l-222 -10v69l222 10v-69z"></glyph>
    <glyph glyph-name="uni04EF" unicode="&#x4ef;" horiz-adv-x="456" d="M296 -16q-10 -39 -22.5 -65.5t-30.5 -43t-42.5 -24t-57.5 -7.5q-43 0 -67.5 5.5t-33.5 8.5l4 95q9 -3 32 -8.5t58 -5.5q32 0 48 18t26 66l3 17h-67l-126 480h113l74 -315q15 -61 21 -106h3q3 21 7.5 48t12.5 58l74 315h111zM352 595l-246 -11v75l246 11v-75z"></glyph>
    <glyph glyph-name="Wgrave" unicode="&#x1e80;" horiz-adv-x="707" d="M570 0h-135l-68 382q-5 29 -8 50.5t-6 43.5h-3q-2 -22 -4.5 -43t-8.5 -52l-77 -381h-129l-102 660h109l55 -438q4 -30 6.5 -51.5t3.5 -44.5h3q2 22 5 43.5t9 54.5l84 436h104l79 -438q6 -33 9 -53.5t5 -42.5h3q1 23 3 44.5t7 52.5l62 437h108zM430 693l-187 50l26 80
l179 -80z"></glyph>
    <glyph glyph-name="wgrave" unicode="&#x1e81;" horiz-adv-x="673" d="M537 0h-118l-64 267q-8 34 -13 60.5t-7 50.5h-3q-3 -22 -8.5 -49.5t-13.5 -61.5l-69 -267h-111l-103 520h109l42 -286q5 -32 8.5 -63t5.5 -52h3q6 45 23 112l73 289h93l70 -290q8 -32 13.5 -60.5t9.5 -50.5h3q2 22 5.5 50.5t10.5 63.5l54 287h102zM418 574l-203 73l37 86
l191 -104z"></glyph>
    <glyph glyph-name="Wacute" unicode="&#x1e82;" horiz-adv-x="707" d="M570 0h-135l-68 382q-5 29 -8 50.5t-6 43.5h-3q-2 -22 -4.5 -43t-8.5 -52l-77 -381h-129l-102 660h109l55 -438q4 -30 6.5 -51.5t3.5 -44.5h3q2 22 5 43.5t9 54.5l84 436h104l79 -438q6 -33 9 -53.5t5 -42.5h3q1 23 3 44.5t7 52.5l62 437h108zM272 743l179 80l26 -80
l-187 -50z"></glyph>
    <glyph glyph-name="wacute" unicode="&#x1e83;" horiz-adv-x="673" d="M537 0h-118l-64 267q-8 34 -13 60.5t-7 50.5h-3q-3 -22 -8.5 -49.5t-13.5 -61.5l-69 -267h-111l-103 520h109l42 -286q5 -32 8.5 -63t5.5 -52h3q6 45 23 112l73 289h93l70 -290q8 -32 13.5 -60.5t9.5 -50.5h3q2 22 5.5 50.5t10.5 63.5l54 287h102zM464 647l-202 -73
l-26 55l191 104z"></glyph>
    <glyph glyph-name="Wdieresis" unicode="&#x1e84;" horiz-adv-x="707" d="M570 0h-135l-68 382q-5 29 -8 50.5t-6 43.5h-3q-2 -22 -4.5 -43t-8.5 -52l-77 -381h-129l-102 660h109l55 -438q4 -30 6.5 -51.5t3.5 -44.5h3q2 22 5 43.5t9 54.5l84 436h104l79 -438q6 -33 9 -53.5t5 -42.5h3q1 23 3 44.5t7 52.5l62 437h108zM332 710l-97 -8v80l97 8
v-80zM481 710l-97 -8v80l97 8v-80z"></glyph>
    <glyph glyph-name="wdieresis" unicode="&#x1e85;" horiz-adv-x="673" d="M537 0h-118l-64 267q-8 34 -13 60.5t-7 50.5h-3q-3 -22 -8.5 -49.5t-13.5 -61.5l-69 -267h-111l-103 520h109l42 -286q5 -32 8.5 -63t5.5 -52h3q6 45 23 112l73 289h93l70 -290q8 -32 13.5 -60.5t9.5 -50.5h3q2 22 5.5 50.5t10.5 63.5l54 287h102zM312 584l-108 -8v88
l108 9v-89zM472 584l-108 -8v88l108 9v-89z"></glyph>
    <glyph glyph-name="Ygrave" unicode="&#x1ef2;" horiz-adv-x="448" d="M278 241v-241h-109v238l-152 422h112l74 -241q8 -25 13.5 -47t7.5 -39h3q2 17 8 39t14 48l77 240h107zM297 693l-187 50l26 80l179 -80z"></glyph>
    <glyph glyph-name="ygrave" unicode="&#x1ef3;" horiz-adv-x="455" d="M296 -16q-10 -39 -22.5 -65.5t-30.5 -43t-42.5 -24t-57.5 -7.5q-43 0 -67.5 5.5t-33.5 8.5l4 95q9 -3 32 -8.5t58 -5.5q32 0 48 18t26 66l3 17h-67l-126 480h113l74 -315q15 -61 21 -106h3q3 21 7.5 48t12.5 58l74 315h111zM309 574l-203 73l37 86l191 -104z"></glyph>
    <glyph glyph-name="uni2007" unicode="&#x2007;" horiz-adv-x="501"></glyph>
    <glyph glyph-name="uni2008" unicode="&#x2008;" horiz-adv-x="218"></glyph>
    <glyph glyph-name="uni200B" unicode="&#x200b;" horiz-adv-x="0"></glyph>
    <glyph glyph-name="endash" unicode="&#x2013;" horiz-adv-x="490" d="M433 267h-376v95h376v-95z"></glyph>
    <glyph glyph-name="emdash" unicode="&#x2014;" horiz-adv-x="641" d="M584 267h-527v95h527v-95z"></glyph>
    <glyph glyph-name="afii00208" unicode="&#x2015;" horiz-adv-x="641" d="M584 267h-527v95h527v-95z"></glyph>
    <glyph glyph-name="quoteleft" unicode="&#x2018;" horiz-adv-x="196" d="M47 530l40 134h55v-217h-95v83z"></glyph>
    <glyph glyph-name="quoteright" unicode="&#x2019;" horiz-adv-x="194" d="M150 577l-40 -134h-55v217h95v-83z"></glyph>
    <glyph glyph-name="quotesinglbase" unicode="&#x201a;" horiz-adv-x="200" d="M148 33l-40 -134h-55v217h95v-83z"></glyph>
    <glyph glyph-name="quotedblleft" unicode="&#x201c;" horiz-adv-x="346" d="M47 530l40 134h55v-217h-95v83zM197 530l40 134h55v-217h-95v83z"></glyph>
    <glyph glyph-name="quotedblright" unicode="&#x201d;" horiz-adv-x="343" d="M150 577l-40 -134h-55v217h95v-83zM299 577l-40 -134h-55v217h95v-83z"></glyph>
    <glyph glyph-name="quotedblbase" unicode="&#x201e;" horiz-adv-x="349" d="M148 33l-40 -134h-55v217h95v-83zM297 33l-40 -134h-55v217h95v-83z"></glyph>
    <glyph glyph-name="dagger" unicode="&#x2020;" horiz-adv-x="405" d="M89 512q11 0 34 -2.5t46 -5.5q-2 13 -3.5 28t-3 29.5t-2.5 26.5t-1 19v53h86v-53q0 -7 -1 -19t-2.5 -26.5t-3.5 -29.5t-3 -28q24 3 46.5 5.5t34.5 2.5h53v-86h-53q-11 0 -34.5 2.5t-46.5 5.5q1 -13 3 -28t3.5 -29t2.5 -26t1 -19v-185h-86v185q0 14 3 44.5t7 56.5
q-24 -3 -46.5 -5t-33.5 -2h-53v86h53z"></glyph>
    <glyph glyph-name="daggerdbl" unicode="&#x2021;" horiz-adv-x="431" d="M103 512q11 0 33.5 -2.5t45.5 -5.5q-2 13 -3.5 28t-3 29.5t-2.5 26.5t-1 19v53h86v-53q0 -7 -1 -19t-2.5 -26.5t-3.5 -29.5t-3 -28q24 3 47 5.5t35 2.5h53v-86h-53q-11 0 -35 2.5t-47 5.5q1 -14 3 -29t3.5 -29.5t2.5 -26.5t1 -19t-1 -19t-2.5 -26.5t-3.5 -30t-3 -28.5
q23 3 46 5.5t34 2.5h53v-86h-53q-11 0 -34 2.5t-46 4.5q1 -13 3 -28t3.5 -29t2.5 -26t1 -19v-53h-86v53q0 7 1 18.5t2.5 26t3.5 29.5t4 28q-24 -3 -47.5 -5t-34.5 -2h-53v86h53q11 0 34.5 -2.5t46.5 -5.5q-2 13 -3.5 28.5t-3 29.5t-2.5 26.5t-1 19.5t1 19t2.5 26t3.5 29.5
t4 28.5q-24 -3 -46.5 -5t-33.5 -2h-53v86h53z"></glyph>
    <glyph glyph-name="bullet" unicode="&#x2022;" horiz-adv-x="345" d="M269.795 241h-192.637v204.677h192.637v-204.677z"></glyph>
    <glyph glyph-name="ellipsis" unicode="&#x2026;" horiz-adv-x="649" d="M165 0h-112v119h112v-119zM380 0h-112v119h112v-119zM596 0h-112v119h112v-119z"></glyph>
    <glyph glyph-name="perthousand" unicode="&#x2030;" horiz-adv-x="960" d="M287 502q0 -51 -10 -84t-28.5 -52t-44.5 -26.5t-57 -7.5q-30 0 -51.5 7.5t-35 27t-20 52.5t-6.5 83q0 51 10 84t28 52t44 26.5t58 7.5q30 0 51.5 -7.5t35 -27t20 -52.5t6.5 -83zM927 158q0 -51 -10 -84t-28 -52t-44 -26.5t-58 -7.5q-30 0 -51.5 7.5t-35 27t-20 52.5
t-6.5 83q0 51 10 84t28.5 52t44 26.5t57.5 7.5q30 0 51.5 -7.5t35 -27t20 -52.5t6.5 -83zM628 158q0 -51 -10 -84t-28 -52t-44 -26.5t-58 -7.5q-30 0 -51 7.5t-34.5 27t-20 52.5t-6.5 83q0 51 10 84t28 52t43.5 26.5t57.5 7.5q30 0 51.5 -7.5t35 -27t20 -52.5t6.5 -83z
M561 660l-375 -660h-86l375 660h86zM548 158q0 38 -3 61t-7 40q-5 2 -12.5 3t-15.5 1q-13 0 -23 -4t-17 -15.5t-10.5 -32t-3.5 -53.5q0 -38 2.5 -61.5t6.5 -40.5q10 -3 28 -3q13 0 23.5 4t17.5 15.5t10.5 32t3.5 53.5zM847 158q0 38 -3 61t-7 40q-5 2 -12.5 3t-15.5 1
q-13 0 -23 -4t-17 -15.5t-10.5 -32t-3.5 -53.5q0 -38 2.5 -61.5t6.5 -40.5q10 -3 28 -3q13 0 23.5 4t17.5 15.5t10.5 32t3.5 53.5zM206 502q0 38 -2.5 61t-6.5 40q-5 2 -12.5 3t-15.5 1q-14 0 -24 -4t-16.5 -15.5t-10 -32t-3.5 -53.5q0 -38 2 -61.5t6 -40.5q12 -3 29 -3
q13 0 23 4t17 15.5t10.5 32t3.5 53.5z"></glyph>
    <glyph glyph-name="guilsinglleft" unicode="&#x2039;" horiz-adv-x="272" d="M140 274l88 -202h-99l-89 202l89 202h100z"></glyph>
    <glyph glyph-name="guilsinglright" unicode="&#x203a;" horiz-adv-x="272" d="M132 274l-88 202h99l89 -202l-89 -202h-100z"></glyph>
    <glyph glyph-name="fraction" unicode="&#x2044;" horiz-adv-x="487" d="M474 660l-375 -660h-86l375 660h86z"></glyph>
    <glyph glyph-name="uni2070" unicode="&#x2070;" horiz-adv-x="362" d="M323 441q0 -68 -10.5 -113t-30 -71.5t-47 -37.5t-62.5 -11q-38 0 -63 9t-41 34t-22.5 69.5t-6.5 115.5q0 68 10.5 113t30 71.5t47.5 37t63 10.5q37 0 62.5 -9t41 -33.5t22 -69t6.5 -115.5zM237 437q0 58 -4.5 93.5t-10.5 59.5q-6 2 -13.5 3t-16.5 1q-17 0 -29.5 -6
t-20.5 -22.5t-11.5 -47t-3.5 -79.5q0 -57 4 -93t10 -60q12 -3 30 -3t30.5 5.5t20.5 22t11.5 47t3.5 79.5z"></glyph>
    <glyph glyph-name="uni2074" unicode="&#x2074;" horiz-adv-x="345" d="M29 308l-6 74l123 278h124v-278h49l-4 -74h-45v-92h-81v92h-160zM105 379h85v121q0 26 0.5 53.5t2.5 42.5h-4q-5 -18 -12 -37t-18 -46z"></glyph>
    <glyph glyph-name="uni2075" unicode="&#x2075;" horiz-adv-x="309" d="M273 371q0 -160 -151 -160q-29 0 -51.5 3.5t-38.5 8.5l8 75q11 -2 30.5 -5t42.5 -3q41 0 58 16.5t17 54.5q0 26 -5 51q-5 0 -10.5 0.5t-11.5 0.5q-27 0 -50 -3.5t-40 -7.5l-24 24v234h219v-78h-138v-102q5 2 20 5t32 3q48 0 70.5 -28t22.5 -89z"></glyph>
    <glyph glyph-name="uni2076" unicode="&#x2076;" horiz-adv-x="334" d="M278 579q-9 2 -29.5 5t-43.5 3q-21 0 -36 -4t-24.5 -15.5t-15 -31.5t-6.5 -51q14 7 36.5 12.5t48.5 5.5q53 0 73 -32t20 -104q0 -87 -36 -122.5t-99 -35.5q-33 0 -57 7.5t-39.5 29.5t-23 61.5t-7.5 102.5q0 72 8.5 120.5t27.5 78.5t49.5 43t73.5 13q30 0 50.5 -2.5
t34.5 -5.5zM180 435q-17 0 -32 -2.5t-25 -4.5q0 -48 4 -86t11 -59q10 -3 30 -3q31 0 41 18t10 65q0 17 -1 38t-3 30q-6 2 -15 3t-20 1z"></glyph>
    <glyph glyph-name="uni2077" unicode="&#x2077;" horiz-adv-x="279" d="M73 396q4 15 15.5 39t26.5 50.5t30.5 52.5t27.5 45h-146v77h230v-77q-29 -45 -56 -97.5t-45 -101.5q-6 -40 -9 -83t-5 -85h-85q0 19 1 44t3 50t5 48t7 38z"></glyph>
    <glyph glyph-name="uni2078" unicode="&#x2078;" horiz-adv-x="349" d="M302 552q0 -40 -14 -66t-39 -37q28 -13 44 -39.5t16 -73.5q0 -127 -138 -127q-69 0 -98.5 29.5t-29.5 97.5q0 45 15.5 71t42.5 39q-24 12 -37.5 38.5t-13.5 67.5q0 60 34 88t95 28q67 0 95 -28t28 -88zM222 543q0 20 -2.5 33.5t-4.5 21.5q-9 3 -33 3q-27 0 -39.5 -13
t-12.5 -51q0 -23 6 -38.5t11 -23.5l40 1q35 0 35 67zM225 349q0 24 -6.5 39.5t-11.5 23.5h-41q-23 0 -31.5 -16t-8.5 -52q0 -43 8 -61q10 -3 36 -3q32 0 43.5 14t11.5 55z"></glyph>
    <glyph glyph-name="uni2079" unicode="&#x2079;" horiz-adv-x="336" d="M53 299q9 -2 28.5 -6t47.5 -4q23 0 38.5 3.5t25.5 13.5t14.5 29t5.5 51q-14 -6 -37 -12t-49 -6q-53 0 -72.5 33t-19.5 105q0 46 10 77.5t28 50t43 26.5t54 8q33 0 57 -8t39.5 -30t22.5 -61.5t7 -102.5q0 -73 -7.5 -122t-25.5 -78.5t-49 -42t-77 -12.5q-31 0 -52.5 3
t-35.5 7zM157 436q17 0 31.5 2.5t24.5 4.5q-1 48 -4.5 88.5t-10.5 62.5q-2 0 -9 1t-18 1q-29 0 -42.5 -16.5t-13.5 -68.5q0 -25 1.5 -44t3.5 -27q6 -2 15.5 -3t21.5 -1z"></glyph>
    <glyph glyph-name="lira" unicode="&#x20a4;" horiz-adv-x="437" d="M367 220h-131l-75 -121h230l-10 -99h-331l-11 86l85 134h-71v71h77q-6 32 -9 61h-68v72h58q-6 54 -6 82q0 87 46 125.5t131 38.5q42 0 72.5 -6t38.5 -9l-13 -98q-10 3 -36 7.5t-50 4.5q-42 0 -60 -16t-18 -59q0 -11 1.5 -29t3.5 -41h146v-72h-138l7 -61h131v-71z"></glyph>
    <glyph glyph-name="Euro" unicode="&#x20ac;" horiz-adv-x="477" d="M405 224h-184q2 -46 6.5 -76.5t9.5 -51.5q13 -2 28.5 -3t32.5 -1q35 0 70 4.5t55 9.5l3 -97q-20 -6 -52.5 -12.5t-74.5 -6.5q-48 0 -82 8.5t-56 33.5t-33.5 71t-15.5 121h-72v73h70v62h-70v73h75q7 65 24 110t43.5 73.5t63.5 41.5t84 13q39 0 64 -5t41 -10l-8 -99
q-11 2 -37.5 7.5t-57.5 5.5q-24 0 -43 -6t-32.5 -21t-22 -41.5t-12.5 -68.5h183v-73h-187v-62h187v-73z"></glyph>
    <glyph glyph-name="uni20B4" unicode="&#x20b4;" horiz-adv-x="428" d="M381 245h-185q-17 -25 -25 -50t-8 -57q0 -18 3 -37q14 -5 33.5 -7.5t43.5 -2.5q41 0 70 4.5t49 9.5l6 -97q-17 -5 -52.5 -10.5t-77.5 -5.5q-85 0 -133 36.5t-48 115.5q0 28 8 53t22 48h-45v60h88l16 18l37 43h-138v60h187q14 21 22 42.5t8 45.5q0 13 -1 25t-3 23
q-12 5 -28 7.5t-37 2.5q-37 0 -60.5 -3t-40.5 -7l-8 93q14 4 41.5 8.5t74.5 4.5q87 0 126.5 -36.5t39.5 -113.5q0 -26 -7 -49t-18 -43h43v-60h-86q-4 -5 -8 -9.5t-8 -9.5l-36 -42h135v-60z"></glyph>
    <glyph glyph-name="uni20BA" unicode="&#x20ba;" horiz-adv-x="477" d="M391 311l-169 -50v-169q54 0 92 25t54 79l82 -40q-12 -44 -34.5 -74.5t-53 -49.5t-67.5 -27.5t-79 -8.5q-40 0 -64.5 1.5t-38.5 3.5v228l-72 -21v74l72 21v62l-72 -21v74l72 21v221h109v-189l169 50v-74l-169 -50v-62l169 50v-74z"></glyph>
    <glyph glyph-name="afii61352" unicode="&#x2116;" horiz-adv-x="834" d="M787 465q0 -59 -12.5 -99.5t-34 -65t-51.5 -35t-64 -10.5q-38 0 -64 12t-42 37t-22.5 63.5t-6.5 91.5q0 60 12.5 100t34 65t51 35.5t64.5 10.5q76 0 105.5 -49.5t29.5 -155.5zM579 464q0 -51 3.5 -80.5t9.5 -49.5q13 -3 33 -3q17 0 30.5 4.5t22.5 18t14 39t5 67.5
q0 51 -3.5 80.5t-8.5 50.5q-14 3 -32 3q-17 0 -31 -4.5t-23.5 -18.5t-14.5 -39.5t-5 -67.5zM491 133v82h295v-82h-295zM72 0v660h107l123 -338q12 -32 19 -57t12 -45h3q-2 20 -3 44.5t-1 55.5v340h99v-660h-106l-122 332q-12 33 -19.5 57t-12.5 44h-3q2 -20 3 -44t1 -54
v-335h-100z"></glyph>
    <glyph glyph-name="trademark" unicode="&#x2122;" horiz-adv-x="747" d="M130 264v323h-76v73h230l-3 -73h-73v-323h-78zM307 264l23 396h104l54 -241q3 -14 4.5 -26.5t1.5 -20.5h4q0 8 2 20.5t5 26.5l56 241h103l19 -396h-77l-7 232q0 14 0.5 27t0.5 21h-4q-2 -11 -3.5 -22t-4.5 -25l-59 -233h-71l-56 233q-3 14 -5 26.5t-3 20.5h-4
q0 -8 0.5 -19.5t-0.5 -28.5l-8 -232h-75z"></glyph>
    <glyph glyph-name="Omega" unicode="&#x2126;" horiz-adv-x="526" d="M471 391q0 -59 -7.5 -107t-19 -85t-24.5 -62.5t-24 -38.5v-2h85l-5 -96h-187v83q29 46 50 114.5t21 164.5q0 42 -2 73.5t-5.5 55t-8.5 41.5t-11 33q-10 3 -23 5.5t-30 2.5q-29 0 -50.5 -7.5t-36 -30t-22 -64.5t-7.5 -111q0 -93 19.5 -162t45.5 -115v-83h-180l-4 96h83v2
q-7 9 -19.5 34t-24.5 62t-21 83.5t-9 98.5q0 85 16.5 141.5t46 91t70.5 49t90 14.5q46 0 82.5 -11t61 -41.5t37.5 -85.5t13 -143z"></glyph>
    <glyph glyph-name="partialdiff" unicode="&#x2202;" horiz-adv-x="473" d="M425 362q0 -105 -17.5 -177t-48 -115.5t-72 -62.5t-89.5 -19q-78 0 -121.5 46.5t-43.5 143.5q0 57 15 99.5t42 70t64.5 41t82.5 13.5q24 0 44 -4t35 -11q-2 60 -11 98t-17 62q-18 12 -45 20.5t-72 8.5q-25 0 -45.5 -2.5t-34.5 -7.5l-8 86q19 8 45.5 12t63.5 4
q59 0 102.5 -17t72.5 -54t43.5 -95t14.5 -140zM191 78q28 0 50 9t37.5 33.5t25 67.5t12.5 111q-13 5 -28.5 8.5t-33.5 3.5q-54 0 -83 -29.5t-29 -110.5q0 -53 11 -89q15 -4 38 -4z"></glyph>
    <glyph glyph-name="Delta" unicode="&#x2206;" horiz-adv-x="464" d="M29 0v97l147 563h127l130 -563v-97h-404zM139 100h180l-70 366q-6 30 -8 51t-4 40h-3q-2 -20 -5 -41t-9 -51z"></glyph>
    <glyph glyph-name="product" unicode="&#x220f;" horiz-adv-x="515" d="M480 560h-61v-560h-106v560h-110v-560h-106v560h-65v100h453z"></glyph>
    <glyph glyph-name="summation" unicode="&#x2211;" horiz-adv-x="409" d="M359 560h-185l126 -219l-145 -240h210v-101h-324v101l144 236l-136 223v100h315z"></glyph>
    <glyph glyph-name="minus" unicode="&#x2212;" horiz-adv-x="440" d="M396 269h-352v88h352v-88z"></glyph>
    <glyph glyph-name="uni2219" unicode="&#x2219;" horiz-adv-x="345" d="M269.795 241h-192.637v204.677h192.637v-204.677z"></glyph>
    <glyph glyph-name="radical" unicode="&#x221a;" horiz-adv-x="627" d="M276 -150l-155 415h-94v87h177l107 -316q5 -14 7 -28t3 -22h5q0 8 3 24.5t5 26.5l163 653h116l-227 -840h-110z"></glyph>
    <glyph glyph-name="infinity" unicode="&#x221e;" horiz-adv-x="622" d="M578 310q0 -36 -11 -63t-30.5 -44.5t-46 -26.5t-56.5 -9q-45 0 -73.5 24t-50.5 56q-24 -32 -56 -56t-82 -24q-61 0 -94.5 37.5t-33.5 105.5q0 36 11 63t30.5 44.5t46 26.5t56.5 9q44 0 73.5 -23.5t52.5 -55.5q12 16 26 30t30.5 25t36 17.5t43.5 6.5q61 0 94.5 -37.5
t33.5 -105.5zM177 246q29 0 51 19t42 46q-19 29 -39 48.5t-49 19.5q-31 0 -46.5 -17t-15.5 -55q0 -14 2 -27t5 -24q10 -4 21 -7t29 -3zM502 313q0 14 -2 27t-5 24q-10 4 -21 7t-29 3q-30 0 -51 -18t-40 -44q20 -29 39.5 -50t46.5 -21q31 0 46.5 17t15.5 55z"></glyph>
    <glyph glyph-name="integral" unicode="&#x222b;" horiz-adv-x="322" d="M290 598q-5 2 -21 3.5t-28 1.5q-20 0 -33 -11.5t-13 -49.5q0 -69 5.5 -139t11.5 -140.5t11.5 -140.5t5.5 -139q0 -38 -10 -65t-27.5 -44t-42 -25t-53.5 -8q-20 0 -42 2.5t-29 4.5l5 93q5 -2 20.5 -3t26.5 -1q20 0 33 11.5t13 49.5q0 69 -5.5 139t-11.5 140.5t-11.5 140.5
t-5.5 139q0 76 37.5 109t95.5 33q24 0 47.5 -3.5t29.5 -5.5z"></glyph>
    <glyph glyph-name="congruent" unicode="&#x2245;" horiz-adv-x="471" d="M411 109h-352v79h352v-79zM411 251h-352v78h352v-78zM413 429q-21 -19 -44 -34t-45 -15t-46 9.5t-48 21.5t-47 23t-44 14l-71 -38l-11 73q21 19 44 34t45 15t45.5 -9.5t47.5 -21t47.5 -22.5t43.5 -14l72 37z"></glyph>
    <glyph glyph-name="approxequal" unicode="&#x2248;" horiz-adv-x="440" d="M398 368q-21 -19 -44 -34t-45 -15t-46 9.5t-48 21.5t-47 23t-44 14l-71 -38l-11 73q21 19 44 34t45 15t45.5 -9.5t47.5 -21t47.5 -22.5t43.5 -14l72 37zM398 204q-21 -19 -44 -34t-45 -15t-46 9.5t-48 21.5t-47 23t-44 14l-71 -38l-11 73q21 19 44 34t45 15t45.5 -9.5
t47.5 -21t47.5 -22.5t43.5 -14l72 37z"></glyph>
    <glyph glyph-name="notequal" unicode="&#x2260;" horiz-adv-x="440" d="M396 198h-208l-50 -99h-52l50 99h-92v83h134l32 63h-166v82h207l50 98h52l-50 -98h93v-82h-134l-32 -63h166v-83z"></glyph>
    <glyph glyph-name="lessequal" unicode="&#x2264;" horiz-adv-x="440" d="M393 440l-234 -94v-2l234 -90v-87l-352 145v66l352 149v-87zM393 45h-352v85h352v-85z"></glyph>
    <glyph glyph-name="greaterequal" unicode="&#x2265;" horiz-adv-x="440" d="M398 312l-352 -145v87l234 90v2l-234 94v87l352 -149v-66zM398 45h-352v85h352v-85z"></glyph>
    <glyph glyph-name="dotmath" unicode="&#x22c5;" horiz-adv-x="226" d="M169 312h-112v119h112v-119z"></glyph>
    <glyph glyph-name="lozenge" unicode="&#x25ca;" horiz-adv-x="465" d="M279 0h-93l-164 333l163 327h96l162 -327zM263 469q-11 25 -20 44t-11 30h-4q-2 -11 -12 -32.5t-18 -41.5l-60 -132l65 -145q11 -26 19 -43.5t10 -28.5h4q2 11 11.5 31t18.5 40l62 137z"></glyph>
    <glyph glyph-name="commaaccent" unicode="&#xf6c3;" d="M231 -105l-41 -111h-53v170h94v-59z"></glyph>
    <glyph glyph-name="fi" unicode="&#xfb01;" horiz-adv-x="541" d="M478 0h-108v411l-181 -11v-400h-109v394l-49 -3v82l49 10v54q0 49 9 80.5t26.5 49.5t42.5 25t57 7q38 0 62 -4t36 -7l-8 -91q-9 2 -27.5 4t-44.5 2q-25 0 -41 -3q-2 -10 -3 -27.5t-1 -42.5v-41l290 17v-506zM481 575l-108 -9v98l108 9v-98z"></glyph>
    <glyph glyph-name="fl" unicode="&#xfb02;" horiz-adv-x="558" d="M299 401l-110 -4v-397h-109v393l-49 -2v82l49 10v54q0 49 9 80.5t26.5 49.5t42.5 25t57 7q39 0 66 -4.5t39 -7.5l-8 -91q-10 2 -30 4.5t-48 2.5q-26 0 -42 -3q-2 -10 -3 -27.5t-1 -42.5v-43l114 4zM495 0h-108v686l108 11v-697z"></glyph>
    <glyph glyph-name="Cacute.kreska" horiz-adv-x="406" d="M48 320q0 97 13.5 163.5t41 108t69 60t97.5 18.5q41 0 66 -5t41 -10l-10 -99q-11 2 -37 7.5t-58 5.5q-30 0 -51.5 -9.5t-35 -36t-20 -73.5t-6.5 -123q0 -49 2 -85.5t5.5 -64t7.5 -46.5t9 -34q11 -2 25.5 -3.5t32.5 -1.5q39 0 70.5 4.5t52.5 9.5l4 -97q-20 -6 -53 -12.5
t-75 -6.5q-55 0 -91.5 12.5t-58.5 48.5t-31.5 100.5t-9.5 168.5zM251 690l-50 37l80 107l66 -45z"></glyph>
    <glyph glyph-name="Nacute.kreska" horiz-adv-x="524" d="M460 0h-109l-150 347q-11 26 -20.5 53t-14.5 41h-3q1 -14 1.5 -44t0.5 -62v-335h-101v660h108l150 -346q13 -30 22 -55t14 -42h3q-1 15 -2 42.5t-1 58.5v342h102v-660zM260 690l-50 37l80 107l66 -45z"></glyph>
    <glyph glyph-name="Oacute.kreska" horiz-adv-x="520" d="M474 339q0 -95 -15.5 -161.5t-45 -108.5t-72.5 -61.5t-98 -19.5q-50 0 -87 13.5t-61.5 50.5t-36.5 102t-12 168q0 95 15.5 161.5t45 108.5t72.5 61t98 19q51 0 88 -13.5t61 -50.5t36 -101.5t12 -167.5zM364 331q0 50 -2.5 87.5t-7 65t-9 47t-9.5 34.5q-10 3 -24.5 5.5
t-34.5 2.5q-30 0 -52.5 -10.5t-37.5 -37.5t-22.5 -74.5t-7.5 -121.5q0 -50 2.5 -87.5t6 -65.5t8.5 -47.5t10 -34.5q10 -3 25 -5t35 -2q30 0 52.5 10.5t37.5 38t22.5 74.5t7.5 121zM272 690l-50 37l80 107l66 -45z"></glyph>
    <glyph glyph-name="Sacute.kreska" horiz-adv-x="399" d="M362 167q0 -88 -49 -132t-139 -44q-19 0 -38.5 1.5t-37 3.5t-31.5 5t-21 5l3 105q15 -5 48.5 -12t73.5 -7q23 0 42 2.5t33 7.5q6 21 6 44q0 36 -13.5 62.5t-45.5 58.5l-63 63q-16 15 -32 34t-28.5 40.5t-20.5 46.5t-8 53q0 84 49 124.5t132 40.5q51 0 81 -5.5t44 -9.5
l-7 -97q-17 4 -45.5 9t-66.5 5q-37 0 -57 -14t-20 -48q0 -30 15 -54.5t44 -52.5l62 -62q17 -17 33 -35.5t29 -39.5t20.5 -45t7.5 -53zM215 690l-50 37l80 107l66 -45z"></glyph>
    <glyph glyph-name="Zacute.kreska" horiz-adv-x="424" d="M376 560l-219 -459h234l-9 -101h-348v101l224 459h-204v100h322v-100zM219 690l-50 37l80 107l66 -45z"></glyph>
    <glyph glyph-name="acute.uc" d="M97 743l179 80l26 -80l-187 -50z"></glyph>
    <glyph glyph-name="acute.kreska.uc" d="M187 690l-50 37l80 107l66 -45z"></glyph>
    <glyph glyph-name="breve.uc" d="M184 769q29 0 44.5 14t21.5 37l61 -20q-11 -44 -41 -71t-86 -27t-86 27t-41 71l61 20q6 -23 21.5 -37t44.5 -14z"></glyph>
    <glyph glyph-name="caron.uc" d="M306 769l-124 -74l-125 74l25 50l100 -41l98 41z"></glyph>
    <glyph glyph-name="circumflex.uc" d="M284 695l-100 41l-98 -41l-26 50l124 74l125 -74z"></glyph>
    <glyph glyph-name="dieresis.uc" d="M158 710l-97 -8v80l97 8v-80zM307 710l-97 -8v80l97 8v-80z"></glyph>
    <glyph glyph-name="dotaccent.uc" d="M238 711l-108 -9v91l108 9v-91z"></glyph>
    <glyph glyph-name="grave.uc" d="M256 693l-187 50l26 80l179 -80z"></glyph>
    <glyph glyph-name="hungarumlaut.uc" d="M127 689l-41 34l84 105l55 -42zM259 689l-41 34l84 105l55 -42z"></glyph>
    <glyph glyph-name="macron.uc" d="M295 717l-222 -10v69l222 10v-69z"></glyph>
    <glyph glyph-name="ring.uc" d="M281 778q0 -42 -27.5 -61.5t-69.5 -19.5q-47 0 -72 21t-25 60q0 42 27.5 61t69.5 19q47 0 72 -21t25 -59zM225 778q0 8 -1.5 16t-2.5 11q-4 2 -12 3.5t-22 1.5q-44 0 -44 -32q0 -9 1.5 -16.5t3.5 -10.5q3 -2 11 -3.5t21 -1.5q45 0 45 32z"></glyph>
    <glyph glyph-name="ringacute.uc" d="M280 762q0 -39 -29.5 -55t-69.5 -16q-93 0 -93 71q0 40 29.5 56t68.5 16q94 0 94 -72zM225 762q0 9 -1 14t-3 9q-4 1 -12 2.5t-22 1.5q-24 0 -34 -6.5t-10 -20.5q0 -8 1 -13t2 -8q4 -2 12.5 -3.5t20.5 -1.5q26 0 36 6t10 20zM294 877l-190 -36l-13 45l185 62z"></glyph>
    <glyph glyph-name="tilde.uc" d="M300 738q-6 -6 -15 -12.5t-19 -12t-20.5 -9t-18.5 -3.5q-17 0 -31 5t-26 10.5t-23.5 10.5t-23.5 5q-10 -4 -23.5 -11.5t-21.5 -13.5l-22 54q5 6 14 12.5t19 12t20.5 9.5t18.5 4q17 0 31 -5t26 -11t23.5 -11t23.5 -5q10 5 23.5 12.5t21.5 13.5z"></glyph>
    <glyph glyph-name="cacute.kreska" horiz-adv-x="392" d="M354 20q-17 -8 -56 -19t-91 -11q-44 0 -74.5 13.5t-50.5 45t-29 82.5t-9 127t14 128t41 84t67 46t91 14q35 0 60.5 -5.5t39.5 -10.5l-13 -97q-11 4 -34.5 8.5t-48.5 4.5q-28 0 -48.5 -7t-33.5 -25.5t-19.5 -50.5t-6.5 -83q0 -63 6.5 -104t14.5 -69q7 -1 11.5 -1h11.5
q45 0 80.5 7t65.5 17zM229 565l-59 34l78 131l76 -40z"></glyph>
    <glyph glyph-name="g.alt" horiz-adv-x="472" d="M436 -5q0 -70 -56 -111t-168 -41q-96 0 -137.5 25t-41.5 77q0 38 21 60.5t47 35.5l-42 33q6 32 19.5 63.5t28.5 57.5q-38 23 -53 62.5t-15 93.5q0 89 53.5 134t145.5 45q46 0 82 -11l16 61l115 12v-21l-62 -97q36 -45 36 -127q0 -88 -55 -133t-145 -45q-12 0 -22.5 0.5
t-21.5 1.5q-14 -26 -23 -60h99q95 0 137 -26t42 -90zM318 345q0 32 -3 56.5t-6 34.5q-5 2 -24.5 5.5t-44.5 3.5q-26 0 -44 -4.5t-29 -15t-16 -28.5t-5 -46q0 -32 3 -56t5 -33q6 -2 25.5 -6t43.5 -4q53 0 74 19t21 74zM153 25q-10 -10 -15.5 -23.5t-5.5 -34.5q0 -11 1 -21.5
t3 -15.5q8 -3 29 -6t53 -3q35 0 57.5 4.5t36 13t18.5 20t5 25.5q0 10 -1 20.5t-3 15.5q-11 2 -28.5 3.5t-50.5 1.5h-99z"></glyph>
    <glyph glyph-name="i.dot" horiz-adv-x="234" d="M171 0h-108v517l108 9v-526zM174 597l-114 -9v92l114 9v-92z"></glyph>
    <glyph glyph-name="nacute.kreska" horiz-adv-x="505" d="M338 0v350q0 30 -2 46.5t-5 29.5q-8 2 -18.5 4t-27.5 2q-35 0 -64.5 -9.5t-51.5 -20.5v-402h-108v517l101 9v-48q13 8 30.5 17.5t38 17.5t44 13.5t48.5 5.5q64 0 93.5 -29t29.5 -100v-403h-108zM270 565l-59 34l78 131l76 -40z"></glyph>
    <glyph glyph-name="oacute.kreska" horiz-adv-x="489" d="M445 265q0 -80 -17 -133t-47 -85t-70.5 -45.5t-86.5 -13.5q-48 0 -82 14t-56 46t-32 83t-10 125q0 79 17 132.5t47 85t70 45t86 13.5q48 0 82.5 -14t56 -46t32 -83t10.5 -124zM334 258q0 68 -6 107t-14 65q-9 2 -22 4t-29 2q-25 0 -45 -5.5t-34 -24t-21.5 -53t-7.5 -91.5
q0 -69 5 -107.5t13 -64.5q9 -2 22 -4t30 -2q25 0 45 5.5t34 24t22 53t8 91.5zM262 565l-59 34l78 131l76 -40z"></glyph>
    <glyph glyph-name="sacute.kreska" horiz-adv-x="364" d="M328 135q0 -75 -43 -109.5t-118 -34.5q-37 0 -73 3.5t-53 9.5l6 104q11 -5 42.5 -11.5t67.5 -6.5q20 0 33.5 2t22.5 6q1 6 2 13t1 17q0 20 -10 36t-37 42l-51 48q-27 26 -51 61.5t-24 80.5q0 66 42.5 99.5t111.5 33.5q44 0 74.5 -6t41.5 -10l-7 -96q-14 4 -41 9t-59 5
q-53 0 -53 -41q0 -20 13 -36t32 -33l51 -48q14 -13 28 -27.5t25.5 -31.5t18.5 -36.5t7 -42.5zM190 565l-59 34l78 131l76 -40z"></glyph>
    <glyph glyph-name="zacute.kreska" horiz-adv-x="392" d="M350 426l-196 -332h202l-9 -94h-314v94l196 332h-175v94h296v-94zM207 565l-59 34l78 131l76 -40z"></glyph>
    <glyph glyph-name="acute.kreska" d="M187 565l-59 34l78 131l76 -40z"></glyph>
    <glyph glyph-name="ascendercaron" d="M231 597l-41 -123h-53v186h94v-63z"></glyph>
    <glyph glyph-name="commaturn" d="M137 644l41 105h53v-167h-94v62z"></glyph>
    <glyph glyph-name="ringacute" d="M291 639q0 -44 -31.5 -62t-75.5 -18q-51 0 -79 19.5t-28 60.5q0 22 8.5 37.5t23 25t34 13.5t41.5 4q50 0 78.5 -19.5t28.5 -60.5zM229 639q0 10 -1 15.5t-3 9.5q-4 2 -13.5 3.5t-23.5 1.5q-50 0 -50 -30q0 -9 1 -14.5t3 -9.5q5 -2 14.5 -3.5t23.5 -1.5q49 0 49 29z
M307 766l-211 -39l-15 51l205 70z"></glyph>
    <glyph glyph-name="space.frac" horiz-adv-x="61"></glyph>
    </font>
</defs>
</svg>
