<svg width="347" height="178" viewBox="0 0 347 178" fill="none" xmlns="http://www.w3.org/2000/svg">
<path d="M98.36 36.6398C99.03 37.4698 99.38 38.4898 99.37 39.7198C99.42 40.9698 99.06 42.0898 98.31 43.0298C99.05 42.0898 99.41 40.9698 99.37 39.7198C99.37 38.4898 99.03 37.4698 98.36 36.6398Z" fill="#008D72"/>
<path d="M83.83 22.9398C84.19 22.6598 84.57 22.3898 84.95 22.1298C84.56 22.3898 84.19 22.6598 83.83 22.9398C83.87 23.0098 83.91 23.1098 83.96 23.1498C83.91 23.1098 83.87 23.0098 83.83 22.9398Z" fill="#008D72"/>
<path d="M99.93 78.2597C116.77 78.3297 131.6 64.8797 131.7 46.7397C131.8 29.2297 117.62 15.0297 100.15 14.9997C83.25 14.9197 68.55 28.3497 68.46 46.4397C68.37 65.1197 83.53 78.1797 99.93 78.2597ZM118.03 23.9897C124.15 29.0097 127.72 35.4297 128.75 43.2597C128.89 44.3597 128.77 45.4897 128.77 46.6097C128.96 51.8497 127.57 56.6997 124.95 61.2197C124.09 62.6997 124.03 62.4197 122.91 62.2497C120.06 61.8297 118.02 59.2097 118.58 56.3997C118.84 55.0897 119.48 53.8597 119.98 52.5997C120.16 52.1497 120.42 51.7297 120.71 51.3397C122.22 49.2897 122.02 47.1997 121 45.0097C119.41 41.6097 116.81 39.8897 113.05 39.9197C112.22 39.9197 111.39 39.9497 110.57 39.9197C110.04 39.8997 109.5 39.8297 108.99 39.6797C107.82 39.3397 107.28 38.4997 107.64 37.3397C107.94 36.3797 108.36 35.4097 108.92 34.5797C110.06 32.8897 110.8 31.0997 111.05 29.0597C111.23 27.5897 111.76 26.1997 112.75 25.0897C113.35 24.4297 114.13 23.8597 114.93 23.4797C116 22.9797 117.03 23.1497 118.03 23.9697V23.9897ZM72.16 53.9597C70.14 45.5697 71.4 37.7497 76.14 30.5297C77.48 28.4897 79.08 26.6697 80.91 25.0397C81.58 24.4397 82.25 24.3597 83.05 24.6097C84.71 25.1297 85.92 26.1997 86.8 27.6697C87.56 28.9397 88.01 30.3297 88.18 31.7897C88.6 35.4197 88.82 39.0597 87.92 42.6497C87.09 45.9797 88.43 48.4497 91.04 50.3397C92.3 51.2497 93.69 51.9697 95.02 52.7697C97.45 54.2397 99.6 56.0297 101.48 58.1697C102.86 59.7397 103.79 61.5197 104.56 63.7897C103.55 63.9197 102.7 64.1597 101.86 64.1197C100.22 64.0497 98.57 63.8897 96.94 63.6397C95.06 63.3497 93.49 62.3697 92.14 61.0397C91.03 59.9397 89.94 58.8397 88.85 57.7297C87.16 55.9997 85.08 55.1397 82.7 55.1597C81.01 55.1697 79.32 55.4497 77.63 55.5597C76.43 55.6397 75.21 55.7097 74.01 55.6497C73 55.5997 72.41 55.0097 72.16 53.9497V53.9597ZM79.22 57.0397C80.76 56.8897 82.32 56.8497 83.87 56.9197C85.05 56.9697 86.14 57.4897 87.02 58.2997C88.06 59.2497 89.12 60.1997 90.05 61.2497C92.66 64.1997 95.91 65.6497 99.83 65.6597C101.04 65.6597 102.26 65.6997 103.47 65.6397C103.99 65.6097 104.53 65.4497 105.01 65.2397C106.14 64.7397 106.39 64.0797 106.02 62.9197C104.91 59.4697 102.81 56.6997 100.04 54.4597C98.23 52.9997 96.23 51.7897 94.3 50.4797C93.3 49.7997 92.23 49.1997 91.29 48.4397C89.57 47.0597 88.99 45.2197 89.51 43.0897C90.46 39.1897 90.29 35.2797 89.75 31.3697C89.24 27.6797 87.57 24.7497 84 23.1797C84 23.1797 83.98 23.1797 83.98 23.1597C83.93 23.1197 83.89 23.0197 83.85 22.9497C84.21 22.6697 84.59 22.3997 84.97 22.1397C91.78 17.5697 101.93 16.2597 110.71 19.7897C112.04 20.3197 113.33 20.9697 114.58 21.7197C114.21 21.9197 113.89 22.0897 113.57 22.2697C111.29 23.5697 110.22 25.6997 109.59 28.1297C109.46 28.6497 109.37 29.1697 109.3 29.6997C109.15 30.8297 108.75 31.8497 108.12 32.7997C107.69 33.4397 107.28 34.1097 106.91 34.7997C106.62 35.3497 106.34 35.9297 106.17 36.5397C105.43 39.1197 106.58 41.0097 109.24 41.4197C110.43 41.6097 111.66 41.6097 112.87 41.5697C117.38 41.4097 119.37 44.4497 120.13 47.4197C120.34 48.2297 120.23 48.9497 119.83 49.6497C119.37 50.4497 118.86 51.2297 118.46 52.0597C117.96 53.1097 117.44 54.1697 117.14 55.2797C116.03 59.3897 118.47 63.1397 122.7 63.9197C122.78 63.9297 122.84 64.0097 122.91 64.0497C118.81 70.1797 108.93 76.8497 96.3 75.2197C86.01 73.8897 75.7 65.7797 73.45 57.2697C75.43 57.7297 77.33 57.2197 79.25 57.0397H79.22Z" fill="#008D72"/>
<path d="M99.38 39.7198C99.38 38.4898 99.04 37.4698 98.37 36.6398C98.27 36.5198 98.17 36.4098 98.06 36.2998C97.26 35.4898 96.28 35.2698 95.25 35.6298C94.23 35.9798 93.8 36.8598 93.73 37.9098C93.7 38.3398 93.67 38.7898 93.75 39.2198C93.92 40.1098 93.75 40.9197 93.44 41.7597C92.98 42.9597 93.5 43.9898 94.71 44.4098C96.03 44.8798 97.11 44.3498 97.99 43.4298C98.11 43.2998 98.23 43.1698 98.33 43.0398C99.07 42.0998 99.43 40.9798 99.39 39.7298L99.38 39.7198ZM96.47 42.5997C96.02 42.9097 95.97 42.9097 94.78 42.5997C95.55 41.2897 95.68 40.0298 95.3 38.7198C95.25 38.5398 95.23 38.2998 95.31 38.1498C95.5 37.7898 95.69 37.3197 96 37.1697C96.23 37.0597 96.74 37.3298 96.99 37.5698C98.25 38.7898 97.93 41.6198 96.47 42.6098V42.5997Z" fill="#008D72"/>
<g filter="url(#filter0_d_4_1197)">
<path d="M63.87 65.2998V78.1798H17.65V15.9998H33.26V65.2998H63.87Z" fill="#008D72"/>
<path d="M181.01 15.9998H198.12L169.1 78.1798H161.96L133.03 15.9998H149.96L165.48 51.7198L181 15.9998H181.01Z" fill="#008D72"/>
<path d="M254.13 64.9498V78.1798H204.83V15.9998H252.28V29.2298H220V41.5798H246.81V54.4598H220V64.9598H254.13V64.9498Z" fill="#008D72"/>
<path d="M66.95 138.76V151.99H17.65V89.8098H65.1V103.04H32.82V115.39H59.63V128.27H32.82V138.77H66.95V138.76Z" fill="#008D72"/>
<path d="M117.58 141.05H92.27L87.42 151.99H71.01L101.18 89.8098H108.68L138.93 151.99H122.52L117.58 141.05ZM97.82 128.17H112.02L104.88 112.65L97.82 128.17Z" fill="#008D72"/>
<path d="M171.83 137.61C171.48 137.7 170.95 137.7 170.51 137.7H161.07V151.99H145.46V89.8098H174.04C192.83 89.8098 199.27 100.92 199.27 113.01C199.27 123.42 195.3 130.74 187.36 134.62L201.21 152H182.51L171.84 137.62L171.83 137.61ZM161.07 125H169.89C179.24 125 182.86 119.88 182.86 114.15C182.86 108.42 179.95 103.04 171.39 103.04H161.07V125Z" fill="#008D72"/>
<path d="M258.63 103.04H239.67V151.99H223.97V103.04H205.09V89.8098H258.63V103.04Z" fill="#008D72"/>
<path d="M321.87 89.8098V151.99H306.61V132.41H281.83V151.99H266.66V89.8098H281.83V119.18H306.61V89.8098H321.87Z" fill="#008D72"/>
</g>
<defs>
<filter id="filter0_d_4_1197" x="7.65002" y="6.99976" width="332.22" height="164" filterUnits="userSpaceOnUse" color-interpolation-filters="sRGB">
<feFlood flood-opacity="0" result="BackgroundImageFix"/>
<feColorMatrix in="SourceAlpha" type="matrix" values="0 0 0 0 0 0 0 0 0 0 0 0 0 0 0 0 0 0 127 0" result="hardAlpha"/>
<feOffset dx="4" dy="5"/>
<feGaussianBlur stdDeviation="7"/>
<feColorMatrix type="matrix" values="0 0 0 0 0 0 0 0 0 0 0 0 0 0 0 0 0 0 0.2 0"/>
<feBlend mode="normal" in2="BackgroundImageFix" result="effect1_dropShadow_4_1197"/>
<feBlend mode="normal" in="SourceGraphic" in2="effect1_dropShadow_4_1197" result="shape"/>
</filter>
</defs>
</svg>
