<svg width="619" height="424" viewBox="0 0 619 424" fill="none" xmlns="http://www.w3.org/2000/svg">
<rect width="512" height="424" rx="21.2123" fill="#77E1C9"/>
<mask id="mask0_38_58" style="mask-type:alpha" maskUnits="userSpaceOnUse" x="261" y="0" width="358" height="417">
<rect x="261.571" width="357.429" height="417" rx="40" fill="white"/>
</mask>
<g mask="url(#mask0_38_58)">
<path d="M713.691 -5.11812C571.136 -84.4059 454.976 -79.9268 422.216 -17.1499C390.947 33.8556 423.373 118.796 478.306 177.114C488.642 188.086 498.712 183.811 508.114 182.718C512.641 182.168 519.634 187.338 520.884 192.155L538.956 263.793C540.678 270.522 534.833 273.253 526.541 269.655L472.777 246.226C460.998 240.637 449.728 234.984 441.812 230.982C436.979 228.505 434.321 223.264 437.135 221.819L441.171 219.708C444.237 218.245 443.657 213.817 439.827 209.499C436.976 206.274 428.567 195.864 426.942 194.004C281.354 26.2659 325.771 -98.3033 439.838 -107.86C513.908 -114.034 618.576 -65.4976 713.691 -5.11812Z" fill="#008D72"/>
</g>
<g clip-path="url(#clip0_38_58)">
<path d="M461.769 191.281L397.797 164.161C392.373 161.869 386.261 161.821 380.801 164.03C375.342 166.239 370.982 170.523 368.678 175.942L304.51 327.307C302.217 332.731 302.17 338.844 304.379 344.303C306.587 349.762 310.871 354.122 316.29 356.426L380.262 383.546C385.687 385.838 391.799 385.886 397.258 383.677C402.717 381.469 407.077 377.185 409.382 371.765L473.55 220.4C475.842 214.976 475.889 208.864 473.681 203.404C471.472 197.945 467.188 193.585 461.769 191.281ZM400.642 368.06C399.323 371.164 396.826 373.617 393.7 374.882C390.574 376.147 387.073 376.12 383.967 374.807L319.995 347.687C316.892 346.368 314.438 343.871 313.174 340.745C311.909 337.618 311.936 334.118 313.249 331.012L377.417 179.647C378.737 176.543 381.233 174.09 384.36 172.825C387.486 171.56 390.986 171.587 394.092 172.901L458.064 200.02C461.168 201.34 463.621 203.836 464.886 206.963C466.151 210.089 466.124 213.589 464.81 216.695L400.642 368.06Z" fill="white"/>
<path d="M435.484 200.755L409.266 189.641C408.107 189.149 406.8 189.139 405.633 189.611C404.467 190.083 403.535 190.999 403.044 192.158C402.552 193.317 402.542 194.623 403.014 195.79C403.486 196.957 404.402 197.889 405.561 198.38L431.779 209.495C432.938 209.986 434.244 209.997 435.411 209.525C436.578 209.053 437.51 208.136 438.001 206.977C438.492 205.818 438.503 204.512 438.031 203.345C437.559 202.178 436.643 201.247 435.484 200.755Z" fill="white"/>
<path d="M355.684 352.509C360.51 354.556 366.082 352.302 368.128 347.475C370.174 342.648 367.92 337.077 363.093 335.031C358.267 332.985 352.695 335.239 350.649 340.065C348.603 344.892 350.857 350.463 355.684 352.509Z" fill="white"/>
</g>
<g clip-path="url(#clip1_38_58)">
<path d="M375.282 101.923L321.006 63.8079L275.978 101.923C283.576 163.076 284.688 222.618 275.978 279.824H376.872C384.903 219.803 383.221 160.512 375.282 101.923Z" fill="#FB4B1E"/>
<path d="M320.074 158.885L320.074 158.885C317.738 158.866 315.5 157.94 313.828 156.301C311.076 153.738 309.248 149.55 308.293 145.107C307.336 140.652 307.24 135.856 308.025 132.011L308.131 131.491L308.651 131.598L311.171 132.115L311.69 132.222L311.584 132.741C310.919 135.998 311.02 140.235 311.842 144.174C312.667 148.127 314.197 151.674 316.301 153.632L316.31 153.641L316.318 153.649C317.018 154.363 317.902 154.865 318.87 155.101C319.838 155.336 320.852 155.296 321.798 154.983L321.807 154.98L321.816 154.977C324.247 154.272 325.905 152.643 327.227 150.369C328.558 148.077 329.518 145.183 330.571 142C331.486 139.003 332.615 136.076 333.952 133.243M320.074 158.885L334.432 133.469M320.074 158.885L320.08 158.885C321.01 158.882 321.936 158.748 322.829 158.485L320.074 158.885ZM333.952 133.243C333.952 133.243 333.952 133.243 333.952 133.242L334.432 133.469M333.952 133.243C333.952 133.243 333.952 133.244 333.951 133.244L334.432 133.469M333.952 133.243C334.705 131.631 335.84 130.228 337.256 129.157C338.673 128.085 340.329 127.379 342.08 127.099L342.093 127.097L342.093 127.097C343.541 126.902 345.014 127.073 346.38 127.595C347.745 128.115 348.96 128.969 349.914 130.079M334.432 133.469C335.149 131.934 336.228 130.599 337.576 129.58C338.924 128.561 340.499 127.889 342.164 127.623C343.524 127.44 344.908 127.6 346.191 128.09C347.474 128.58 348.616 129.383 349.514 130.427M349.914 130.079C349.914 130.079 349.913 130.078 349.913 130.077L349.514 130.427M349.914 130.079C349.915 130.08 349.915 130.081 349.916 130.081L349.514 130.427M349.914 130.079C357.14 138.319 356.49 147.933 355.877 156.989L355.872 157.066L355.836 157.595L355.307 157.559L352.742 157.387L352.213 157.351L352.249 156.822C352.86 147.814 353.397 139.57 347.189 132.492L347.183 132.485L347.183 132.485C346.623 131.823 345.906 131.315 345.1 131.006C344.295 130.698 343.427 130.599 342.575 130.717M349.514 130.427C356.596 138.501 355.959 147.918 355.343 157.025L342.575 130.717M308.544 132.117L309.064 132.224C309.064 132.224 309.064 132.224 309.064 132.223L308.544 132.117ZM308.544 132.117L308.438 132.637L308.444 132.638C308.476 132.463 308.509 132.289 308.544 132.117ZM342.575 130.717C342.578 130.717 342.58 130.717 342.583 130.716L342.494 130.193L342.567 130.719C342.57 130.718 342.572 130.718 342.575 130.717ZM352.778 156.856C352.79 156.68 352.802 156.504 352.814 156.329L352.814 156.329L352.778 156.856ZM352.778 156.858L353.307 156.894L353.307 156.893L352.778 156.858Z" fill="white" stroke="white" stroke-width="1.06061"/>
<path d="M303.796 147.101L303.781 147.631L304.31 147.647C307.062 147.73 309.632 147.765 312.066 147.765C319.187 147.765 325.13 147.462 330.9 147.169L331.152 147.156L331.152 147.156C339.073 146.75 347.248 146.333 358.265 146.704L358.796 146.722L358.813 146.191L358.899 143.604L358.916 143.075L358.387 143.057C347.209 142.678 338.94 143.102 330.967 143.511L330.967 143.512C323.197 143.914 315.179 144.32 304.419 144L303.889 143.984L303.873 144.514L303.796 147.101Z" fill="white" stroke="white" stroke-width="1.06061"/>
<path d="M320.467 203.012L320.467 203.012C318.131 202.993 315.894 202.067 314.221 200.429C311.469 197.865 309.641 193.677 308.687 189.235C307.73 184.779 307.633 179.983 308.418 176.139L308.524 175.618L309.044 175.725L311.564 176.243L312.083 176.349L311.977 176.868C311.312 180.125 311.413 184.363 312.235 188.301C313.06 192.254 314.59 195.801 316.695 197.76L316.703 197.768L316.712 197.777C317.412 198.49 318.296 198.993 319.263 199.228C320.231 199.464 321.245 199.423 322.191 199.11L322.2 199.107L322.21 199.105C324.64 198.399 326.298 196.77 327.62 194.496C328.951 192.205 329.912 189.311 330.965 186.128C331.879 183.13 333.009 180.203 334.345 177.37M320.467 203.012L334.825 177.596M320.467 203.012L320.473 203.012C321.404 203.01 322.329 202.875 323.222 202.613L320.467 203.012ZM334.345 177.37C334.345 177.37 334.345 177.37 334.346 177.37L334.825 177.596M334.345 177.37C334.345 177.371 334.345 177.371 334.345 177.371L334.825 177.596M334.345 177.37C335.099 175.758 336.233 174.355 337.65 173.284C339.066 172.213 340.722 171.506 342.473 171.226L342.486 171.224L342.486 171.225C343.934 171.03 345.408 171.201 346.774 171.722C348.138 172.243 349.353 173.097 350.308 174.207M334.825 177.596C335.542 176.061 336.622 174.726 337.969 173.707C339.317 172.688 340.892 172.016 342.557 171.75C343.917 171.567 345.301 171.728 346.584 172.217C347.868 172.707 349.01 173.51 349.907 174.554M350.308 174.207C350.307 174.206 350.306 174.205 350.306 174.205L349.907 174.554M350.308 174.207C350.308 174.207 350.309 174.208 350.309 174.209L349.907 174.554M350.308 174.207C357.534 182.446 356.883 192.06 356.27 201.116L356.265 201.193L356.229 201.722L355.7 201.687L353.136 201.514L352.606 201.479L352.642 200.949C353.253 191.941 353.79 183.697 347.582 176.619L347.576 176.612L347.576 176.612C347.016 175.951 346.3 175.442 345.493 175.133C344.689 174.826 343.82 174.727 342.968 174.845M349.907 174.554C356.99 182.629 356.353 192.045 355.736 201.153L342.968 174.845M308.937 176.245L309.457 176.351C309.457 176.351 309.457 176.351 309.457 176.351L308.937 176.245ZM308.937 176.245L308.831 176.764L308.838 176.766C308.869 176.59 308.902 176.416 308.937 176.245ZM342.968 174.845C342.971 174.844 342.974 174.844 342.976 174.843L342.887 174.321L342.961 174.846C342.963 174.846 342.966 174.845 342.968 174.845ZM353.171 200.984C353.183 200.808 353.195 200.632 353.207 200.456L353.207 200.456L353.171 200.984ZM353.171 200.985L353.7 201.021L353.7 201.021L353.171 200.985Z" fill="white" stroke="white" stroke-width="1.06061"/>
<path d="M304.19 191.229L304.174 191.759L304.704 191.775C307.455 191.857 310.026 191.892 312.459 191.892C319.58 191.892 325.523 191.59 331.293 191.296L331.545 191.283L331.546 191.283C339.466 190.877 347.641 190.46 358.659 190.831L359.189 190.849L359.207 190.319L359.292 187.732L359.31 187.202L358.78 187.184C347.602 186.806 339.334 187.229 331.36 187.639L331.36 187.639C323.591 188.042 315.572 188.447 304.813 188.127L304.283 188.112L304.267 188.642L304.19 191.229Z" fill="white" stroke="white" stroke-width="1.06061"/>
<path d="M321.611 247.169L321.611 247.169C319.275 247.149 317.037 246.223 315.365 244.585C312.613 242.022 310.785 237.834 309.831 233.391C308.873 228.936 308.777 224.14 309.562 220.295L309.668 219.775L310.188 219.882L312.708 220.399L313.227 220.506L313.121 221.025C312.456 224.282 312.557 228.519 313.379 232.457C314.204 236.411 315.734 239.958 317.838 241.916L317.847 241.925L317.856 241.933C318.556 242.647 319.439 243.149 320.407 243.385C321.375 243.62 322.389 243.58 323.335 243.267L323.344 243.264L323.353 243.261C325.784 242.556 327.442 240.927 328.764 238.652C330.095 236.361 331.056 233.467 332.108 230.284C333.023 227.286 334.152 224.36 335.489 221.527M321.611 247.169L335.969 221.752M321.611 247.169L321.617 247.169C322.548 247.166 323.473 247.031 324.366 246.769L321.611 247.169ZM335.489 221.527C335.489 221.527 335.489 221.526 335.489 221.526L335.969 221.752M335.489 221.527C335.489 221.527 335.489 221.528 335.488 221.528L335.969 221.752M335.489 221.527C336.243 219.914 337.377 218.512 338.793 217.441C340.21 216.369 341.866 215.663 343.617 215.383L343.63 215.381L343.63 215.381C345.078 215.186 346.551 215.357 347.917 215.878C349.282 216.399 350.497 217.253 351.451 218.363M335.969 221.752C336.686 220.218 337.766 218.882 339.113 217.864C340.461 216.845 342.036 216.173 343.701 215.907C345.061 215.724 346.445 215.884 347.728 216.374C349.011 216.863 350.153 217.667 351.051 218.711M351.451 218.363C351.451 218.363 351.45 218.362 351.45 218.361L351.051 218.711M351.451 218.363C351.452 218.364 351.453 218.365 351.453 218.365L351.051 218.711M351.451 218.363C358.677 226.603 358.027 236.216 357.414 245.273L357.409 245.35L357.373 245.879L356.844 245.843L354.28 245.671L353.75 245.635L353.786 245.106C354.397 236.098 354.934 227.854 348.726 220.776L348.72 220.769L348.72 220.769C348.16 220.107 347.443 219.599 346.637 219.29C345.832 218.982 344.964 218.883 344.112 219.001M351.051 218.711C358.133 226.785 357.496 236.202 356.88 245.309L344.112 219.001M310.081 220.401L310.601 220.508C310.601 220.508 310.601 220.507 310.601 220.507L310.081 220.401ZM310.081 220.401L309.975 220.921L309.981 220.922C310.013 220.746 310.046 220.573 310.081 220.401ZM344.112 219.001C344.115 219.001 344.117 219 344.12 219L344.031 218.477L344.104 219.002C344.107 219.002 344.11 219.002 344.112 219.001ZM354.315 245.14C354.327 244.964 354.339 244.788 354.351 244.613L354.351 244.613L354.315 245.14ZM354.315 245.142L354.844 245.178L354.844 245.177L354.315 245.142Z" fill="white" stroke="white" stroke-width="1.06061"/>
<path d="M305.333 235.385L305.318 235.915L305.848 235.931C308.599 236.014 311.169 236.049 313.603 236.049C320.724 236.049 326.667 235.746 332.437 235.453L332.689 235.44L332.689 235.44C340.61 235.034 348.785 234.617 359.802 234.988L360.333 235.005L360.35 234.475L360.436 231.888L360.454 231.358L359.924 231.341C348.746 230.962 340.477 231.386 332.504 231.795L332.504 231.795C324.735 232.198 316.716 232.604 305.956 232.284L305.426 232.268L305.411 232.798L305.333 235.385Z" fill="white" stroke="white" stroke-width="1.06061"/>
<path d="M321.041 79.8922C323.043 79.8922 324.665 78.2599 324.665 76.2463C324.665 74.2326 323.043 72.6003 321.041 72.6003C319.04 72.6003 317.417 74.2326 317.417 76.2463C317.417 78.2599 319.04 79.8922 321.041 79.8922Z" fill="url(#paint0_linear_38_58)"/>
<path d="M320.223 75.9765C320.086 75.9764 319.951 75.9433 319.829 75.8799C303.524 67.3764 295.448 52.4243 298.756 36.8513C302.28 20.2668 317.349 8.39412 336.253 7.30412C344.386 6.67289 352.497 9.76437 356.895 15.1626C358.28 16.756 359.252 18.6695 359.723 20.7324C360.194 22.7953 360.151 24.9434 359.596 26.9853C357.248 35.3871 350.706 42.1124 344.38 48.6162C343.454 49.5648 342.532 50.5134 341.631 51.4619L340.537 52.4872C335.558 57.137 329.916 62.4041 328.055 68.4405C328.024 68.5506 327.971 68.6533 327.899 68.7425C327.828 68.8317 327.739 68.9056 327.639 68.96C327.538 69.0144 327.428 69.0481 327.315 69.0592C327.202 69.0703 327.087 69.0585 326.978 69.0246C326.869 68.9906 326.768 68.9352 326.681 68.8615C326.594 68.7879 326.522 68.6974 326.47 68.5955C326.418 68.4936 326.386 68.3823 326.377 68.268C326.369 68.1537 326.382 68.0388 326.418 67.93C328.414 61.4625 334.234 56.0228 339.369 51.2256L340.428 50.2365C341.299 49.3199 342.224 48.3687 343.155 47.4124C349.331 41.063 355.719 34.498 357.951 26.5214C358.433 24.7469 358.468 22.8798 358.053 21.0884C357.638 19.297 356.787 17.6375 355.576 16.2595C351.516 11.2769 343.974 8.43551 336.368 9.02449C318.227 10.0696 303.793 21.3956 300.433 37.2118C297.294 51.988 305.028 66.2183 320.618 74.3493C320.788 74.4384 320.923 74.5824 321.003 74.7581C321.082 74.9339 321.1 75.1313 321.055 75.3188C321.009 75.5063 320.902 75.673 320.751 75.7922C320.601 75.9115 320.414 75.9764 320.223 75.9765Z" fill="url(#paint1_linear_38_58)"/>
</g>
<g clip-path="url(#clip2_38_58)">
<path d="M249.671 174.237C241.559 170.474 234.231 157.446 230.77 149.53C229.972 147.721 229.289 146.196 228.683 144.908C228.276 143.973 227.815 143.062 227.301 142.18C227.073 141.754 226.819 141.342 226.542 140.946C218.383 128.433 201.612 124.893 189.081 133.039C176.549 141.186 173.005 157.935 181.163 170.449C186.16 178.114 194.698 182.736 203.857 182.734C204.594 182.734 205.315 182.704 206.036 182.642C207.176 182.631 208.31 182.464 209.405 182.144C212.982 181.401 216.371 179.938 219.365 177.846C226.119 174.328 234.061 177.393 238.781 180.275C243.96 183.432 243.101 186.597 247.414 188.03C250.844 189.172 273.113 197.188 282.161 200.452V187.517C275.632 185.118 261.834 179.892 249.671 174.237ZM203.858 179.669C192.63 179.673 182.9 171.903 180.437 160.964C180.042 159.234 179.843 157.465 179.846 155.691C179.84 142.454 190.58 131.718 203.835 131.713C211.413 131.71 218.549 135.281 223.081 141.345C223.434 141.821 223.772 142.304 224.087 142.802C224.202 142.97 224.294 143.147 224.401 143.323C224.609 143.66 224.808 143.998 225 144.35C225.107 144.557 225.208 144.763 225.315 144.97C225.484 145.3 225.637 145.63 225.791 145.959C225.891 146.189 225.983 146.42 226.082 146.649C226.213 146.979 226.343 147.309 226.466 147.645C226.55 147.883 226.634 148.121 226.711 148.366C226.818 148.711 226.918 149.056 227.018 149.401C227.079 149.646 227.149 149.883 227.21 150.128C227.295 150.496 227.371 150.864 227.44 151.232C227.479 151.47 227.532 151.707 227.571 151.944C227.632 152.35 227.678 152.772 227.724 153.185C227.747 153.393 227.778 153.592 227.793 153.799C227.839 154.419 227.87 155.055 227.87 155.692C227.855 168.928 217.114 179.656 203.858 179.669Z" fill="white"/>
<path d="M329.074 163.638C302.684 169.845 276.293 175.731 270.077 178.52C263.869 181.318 256.11 183.793 246.794 190.927C237.478 198.061 228.813 202.85 220.049 202.306C218.275 202.196 213.38 199.957 211.456 199.592C197.102 195.402 182.064 203.625 177.869 217.959C173.673 232.292 181.907 247.309 196.261 251.499C210.614 255.69 225.652 247.467 229.848 233.133C230.214 231.88 230.49 230.603 230.672 229.31C230.75 228.913 230.817 228.467 230.869 227.955C231.947 217.166 243.472 205.525 250.832 202.713C265.428 197.126 368.512 160.848 368.512 160.848C368.512 160.848 355.464 157.438 329.074 163.638ZM226.305 234.072C225.856 235.232 225.32 236.357 224.701 237.436C224.7 237.447 224.694 237.458 224.686 237.466C218.091 248.954 203.419 252.928 191.915 246.343C180.412 239.758 176.432 225.106 183.026 213.618C186.908 206.856 193.839 202.4 201.61 201.671C202.354 201.602 203.099 201.564 203.858 201.564C217.122 201.567 227.872 212.307 227.87 225.552C227.869 228.461 227.339 231.345 226.304 234.065C226.297 234.064 226.297 234.064 226.305 234.072Z" fill="white"/>
</g>
<g clip-path="url(#clip3_38_58)">
<path d="M137.436 114.727C137.436 114.727 128.934 136.204 156.866 141.353L145.906 175.064C145.906 175.064 121.772 162.605 114.914 144.142C108.055 125.679 126.903 105.862 129.016 105.038L137.436 114.727Z" fill="url(#paint2_linear_38_58)"/>
<path d="M181.712 140.725C181.696 140.773 181.679 140.81 181.664 140.859C178.793 144.82 177.089 149.508 176.746 154.39C175.328 154.305 173.807 154.134 172.144 153.879C171.896 153.848 171.646 153.838 171.396 153.848C171.396 153.848 170.867 153.872 169.985 153.943C169.094 154.028 167.849 154.156 166.399 154.368C163.199 154.989 160.044 155.827 156.958 156.877C155.127 157.589 153.232 158.125 151.3 158.478L156.02 143.952C158.958 144.136 161.906 144.102 164.839 143.849C164.982 143.83 165.124 143.804 165.264 143.77C165.48 143.772 165.696 143.761 165.91 143.739C165.968 143.745 166.025 143.74 166.08 143.723L166.514 143.676C166.538 143.676 166.562 143.674 166.585 143.668C167.39 143.55 168.167 143.288 168.879 142.895C169.683 142.461 170.061 141.427 170.739 140.118C172.273 136.984 173.521 133.717 174.466 130.358C174.853 128.811 176.972 128.204 177.355 131.857C177.757 135.486 173.572 138.706 175.929 140.015C176.571 140.335 177.277 140.505 177.994 140.512C179.224 140.693 180.469 140.764 181.712 140.725Z" fill="url(#paint3_linear_38_58)"/>
<path d="M186.161 143.028C186.488 147.594 185.555 152.162 183.464 156.232C183.411 156.337 183.338 156.43 183.249 156.506C183.159 156.582 183.056 156.64 182.945 156.677C182.833 156.713 182.715 156.727 182.599 156.717C182.482 156.708 182.368 156.676 182.263 156.622L182.239 156.609C181.031 155.922 178.84 153.776 177.615 147.113C176.013 138.362 178.527 140.415 184.322 141.108C184.804 141.162 185.253 141.384 185.589 141.735C185.925 142.086 186.127 142.543 186.161 143.028Z" fill="#FFBEB6"/>
</g>
<g clip-path="url(#clip4_38_58)">
<path d="M193.638 377.783C183.381 373.262 173.725 364.433 171.902 362.725H151.143L141.782 389.585L208.452 389.587C208.453 389.588 205.034 382.807 193.638 377.783Z" fill="url(#paint4_linear_38_58)"/>
<path d="M107.008 377.784C96.7485 373.262 87.6231 364.493 86.0105 362.789L64.4929 362.788L55.1519 389.586L121.822 389.589C121.822 389.589 118.403 382.808 107.008 377.784Z" fill="url(#paint5_linear_38_58)"/>
<path d="M85.1328 167.682L82.9089 176.167C77.1182 191.764 75.9492 208.693 79.5392 224.934C88.3266 265.651 79.7513 262.853 74.4191 274.323C69.0649 285.783 66.1111 292.826 65.9222 304.176C65.747 315.536 61.2737 312.044 57.2483 326.315C53.7111 338.913 53.7242 358.446 53.8596 362.789L86.0101 362.79C93.4913 348.453 114.844 287.57 117.77 272.589C120.409 259.049 121.452 243.236 121.502 228.722L121.65 184.682L85.1328 167.682Z" fill="url(#paint6_linear_38_58)"/>
<path d="M136.313 362.743C136.424 362.739 136.528 362.726 136.641 362.726H171.903C168.594 350.675 153.217 294.154 146.655 274.152C140.079 254.109 129.651 224.542 123.791 210.726C117.954 202.567 118.069 202.409 114.194 197.738C107.226 189.343 100.134 187.575 97.6495 177.105C89.7923 175.797 79.4802 171.136 71.6164 167.1C71.0836 168.419 60.9556 194.47 79.1535 226.479C97.833 259.327 96.8767 254.139 103.443 279.465C110.014 304.801 105 288.887 114.31 314.639C121.343 334.093 121.125 349.24 136.313 362.743Z" fill="#F25B22"/>
<path opacity="0.86" d="M83.85 190.201C83.8785 190.28 83.9664 190.32 84.0448 190.292C84.0466 190.291 84.0478 190.291 84.0496 190.29C84.1268 190.255 84.1618 190.164 84.1262 190.087C84.0977 190.008 84.0098 189.968 83.9314 189.996C83.9296 189.997 83.9284 189.997 83.9266 189.998C83.8524 190.036 83.8185 190.124 83.85 190.201ZM87.2494 188.764C87.2779 188.843 87.3658 188.884 87.4442 188.855C87.446 188.854 87.4471 188.854 87.4489 188.853C87.5285 188.82 87.5671 188.729 87.5357 188.648C87.5071 188.569 87.4192 188.528 87.3408 188.557C87.339 188.558 87.3379 188.558 87.3367 188.559C87.2583 188.595 87.2208 188.683 87.2494 188.764ZM90.6588 187.326C90.6808 187.4 90.761 187.443 90.8358 187.42C90.84 187.418 90.8435 187.418 90.8477 187.416C90.9273 187.383 90.9659 187.292 90.9344 187.21C90.9059 187.131 90.818 187.091 90.7396 187.119C90.7378 187.121 90.7366 187.121 90.7354 187.121C90.6606 187.151 90.6226 187.235 90.6523 187.311C90.6541 187.316 90.6564 187.321 90.6588 187.326ZM94.8482 201.585C94.923 201.618 95.0115 201.583 95.0442 201.508C95.0454 201.506 95.046 201.505 95.046 201.503C95.0786 201.425 95.0436 201.335 94.967 201.3C94.8921 201.267 94.8036 201.302 94.771 201.377C94.7698 201.379 94.7692 201.38 94.7692 201.382C94.7353 201.46 94.7704 201.55 94.8482 201.585ZM96.263 198.095C96.3432 198.126 96.4341 198.091 96.4709 198.012C96.4994 197.932 96.4602 197.844 96.3818 197.811C96.3123 197.776 96.2274 197.804 96.1924 197.872C96.1894 197.879 96.1858 197.886 96.1846 197.892C96.152 197.97 96.187 198.06 96.263 198.095ZM97.6892 194.604C97.764 194.637 97.8525 194.602 97.8852 194.527C97.8864 194.525 97.887 194.524 97.887 194.522C97.9179 194.441 97.8828 194.35 97.8068 194.309C97.7236 194.282 97.634 194.323 97.6007 194.403C97.571 194.483 97.6096 194.572 97.6892 194.604ZM110.255 201.545C110.284 201.624 110.372 201.664 110.45 201.636C110.452 201.634 110.453 201.634 110.454 201.634C110.533 201.596 110.567 201.501 110.528 201.422C110.495 201.353 110.416 201.318 110.342 201.339C110.263 201.374 110.224 201.464 110.255 201.545ZM89.557 195.462C89.6057 195.52 89.6924 195.528 89.75 195.48C89.7554 195.475 89.7607 195.47 89.7649 195.466C89.8249 195.411 89.8284 195.318 89.7738 195.258C89.7714 195.255 89.7696 195.254 89.7672 195.251C89.7185 195.193 89.6318 195.185 89.5742 195.233C89.5689 195.238 89.5635 195.243 89.5594 195.248C89.4994 195.302 89.4958 195.396 89.5504 195.456C89.5516 195.458 89.5546 195.46 89.557 195.462ZM92.1657 192.799C92.2097 192.846 92.2822 192.855 92.335 192.818L92.3457 192.816C92.357 192.816 92.3677 192.811 92.3754 192.801C92.4111 192.766 92.4283 192.716 92.4194 192.666C92.414 192.633 92.3992 192.601 92.3766 192.576C92.322 192.518 92.2287 192.515 92.1705 192.571C92.1693 192.572 92.1687 192.573 92.1681 192.574C92.1058 192.635 92.1052 192.735 92.1657 192.797C92.1652 192.798 92.1657 192.798 92.1657 192.799ZM94.7757 190.135C94.8333 190.189 94.9242 190.188 94.9794 190.13C94.9812 190.129 94.9818 190.128 94.9836 190.126C95.0436 190.072 95.0478 189.98 94.9943 189.92C94.9919 189.917 94.9889 189.915 94.9866 189.912C94.9379 189.854 94.8511 189.846 94.7935 189.895C94.7882 189.899 94.7828 189.904 94.7787 189.909C94.7169 189.97 94.7157 190.07 94.7769 190.133C94.7745 190.135 94.7757 190.135 94.7757 190.135ZM102.451 201.049C102.455 201.134 102.522 201.203 102.608 201.209C102.696 201.206 102.766 201.131 102.763 201.043C102.76 200.958 102.692 200.89 102.606 200.888C102.521 200.895 102.455 200.964 102.451 201.049ZM74.8013 202.521C74.8975 202.641 75.0733 202.66 75.1945 202.563C75.1998 202.559 75.2058 202.554 75.2111 202.549C75.3305 202.442 75.3424 202.259 75.239 202.138C75.1428 202.018 74.967 201.999 74.8458 202.095C74.8405 202.1 74.8345 202.105 74.8292 202.11C74.7116 202.218 74.6985 202.4 74.8013 202.521ZM80.0628 197.82C80.1608 197.94 80.3372 197.958 80.4583 197.86C80.4631 197.856 80.4679 197.852 80.4726 197.848C80.5967 197.738 80.6086 197.55 80.4987 197.426C80.4025 197.308 80.2279 197.291 80.1097 197.388C80.1055 197.391 80.1026 197.394 80.0984 197.397C79.9802 197.507 79.9642 197.691 80.0628 197.82ZM85.3355 193.118C85.4389 193.238 85.6212 193.251 85.7424 193.148C85.7442 193.147 85.7448 193.146 85.7466 193.145C85.8648 193.033 85.8773 192.849 85.7727 192.723C85.667 192.603 85.4846 192.59 85.3635 192.695L85.3623 192.697C85.2387 192.805 85.2268 192.993 85.3355 193.118ZM90.5976 188.416C90.6766 188.501 90.8002 188.531 90.9095 188.49C90.9463 188.485 90.9802 188.469 91.0075 188.443C91.0514 188.404 91.0799 188.35 91.0912 188.292L91.1019 188.29C91.1257 188.195 91.1001 188.094 91.0348 188.021C90.9386 187.902 90.7628 187.882 90.6416 187.979C90.6362 187.984 90.6303 187.988 90.625 187.994C90.5056 188.106 90.4931 188.291 90.5976 188.416ZM95.7362 220.492C95.7255 220.653 95.8467 220.793 96.0076 220.806C96.1621 220.821 96.2987 220.709 96.3141 220.555C96.3153 220.55 96.3153 220.543 96.3153 220.537C96.326 220.376 96.2048 220.236 96.0439 220.223C95.8847 220.212 95.7481 220.331 95.7368 220.49C95.7362 220.49 95.7362 220.49 95.7362 220.492ZM96.2221 213.343C96.2078 213.501 96.3242 213.642 96.484 213.656C96.6432 213.671 96.784 213.554 96.7988 213.395C96.8 213.39 96.8 213.383 96.8 213.377C96.8149 213.218 96.699 213.077 96.5386 213.061C96.3753 213.059 96.2381 213.181 96.2221 213.343ZM96.7163 206.182C96.702 206.341 96.819 206.481 96.9788 206.495C96.9818 206.495 96.9841 206.496 96.9877 206.496C97.1421 206.511 97.2788 206.4 97.2942 206.245C97.2954 206.24 97.2954 206.233 97.2954 206.227C97.3025 206.065 97.1843 205.924 97.0227 205.901C96.8606 205.896 96.724 206.021 96.7163 206.182ZM97.2021 199.033C97.1873 199.191 97.3043 199.332 97.4635 199.346C97.6227 199.361 97.7634 199.244 97.7783 199.086C97.7795 199.08 97.7795 199.074 97.7795 199.068C97.7955 198.909 97.6797 198.767 97.5199 198.751C97.3607 198.735 97.2188 198.851 97.2021 199.01C97.2027 199.018 97.2021 199.026 97.2021 199.033ZM71.6187 190.164C71.665 190.314 71.8248 190.398 71.9751 190.351C71.9792 190.35 71.9828 190.349 71.987 190.347C72.1402 190.291 72.2198 190.122 72.1652 189.968C72.1147 189.817 71.9513 189.734 71.7993 189.784C71.7981 189.784 71.7975 189.785 71.7969 189.785C71.6436 189.842 71.5635 190.01 71.6187 190.164ZM78.2369 187.883C78.282 188.036 78.443 188.124 78.5962 188.079C78.7483 188.021 78.8261 187.854 78.7744 187.7C78.7334 187.554 78.5825 187.469 78.4364 187.508C78.4299 187.51 78.4228 187.513 78.4162 187.515C78.266 187.566 78.1846 187.727 78.2339 187.877C78.2363 187.879 78.2369 187.882 78.2369 187.883ZM82.4832 213.477C82.6199 213.551 82.7897 213.499 82.8634 213.363C82.8664 213.358 82.8687 213.352 82.8711 213.346C82.9418 213.199 82.8818 213.021 82.7345 212.948C82.5973 212.874 82.4262 212.927 82.3526 213.064C82.3502 213.069 82.3478 213.074 82.3454 213.078C82.2789 213.227 82.3389 213.402 82.4832 213.477ZM85.5975 207.058C85.7341 207.131 85.904 207.08 85.9776 206.945C85.9806 206.939 85.983 206.934 85.9854 206.928C86.0566 206.781 85.996 206.603 85.8487 206.53C85.7115 206.456 85.5411 206.509 85.4668 206.646C85.4644 206.651 85.4621 206.656 85.4597 206.66C85.3932 206.808 85.4526 206.982 85.5975 207.058ZM88.7135 200.648C88.8602 200.716 89.0325 200.653 89.1008 200.508C89.1703 200.362 89.1151 200.187 88.9737 200.108C88.8264 200.037 88.65 200.096 88.5751 200.239C88.5098 200.391 88.5686 200.567 88.7135 200.648ZM91.826 194.218C91.9626 194.292 92.1325 194.24 92.2061 194.104C92.2091 194.099 92.2115 194.093 92.2139 194.088C92.2822 193.942 92.2275 193.767 92.0868 193.688C91.9412 193.62 91.7684 193.683 91.7001 193.827C91.7001 193.828 91.6989 193.829 91.6989 193.829C91.6246 193.967 91.6775 194.14 91.8165 194.214C91.8212 194.215 91.8236 194.217 91.826 194.218ZM108.942 215.463C108.992 215.614 109.155 215.697 109.306 215.648C109.458 215.598 109.541 215.435 109.492 215.285C109.49 215.282 109.49 215.28 109.489 215.278C109.454 215.131 109.306 215.039 109.158 215.075C109.148 215.077 109.139 215.08 109.13 215.083C108.98 215.143 108.899 215.307 108.942 215.463ZM106.734 208.655C106.779 208.808 106.94 208.896 107.093 208.852C107.246 208.807 107.335 208.647 107.29 208.494C107.288 208.486 107.286 208.477 107.283 208.469C107.236 208.319 107.076 208.236 106.926 208.282C106.922 208.284 106.919 208.284 106.914 208.286C106.763 208.34 106.683 208.503 106.734 208.655ZM104.529 201.857C104.57 202.003 104.721 202.088 104.867 202.048C104.874 202.047 104.881 202.044 104.888 202.042C105.044 201.991 105.129 201.825 105.078 201.668C105.077 201.666 105.077 201.664 105.076 201.661C105.025 201.51 104.862 201.427 104.71 201.477C104.709 201.477 104.708 201.478 104.708 201.478C104.555 201.536 104.476 201.703 104.529 201.857ZM67.6438 186.702C67.6853 186.645 67.702 186.572 67.6901 186.503C67.6782 186.462 67.655 186.424 67.6242 186.395C67.6354 186.49 67.6396 186.597 67.6438 186.702ZM73.2504 185.187C73.2807 185.324 73.4167 185.411 73.5539 185.381C73.6911 185.35 73.7784 185.215 73.7481 185.078C73.7469 185.073 73.7457 185.068 73.744 185.064C73.7226 184.932 73.5973 184.843 73.466 184.865C73.4565 184.867 73.447 184.869 73.4375 184.872C73.3003 184.905 73.2153 185.044 73.2486 185.182C73.2498 185.183 73.2498 185.185 73.2504 185.187ZM76.4454 210.17C76.5636 210.245 76.7198 210.211 76.7953 210.093C76.7964 210.091 76.7976 210.09 76.7982 210.088C76.8772 209.967 76.8428 209.806 76.7228 209.727C76.721 209.726 76.7204 209.725 76.7186 209.725C76.6058 209.648 76.4531 209.677 76.3759 209.789C76.3717 209.794 76.3682 209.801 76.3646 209.807C76.2916 209.93 76.3266 210.089 76.4454 210.17ZM79.7456 204.742C79.865 204.817 80.0206 204.781 80.0966 204.663C80.0978 204.661 80.0984 204.66 80.099 204.659C80.178 204.533 80.1412 204.367 80.0176 204.284C79.8953 204.213 79.7384 204.254 79.666 204.376L79.6648 204.377C79.587 204.499 79.622 204.661 79.7438 204.74C79.745 204.742 79.7456 204.742 79.7456 204.742ZM82.9412 199.156C82.9507 199.222 82.9887 199.279 83.0457 199.312C83.1651 199.387 83.3208 199.352 83.3968 199.233C83.398 199.232 83.3986 199.231 83.3992 199.229C83.4782 199.103 83.4413 198.938 83.3178 198.855C83.2465 198.808 83.1538 198.8 83.076 198.836L83.0653 198.838C83.0202 198.856 82.9834 198.893 82.9644 198.938C82.9204 199.003 82.9115 199.084 82.9412 199.156ZM86.3447 193.884C86.4665 193.954 86.6197 193.917 86.6981 193.801C86.7718 193.674 86.7362 193.511 86.6168 193.427C86.4986 193.352 86.3423 193.386 86.2669 193.504C86.2657 193.506 86.2645 193.507 86.2639 193.509C86.1849 193.637 86.2206 193.802 86.3447 193.884ZM89.6443 188.456C89.7667 188.527 89.9235 188.486 89.9959 188.364L89.9971 188.363C90.0708 188.24 90.0351 188.082 89.9175 188C89.7934 187.925 89.6324 187.962 89.554 188.084C89.4833 188.212 89.5225 188.373 89.6443 188.456ZM102.171 214.445C102.206 214.587 102.347 214.676 102.49 214.646C102.632 214.605 102.713 214.458 102.673 214.316C102.635 214.185 102.503 214.103 102.368 214.127C102.23 214.168 102.145 214.305 102.171 214.445ZM100.781 208.217C100.824 208.35 100.969 208.424 101.102 208.38C101.236 208.337 101.31 208.193 101.266 208.06C101.225 207.934 101.095 207.861 100.966 207.89C100.827 207.933 100.746 208.076 100.781 208.217ZM99.3773 201.968C99.4034 202.107 99.5371 202.199 99.6767 202.173C99.6796 202.172 99.6832 202.171 99.6862 202.171C99.8216 202.142 99.9065 202.01 99.878 201.875C99.8762 201.868 99.875 201.863 99.8733 201.856C99.8471 201.717 99.7135 201.626 99.5739 201.651C99.5709 201.652 99.5674 201.653 99.5644 201.653C99.4284 201.693 99.347 201.83 99.3773 201.968ZM97.9773 195.741C98.0082 195.878 98.1448 195.964 98.282 195.933H98.2838C98.4263 195.9 98.5136 195.758 98.4804 195.616C98.4477 195.478 98.3129 195.389 98.1727 195.414C98.0319 195.456 97.947 195.598 97.9773 195.741ZM73.8426 194.85C73.918 194.964 74.0724 194.994 74.1865 194.918C74.193 194.914 74.1984 194.909 74.2043 194.906C74.3195 194.824 74.3457 194.664 74.2631 194.549C74.2619 194.547 74.2607 194.546 74.2601 194.544C74.1859 194.427 74.0303 194.392 73.9132 194.467C73.9079 194.47 73.902 194.474 73.8972 194.478C73.7844 194.569 73.7606 194.731 73.8426 194.85ZM78.9134 191.13C78.99 191.245 79.1456 191.277 79.2615 191.2C79.2633 191.199 79.2644 191.198 79.2662 191.197C79.3844 191.11 79.4129 190.945 79.3304 190.824C79.2472 190.708 79.0868 190.679 78.9675 190.758C78.8516 190.847 78.8285 191.011 78.9134 191.13ZM83.9735 187.41C84.0513 187.528 84.2117 187.56 84.3299 187.481C84.3323 187.479 84.3347 187.478 84.3371 187.476C84.4505 187.386 84.4778 187.225 84.4012 187.102C84.3216 186.988 84.1642 186.96 84.049 187.039C84.046 187.042 84.0424 187.044 84.0395 187.046C83.9213 187.128 83.891 187.288 83.9723 187.407C83.9729 187.408 83.9735 187.409 83.9735 187.41ZM88.8228 211.526C88.802 211.668 88.8982 211.801 89.0402 211.827C89.1792 211.85 89.3111 211.756 89.3342 211.617C89.3342 211.615 89.3342 211.615 89.3354 211.614C89.3574 211.471 89.2671 211.335 89.1269 211.301C88.9802 211.28 88.8448 211.38 88.8228 211.526ZM89.8575 205.209C89.829 205.346 89.9175 205.481 90.0547 205.51C90.1919 205.539 90.3274 205.45 90.3565 205.314C90.3577 205.309 90.3583 205.304 90.3589 205.299C90.3808 205.157 90.2905 205.021 90.1504 204.986C90.0078 204.967 89.8771 205.067 89.8575 205.209ZM90.8822 198.893C90.8566 199.033 90.9493 199.168 91.09 199.196C91.2338 199.216 91.3662 199.116 91.3853 198.973C91.4043 198.837 91.3128 198.707 91.1762 198.681C91.0419 198.655 90.9118 198.742 90.8851 198.875C90.8839 198.881 90.8833 198.887 90.8822 198.893ZM91.9074 192.578C91.8818 192.718 91.9745 192.853 92.1153 192.881C92.1949 192.898 92.2774 192.874 92.3356 192.818L92.3463 192.816C92.3843 192.774 92.4099 192.722 92.42 192.666C92.4408 192.524 92.3445 192.391 92.2026 192.365C92.0636 192.342 91.9317 192.436 91.9086 192.575C91.9074 192.577 91.9074 192.577 91.9074 192.578ZM112.129 206.408C112.2 206.519 112.348 206.552 112.46 206.481C112.467 206.476 112.474 206.471 112.481 206.466C112.601 206.381 112.63 206.214 112.545 206.092C112.46 205.978 112.299 205.953 112.183 206.037C112.065 206.124 112.041 206.29 112.129 206.408C112.129 206.408 112.128 206.408 112.129 206.408ZM108.511 201.194C108.592 201.311 108.753 201.342 108.872 201.261C108.873 201.26 108.874 201.26 108.874 201.26C108.99 201.171 109.013 201.007 108.928 200.888C108.851 200.772 108.696 200.74 108.58 200.817C108.578 200.818 108.577 200.819 108.575 200.82C108.455 200.904 108.424 201.07 108.508 201.19C108.509 201.191 108.51 201.192 108.511 201.194ZM76.8517 194.303C76.9146 194.36 77.0115 194.356 77.0691 194.294C77.1237 194.228 77.1202 194.131 77.0596 194.07C76.9966 194.013 76.8998 194.017 76.8422 194.079C76.7881 194.146 76.7917 194.242 76.8517 194.303ZM79.3547 191.548C79.4177 191.604 79.5145 191.6 79.5721 191.539C79.6262 191.473 79.6226 191.376 79.5626 191.315C79.4997 191.258 79.4028 191.262 79.3452 191.324C79.2912 191.39 79.2953 191.487 79.3547 191.548ZM81.8679 188.781C81.9255 188.835 82.0164 188.834 82.0716 188.777C82.0734 188.775 82.074 188.774 82.0746 188.773C82.1346 188.716 82.1369 188.621 82.0793 188.562C82.0746 188.558 82.0698 188.553 82.0651 188.549C82.0075 188.494 81.9166 188.495 81.8613 188.553C81.8596 188.555 81.859 188.555 81.8572 188.557C81.7972 188.615 81.7966 188.71 81.8542 188.77C81.859 188.774 81.8625 188.777 81.8679 188.781ZM84.3709 186.025C84.4285 186.079 84.5194 186.078 84.5746 186.021C84.5764 186.019 84.577 186.018 84.5776 186.016C84.64 185.954 84.6406 185.854 84.5788 185.791C84.5158 185.735 84.4196 185.74 84.3614 185.801C84.3068 185.867 84.3109 185.963 84.3709 186.025ZM91.2819 199.769C91.2872 199.852 91.3591 199.914 91.4417 199.909C91.5237 199.904 91.5872 199.832 91.5825 199.75C91.5771 199.669 91.5082 199.607 91.4274 199.609C91.3437 199.614 91.2777 199.684 91.2819 199.768C91.2813 199.768 91.2813 199.768 91.2819 199.769ZM91.1488 195.996C91.1554 196.082 91.2284 196.146 91.3146 196.144C91.3989 196.139 91.4643 196.068 91.4601 195.984C91.4619 195.904 91.3977 195.836 91.3169 195.834C91.3128 195.834 91.3092 195.834 91.3051 195.834C91.2189 195.835 91.1483 195.905 91.1488 195.991V195.996ZM91.0265 192.222C91.0277 192.305 91.0942 192.372 91.1774 192.371C91.2605 192.37 91.3276 192.303 91.327 192.221C91.327 192.218 91.327 192.214 91.327 192.212C91.3288 192.132 91.2647 192.064 91.1839 192.062C91.1797 192.062 91.1762 192.062 91.172 192.062C91.0871 192.066 91.0223 192.138 91.0265 192.222ZM90.9029 188.448L90.9083 188.49C90.932 188.553 90.9914 188.595 91.0586 188.597C91.1429 188.593 91.2083 188.522 91.2041 188.438C91.2011 188.373 91.1613 188.316 91.1013 188.292L91.0906 188.294C91.0782 188.287 91.0627 188.285 91.0485 188.289C90.9671 188.29 90.9012 188.357 90.9029 188.438V188.448ZM73.8788 186.608C73.9133 186.683 74.0006 186.718 74.0772 186.687C74.1526 186.645 74.1859 186.553 74.152 186.473C74.1223 186.398 74.0386 186.36 73.9631 186.389C73.9602 186.391 73.9566 186.392 73.9536 186.394C73.8782 186.436 73.8455 186.528 73.8788 186.608ZM77.2194 185.04C77.252 185.117 77.3411 185.153 77.4177 185.12C77.4944 185.087 77.5306 184.999 77.4973 184.922C77.4962 184.92 77.4956 184.917 77.4944 184.916C77.4706 184.843 77.3922 184.803 77.3186 184.827C77.3108 184.83 77.3037 184.833 77.2966 184.837C77.2188 184.872 77.1843 184.963 77.2194 185.04C77.2194 185.04 77.2194 185.04 77.2194 185.04ZM84.1535 196.638C84.2325 196.662 84.3175 196.622 84.3495 196.546C84.381 196.467 84.343 196.378 84.2646 196.346C84.2628 196.345 84.2616 196.345 84.2604 196.344C84.188 196.313 84.1024 196.346 84.0709 196.419C84.0686 196.424 84.0662 196.431 84.0644 196.437C84.0353 196.517 84.0745 196.606 84.1535 196.638ZM85.4478 193.102C85.5292 193.13 85.6189 193.086 85.6468 193.005C85.6741 192.925 85.6331 192.838 85.5541 192.809C85.4828 192.774 85.3961 192.806 85.3623 192.877C85.3599 192.881 85.3581 192.886 85.3569 192.891C85.3225 192.972 85.3611 193.066 85.4419 193.1C85.4442 193.1 85.4466 193.1 85.4478 193.102ZM86.7308 189.555C86.8033 189.587 86.8894 189.554 86.9203 189.481C86.9227 189.476 86.925 189.469 86.9268 189.463C86.9553 189.383 86.9161 189.295 86.8377 189.262C86.7587 189.238 86.6738 189.278 86.6417 189.355C86.6102 189.434 86.6482 189.523 86.7266 189.554C86.7278 189.555 86.729 189.555 86.7308 189.555ZM98.1186 196.171C98.1483 196.246 98.2333 196.283 98.3081 196.254C98.3111 196.253 98.3147 196.252 98.317 196.25C98.3943 196.215 98.4293 196.124 98.3937 196.047C98.3937 196.047 98.3937 196.047 98.3937 196.045C98.3699 195.973 98.2915 195.933 98.2178 195.957C98.2101 195.959 98.203 195.962 98.1959 195.966C98.118 196.002 98.0836 196.094 98.1186 196.171ZM96.5945 192.736C96.6301 192.815 96.7234 192.849 96.8012 192.814C96.8024 192.814 96.8024 192.814 96.8024 192.812C96.876 192.774 96.9051 192.684 96.8683 192.61C96.8445 192.538 96.7661 192.498 96.6925 192.522C96.6848 192.524 96.6776 192.527 96.6705 192.531C96.5933 192.567 96.5588 192.658 96.5945 192.736ZM68.1528 182.132C68.173 182.224 68.2651 182.283 68.3571 182.263H68.3583C68.4522 182.239 68.5134 182.146 68.4967 182.05C68.4753 181.956 68.3797 181.898 68.2859 181.919C68.2841 181.919 68.2829 181.92 68.2811 181.92C68.1884 181.941 68.1308 182.033 68.1516 182.125C68.1516 182.128 68.1522 182.13 68.1528 182.132ZM74.231 198.05C74.3059 198.101 74.4068 198.081 74.4567 198.006C74.4591 198.003 74.4609 197.999 74.4633 197.995C74.5173 197.914 74.4959 197.804 74.4146 197.749C74.4128 197.748 74.4104 197.747 74.4092 197.746C74.3344 197.696 74.2334 197.716 74.1835 197.791C74.1811 197.794 74.1794 197.797 74.177 197.801C74.1265 197.886 74.1502 197.994 74.231 198.05ZM76.4816 194.42C76.563 194.472 76.6717 194.448 76.7228 194.366C76.7228 194.365 76.724 194.365 76.724 194.364C76.7745 194.28 76.7501 194.171 76.6699 194.115C76.5951 194.064 76.4941 194.085 76.4442 194.16C76.4418 194.162 76.4401 194.166 76.4377 194.17C76.3801 194.249 76.3967 194.36 76.4757 194.417C76.4781 194.418 76.4804 194.42 76.4816 194.42ZM78.7423 190.789C78.816 190.832 78.9092 190.819 78.9669 190.758C78.9758 190.746 78.9859 190.744 78.9847 190.734C79.0352 190.65 79.012 190.54 78.9306 190.484C78.8492 190.433 78.7405 190.457 78.6895 190.538C78.6895 190.54 78.6883 190.54 78.6883 190.54C78.6378 190.625 78.6621 190.733 78.7423 190.789ZM81.0036 187.157C81.085 187.209 81.1937 187.185 81.2448 187.103C81.2448 187.102 81.246 187.102 81.246 187.102C81.2965 187.017 81.2721 186.908 81.1919 186.852C81.1426 186.817 81.0767 186.814 81.0238 186.844C81.003 186.847 80.9941 186.859 80.9846 186.861L80.9496 186.909C80.8985 186.992 80.9217 187.102 81.0036 187.157ZM91.526 201.125C91.5385 201.213 91.6199 201.274 91.7084 201.261C91.7161 201.26 91.7232 201.259 91.7304 201.257C91.823 201.232 91.88 201.139 91.8581 201.045C91.8349 200.953 91.7458 200.891 91.6514 200.903C91.5575 200.931 91.5005 201.03 91.526 201.125ZM90.6166 196.918C90.638 197.012 90.7331 197.071 90.8275 197.049C90.8293 197.049 90.8305 197.048 90.8323 197.048C90.9249 197.023 90.9819 196.931 90.96 196.837C90.9368 196.744 90.8477 196.683 90.7533 196.695C90.6582 196.724 90.5988 196.82 90.6166 196.918ZM89.7263 192.696C89.734 192.785 89.8136 192.852 89.9033 192.843C89.9128 192.842 89.9223 192.841 89.9318 192.838C90.0244 192.813 90.0815 192.72 90.0595 192.626C90.0363 192.534 89.9472 192.473 89.8528 192.484C89.7613 192.51 89.7049 192.603 89.7263 192.696ZM88.8258 188.486C88.8335 188.575 88.9131 188.641 89.0028 188.633C89.0123 188.632 89.0218 188.631 89.0313 188.628C89.124 188.603 89.181 188.51 89.159 188.416C89.14 188.322 89.0479 188.259 88.9523 188.274C88.8614 188.3 88.8038 188.393 88.8258 188.486ZM69.4542 190.108C69.5017 190.189 69.6069 190.215 69.6871 190.167C69.6918 190.165 69.696 190.162 69.6995 190.158C69.7738 190.096 69.7904 189.989 69.7387 189.906C69.6871 189.829 69.5819 189.808 69.5041 189.859C69.5011 189.861 69.497 189.864 69.4934 189.866C69.4198 189.924 69.402 190.029 69.4542 190.108ZM72.894 187.648C72.9451 187.724 73.0484 187.744 73.125 187.693C73.1268 187.691 73.128 187.691 73.1292 187.69C73.2129 187.634 73.2361 187.521 73.1797 187.438C73.1797 187.437 73.1785 187.437 73.1785 187.436C73.1227 187.357 73.0128 187.34 72.9344 187.395L72.9332 187.396C72.856 187.457 72.8393 187.567 72.894 187.648ZM76.3314 185.177C76.3759 185.252 76.4739 185.276 76.5488 185.231C76.5553 185.227 76.5606 185.223 76.5666 185.219C76.6468 185.168 76.6711 185.061 76.62 184.98C76.6188 184.979 76.6182 184.977 76.6171 184.976C76.5624 184.897 76.4531 184.874 76.3712 184.925C76.2963 184.988 76.2797 185.096 76.3314 185.177ZM82.9412 199.156C82.9614 199.171 82.984 199.182 83.0083 199.19C83.101 199.206 83.1895 199.144 83.2067 199.052C83.2079 199.049 83.2079 199.046 83.2085 199.043C83.2233 198.951 83.1669 198.862 83.0766 198.837L83.0659 198.839C82.9733 198.822 82.8848 198.884 82.8675 198.977C82.8664 198.979 82.8664 198.982 82.8658 198.985C82.8527 199.052 82.8818 199.12 82.9412 199.156ZM83.6053 194.735C83.5845 194.828 83.6433 194.92 83.7371 194.941C83.8316 194.958 83.9248 194.898 83.948 194.805C83.9617 194.708 83.9005 194.615 83.8043 194.59C83.7098 194.574 83.6207 194.639 83.6053 194.735C83.6053 194.735 83.6053 194.735 83.6053 194.735ZM84.3371 190.496C84.3186 190.591 84.381 190.682 84.476 190.7C84.4772 190.7 84.4784 190.701 84.479 190.701C84.5717 190.718 84.6602 190.656 84.6774 190.563C84.6786 190.561 84.6786 190.558 84.6792 190.556C84.6976 190.461 84.6352 190.369 84.5402 190.352C84.539 190.352 84.5378 190.352 84.5372 190.351C84.4446 190.334 84.3561 190.396 84.3388 190.489C84.3382 190.49 84.3382 190.493 84.3371 190.496ZM85.0671 186.247C85.051 186.343 85.114 186.434 85.2096 186.452C85.2957 186.474 85.3837 186.423 85.4062 186.337C85.408 186.33 85.4092 186.323 85.4104 186.316C85.4312 186.223 85.3724 186.131 85.2785 186.11C85.1841 186.089 85.0896 186.148 85.0688 186.243C85.0677 186.244 85.0671 186.246 85.0671 186.247ZM98.5873 195.708C98.6384 195.786 98.7441 195.807 98.8213 195.756C98.8255 195.753 98.8285 195.751 98.832 195.748C98.9075 195.691 98.9253 195.585 98.873 195.507C98.829 195.429 98.7299 195.4 98.6526 195.444C98.6473 195.447 98.6419 195.451 98.6378 195.454C98.5558 195.513 98.5338 195.624 98.5873 195.708ZM96.1959 192.171C96.2405 192.246 96.3385 192.27 96.4133 192.225C96.4199 192.221 96.4252 192.217 96.4311 192.213C96.5113 192.162 96.5357 192.056 96.4846 191.975C96.4834 191.973 96.4828 191.972 96.4816 191.97C96.4288 191.889 96.3201 191.865 96.2393 191.917C96.2381 191.918 96.2369 191.918 96.2363 191.919C96.1561 191.979 96.1377 192.091 96.1959 192.171ZM93.7927 188.637C93.842 188.714 93.9453 188.737 94.0225 188.688C94.0273 188.685 94.0332 188.68 94.0374 188.677C94.1128 188.62 94.1306 188.514 94.0784 188.436C94.0309 188.356 93.9257 188.329 93.8455 188.377C93.8408 188.379 93.8366 188.382 93.8331 188.386C93.7582 188.447 93.741 188.555 93.7927 188.637ZM67.9835 187.918C68.0738 188.047 68.252 188.079 68.3809 187.988C68.3862 187.984 68.3916 187.98 68.3969 187.977C68.5335 187.877 68.5638 187.686 68.4646 187.549C68.3714 187.416 68.1867 187.383 68.0536 187.476C68.0518 187.478 68.0512 187.478 68.0495 187.479C67.9182 187.587 67.8891 187.777 67.9835 187.918ZM73.7909 183.558C73.88 183.69 74.06 183.726 74.1924 183.637C74.1972 183.634 74.2019 183.63 74.2061 183.627C74.3427 183.527 74.373 183.337 74.2732 183.2C74.1799 183.067 73.9952 183.034 73.8622 183.127C73.8604 183.128 73.8598 183.129 73.858 183.13C73.7279 183.233 73.6994 183.419 73.7909 183.558ZM76.3189 216.968C76.2981 217.134 76.4098 217.286 76.5743 217.317C76.7382 217.342 76.8909 217.229 76.9158 217.067C76.9158 217.065 76.9158 217.065 76.9158 217.065C76.939 216.899 76.8255 216.745 76.6604 216.716C76.4965 216.691 76.3438 216.803 76.3189 216.966V216.968ZM77.4397 209.664C77.41 209.828 77.5187 209.984 77.6821 210.015H77.6844C77.8448 210.042 77.9981 209.933 78.0242 209.773C78.0254 209.77 78.0254 209.766 78.026 209.762C78.0575 209.601 77.9535 209.445 77.7931 209.413C77.6316 209.382 77.4748 209.486 77.4433 209.646C77.4409 209.653 77.4403 209.659 77.4397 209.664ZM78.5505 202.363C78.5273 202.528 78.6408 202.683 78.8059 202.713C78.9698 202.738 79.1225 202.625 79.1474 202.462C79.1474 202.461 79.1474 202.461 79.1474 202.461C79.1753 202.296 79.0643 202.141 78.8991 202.113C78.8968 202.113 78.8944 202.111 78.892 202.111C78.7281 202.086 78.5754 202.199 78.5505 202.362V202.363ZM79.6707 195.059C79.6434 195.223 79.7521 195.379 79.916 195.41C80.0835 195.431 80.2374 195.314 80.2588 195.146C80.2796 194.986 80.1715 194.837 80.0123 194.807C79.8519 194.781 79.6986 194.889 79.6725 195.049C79.6713 195.052 79.6713 195.056 79.6707 195.059ZM80.7821 187.757C80.7589 187.923 80.8724 188.077 81.0375 188.105C81.1925 188.132 81.3392 188.028 81.366 187.874C81.3671 187.867 81.3677 187.861 81.3683 187.855C81.4034 187.699 81.3054 187.545 81.1497 187.509C81.1408 187.507 81.1319 187.506 81.1242 187.504C80.9603 187.479 80.8076 187.592 80.7827 187.754C80.7821 187.756 80.7821 187.756 80.7821 187.757ZM105.786 209.893C105.882 210.029 106.07 210.062 106.206 209.966C106.342 209.87 106.374 209.683 106.278 209.548C106.275 209.544 106.272 209.539 106.269 209.535C106.182 209.403 106.004 209.367 105.871 209.453C105.864 209.457 105.859 209.461 105.853 209.466C105.723 209.569 105.694 209.754 105.786 209.893ZM101.556 203.919C101.652 204.052 101.837 204.083 101.971 203.988C102.107 203.888 102.136 203.699 102.038 203.561C101.952 203.429 101.773 203.393 101.64 203.479C101.634 203.484 101.628 203.487 101.622 203.492C101.492 203.594 101.462 203.78 101.556 203.919ZM97.3263 197.945C97.4195 198.078 97.6043 198.11 97.7373 198.017C97.7391 198.016 97.7397 198.015 97.7415 198.015C97.8733 197.907 97.9018 197.718 97.8074 197.576C97.7171 197.447 97.5389 197.415 97.4094 197.506C97.4041 197.51 97.3981 197.513 97.3934 197.517C97.2574 197.617 97.2277 197.807 97.3263 197.945ZM93.0959 191.969C93.1892 192.103 93.3739 192.135 93.507 192.042C93.5087 192.041 93.5093 192.04 93.5111 192.04C93.6418 191.931 93.6703 191.743 93.577 191.601C93.4868 191.472 93.3086 191.44 93.1785 191.53C93.1731 191.535 93.1678 191.539 93.1625 191.542C93.0264 191.636 92.9926 191.822 93.087 191.958C93.09 191.962 93.0935 191.965 93.0959 191.969ZM68.268 180.359C68.2989 180.513 68.4492 180.612 68.603 180.581C68.6084 180.579 68.6149 180.578 68.6209 180.576C68.783 180.537 68.8822 180.375 68.843 180.214C68.8032 180.052 68.6417 179.952 68.4795 179.987C68.3173 180.032 68.2235 180.198 68.268 180.359ZM70.9439 196.141C71.0865 196.225 71.2718 196.18 71.3573 196.038C71.4411 195.893 71.3983 195.707 71.2587 195.613C71.1162 195.527 70.9315 195.572 70.8459 195.713C70.8459 195.713 70.8459 195.715 70.8447 195.715C70.7616 195.861 70.8049 196.046 70.9439 196.141ZM74.6866 189.824C74.8185 189.915 75.0002 189.882 75.0905 189.75C75.0947 189.744 75.0977 189.738 75.1018 189.733C75.1856 189.587 75.1428 189.402 75.0032 189.308C74.8672 189.22 74.6866 189.259 74.5993 189.394C74.5963 189.399 74.5928 189.405 74.5904 189.409C74.5055 189.551 74.5482 189.734 74.6866 189.824ZM90.4527 213.19C90.4955 213.348 90.6547 213.447 90.8162 213.416C90.9754 213.368 91.0669 213.204 91.0259 213.043C90.9956 212.886 90.8424 212.782 90.6832 212.813C90.679 212.814 90.676 212.815 90.6719 212.815C90.5091 212.859 90.4117 213.026 90.4527 213.19ZM88.7658 205.996C88.7985 206.155 88.9547 206.259 89.1151 206.227C89.2748 206.194 89.3782 206.038 89.3461 205.879C89.3443 205.872 89.3437 205.867 89.342 205.86C89.3158 205.705 89.1685 205.601 89.0129 205.627C89.0052 205.629 88.9968 205.63 88.9891 205.632C88.8299 205.667 88.7296 205.823 88.764 205.982C88.7634 205.987 88.7652 205.991 88.7658 205.996ZM87.0807 198.814C87.111 198.971 87.2642 199.075 87.4234 199.044C87.4275 199.043 87.4305 199.042 87.4347 199.042C87.5986 198.998 87.696 198.831 87.655 198.667C87.6206 198.508 87.4626 198.405 87.301 198.439C87.1383 198.483 87.0403 198.65 87.0807 198.814ZM85.3961 191.631C85.427 191.785 85.5773 191.883 85.7311 191.852C85.7365 191.851 85.743 191.85 85.749 191.848C85.9123 191.807 86.0109 191.643 85.9693 191.481C85.9301 191.324 85.7751 191.226 85.6171 191.257C85.4526 191.301 85.3545 191.467 85.3961 191.631ZM68.6292 191.318C68.7676 191.405 68.9499 191.37 69.0456 191.238C69.1317 191.094 69.0931 190.909 68.9571 190.811C68.8329 190.719 68.6595 190.743 68.5662 190.867C68.5609 190.874 68.5555 190.882 68.5514 190.89C68.4551 191.031 68.4902 191.221 68.6292 191.318ZM72.6172 185.202C72.7574 185.29 72.9427 185.25 73.0318 185.111C73.1185 184.972 73.0805 184.789 72.9451 184.695C72.8215 184.603 72.6475 184.628 72.5548 184.751C72.5495 184.759 72.5435 184.766 72.5388 184.775C72.4437 184.914 72.4788 185.105 72.6172 185.202ZM86.0964 215.566C86.1249 215.727 86.2794 215.835 86.4415 215.807C86.6019 215.771 86.7059 215.614 86.6744 215.452C86.6494 215.288 86.495 215.176 86.3316 215.201C86.3305 215.201 86.3293 215.201 86.3287 215.202C86.1647 215.239 86.0614 215.401 86.0964 215.566ZM84.7083 208.341C84.7386 208.503 84.896 208.611 85.0593 208.581C85.0611 208.581 85.0623 208.58 85.0641 208.58C85.2304 208.54 85.3332 208.374 85.2934 208.208C85.2559 208.051 85.1015 207.949 84.9411 207.976C84.7778 208.018 84.6762 208.177 84.7083 208.341ZM83.319 201.116C83.3493 201.279 83.5067 201.386 83.67 201.356C83.6718 201.356 83.673 201.355 83.6742 201.355C83.8345 201.319 83.9385 201.162 83.907 201C83.8785 200.839 83.7241 200.732 83.5619 200.76C83.4003 200.796 83.2934 200.952 83.319 201.116ZM81.9403 193.89C81.9617 194.046 82.1061 194.155 82.2623 194.135C82.27 194.133 82.2771 194.132 82.2854 194.13C82.4458 194.095 82.5498 193.938 82.5183 193.776C82.4933 193.617 82.3442 193.509 82.1851 193.534C82.1809 193.535 82.1773 193.536 82.1732 193.536C82.011 193.569 81.9065 193.727 81.9391 193.889C81.9403 193.888 81.9403 193.889 81.9403 193.89ZM80.5516 186.666C80.5765 186.824 80.7256 186.932 80.8848 186.907C80.889 186.906 80.8925 186.906 80.8961 186.905C80.9288 186.9 80.9597 186.884 80.9834 186.86C80.9941 186.859 81.0024 186.847 81.0226 186.844C81.1533 186.739 81.1729 186.547 81.0666 186.418C80.9989 186.335 80.8908 186.293 80.7844 186.31C80.6223 186.343 80.5177 186.5 80.5504 186.663C80.5516 186.664 80.5516 186.664 80.5516 186.666ZM72.6059 204.237C72.5732 204.4 72.6772 204.557 72.8405 204.59C73.0039 204.623 73.1619 204.519 73.1951 204.356C73.2266 204.191 73.1227 204.031 72.9587 203.994C72.7954 203.966 72.6386 204.074 72.6059 204.237ZM74.0184 197.01C73.9827 197.173 74.0855 197.336 74.25 197.371C74.2518 197.371 74.253 197.372 74.2548 197.372C74.4164 197.4 74.5696 197.292 74.5975 197.131C74.6272 196.967 74.5233 196.809 74.3611 196.769C74.2019 196.739 74.0493 196.844 74.0196 197.004C74.0196 197.005 74.0184 197.007 74.0184 197.01ZM75.422 189.794C75.3905 189.956 75.4944 190.113 75.6566 190.146C75.8146 190.182 75.972 190.083 76.0082 189.925C76.0094 189.921 76.01 189.917 76.0106 189.914C76.0421 189.748 75.9381 189.589 75.7742 189.551C75.6097 189.522 75.4523 189.63 75.422 189.794ZM98.1697 206.457C98.26 206.593 98.4436 206.631 98.5802 206.541C98.5825 206.539 98.5843 206.539 98.5867 206.537C98.7209 206.441 98.756 206.256 98.6657 206.119C98.5879 205.983 98.4139 205.936 98.2784 206.013C98.2713 206.018 98.2648 206.021 98.2576 206.026C98.1151 206.122 98.0759 206.313 98.1697 206.457ZM94.1995 200.328C94.2898 200.464 94.4734 200.501 94.61 200.411C94.6124 200.41 94.6141 200.409 94.6165 200.407C94.7508 200.312 94.7858 200.127 94.6955 199.989C94.6177 199.854 94.4437 199.807 94.3082 199.884C94.3011 199.888 94.2946 199.892 94.2875 199.896C94.1449 199.992 94.1063 200.185 94.1995 200.328ZM90.23 194.199C90.3202 194.335 90.5038 194.372 90.6404 194.282C90.6428 194.281 90.6446 194.28 90.6469 194.278C90.7812 194.183 90.8162 193.998 90.7259 193.86C90.6416 193.724 90.4616 193.68 90.3244 193.765C90.322 193.766 90.3202 193.767 90.3179 193.769C90.1747 193.864 90.1361 194.056 90.23 194.199ZM86.2604 188.069C86.353 188.206 86.5389 188.242 86.6768 188.149L86.6779 188.148C86.8122 188.053 86.8472 187.868 86.7569 187.73C86.6678 187.595 86.4879 187.554 86.3489 187.639C86.2069 187.736 86.1683 187.926 86.2604 188.069ZM69.6651 187.797C69.7821 187.844 69.914 187.786 69.9603 187.67C70.0054 187.552 69.9514 187.419 69.8362 187.367C69.7257 187.321 69.5997 187.375 69.5546 187.484C69.5534 187.487 69.5522 187.489 69.5516 187.493C69.5029 187.608 69.5528 187.74 69.6651 187.797ZM71.6781 182.637C71.7886 182.682 71.9145 182.629 71.9596 182.519C71.9608 182.517 71.962 182.514 71.9626 182.511C72.0119 182.393 71.9561 182.258 71.8385 182.207C71.7286 182.163 71.6044 182.218 71.5605 182.326C71.5581 182.332 71.5563 182.338 71.5551 182.343C71.5064 182.455 71.5575 182.584 71.6704 182.633C71.6727 182.635 71.6751 182.636 71.6781 182.637ZM86.2503 202.852C86.2942 202.964 86.4213 203.02 86.5336 202.976C86.5384 202.974 86.5431 202.972 86.5473 202.97C86.6577 202.917 86.7088 202.789 86.6643 202.676C86.6263 202.566 86.5051 202.508 86.3946 202.546C86.3851 202.549 86.3762 202.553 86.3673 202.558C86.2556 202.61 86.2045 202.739 86.2503 202.852ZM84.1274 197.756C84.1767 197.87 84.3097 197.923 84.4244 197.874C84.5372 197.819 84.5877 197.685 84.5396 197.569C84.4956 197.456 84.3685 197.4 84.2563 197.444C84.2515 197.446 84.2468 197.449 84.2426 197.45C84.1286 197.506 84.0787 197.64 84.1274 197.756ZM82.0027 192.649C82.052 192.763 82.1851 192.816 82.2997 192.768C82.4126 192.712 82.463 192.578 82.4149 192.462C82.3656 192.348 82.2326 192.295 82.1179 192.343C82.0051 192.4 81.954 192.533 82.0027 192.649ZM79.878 187.543C79.919 187.653 80.042 187.709 80.1519 187.668C80.1566 187.667 80.1608 187.665 80.1655 187.663C80.2855 187.62 80.3467 187.488 80.3045 187.369C80.2617 187.25 80.1293 187.188 80.0099 187.23C79.8899 187.273 79.8287 187.405 79.8709 187.524C79.8727 187.53 79.8751 187.536 79.878 187.543ZM67.4103 182.419C67.4519 182.35 67.4525 182.263 67.4115 182.194C67.4062 182.269 67.4056 182.345 67.4103 182.419ZM74.803 202.297C74.8054 202.421 74.907 202.521 75.0317 202.521C75.1541 202.511 75.2491 202.409 75.2497 202.286C75.2497 202.162 75.1493 202.062 75.0246 202.062C75.0234 202.062 75.0228 202.062 75.0222 202.062C74.9004 202.062 74.8036 202.16 74.8036 202.281C74.8018 202.285 74.8018 202.291 74.803 202.297ZM74.7318 196.736C74.7347 196.862 74.8345 196.965 74.961 196.972C75.0858 196.967 75.1838 196.863 75.179 196.738C75.179 196.737 75.179 196.737 75.179 196.736C75.1838 196.616 75.0899 196.515 74.9699 196.51C74.9676 196.51 74.9646 196.51 74.9622 196.51C74.8375 196.508 74.7347 196.607 74.7324 196.732C74.7318 196.734 74.7318 196.736 74.7318 196.736ZM74.6724 191.187C74.6712 191.31 74.7704 191.41 74.8945 191.412C75.0187 191.413 75.119 191.314 75.1202 191.19C75.1202 191.189 75.1202 191.188 75.1202 191.187C75.1173 191.061 75.0175 190.958 74.8909 190.952C74.7662 190.956 74.6682 191.06 74.673 191.185C74.6724 191.185 74.6724 191.186 74.6724 191.187ZM74.6029 185.638C74.6029 185.762 74.7032 185.863 74.828 185.863H74.8304C74.9521 185.863 75.0489 185.765 75.0489 185.643C75.0489 185.638 75.0489 185.633 75.0478 185.627C75.0501 185.504 74.9533 185.403 74.8304 185.401C74.8304 185.401 74.8304 185.401 74.8292 185.401C74.705 185.408 74.6046 185.511 74.6029 185.638ZM93.9239 194.252C94.0035 194.337 94.139 194.342 94.2239 194.262C94.2281 194.258 94.2316 194.255 94.2358 194.25C94.3267 194.161 94.3284 194.015 94.2387 193.924C94.237 193.923 94.2346 193.92 94.2334 193.919C94.1514 193.836 94.0178 193.836 93.9352 193.918C93.9311 193.922 93.9275 193.927 93.9233 193.93C93.8342 194.019 93.8348 194.163 93.9239 194.252ZM90.0595 190.378C90.1486 190.462 90.2905 190.459 90.3749 190.37C90.3767 190.368 90.379 190.366 90.3802 190.364C90.4634 190.272 90.4622 190.133 90.3785 190.043C90.2876 189.959 90.1456 189.959 90.0553 190.046C89.9745 190.142 89.9751 190.284 90.0595 190.378ZM86.2045 186.492C86.2841 186.577 86.4196 186.582 86.5045 186.503C86.5087 186.499 86.5122 186.495 86.5164 186.491C86.5995 186.399 86.5983 186.26 86.5146 186.17C86.435 186.082 86.2984 186.076 86.2099 186.156C86.2034 186.161 86.198 186.167 86.1921 186.174C86.1071 186.265 86.1125 186.407 86.2045 186.492ZM73.447 190.054C73.4559 190.122 73.5177 190.17 73.5872 190.162C73.6566 190.145 73.7018 190.078 73.6905 190.008C73.6721 189.944 73.6091 189.902 73.542 189.912C73.479 189.928 73.4375 189.989 73.447 190.054ZM72.9421 187.073C72.9516 187.137 73.0104 187.181 73.0757 187.172C73.0775 187.172 73.0787 187.171 73.0805 187.171C73.1429 187.162 73.1874 187.105 73.1785 187.043C73.1773 187.039 73.1767 187.034 73.1755 187.029C73.1708 186.963 73.1126 186.914 73.0466 186.919C73.0425 186.919 73.0395 186.92 73.0353 186.92C72.9706 186.942 72.9314 187.006 72.9421 187.073ZM72.4348 184.082C72.4396 184.148 72.4978 184.198 72.5637 184.192C72.5667 184.192 72.5708 184.191 72.5744 184.19C72.6415 184.173 72.6831 184.105 72.6683 184.038C72.6588 183.974 72.5988 183.93 72.5346 183.939C72.5328 183.939 72.5316 183.94 72.5299 183.94C72.4645 183.952 72.4218 184.015 72.4342 184.081C72.4348 184.081 72.4348 184.082 72.4348 184.082ZM67.9912 185.271C67.9776 185.337 68.0186 185.402 68.0839 185.419C68.1522 185.431 68.2193 185.389 68.2371 185.322C68.2508 185.256 68.2098 185.191 68.1445 185.175C68.0774 185.165 68.0126 185.206 67.9912 185.271ZM68.6345 182.309C68.6209 182.375 68.6618 182.44 68.7272 182.457C68.7907 182.476 68.8585 182.439 68.8775 182.375C68.8792 182.37 68.8798 182.364 68.8804 182.36C68.8941 182.294 68.8531 182.23 68.7878 182.213C68.7201 182.203 68.6559 182.244 68.6345 182.309ZM78.4988 186.421C78.5303 186.477 78.601 186.496 78.6568 186.465C78.6586 186.464 78.6592 186.464 78.661 186.463C78.7192 186.424 78.7364 186.346 78.699 186.287C78.6687 186.232 78.6004 186.211 78.5439 186.241C78.5416 186.243 78.5392 186.244 78.5368 186.246C78.4786 186.284 78.4614 186.362 78.4988 186.421ZM76.9146 183.863C76.9491 183.921 77.0245 183.94 77.0816 183.905C77.0833 183.904 77.0845 183.903 77.0863 183.902C77.1404 183.861 77.1564 183.786 77.1243 183.726C77.0875 183.667 77.0091 183.649 76.9509 183.687C76.8921 183.724 76.8743 183.801 76.9117 183.86C76.9129 183.86 76.9135 183.861 76.9146 183.863ZM76.8968 194.951C76.955 195.042 77.0768 195.07 77.1683 195.012C77.1707 195.01 77.173 195.009 77.1748 195.007C77.2657 194.951 77.2948 194.833 77.2384 194.742C77.236 194.738 77.2336 194.735 77.2312 194.732C77.1849 194.641 77.0726 194.604 76.9824 194.651C76.9752 194.654 76.9687 194.66 76.9622 194.663C76.8648 194.722 76.8345 194.849 76.8939 194.946C76.8945 194.947 76.8956 194.948 76.8968 194.951ZM74.3041 190.693C74.3504 190.784 74.4627 190.82 74.553 190.773C74.5601 190.77 74.5666 190.765 74.5732 190.761C74.67 190.702 74.7009 190.576 74.6415 190.479C74.6403 190.477 74.6391 190.476 74.6385 190.473C74.5821 190.378 74.4579 190.347 74.3635 190.403C74.3617 190.404 74.3611 190.405 74.3593 190.405C74.2655 190.468 74.2393 190.595 74.3029 190.689C74.3023 190.691 74.3035 190.691 74.3041 190.693ZM71.7013 186.447C71.7601 186.541 71.8848 186.572 71.9804 186.514C72.0778 186.453 72.1075 186.324 72.0458 186.227C71.9893 186.131 71.8652 186.1 71.7708 186.157C71.769 186.158 71.7684 186.158 71.7666 186.159C71.6739 186.223 71.6448 186.348 71.7013 186.447ZM69.1103 182.199C69.1727 182.29 69.2933 182.319 69.3895 182.266C69.481 182.201 69.5095 182.077 69.4548 181.979C69.4025 181.885 69.282 181.851 69.1881 181.904C69.1834 181.906 69.1792 181.909 69.1756 181.912C69.0794 181.975 69.0521 182.102 69.1103 182.199ZM82.4155 186.121C82.5005 186.186 82.624 186.17 82.6893 186.084C82.6935 186.079 82.6965 186.075 82.7 186.069C82.763 185.978 82.7416 185.852 82.6513 185.788C82.5682 185.722 82.447 185.736 82.3817 185.819C82.3793 185.821 82.3775 185.824 82.3763 185.826C82.3098 185.92 82.3276 186.048 82.4155 186.121Z" fill="white"/>
<path d="M137.813 114.267L95.199 187.111C79.5618 186.15 49.2366 171.028 49.2366 171.028C45.8646 152.743 58.2889 145.909 67.7445 139.948C77.2002 133.988 77.5262 126.608 94.3098 116.969C104.914 110.989 116.212 106.329 127.954 103.089C131.95 115.408 137.813 114.267 137.813 114.267Z" fill="url(#paint7_linear_38_58)"/>
<path d="M150.58 194.576C150.58 194.576 159.451 200.725 166.653 203.088C173.855 205.451 174.408 204.871 177.132 201.75C179.609 198.794 181.811 195.621 183.71 192.267C184.513 190.711 186.963 190.643 186.441 194.673C185.918 198.702 180.564 201.009 182.776 203.066C184.988 205.124 192.688 205.536 198.446 205.216C204.204 204.895 207.344 204.909 202.337 212.209C197.33 219.51 191.264 223.814 175.077 216.938C158.891 210.063 147.46 211.282 141.775 211.839L150.58 194.576Z" fill="url(#paint8_linear_38_58)"/>
<path d="M137.503 114.305C137.503 114.305 130.778 136.068 130.986 150.79C131.194 165.513 133.878 168.033 145.464 172.325C157.051 176.617 159.724 176.797 159.724 176.797L147.546 223.356C147.546 223.356 134.869 225.5 125.852 215.158C116.836 204.816 113.303 202.153 106.986 199.713C100.669 197.273 87.9793 188.106 92.4157 166.096C96.8522 144.087 105.982 124.585 127.956 103.089" fill="#3DB59E"/>
<path d="M145.692 100.193C145.692 100.193 138.732 107.636 137.811 114.265C137.811 114.265 131.95 115.407 127.957 103.089C130.886 100.586 133.461 97.6999 135.613 94.5078L145.692 100.193Z" fill="url(#paint9_linear_38_58)"/>
<path d="M164.408 94.8572C165.144 98.401 165.974 100.783 160.04 100.424C160.04 100.424 148.395 113.884 135.384 98.2655C135.384 98.2655 135.129 97.899 134.73 97.2623C135.541 97.9097 136.488 98.3671 137.501 98.6006C137.501 98.6006 140.312 94.8251 137.604 92.4039C134.897 89.9828 133.076 86.55 136.231 84.272C139.393 81.9941 139.872 86.2869 143.355 85.785C146.846 85.2836 150.894 81.0062 150.894 81.0062C153.612 83.0858 156.683 84.6611 159.959 85.6573C161.543 86.3 163.22 86.6813 164.927 86.7882L164.975 86.8839C164.976 86.8845 163.681 91.3127 164.408 94.8572Z" fill="#FFBEB6"/>
<path d="M181.19 75.1577C179.396 80.5322 174.926 84.5886 169.391 85.8634C173.783 84.5667 178.15 80.9242 181.462 72.9795L126.462 65.858C126.462 65.858 123.2 74.3338 125.518 83.2016C127.836 92.0695 134.572 98.1758 137.502 98.6023C137.502 98.6023 140.311 94.8251 137.604 92.4027C134.898 89.9804 133.071 86.5488 136.229 84.2732C139.388 81.9976 139.87 86.2893 143.356 85.785C146.841 85.2806 150.897 81.0062 150.897 81.0062C153.615 83.0858 156.686 84.6617 159.961 85.659C168.379 89.0662 178.397 84.8743 181.766 75.3151C181.895 74.9527 181.317 74.7965 181.19 75.1577Z" fill="black"/>
<path d="M169.48 94.9289C170.843 92.9496 170.923 90.2689 169.662 88.949V88.9479C168.398 87.6315 166.26 88.1697 164.896 90.1489C164.738 90.3794 164.596 90.6206 164.472 90.87C163.557 90.3461 162.444 90.2933 161.484 90.7293C161.499 90.5867 161.527 90.4441 161.531 90.3016C161.635 89.1356 161.262 87.9767 160.497 87.0886C159.035 85.565 156.559 86.1935 154.977 88.4881C154.22 89.5846 153.786 90.8712 153.725 92.2012C153.662 93.1338 153.877 94.0652 154.344 94.876C154.463 95.0696 154.602 95.2496 154.759 95.4142C155.461 96.1578 156.525 96.4406 157.505 96.143C158.654 95.783 159.635 95.0286 160.278 94.0153C160.804 93.2437 161.176 92.3764 161.37 91.4634C162.265 91.1457 163.379 90.8588 164.208 91.4753C164.188 91.5288 164.174 91.5828 164.156 91.6369C164.161 91.6999 164.151 91.7628 164.126 91.821C164.123 91.8276 164.121 91.8335 164.118 91.84C164.117 91.8478 164.12 91.8537 164.119 91.8614C163.976 92.7037 163.985 93.5632 164.146 94.402C164.233 94.7613 164.345 95.1106 164.457 95.4605C164.488 95.5383 164.508 95.6238 164.535 95.704C164.57 95.8157 164.606 95.9262 164.64 96.0384C164.665 96.0687 164.684 96.1026 164.711 96.1311C165.978 97.4462 168.116 96.9075 169.48 94.9289ZM159.863 93.5799C159.293 94.4822 158.422 95.1546 157.404 95.4771C156.593 95.7296 155.709 95.5021 155.122 94.8897C154.49 94.1489 154.185 93.1855 154.276 92.2172C154.332 91.037 154.719 89.8959 155.393 88.9229C156.776 86.9158 158.903 86.3289 160.134 87.6137C160.261 87.7462 160.373 87.8917 160.469 88.0467C160.857 88.7257 161.035 89.505 160.98 90.2855C160.924 91.4664 160.537 92.6075 159.863 93.5799ZM165.075 95.6048C164.039 94.5231 164.147 92.2749 165.312 90.5855C166.476 88.8956 168.265 88.3966 169.299 89.4741C170.337 90.5546 170.227 92.8059 169.063 94.494C167.899 96.184 166.11 96.6823 165.075 95.6048Z" fill="#3E8AF8"/>
</g>
<defs>
<linearGradient id="paint0_linear_38_58" x1="317.417" y1="76.2463" x2="324.665" y2="76.2463" gradientUnits="userSpaceOnUse">
<stop stop-color="#23286B"/>
<stop offset="1" stop-color="#151A4F"/>
</linearGradient>
<linearGradient id="paint1_linear_38_58" x1="299.55" y1="33.5593" x2="354.422" y2="47.431" gradientUnits="userSpaceOnUse">
<stop stop-color="#23286B"/>
<stop offset="1" stop-color="#151A4F"/>
</linearGradient>
<linearGradient id="paint2_linear_38_58" x1="139.159" y1="128.611" x2="116.668" y2="184.963" gradientUnits="userSpaceOnUse">
<stop stop-color="#23286B"/>
<stop offset="0.285" stop-color="#1F2463"/>
<stop offset="1" stop-color="#151A4F"/>
</linearGradient>
<linearGradient id="paint3_linear_38_58" x1="154.062" y1="141.821" x2="190.335" y2="149.389" gradientUnits="userSpaceOnUse">
<stop stop-color="#FFBEB6"/>
<stop offset="1" stop-color="#F2A19C"/>
</linearGradient>
<linearGradient id="paint4_linear_38_58" x1="129.698" y1="365.222" x2="225.933" y2="403.982" gradientUnits="userSpaceOnUse">
<stop stop-color="#23286B"/>
<stop offset="0.6454" stop-color="#1A1F59"/>
<stop offset="1" stop-color="#151A4F"/>
</linearGradient>
<linearGradient id="paint5_linear_38_58" x1="48.9981" y1="371.609" x2="158.783" y2="394.896" gradientUnits="userSpaceOnUse">
<stop stop-color="#23286B"/>
<stop offset="0.6454" stop-color="#1A1F59"/>
<stop offset="1" stop-color="#151A4F"/>
</linearGradient>
<linearGradient id="paint6_linear_38_58" x1="53.8184" y1="265.236" x2="121.65" y2="265.236" gradientUnits="userSpaceOnUse">
<stop offset="0.1291" stop-color="#F15A22"/>
<stop offset="0.9987" stop-color="#C2400F"/>
</linearGradient>
<linearGradient id="paint7_linear_38_58" x1="86.7493" y1="118.181" x2="113.395" y2="214.4" gradientUnits="userSpaceOnUse">
<stop stop-color="#24947B"/>
<stop offset="1" stop-color="#151A4F"/>
</linearGradient>
<linearGradient id="paint8_linear_38_58" x1="170.788" y1="203.037" x2="239.987" y2="217.082" gradientUnits="userSpaceOnUse">
<stop stop-color="#FFBEB6"/>
<stop offset="0.5136" stop-color="#F8AFA9"/>
<stop offset="1" stop-color="#F2A19C"/>
</linearGradient>
<linearGradient id="paint9_linear_38_58" x1="113.571" y1="131.015" x2="142.444" y2="97.6219" gradientUnits="userSpaceOnUse">
<stop stop-color="#FFBEB6"/>
<stop offset="1" stop-color="#F2A19C"/>
</linearGradient>
<clipPath id="clip0_38_58">
<rect width="227.813" height="227.813" fill="white" transform="translate(328.615 124.523) rotate(22.9735)"/>
</clipPath>
<clipPath id="clip1_38_58">
<rect width="106.15" height="272.601" fill="white" transform="translate(275.978 7.22473)"/>
</clipPath>
<clipPath id="clip2_38_58">
<rect width="191.738" height="123.935" fill="white" transform="translate(176.774 128.658)"/>
</clipPath>
<clipPath id="clip3_38_58">
<rect width="72.8047" height="70.0259" fill="white" transform="translate(113.419 105.039)"/>
</clipPath>
<clipPath id="clip4_38_58">
<rect width="159.781" height="323.731" fill="white" transform="translate(48.6713 65.8578)"/>
</clipPath>
</defs>
</svg>
