<svg width="322" height="293" viewBox="0 0 322 293" fill="none" xmlns="http://www.w3.org/2000/svg">
<rect x="-0.000732422" width="318" height="263" rx="11.1565" fill="#77E1C9"/>
<mask id="mask0_61_83" style="mask-type:alpha" maskUnits="userSpaceOnUse" x="70" y="100" width="250" height="189">
<rect width="187.839" height="248.397" rx="21.0377" transform="matrix(0.00420238 1.00001 -0.999971 0.00457766 318.811 100.041)" fill="white"/>
</mask>
<g mask="url(#mask0_61_83)">
<path d="M331.092 377.411C370.935 285.148 362.48 213.57 323.66 196.59C291.887 179.918 241.399 199 211.395 241.393C205.949 249.088 208.823 254.5 211.482 260.112C213.323 264 209.565 265 204.613 267.499L163.083 283.405C159.184 284.821 157.274 281.35 158.991 276.036L170.183 241.577C172.905 234.004 175.691 226.742 177.666 221.64C178.892 218.523 181.863 216.606 182.86 218.271L184.312 220.656C185.331 222.475 187.925 221.885 190.291 219.292C192.059 217.362 197.805 211.621 198.826 210.519C290.908 111.771 366.911 132.736 378.269 202.756C385.626 248.224 362.105 315.462 331.092 377.411Z" fill="#008D72"/>
</g>
<g clip-path="url(#clip0_61_83)">
<path d="M260.064 123.072L226.645 108.286C223.811 107.036 220.632 106.976 217.805 108.119C214.978 109.261 212.734 111.514 211.566 114.382L179.026 194.494C177.864 197.365 177.873 200.614 179.052 203.53C180.23 206.445 182.482 208.788 185.313 210.044L218.732 224.831C221.566 226.081 224.745 226.141 227.572 224.998C230.399 223.855 232.643 221.602 233.811 218.734L266.351 138.623C267.513 135.752 267.504 132.502 266.325 129.587C265.147 126.672 262.895 124.329 260.064 123.072ZM229.246 216.714C228.577 218.357 227.292 219.647 225.673 220.301C224.054 220.956 222.234 220.921 220.611 220.205L187.192 205.419C185.571 204.699 184.281 203.358 183.606 201.688C182.931 200.019 182.926 198.158 183.592 196.514L216.131 116.402C216.8 114.76 218.085 113.47 219.704 112.815C221.323 112.161 223.143 112.195 224.766 112.911L258.185 127.698C259.806 128.417 261.096 129.759 261.771 131.428C262.446 133.098 262.451 134.959 261.785 136.603L229.246 216.714Z" fill="white"/>
<path d="M246.445 127.959L232.749 121.899C232.143 121.631 231.464 121.618 230.86 121.862C230.255 122.106 229.776 122.588 229.527 123.202C229.278 123.815 229.279 124.51 229.531 125.133C229.783 125.756 230.265 126.256 230.87 126.524L244.566 132.584C245.172 132.852 245.851 132.866 246.456 132.621C247.06 132.377 247.539 131.895 247.789 131.282C248.038 130.668 248.036 129.974 247.784 129.351C247.532 128.728 247.051 128.227 246.445 127.959Z" fill="white"/>
<path d="M205.778 208.188C208.3 209.303 211.185 208.137 212.222 205.582C213.26 203.028 212.057 200.053 209.536 198.937C207.014 197.821 204.129 198.988 203.092 201.542C202.054 204.097 203.257 207.072 205.778 208.188Z" fill="white"/>
</g>
<g clip-path="url(#clip1_61_83)">
<path d="M222.073 63.2338L189.81 39.5868L163.044 63.2338C167.561 101.173 168.222 138.113 163.044 173.604H223.018C227.792 136.367 226.792 99.5822 222.073 63.2338Z" fill="#FB4B1E"/>
<path d="M190.888 98.2761C192.907 97.6649 194.236 96.3257 195.223 94.6275C196.201 92.9428 196.853 90.8835 197.512 88.805L197.516 88.7915L197.516 88.7915L197.518 88.7854C198.031 87.0266 198.664 85.3091 199.412 83.6461L199.414 83.6435C199.71 82.9657 200.159 82.3755 200.721 81.9235C201.281 81.4725 201.936 81.1724 202.629 81.048C203.14 80.974 203.66 81.036 204.143 81.2287C204.627 81.4219 205.058 81.7409 205.396 82.1575L205.396 82.1575L205.399 82.1612C209.105 86.5713 208.783 91.7116 208.42 97.2973L208.402 97.5742L208.678 97.5937L210.203 97.7007L210.483 97.7203L210.501 97.4405L210.503 97.3985C210.868 91.776 211.253 85.8343 206.972 80.7394C206.409 80.0565 205.693 79.53 204.886 79.2086C204.078 78.8871 203.207 78.7814 202.35 78.9017L202.35 78.9016L202.343 78.9028C201.306 79.0758 200.326 79.5123 199.489 80.173C198.652 80.8336 197.982 81.6981 197.538 82.6903C196.745 84.4455 196.074 86.2589 195.531 88.1162C194.906 90.0898 194.333 91.8915 193.538 93.3191C192.748 94.7388 191.755 95.7572 190.301 96.1979L190.301 96.1977L190.291 96.2011C189.724 96.3966 189.116 96.4221 188.536 96.2748C187.957 96.1276 187.425 95.8129 187.004 95.3643L187.004 95.3641L186.995 95.3552C185.734 94.1301 184.821 91.9169 184.33 89.4586C183.84 87.009 183.779 84.3715 184.176 82.3408L184.229 82.072L183.961 82.0146L182.463 81.6936L182.185 81.6341L182.131 81.9128C181.666 84.2885 181.723 87.2553 182.29 90.0126C182.856 92.7623 183.939 95.3488 185.566 96.9298C186.553 97.9386 187.875 98.511 189.258 98.5231L189.261 98.5231C189.812 98.5213 190.36 98.4381 190.888 98.2761ZM190.888 98.2761C190.888 98.2762 190.888 98.2762 190.888 98.2763L190.807 98.0093M190.888 98.2761C190.888 98.2761 190.889 98.276 190.889 98.276L190.807 98.0093M190.807 98.0093C190.305 98.1634 189.784 98.2425 189.261 98.2442L205.613 81.9818C205.246 81.5291 204.776 81.181 204.246 80.9696C203.717 80.7583 203.145 80.6906 202.585 80.7727C201.843 80.905 201.143 81.2254 200.546 81.7063C199.949 82.1871 199.472 82.8137 199.158 83.5317C198.405 85.2065 197.767 86.9362 197.25 88.7073C195.926 92.8883 194.672 96.8393 190.807 98.0093Z" fill="white" stroke="white" stroke-width="0.557823"/>
<path d="M179.617 91.2643L179.609 91.5423L179.887 91.551C181.522 91.6025 183.05 91.6239 184.497 91.6239C188.729 91.6239 192.261 91.4364 195.691 91.2543L195.841 91.2464L195.841 91.2463C200.549 90.9944 205.409 90.7356 211.959 90.9657L212.239 90.9755L212.248 90.6958L212.299 89.0908L212.308 88.813L212.03 88.8032C205.387 88.5684 200.472 88.8312 195.733 89.0854L195.733 89.0854C191.115 89.3352 186.347 89.5871 179.951 89.3885L179.671 89.3798L179.663 89.6593L179.617 91.2643Z" fill="white" stroke="white" stroke-width="0.557823"/>
<path d="M191.121 125.653C193.14 125.042 194.469 123.703 195.456 122.004C196.434 120.32 197.087 118.26 197.745 116.182L197.749 116.168L197.75 116.168L197.751 116.162C198.264 114.404 198.897 112.686 199.646 111.023L199.647 111.02C199.943 110.343 200.392 109.752 200.954 109.3C201.514 108.849 202.169 108.549 202.862 108.425C203.373 108.351 203.893 108.413 204.376 108.606C204.86 108.799 205.291 109.118 205.629 109.534L205.629 109.534L205.632 109.538C209.338 113.948 209.016 119.088 208.653 124.674L208.635 124.951L208.911 124.971L210.436 125.078L210.716 125.097L210.734 124.817L210.737 124.775C211.101 119.153 211.486 113.211 207.205 108.116C206.643 107.433 205.926 106.907 205.119 106.586C204.311 106.264 203.44 106.158 202.583 106.279L202.583 106.278L202.576 106.28C201.539 106.453 200.559 106.889 199.722 107.55C198.885 108.21 198.216 109.075 197.771 110.067C196.978 111.822 196.307 113.636 195.765 115.493C195.139 117.467 194.566 119.268 193.772 120.696C192.981 122.116 191.988 123.134 190.534 123.575L190.534 123.575L190.524 123.578C189.957 123.774 189.349 123.799 188.77 123.652C188.19 123.504 187.659 123.19 187.237 122.741L187.237 122.741L187.228 122.732C185.967 121.507 185.054 119.294 184.563 116.836C184.073 114.386 184.012 111.748 184.409 109.718L184.462 109.449L184.194 109.391L182.696 109.07L182.418 109.011L182.364 109.29C181.899 111.665 181.956 114.632 182.524 117.389C183.089 120.139 184.173 122.726 185.799 124.307C186.786 125.316 188.108 125.888 189.491 125.9L189.495 125.9C190.045 125.898 190.593 125.815 191.121 125.653ZM191.121 125.653C191.121 125.653 191.121 125.653 191.121 125.653L191.04 125.386M191.121 125.653C191.122 125.653 191.122 125.653 191.122 125.653L191.04 125.386M191.04 125.386C190.538 125.54 190.017 125.619 189.494 125.621L205.846 109.359C205.479 108.906 205.009 108.558 204.479 108.347C203.95 108.135 203.379 108.067 202.818 108.15C202.076 108.282 201.376 108.602 200.779 109.083C200.182 109.564 199.705 110.191 199.391 110.909C198.638 112.583 198 114.313 197.484 116.084C196.159 120.265 194.905 124.216 191.04 125.386Z" fill="white" stroke="white" stroke-width="0.557823"/>
<path d="M179.85 118.641L179.843 118.919L180.12 118.928C181.756 118.979 183.283 119.001 184.73 119.001C188.962 119.001 192.494 118.813 195.924 118.631L196.074 118.623L196.074 118.623C200.782 118.371 205.643 118.112 212.192 118.343L212.472 118.352L212.481 118.073L212.532 116.468L212.541 116.19L212.263 116.18C205.62 115.945 200.706 116.208 195.966 116.462L195.966 116.462C191.348 116.712 186.58 116.964 180.184 116.765L179.904 116.757L179.896 117.036L179.85 118.641Z" fill="white" stroke="white" stroke-width="0.557823"/>
<path d="M191.803 153.048C193.822 152.437 195.151 151.097 196.137 149.399C197.115 147.715 197.768 145.655 198.427 143.577L198.431 143.563L198.431 143.563L198.433 143.557C198.946 141.798 199.579 140.081 200.327 138.418L200.328 138.415C200.625 137.737 201.074 137.147 201.635 136.695C202.195 136.244 202.85 135.944 203.544 135.82C204.054 135.746 204.575 135.808 205.057 136C205.541 136.194 205.973 136.513 206.311 136.929L206.311 136.929L206.314 136.933C210.02 141.343 209.697 146.483 209.334 152.069L209.316 152.346L209.593 152.365L211.117 152.472L211.397 152.492L211.415 152.212L211.418 152.17C211.782 146.548 212.168 140.606 207.887 135.511C207.324 134.828 206.607 134.302 205.8 133.98C204.993 133.659 204.121 133.553 203.264 133.673L203.264 133.673L203.257 133.675C202.22 133.848 201.241 134.284 200.403 134.945C199.566 135.605 198.897 136.47 198.453 137.462C197.659 139.217 196.989 141.031 196.446 142.888C195.82 144.862 195.248 146.663 194.453 148.091C193.663 149.511 192.669 150.529 191.215 150.97L191.215 150.969L191.205 150.973C190.638 151.168 190.031 151.194 189.451 151.047C188.871 150.899 188.34 150.585 187.918 150.136L187.919 150.136L187.909 150.127C186.648 148.902 185.736 146.689 185.244 144.23C184.754 141.781 184.693 139.143 185.091 137.113L185.143 136.844L184.875 136.786L183.377 136.465L183.1 136.406L183.045 136.685C182.581 139.06 182.637 142.027 183.205 144.784C183.771 147.534 184.854 150.121 186.48 151.702C187.467 152.71 188.79 153.283 190.173 153.295L190.176 153.295C190.727 153.293 191.274 153.21 191.803 153.048ZM191.803 153.048C191.803 153.048 191.802 153.048 191.802 153.048L191.722 152.781M191.803 153.048C191.803 153.048 191.803 153.048 191.803 153.048L191.722 152.781M191.722 152.781C191.219 152.935 190.699 153.014 190.175 153.016L206.527 136.754C206.16 136.301 205.69 135.953 205.161 135.741C204.632 135.53 204.06 135.462 203.499 135.544C202.757 135.677 202.057 135.997 201.46 136.478C200.863 136.959 200.387 137.585 200.073 138.303C199.319 139.978 198.682 141.708 198.165 143.479C196.84 147.66 195.587 151.611 191.722 152.781Z" fill="white" stroke="white" stroke-width="0.557823"/>
<path d="M180.532 146.036L180.524 146.314L180.802 146.323C182.437 146.374 183.965 146.396 185.411 146.396C189.643 146.396 193.175 146.208 196.605 146.026L196.755 146.018L196.755 146.018C201.463 145.766 206.324 145.507 212.874 145.737L213.154 145.747L213.162 145.468L213.213 143.863L213.222 143.585L212.944 143.575C206.301 143.34 201.387 143.603 196.648 143.857L196.647 143.857C192.029 144.107 187.262 144.359 180.865 144.16L180.586 144.152L180.578 144.431L180.532 146.036Z" fill="white" stroke="white" stroke-width="0.557823"/>
<path d="M189.83 49.5656C191.02 49.5656 191.985 48.5529 191.985 47.3036C191.985 46.0544 191.02 45.0416 189.83 45.0416C188.641 45.0416 187.676 46.0544 187.676 47.3036C187.676 48.5529 188.641 49.5656 189.83 49.5656Z" fill="url(#paint0_linear_61_83)"/>
<path d="M189.344 47.1363C189.263 47.1362 189.183 47.1156 189.11 47.0763C179.418 41.8007 174.618 32.5243 176.584 22.8628C178.679 12.5737 187.636 5.20779 198.873 4.53155C203.707 4.13993 208.529 6.05791 211.143 9.40701C211.966 10.3956 212.544 11.5827 212.824 12.8625C213.104 14.1423 213.078 15.4751 212.749 16.7419C211.353 21.9544 207.464 26.1268 203.704 30.1618C203.153 30.7503 202.606 31.3388 202.07 31.9273L201.419 32.5634C198.46 35.4481 195.106 38.7159 194 42.4609C193.981 42.5292 193.95 42.5929 193.907 42.6482C193.865 42.7036 193.812 42.7494 193.753 42.7832C193.693 42.8169 193.628 42.8378 193.56 42.8447C193.493 42.8516 193.425 42.8443 193.36 42.8232C193.295 42.8022 193.235 42.7678 193.183 42.7221C193.131 42.6764 193.089 42.6203 193.058 42.5571C193.027 42.4938 193.008 42.4248 193.003 42.3539C192.998 42.283 193.006 42.2117 193.027 42.1442C194.213 38.1317 197.673 34.7569 200.725 31.7807L201.355 31.167C201.872 30.5983 202.422 30.0082 202.976 29.4149C206.647 25.4757 210.444 21.4028 211.771 16.454C212.057 15.3531 212.078 14.1948 211.831 13.0834C211.585 11.972 211.079 10.9424 210.359 10.0875C207.945 6.9963 203.463 5.23347 198.941 5.59888C188.158 6.2473 179.578 13.274 177.581 23.0864C175.715 32.2536 180.312 41.0822 189.579 46.1267C189.68 46.182 189.761 46.2713 189.808 46.3804C189.855 46.4894 189.866 46.6119 189.839 46.7282C189.812 46.8445 189.748 46.948 189.659 47.0219C189.569 47.0959 189.458 47.1362 189.344 47.1363Z" fill="url(#paint1_linear_61_83)"/>
</g>
<g clip-path="url(#clip2_61_83)">
<path d="M147.403 108.097C142.581 105.763 138.225 97.6806 136.168 92.769C135.693 91.647 135.287 90.701 134.927 89.9019C134.685 89.3214 134.411 88.7564 134.106 88.2094C133.97 87.9449 133.82 87.6894 133.654 87.4439C128.805 79.6803 118.836 77.4842 111.387 82.5383C103.938 87.5924 101.831 97.9836 106.68 105.747C109.651 110.503 114.726 113.37 120.17 113.369C120.608 113.369 121.037 113.35 121.466 113.312C122.143 113.305 122.817 113.201 123.468 113.003C125.595 112.542 127.609 111.634 129.389 110.336C133.403 108.154 138.124 110.056 140.93 111.843C144.008 113.802 143.498 115.766 146.061 116.655C148.1 117.363 161.338 122.336 166.716 124.362V116.336C162.835 114.848 154.633 111.606 147.403 108.097ZM120.171 111.468C113.497 111.47 107.713 106.649 106.249 99.8626C106.014 98.7896 105.896 97.6921 105.898 96.5915C105.894 88.3794 112.278 81.7188 120.157 81.7153C124.662 81.7133 128.903 83.9288 131.597 87.6914C131.807 87.9864 132.008 88.2859 132.195 88.5949C132.264 88.6994 132.318 88.8089 132.382 88.9184C132.506 89.1274 132.624 89.3369 132.738 89.5554C132.802 89.6839 132.861 89.8119 132.925 89.9404C133.026 90.1449 133.117 90.3494 133.208 90.5539C133.268 90.6965 133.323 90.8395 133.382 90.982C133.459 91.1865 133.536 91.391 133.609 91.6C133.66 91.7475 133.71 91.895 133.755 92.047C133.819 92.261 133.879 92.475 133.938 92.689C133.974 92.841 134.015 92.9885 134.052 93.1405C134.102 93.3685 134.148 93.597 134.188 93.825C134.211 93.9725 134.243 94.12 134.266 94.267C134.303 94.519 134.33 94.7805 134.357 95.037C134.371 95.1655 134.389 95.289 134.399 95.4175C134.426 95.8025 134.444 96.197 134.444 96.592C134.435 104.804 128.05 111.459 120.171 111.468Z" fill="white"/>
<path d="M194.603 101.522C178.915 105.373 163.228 109.024 159.533 110.755C155.843 112.49 151.231 114.026 145.694 118.452C140.156 122.878 135.005 125.849 129.796 125.512C128.741 125.444 125.831 124.054 124.688 123.828C116.156 121.228 107.217 126.33 104.723 135.223C102.229 144.115 107.123 153.432 115.655 156.032C124.187 158.631 133.126 153.529 135.62 144.637C135.838 143.86 136.002 143.067 136.11 142.265C136.157 142.019 136.196 141.742 136.227 141.424C136.868 134.731 143.719 127.509 148.094 125.764C156.77 122.298 218.045 99.7911 218.045 99.7911C218.045 99.7911 210.289 97.6755 194.603 101.522ZM133.514 145.219C133.248 145.939 132.929 146.637 132.561 147.306C132.56 147.313 132.557 147.32 132.552 147.325C128.632 154.452 119.911 156.918 113.073 152.832C106.234 148.747 103.869 139.657 107.789 132.53C110.096 128.335 114.216 125.57 118.835 125.118C119.277 125.075 119.72 125.051 120.172 125.051C128.056 125.053 134.446 131.716 134.444 139.934C134.444 141.738 134.129 143.528 133.514 145.215C133.51 145.214 133.51 145.214 133.514 145.219Z" fill="white"/>
</g>
<g clip-path="url(#clip3_61_83)">
<path d="M80.6874 71.1774C80.6874 71.1774 75.6336 84.5016 92.237 87.6959L85.7221 108.611C85.7221 108.611 71.3762 100.881 67.2996 89.4263C63.223 77.9717 74.4266 65.6776 75.6826 65.1663L80.6874 71.1774Z" fill="url(#paint2_linear_61_83)"/>
<path d="M107.005 87.3064C106.995 87.3359 106.986 87.3592 106.977 87.3898C105.27 89.8471 104.257 92.7554 104.054 95.7841C103.21 95.7313 102.306 95.6258 101.318 95.4675C101.17 95.4483 101.022 95.4418 100.873 95.4479C100.873 95.4479 100.559 95.4627 100.035 95.507C99.5049 95.5598 98.765 95.639 97.9029 95.7709C96.0006 96.1557 94.1256 96.6757 92.291 97.3271C91.2024 97.7687 90.0762 98.1014 88.9275 98.3208L91.7334 89.3085C93.48 89.4226 95.2322 89.4013 96.9757 89.2447C97.0606 89.233 97.1449 89.2166 97.2282 89.1956C97.3565 89.1968 97.4849 89.1903 97.6125 89.1761C97.6464 89.1803 97.6808 89.1771 97.7135 89.1666L97.9711 89.137C97.9854 89.1375 97.9996 89.1359 98.0135 89.1323C98.4918 89.0589 98.9537 88.8964 99.3771 88.6526C99.8548 88.3835 100.08 87.7423 100.483 86.9296C101.395 84.9854 102.136 82.9588 102.698 80.8746C102.928 79.9153 104.188 79.5385 104.415 81.8045C104.654 84.0562 102.167 86.0536 103.568 86.8658C103.949 87.0645 104.369 87.17 104.795 87.1745C105.527 87.2867 106.266 87.3308 107.005 87.3064Z" fill="url(#paint3_linear_61_83)"/>
<path d="M109.65 88.7354C109.844 91.5679 109.29 94.4018 108.047 96.9271C108.015 96.9921 107.972 97.0499 107.919 97.0972C107.866 97.1445 107.804 97.1805 107.738 97.203C107.672 97.2255 107.602 97.2341 107.532 97.2283C107.463 97.2225 107.395 97.2025 107.333 97.1693L107.319 97.1609C106.6 96.7345 105.298 95.4036 104.57 91.2695C103.618 85.8404 105.112 87.1143 108.557 87.5444C108.844 87.5779 109.11 87.7154 109.31 87.9331C109.51 88.1507 109.63 88.4346 109.65 88.7354Z" fill="#FFBEB6"/>
</g>
<g clip-path="url(#clip4_61_83)">
<path d="M114.099 234.379C108.002 231.574 102.262 226.096 101.179 225.037H88.8392L83.2748 241.701L122.905 241.702C122.905 241.702 120.873 237.495 114.099 234.379Z" fill="url(#paint4_linear_61_83)"/>
<path d="M62.6047 234.379C56.5064 231.574 51.0821 226.134 50.1235 225.076L37.333 225.076L31.7805 241.701L71.4107 241.703C71.4107 241.703 69.3781 237.496 62.6047 234.379Z" fill="url(#paint5_linear_61_83)"/>
<path d="M49.6006 104.031L48.2787 109.295C44.8366 118.972 44.1417 129.474 46.2757 139.55C51.4991 164.811 46.4017 163.076 43.2322 170.191C40.0496 177.301 38.2937 181.671 38.1815 188.713C38.0773 195.76 35.4183 193.594 33.0255 202.448C30.9229 210.263 30.9307 222.381 31.0112 225.076L50.1221 225.077C54.5691 216.182 67.2618 178.41 69.001 169.116C70.5697 160.716 71.1897 150.905 71.219 141.9L71.307 114.578L49.6006 104.031Z" fill="url(#paint6_linear_61_83)"/>
<path d="M80.0256 225.047C80.0912 225.045 80.1534 225.037 80.2208 225.037H101.181C99.2141 217.561 90.0734 182.495 86.1729 170.085C82.2644 157.651 76.0655 139.307 72.582 130.736C69.1127 125.673 69.1812 125.575 66.8774 122.678C62.7358 117.469 58.5201 116.373 57.0432 109.877C52.3727 109.065 46.243 106.174 41.5686 103.67C41.2519 104.488 35.2316 120.65 46.0488 140.509C57.1523 160.888 56.5838 157.669 60.4871 173.382C64.3928 189.1 61.4125 179.227 66.9462 195.204C71.127 207.273 70.9974 216.671 80.0256 225.047Z" fill="#F25B22"/>
<path opacity="0.86" d="M48.839 118.002C48.856 118.051 48.9082 118.076 48.9548 118.058C48.9559 118.057 48.9566 118.057 48.9577 118.057C49.0036 118.035 49.0244 117.979 49.0032 117.931C48.9863 117.882 48.934 117.857 48.8874 117.875C48.8863 117.875 48.8856 117.875 48.8846 117.876C48.8404 117.899 48.8203 117.954 48.839 118.002ZM50.8597 117.11C50.8766 117.159 50.9289 117.184 50.9755 117.167C50.9766 117.166 50.9773 117.166 50.9783 117.166C51.0256 117.145 51.0486 117.089 51.0299 117.038C51.0129 116.989 50.9607 116.964 50.9141 116.982C50.913 116.982 50.9123 116.982 50.9116 116.983C50.865 117.005 50.8427 117.06 50.8597 117.11ZM52.8863 116.218C52.8994 116.264 52.9471 116.291 52.9916 116.276C52.994 116.275 52.9961 116.275 52.9986 116.274C53.0459 116.253 53.0689 116.197 53.0502 116.146C53.0332 116.097 52.981 116.072 52.9344 116.09C52.9333 116.091 52.9326 116.091 52.9319 116.091C52.8874 116.109 52.8648 116.162 52.8825 116.209C52.8835 116.212 52.8849 116.215 52.8863 116.218ZM55.3766 125.064C55.4211 125.085 55.4737 125.063 55.4931 125.017C55.4938 125.015 55.4941 125.015 55.4941 125.014C55.5136 124.965 55.4927 124.909 55.4472 124.888C55.4027 124.867 55.3501 124.889 55.3307 124.936C55.33 124.937 55.3296 124.937 55.3296 124.938C55.3095 124.987 55.3303 125.043 55.3766 125.064ZM56.2176 122.899C56.2653 122.919 56.3193 122.896 56.3412 122.848C56.3581 122.798 56.3348 122.743 56.2882 122.723C56.2469 122.701 56.1964 122.718 56.1756 122.761C56.1738 122.765 56.1717 122.769 56.171 122.773C56.1516 122.822 56.1724 122.877 56.2176 122.899ZM57.0653 120.734C57.1098 120.754 57.1624 120.732 57.1818 120.686C57.1826 120.685 57.1829 120.684 57.1829 120.683C57.2013 120.632 57.1804 120.576 57.1352 120.55C57.0858 120.534 57.0325 120.559 57.0127 120.609C56.9951 120.658 57.018 120.713 57.0653 120.734ZM64.535 125.039C64.5519 125.088 64.6042 125.113 64.6508 125.096C64.6519 125.095 64.6526 125.095 64.6533 125.095C64.7002 125.071 64.72 125.012 64.6971 124.963C64.6773 124.921 64.6303 124.899 64.5865 124.912C64.5392 124.933 64.5163 124.989 64.535 125.039ZM52.2314 121.266C52.2603 121.302 52.3119 121.307 52.3461 121.277C52.3493 121.274 52.3525 121.271 52.355 121.268C52.3906 121.234 52.3927 121.176 52.3603 121.139C52.3588 121.138 52.3578 121.136 52.3564 121.135C52.3274 121.099 52.2759 121.094 52.2416 121.124C52.2384 121.127 52.2353 121.13 52.2328 121.133C52.1971 121.167 52.195 121.224 52.2275 121.262C52.2282 121.263 52.23 121.264 52.2314 121.266ZM53.7821 119.613C53.8082 119.643 53.8513 119.648 53.8827 119.625L53.8891 119.624C53.8958 119.624 53.9021 119.621 53.9067 119.615C53.9279 119.593 53.9381 119.562 53.9329 119.531C53.9297 119.51 53.9208 119.491 53.9074 119.475C53.8749 119.439 53.8195 119.438 53.7849 119.472C53.7842 119.473 53.7839 119.473 53.7835 119.474C53.7464 119.512 53.7461 119.574 53.7821 119.613C53.7817 119.613 53.7821 119.613 53.7821 119.613ZM55.3335 117.96C55.3677 117.994 55.4218 117.994 55.4546 117.958C55.4557 117.957 55.456 117.956 55.4571 117.955C55.4927 117.922 55.4952 117.864 55.4634 117.827C55.462 117.826 55.4603 117.824 55.4588 117.823C55.4299 117.787 55.3783 117.782 55.3441 117.812C55.3409 117.815 55.3377 117.818 55.3353 117.82C55.2985 117.858 55.2978 117.921 55.3342 117.959C55.3328 117.96 55.3335 117.96 55.3335 117.96ZM59.8959 124.732C59.8984 124.785 59.9383 124.828 59.9891 124.831C60.0418 124.829 60.0831 124.783 60.0813 124.728C60.0795 124.676 60.0389 124.633 59.9881 124.632C59.9376 124.636 59.8984 124.679 59.8959 124.732ZM43.4603 125.645C43.5175 125.719 43.622 125.732 43.694 125.671C43.6972 125.668 43.7007 125.666 43.7039 125.662C43.7749 125.596 43.7819 125.483 43.7205 125.407C43.6633 125.333 43.5588 125.321 43.4868 125.381C43.4836 125.384 43.4801 125.387 43.4769 125.39C43.407 125.457 43.3992 125.57 43.4603 125.645ZM46.5878 122.729C46.6461 122.803 46.751 122.814 46.823 122.753C46.8258 122.751 46.8286 122.749 46.8315 122.746C46.9052 122.678 46.9123 122.561 46.847 122.484C46.7898 122.411 46.686 122.4 46.6157 122.461C46.6133 122.462 46.6115 122.465 46.609 122.466C46.5388 122.535 46.5292 122.648 46.5878 122.729ZM49.7221 119.811C49.7835 119.886 49.8919 119.894 49.9639 119.83C49.965 119.829 49.9653 119.829 49.9664 119.828C50.0367 119.759 50.0441 119.644 49.9819 119.567C49.9191 119.492 49.8107 119.484 49.7387 119.549L49.738 119.55C49.6645 119.617 49.6575 119.734 49.7221 119.811ZM52.85 116.894C52.8969 116.947 52.9704 116.965 53.0353 116.94C53.0572 116.937 53.0774 116.927 53.0936 116.911C53.1197 116.887 53.1367 116.853 53.1434 116.817L53.1497 116.816C53.1639 116.757 53.1487 116.695 53.1098 116.649C53.0526 116.575 52.9481 116.563 52.8761 116.623C52.8729 116.626 52.8694 116.629 52.8662 116.632C52.7952 116.702 52.7878 116.817 52.85 116.894ZM55.9044 136.794C55.8981 136.894 55.9701 136.981 56.0658 136.989C56.1576 136.998 56.2388 136.929 56.248 136.834C56.2487 136.83 56.2487 136.826 56.2487 136.823C56.255 136.723 56.183 136.636 56.0873 136.628C55.9927 136.621 55.9115 136.695 55.9048 136.793C55.9044 136.793 55.9044 136.793 55.9044 136.794ZM56.1932 132.359C56.1848 132.457 56.254 132.545 56.3489 132.554C56.4436 132.562 56.5272 132.49 56.5361 132.391C56.5368 132.388 56.5368 132.384 56.5368 132.38C56.5456 132.282 56.4768 132.194 56.3814 132.184C56.2843 132.183 56.2028 132.258 56.1932 132.359ZM56.487 127.916C56.4785 128.015 56.5481 128.102 56.6431 128.111C56.6448 128.111 56.6462 128.111 56.6484 128.111C56.7402 128.121 56.8214 128.051 56.8305 127.956C56.8312 127.952 56.8312 127.948 56.8312 127.944C56.8355 127.844 56.7652 127.756 56.6692 127.742C56.5728 127.739 56.4916 127.816 56.487 127.916ZM56.7758 123.481C56.767 123.579 56.8365 123.667 56.9312 123.676C57.0258 123.684 57.1095 123.612 57.1183 123.514C57.119 123.51 57.119 123.506 57.119 123.503C57.1285 123.404 57.0597 123.316 56.9647 123.306C56.8701 123.296 56.7857 123.368 56.7758 123.467C56.7762 123.472 56.7758 123.477 56.7758 123.481ZM41.5685 117.979C41.5961 118.072 41.691 118.124 41.7804 118.095C41.7828 118.094 41.785 118.094 41.7874 118.092C41.8785 118.058 41.9258 117.953 41.8933 117.857C41.8633 117.763 41.7662 117.712 41.6759 117.743C41.6751 117.743 41.6748 117.744 41.6744 117.744C41.5833 117.779 41.5357 117.883 41.5685 117.979ZM45.5025 116.564C45.5293 116.659 45.625 116.713 45.7161 116.685C45.8065 116.649 45.8527 116.545 45.822 116.45C45.7976 116.36 45.708 116.307 45.6211 116.331C45.6172 116.332 45.613 116.334 45.6091 116.335C45.5198 116.367 45.4714 116.467 45.5007 116.56C45.5021 116.561 45.5025 116.563 45.5025 116.564ZM48.0266 132.442C48.1078 132.488 48.2088 132.456 48.2526 132.372C48.2543 132.368 48.2558 132.365 48.2572 132.361C48.2992 132.27 48.2635 132.16 48.176 132.114C48.0944 132.068 47.9927 132.101 47.9489 132.186C47.9475 132.189 47.9461 132.192 47.9447 132.195C47.9052 132.287 47.9408 132.395 48.0266 132.442ZM49.8778 128.46C49.959 128.505 50.06 128.473 50.1038 128.39C50.1055 128.386 50.1069 128.383 50.1083 128.379C50.1507 128.288 50.1147 128.178 50.0271 128.132C49.9456 128.086 49.8442 128.119 49.8001 128.204C49.7987 128.207 49.7973 128.21 49.7959 128.213C49.7563 128.305 49.7916 128.413 49.8778 128.46ZM51.73 124.483C51.8172 124.525 51.9196 124.486 51.9602 124.396C52.0015 124.306 51.9687 124.197 51.8847 124.148C51.7971 124.104 51.6922 124.141 51.6477 124.229C51.6089 124.324 51.6439 124.433 51.73 124.483ZM53.5801 120.494C53.6613 120.54 53.7623 120.508 53.8061 120.423C53.8079 120.42 53.8093 120.416 53.8107 120.413C53.8513 120.322 53.8188 120.214 53.7351 120.165C53.6486 120.123 53.5459 120.162 53.5053 120.251C53.5053 120.252 53.5046 120.252 53.5046 120.252C53.4604 120.338 53.4919 120.445 53.5745 120.492C53.5773 120.492 53.5787 120.493 53.5801 120.494ZM63.7543 133.674C63.7836 133.768 63.8807 133.819 63.9708 133.789C64.0612 133.758 64.1102 133.657 64.0809 133.564C64.0802 133.562 64.0799 133.561 64.0795 133.56C64.0587 133.468 63.9704 133.412 63.8825 133.434C63.8769 133.435 63.8712 133.437 63.8659 133.438C63.7766 133.476 63.7286 133.578 63.7543 133.674ZM62.442 129.451C62.4684 129.545 62.5641 129.6 62.6552 129.573C62.7463 129.545 62.7989 129.445 62.7724 129.351C62.771 129.346 62.7696 129.34 62.7679 129.335C62.7403 129.242 62.6453 129.19 62.556 129.219C62.5535 129.22 62.5514 129.221 62.5489 129.222C62.4589 129.255 62.4116 129.357 62.442 129.451ZM61.131 125.233C61.1554 125.324 61.245 125.377 61.3322 125.352C61.3361 125.351 61.3404 125.349 61.3442 125.348C61.4371 125.316 61.4876 125.213 61.4576 125.116C61.4569 125.115 61.4565 125.113 61.4562 125.112C61.4262 125.018 61.3291 124.966 61.2387 124.997C61.238 124.997 61.2376 124.998 61.2373 124.998C61.1465 125.034 61.0996 125.138 61.131 125.233ZM39.2057 115.831C39.2305 115.795 39.2403 115.75 39.2333 115.708C39.2262 115.682 39.2124 115.659 39.1941 115.641C39.2008 115.699 39.2033 115.766 39.2057 115.831ZM42.5384 114.891C42.5564 114.976 42.6373 115.03 42.7188 115.011C42.8004 114.992 42.8523 114.908 42.8343 114.823C42.8336 114.82 42.8329 114.817 42.8318 114.814C42.8191 114.733 42.7446 114.677 42.6666 114.691C42.6609 114.692 42.6553 114.694 42.6496 114.695C42.5681 114.716 42.5176 114.802 42.5374 114.888C42.5381 114.888 42.5381 114.89 42.5384 114.891ZM44.4376 130.391C44.5079 130.437 44.6007 130.416 44.6456 130.343C44.6463 130.342 44.647 130.341 44.6473 130.34C44.6943 130.264 44.6738 130.165 44.6025 130.116C44.6014 130.115 44.6011 130.115 44.6 130.114C44.5329 130.067 44.4422 130.085 44.3963 130.154C44.3938 130.157 44.3917 130.162 44.3896 130.165C44.3462 130.242 44.367 130.34 44.4376 130.391ZM46.3993 127.023C46.4703 127.069 46.5628 127.048 46.608 126.974C46.6087 126.973 46.609 126.972 46.6094 126.971C46.6563 126.893 46.6344 126.79 46.561 126.739C46.4883 126.695 46.3951 126.72 46.352 126.796L46.3513 126.797C46.305 126.872 46.3258 126.973 46.3982 127.022C46.3989 127.023 46.3993 127.023 46.3993 127.023ZM48.2988 123.558C48.3045 123.598 48.3271 123.634 48.361 123.655C48.4319 123.701 48.5244 123.679 48.5696 123.606C48.5703 123.604 48.5707 123.604 48.5711 123.603C48.618 123.525 48.5961 123.422 48.5227 123.371C48.4803 123.341 48.4252 123.337 48.379 123.359L48.3726 123.36C48.3458 123.371 48.3239 123.394 48.3126 123.422C48.2865 123.463 48.2812 123.513 48.2988 123.558ZM50.322 120.287C50.3943 120.33 50.4854 120.307 50.532 120.235C50.5758 120.157 50.5546 120.056 50.4837 120.003C50.4134 119.956 50.3205 119.977 50.2757 120.051C50.275 120.052 50.2743 120.053 50.2739 120.054C50.227 120.133 50.2482 120.236 50.322 120.287ZM52.2833 116.919C52.356 116.963 52.4492 116.938 52.4923 116.862L52.493 116.862C52.5368 116.785 52.5156 116.687 52.4457 116.636C52.3719 116.59 52.2762 116.613 52.2296 116.688C52.1876 116.768 52.2109 116.867 52.2833 116.919ZM59.7293 133.043C59.7501 133.131 59.8338 133.186 59.9189 133.168C60.0036 133.142 60.0516 133.051 60.0276 132.963C60.0054 132.882 59.927 132.831 59.8465 132.846C59.7646 132.871 59.7137 132.956 59.7293 133.043ZM58.9031 129.179C58.9285 129.262 59.0147 129.307 59.0941 129.28C59.1739 129.253 59.2177 129.164 59.1915 129.081C59.1672 129.003 59.0899 128.958 59.0132 128.976C58.9306 129.003 58.8823 129.092 58.9031 129.179ZM58.0688 125.302C58.0843 125.388 58.1637 125.445 58.2467 125.429C58.2485 125.429 58.2506 125.428 58.2524 125.428C58.3329 125.41 58.3834 125.328 58.3664 125.244C58.3654 125.24 58.3646 125.237 58.3636 125.233C58.3481 125.146 58.2686 125.09 58.1856 125.105C58.1839 125.106 58.1818 125.106 58.18 125.106C58.0991 125.131 58.0508 125.217 58.0688 125.302ZM57.2366 121.439C57.2549 121.524 57.3361 121.577 57.4177 121.558H57.4188C57.5035 121.537 57.5554 121.449 57.5356 121.361C57.5162 121.275 57.4361 121.22 57.3527 121.236C57.2691 121.262 57.2186 121.35 57.2366 121.439ZM42.8904 120.886C42.9353 120.957 43.0271 120.975 43.0949 120.928C43.0987 120.926 43.1019 120.923 43.1055 120.92C43.1739 120.87 43.1895 120.77 43.1404 120.699C43.1397 120.698 43.139 120.697 43.1386 120.696C43.0945 120.623 43.002 120.602 42.9324 120.648C42.9293 120.65 42.9257 120.653 42.9229 120.655C42.8558 120.712 42.8417 120.812 42.8904 120.886ZM45.9046 118.578C45.9502 118.65 46.0427 118.669 46.1115 118.622C46.1126 118.621 46.1133 118.62 46.1144 118.62C46.1846 118.566 46.2016 118.464 46.1525 118.388C46.1031 118.316 46.0077 118.298 45.9368 118.347C45.8679 118.402 45.8541 118.504 45.9046 118.578ZM48.9125 116.27C48.9587 116.343 49.0541 116.363 49.1243 116.314C49.1257 116.313 49.1271 116.312 49.1286 116.311C49.196 116.255 49.2122 116.155 49.1667 116.079C49.1194 116.008 49.0258 115.991 48.9573 116.04C48.9556 116.042 48.9534 116.043 48.9517 116.045C48.8814 116.095 48.8634 116.195 48.9118 116.268C48.9121 116.269 48.9125 116.269 48.9125 116.27ZM51.795 131.232C51.7826 131.32 51.8398 131.403 51.9242 131.419C52.0068 131.433 52.0852 131.374 52.099 131.288C52.099 131.287 52.099 131.287 52.0997 131.286C52.1127 131.198 52.0591 131.113 51.9758 131.092C51.8885 131.079 51.808 131.141 51.795 131.232ZM52.41 127.313C52.3931 127.398 52.4457 127.482 52.5273 127.5C52.6088 127.517 52.6893 127.462 52.7066 127.378C52.7073 127.375 52.7077 127.372 52.708 127.369C52.7211 127.28 52.6674 127.196 52.5841 127.175C52.4994 127.162 52.4217 127.224 52.41 127.313ZM53.0191 123.394C53.0039 123.481 53.059 123.565 53.1427 123.582C53.2281 123.595 53.3068 123.533 53.3181 123.444C53.3294 123.359 53.2751 123.279 53.1939 123.263C53.1141 123.247 53.0367 123.3 53.0209 123.383C53.0202 123.387 53.0198 123.391 53.0191 123.394ZM53.6285 119.477C53.6133 119.564 53.6684 119.647 53.7521 119.665C53.7994 119.675 53.8485 119.66 53.8831 119.625L53.8894 119.624C53.912 119.598 53.9272 119.566 53.9332 119.531C53.9456 119.443 53.8884 119.36 53.804 119.344C53.7214 119.33 53.643 119.388 53.6292 119.475C53.6285 119.475 53.6285 119.476 53.6285 119.477ZM65.6486 128.057C65.6906 128.125 65.7785 128.146 65.8453 128.102C65.8495 128.099 65.8537 128.096 65.8576 128.093C65.9293 128.04 65.9466 127.936 65.8957 127.861C65.8456 127.79 65.7496 127.774 65.6807 127.826C65.6108 127.88 65.5963 127.983 65.6486 128.057C65.6486 128.057 65.6479 128.057 65.6486 128.057ZM63.498 124.822C63.5464 124.895 63.6421 124.913 63.7127 124.864C63.7134 124.863 63.7137 124.863 63.7137 124.863C63.7829 124.807 63.7967 124.706 63.7459 124.632C63.7003 124.56 63.6078 124.54 63.539 124.588C63.5379 124.589 63.5372 124.589 63.5361 124.59C63.4645 124.642 63.4465 124.745 63.4962 124.819C63.4969 124.82 63.4973 124.821 63.498 124.822ZM44.6791 120.547C44.7165 120.582 44.7741 120.58 44.8083 120.541C44.8408 120.5 44.8387 120.44 44.8027 120.402C44.7653 120.367 44.7077 120.369 44.6735 120.408C44.6413 120.449 44.6434 120.509 44.6791 120.547ZM46.167 118.838C46.2044 118.872 46.2619 118.87 46.2962 118.832C46.3283 118.791 46.3262 118.731 46.2905 118.693C46.2531 118.658 46.1956 118.66 46.1613 118.699C46.1292 118.74 46.1317 118.8 46.167 118.838ZM47.6608 117.121C47.6951 117.155 47.7491 117.154 47.7819 117.118C47.783 117.117 47.7833 117.117 47.7837 117.115C47.8194 117.08 47.8208 117.022 47.7865 116.985C47.7837 116.982 47.7809 116.979 47.778 116.977C47.7438 116.943 47.6898 116.943 47.6569 116.979C47.6559 116.98 47.6555 116.981 47.6545 116.982C47.6188 117.018 47.6185 117.076 47.6527 117.114C47.6555 117.116 47.6576 117.118 47.6608 117.121ZM49.1487 115.411C49.1829 115.445 49.237 115.444 49.2698 115.408C49.2708 115.407 49.2712 115.407 49.2716 115.406C49.3086 115.367 49.309 115.305 49.2723 115.266C49.2348 115.231 49.1776 115.234 49.143 115.272C49.1106 115.313 49.113 115.373 49.1487 115.411ZM53.2567 123.938C53.2599 123.989 53.3026 124.027 53.3517 124.025C53.4004 124.022 53.4382 123.977 53.4354 123.926C53.4322 123.876 53.3912 123.837 53.3432 123.839C53.2934 123.841 53.2542 123.885 53.2567 123.937C53.2564 123.937 53.2564 123.937 53.2567 123.938ZM53.1776 121.597C53.1815 121.65 53.2249 121.69 53.2761 121.688C53.3263 121.686 53.3651 121.642 53.3626 121.589C53.3637 121.54 53.3256 121.498 53.2775 121.496C53.2751 121.496 53.273 121.496 53.2705 121.496C53.2193 121.497 53.1773 121.541 53.1776 121.594V121.597ZM53.1049 119.255C53.1056 119.307 53.1451 119.348 53.1946 119.348C53.244 119.347 53.2839 119.306 53.2835 119.255C53.2835 119.253 53.2835 119.251 53.2835 119.249C53.2846 119.199 53.2465 119.158 53.1985 119.156C53.196 119.156 53.1939 119.156 53.1914 119.156C53.1409 119.159 53.1024 119.203 53.1049 119.255ZM53.0315 116.914L53.0346 116.94C53.0488 116.979 53.0841 117.005 53.124 117.007C53.1741 117.004 53.2129 116.96 53.2105 116.908C53.2087 116.868 53.185 116.832 53.1494 116.817L53.143 116.818C53.1356 116.814 53.1264 116.813 53.118 116.815C53.0696 116.816 53.0304 116.858 53.0315 116.908V116.914ZM42.912 115.773C42.9324 115.819 42.9843 115.841 43.0299 115.822C43.0747 115.795 43.0945 115.739 43.0744 115.689C43.0567 115.642 43.0069 115.619 42.9621 115.637C42.9603 115.638 42.9582 115.638 42.9565 115.64C42.9116 115.666 42.8922 115.723 42.912 115.773ZM44.8977 114.8C44.9171 114.848 44.97 114.87 45.0156 114.849C45.0611 114.829 45.0827 114.774 45.0629 114.727C45.0622 114.725 45.0618 114.724 45.0611 114.723C45.047 114.678 45.0004 114.653 44.9566 114.668C44.952 114.669 44.9478 114.671 44.9436 114.674C44.8973 114.695 44.8768 114.752 44.8977 114.8C44.8977 114.8 44.8977 114.8 44.8977 114.8ZM49.0195 121.995C49.0664 122.01 49.1169 121.985 49.136 121.938C49.1547 121.889 49.1321 121.834 49.0855 121.814C49.0844 121.813 49.0837 121.813 49.083 121.813C49.0399 121.793 48.9891 121.814 48.9704 121.859C48.969 121.863 48.9676 121.867 48.9665 121.871C48.9492 121.92 48.9725 121.975 49.0195 121.995ZM49.7888 119.801C49.8372 119.819 49.8905 119.791 49.9071 119.741C49.9233 119.692 49.899 119.638 49.852 119.62C49.8096 119.598 49.7581 119.618 49.738 119.662C49.7366 119.665 49.7355 119.667 49.7348 119.67C49.7143 119.721 49.7373 119.779 49.7853 119.8C49.7867 119.8 49.7881 119.801 49.7888 119.801ZM50.5514 117.601C50.5945 117.621 50.6457 117.6 50.6641 117.555C50.6655 117.552 50.6669 117.548 50.668 117.544C50.6849 117.494 50.6616 117.439 50.615 117.419C50.568 117.404 50.5176 117.429 50.4985 117.477C50.4798 117.526 50.5024 117.581 50.549 117.6C50.5497 117.601 50.5504 117.601 50.5514 117.601ZM57.3206 121.705C57.3383 121.752 57.3888 121.775 57.4332 121.757C57.435 121.756 57.4371 121.756 57.4385 121.754C57.4844 121.733 57.5053 121.676 57.4841 121.628C57.4841 121.628 57.4841 121.628 57.4841 121.628C57.47 121.583 57.4234 121.558 57.3796 121.573C57.375 121.574 57.3707 121.576 57.3665 121.579C57.3203 121.601 57.2998 121.658 57.3206 121.705ZM56.4146 119.574C56.4358 119.623 56.4912 119.644 56.5375 119.623C56.5382 119.623 56.5382 119.623 56.5382 119.622C56.582 119.598 56.5993 119.542 56.5774 119.496C56.5633 119.452 56.5167 119.427 56.4729 119.442C56.4683 119.443 56.464 119.445 56.4598 119.447C56.4139 119.47 56.3934 119.526 56.4146 119.574ZM39.5083 112.995C39.5203 113.053 39.5751 113.089 39.6298 113.077H39.6305C39.6863 113.062 39.7226 113.005 39.7128 112.945C39.7 112.887 39.6432 112.85 39.5874 112.863C39.5864 112.863 39.5856 112.864 39.5846 112.864C39.5295 112.877 39.4953 112.934 39.5076 112.991C39.5076 112.993 39.508 112.995 39.5083 112.995ZM43.1213 122.871C43.1658 122.903 43.2258 122.89 43.2555 122.844C43.2569 122.842 43.258 122.84 43.2594 122.837C43.2915 122.787 43.2788 122.718 43.2304 122.685C43.2294 122.684 43.228 122.683 43.2273 122.683C43.1828 122.651 43.1228 122.664 43.0931 122.71C43.0917 122.712 43.0906 122.714 43.0892 122.717C43.0592 122.769 43.0733 122.837 43.1213 122.871ZM44.4591 120.619C44.5075 120.651 44.5721 120.636 44.6025 120.586C44.6025 120.585 44.6032 120.585 44.6032 120.585C44.6332 120.532 44.6187 120.465 44.5711 120.43C44.5266 120.399 44.4666 120.411 44.4369 120.458C44.4355 120.459 44.4344 120.462 44.433 120.464C44.3988 120.513 44.4087 120.582 44.4556 120.618C44.457 120.618 44.4584 120.619 44.4591 120.619ZM45.8029 118.367C45.8467 118.393 45.9022 118.385 45.9364 118.347C45.9417 118.34 45.9477 118.339 45.947 118.332C45.977 118.28 45.9632 118.212 45.9149 118.178C45.8665 118.145 45.8019 118.161 45.7715 118.211C45.7715 118.212 45.7708 118.212 45.7708 118.212C45.7408 118.265 45.7553 118.332 45.8029 118.367ZM47.1471 116.113C47.1955 116.146 47.2601 116.13 47.2905 116.08C47.2905 116.079 47.2912 116.079 47.2912 116.079C47.3212 116.026 47.3067 115.959 47.259 115.924C47.2297 115.902 47.1905 115.9 47.1591 115.919C47.1467 115.921 47.1415 115.928 47.1358 115.93L47.115 115.959C47.0846 116.011 47.0984 116.079 47.1471 116.113ZM53.4018 124.779C53.4092 124.833 53.4576 124.872 53.5102 124.864C53.5148 124.863 53.519 124.862 53.5233 124.861C53.5784 124.845 53.6123 124.788 53.5992 124.73C53.5854 124.672 53.5325 124.634 53.4763 124.641C53.4205 124.659 53.3866 124.72 53.4018 124.779ZM52.8613 122.169C52.874 122.227 52.9305 122.264 52.9866 122.25C52.9877 122.25 52.9884 122.25 52.9894 122.25C53.0445 122.234 53.0784 122.177 53.0653 122.119C53.0516 122.061 52.9986 122.023 52.9425 122.03C52.886 122.049 52.8507 122.108 52.8613 122.169ZM52.332 119.55C52.3366 119.605 52.3839 119.646 52.4372 119.641C52.4429 119.64 52.4485 119.639 52.4542 119.638C52.5093 119.622 52.5431 119.565 52.5301 119.506C52.5163 119.449 52.4634 119.411 52.4072 119.418C52.3528 119.434 52.3193 119.492 52.332 119.55ZM51.7967 116.937C51.8013 116.993 51.8486 117.034 51.902 117.029C51.9076 117.028 51.9133 117.027 51.9189 117.026C51.974 117.01 52.0079 116.953 51.9948 116.894C51.9835 116.836 51.9288 116.797 51.872 116.806C51.8179 116.822 51.7837 116.88 51.7967 116.937ZM40.2819 117.944C40.3102 117.994 40.3727 118.011 40.4203 117.981C40.4231 117.979 40.4256 117.977 40.4277 117.975C40.4719 117.937 40.4818 117.87 40.451 117.819C40.4203 117.771 40.3578 117.758 40.3116 117.79C40.3098 117.791 40.3073 117.792 40.3052 117.794C40.2614 117.83 40.2508 117.895 40.2819 117.944ZM42.3266 116.418C42.3569 116.465 42.4184 116.477 42.4639 116.446C42.465 116.445 42.4657 116.444 42.4664 116.444C42.5162 116.409 42.5299 116.339 42.4964 116.287C42.4964 116.287 42.4957 116.287 42.4957 116.286C42.4625 116.237 42.3972 116.227 42.3506 116.261L42.3499 116.262C42.304 116.299 42.2941 116.367 42.3266 116.418ZM44.3698 114.885C44.3963 114.931 44.4546 114.946 44.499 114.918C44.5029 114.916 44.5061 114.913 44.5096 114.911C44.5573 114.879 44.5718 114.813 44.5414 114.763C44.5407 114.762 44.5403 114.761 44.5396 114.76C44.5072 114.711 44.4422 114.697 44.3935 114.729C44.349 114.767 44.3391 114.834 44.3698 114.885ZM48.2988 123.558C48.3108 123.567 48.3243 123.574 48.3387 123.578C48.3938 123.589 48.4464 123.55 48.4567 123.493C48.4574 123.491 48.4574 123.489 48.4577 123.488C48.4665 123.43 48.433 123.375 48.3793 123.36L48.373 123.361C48.3179 123.35 48.2653 123.389 48.2551 123.446C48.2543 123.448 48.2543 123.45 48.254 123.451C48.2462 123.493 48.2635 123.535 48.2988 123.558ZM48.6936 120.815C48.6812 120.873 48.7162 120.93 48.772 120.943C48.8281 120.953 48.8835 120.916 48.8973 120.858C48.9054 120.798 48.869 120.74 48.8118 120.724C48.7557 120.715 48.7028 120.755 48.6936 120.815C48.6936 120.814 48.6936 120.814 48.6936 120.815ZM49.1286 118.185C49.1176 118.244 49.1547 118.3 49.2112 118.311C49.2119 118.311 49.2126 118.312 49.2129 118.312C49.268 118.322 49.3206 118.284 49.3309 118.227C49.3316 118.225 49.3316 118.223 49.3319 118.222C49.3429 118.163 49.3058 118.106 49.2493 118.095C49.2486 118.095 49.2479 118.095 49.2475 118.095C49.1925 118.084 49.1399 118.123 49.1296 118.18C49.1293 118.181 49.1293 118.183 49.1286 118.185ZM49.5625 115.549C49.553 115.608 49.5904 115.665 49.6472 115.676C49.6984 115.69 49.7507 115.658 49.7641 115.604C49.7652 115.6 49.7659 115.596 49.7666 115.592C49.7789 115.534 49.744 115.477 49.6882 115.464C49.632 115.451 49.5759 115.487 49.5635 115.546C49.5628 115.547 49.5625 115.548 49.5625 115.549ZM57.5992 121.418C57.6295 121.467 57.6924 121.48 57.7383 121.448C57.7408 121.446 57.7425 121.445 57.7446 121.443C57.7895 121.408 57.8001 121.342 57.769 121.293C57.7429 121.245 57.6839 121.227 57.638 121.255C57.6348 121.257 57.6317 121.259 57.6292 121.261C57.5805 121.297 57.5674 121.366 57.5992 121.418ZM56.1777 119.224C56.2042 119.271 56.2624 119.285 56.3069 119.258C56.3108 119.255 56.314 119.253 56.3175 119.25C56.3652 119.218 56.3797 119.152 56.3493 119.102C56.3486 119.101 56.3482 119.1 56.3475 119.099C56.3161 119.049 56.2515 119.034 56.2035 119.066C56.2028 119.067 56.2021 119.067 56.2017 119.068C56.154 119.105 56.1431 119.174 56.1777 119.224ZM54.7492 117.031C54.7785 117.079 54.8399 117.093 54.8858 117.063C54.8886 117.061 54.8922 117.058 54.8946 117.056C54.9395 117.021 54.9501 116.955 54.919 116.907C54.8907 116.857 54.8282 116.84 54.7806 116.87C54.7778 116.872 54.7753 116.873 54.7732 116.876C54.7287 116.914 54.7184 116.98 54.7492 117.031ZM39.4077 116.585C39.4614 116.665 39.5673 116.685 39.6439 116.629C39.6471 116.626 39.6503 116.624 39.6534 116.622C39.7346 116.56 39.7527 116.441 39.6937 116.356C39.6383 116.274 39.5284 116.254 39.4494 116.311C39.4483 116.312 39.4479 116.312 39.4469 116.313C39.3689 116.38 39.3516 116.498 39.4077 116.585ZM42.8597 113.88C42.9127 113.962 43.0197 113.985 43.0984 113.929C43.1012 113.927 43.104 113.925 43.1065 113.923C43.1877 113.861 43.2057 113.743 43.1464 113.658C43.091 113.575 42.9812 113.555 42.9021 113.613C42.901 113.614 42.9007 113.614 42.8996 113.615C42.8223 113.679 42.8053 113.794 42.8597 113.88ZM44.3624 134.608C44.35 134.711 44.4164 134.806 44.5142 134.824C44.6117 134.84 44.7024 134.77 44.7172 134.669C44.7172 134.669 44.7172 134.669 44.7172 134.668C44.731 134.565 44.6636 134.47 44.5654 134.452C44.468 134.436 44.3772 134.506 44.3624 134.607V134.608ZM45.0287 130.077C45.011 130.178 45.0756 130.275 45.1727 130.294H45.1741C45.2694 130.311 45.3605 130.244 45.3761 130.144C45.3768 130.142 45.3768 130.14 45.3771 130.138C45.3958 130.038 45.3341 129.941 45.2387 129.921C45.1427 129.902 45.0495 129.966 45.0308 130.065C45.0294 130.07 45.029 130.073 45.0287 130.077ZM45.6889 125.547C45.6751 125.65 45.7426 125.746 45.8407 125.764C45.9382 125.779 46.0289 125.71 46.0437 125.609C46.0437 125.608 46.0437 125.608 46.0437 125.608C46.0603 125.505 45.9943 125.409 45.8962 125.392C45.8947 125.392 45.8933 125.391 45.8919 125.391C45.7945 125.376 45.7037 125.445 45.6889 125.546V125.547ZM46.3548 121.016C46.3386 121.118 46.4032 121.214 46.5006 121.233C46.6002 121.247 46.6916 121.174 46.7043 121.07C46.7167 120.971 46.6524 120.878 46.5578 120.859C46.4625 120.843 46.3714 120.91 46.3559 121.009C46.3552 121.011 46.3552 121.014 46.3548 121.016ZM47.0154 116.485C47.0016 116.588 47.0691 116.684 47.1672 116.702C47.2594 116.718 47.3466 116.654 47.3625 116.558C47.3632 116.554 47.3635 116.55 47.3639 116.546C47.3847 116.45 47.3265 116.354 47.234 116.332C47.2287 116.331 47.2234 116.33 47.2188 116.329C47.1213 116.313 47.0306 116.383 47.0158 116.484C47.0154 116.485 47.0154 116.485 47.0154 116.485ZM61.8785 130.219C61.9353 130.303 62.0469 130.323 62.1277 130.264C62.2086 130.205 62.228 130.089 62.1708 130.005C62.169 130.002 62.1669 129.999 62.1652 129.997C62.1136 129.915 62.0077 129.892 61.9286 129.946C61.9247 129.949 61.9215 129.951 61.918 129.954C61.8407 130.017 61.8237 130.133 61.8785 130.219ZM59.3638 126.512C59.4207 126.595 59.5309 126.614 59.6107 126.556C59.6912 126.493 59.7085 126.376 59.6505 126.291C59.599 126.208 59.4931 126.186 59.414 126.24C59.4101 126.242 59.4069 126.244 59.403 126.247C59.3257 126.311 59.3081 126.426 59.3638 126.512ZM56.8496 122.806C56.905 122.888 57.0148 122.909 57.0939 122.851C57.095 122.85 57.0953 122.85 57.0964 122.849C57.1748 122.783 57.1917 122.665 57.1356 122.577C57.0819 122.497 56.976 122.477 56.899 122.533C56.8959 122.536 56.8923 122.538 56.8895 122.541C56.8086 122.602 56.791 122.721 56.8496 122.806ZM54.335 119.099C54.3904 119.181 54.5002 119.202 54.5793 119.144C54.5804 119.143 54.5807 119.143 54.5818 119.142C54.6595 119.075 54.6764 118.958 54.621 118.87C54.5673 118.79 54.4614 118.771 54.3841 118.827C54.3809 118.829 54.3777 118.832 54.3745 118.834C54.2937 118.892 54.2736 119.007 54.3297 119.091C54.3315 119.094 54.3336 119.096 54.335 119.099ZM39.5768 111.896C39.5952 111.991 39.6845 112.052 39.776 112.033C39.7791 112.032 39.783 112.032 39.7865 112.031C39.8829 112.006 39.9419 111.905 39.9186 111.805C39.8949 111.705 39.7989 111.643 39.7025 111.665C39.6061 111.693 39.5503 111.796 39.5768 111.896ZM41.1674 121.687C41.2522 121.739 41.3623 121.711 41.4132 121.623C41.4629 121.533 41.4375 121.418 41.3546 121.359C41.2698 121.306 41.16 121.334 41.1092 121.422C41.1092 121.422 41.1092 121.422 41.1085 121.422C41.059 121.513 41.0848 121.628 41.1674 121.687ZM43.3921 117.768C43.4705 117.824 43.5786 117.804 43.6322 117.722C43.6347 117.718 43.6365 117.715 43.6389 117.711C43.6887 117.621 43.6633 117.506 43.5803 117.448C43.4995 117.393 43.3921 117.417 43.3402 117.501C43.3385 117.504 43.3364 117.508 43.335 117.511C43.2845 117.599 43.3099 117.712 43.3921 117.768ZM52.7638 132.264C52.7892 132.362 52.8839 132.424 52.9799 132.405C53.0745 132.374 53.1289 132.273 53.1045 132.173C53.0865 132.076 52.9954 132.011 52.9008 132.03C52.8983 132.031 52.8966 132.031 52.8941 132.032C52.7974 132.059 52.7395 132.162 52.7638 132.264ZM51.7611 127.801C51.7805 127.9 51.8734 127.964 51.9687 127.944C52.0637 127.924 52.1251 127.827 52.106 127.728C52.105 127.724 52.1046 127.721 52.1036 127.717C52.088 127.62 52.0005 127.556 51.908 127.572C51.9034 127.573 51.8984 127.574 51.8938 127.575C51.7992 127.597 51.7395 127.694 51.76 127.792C51.7597 127.796 51.7607 127.798 51.7611 127.801ZM50.7594 123.345C50.7774 123.443 50.8685 123.507 50.9631 123.488C50.9656 123.487 50.9674 123.487 50.9698 123.486C51.0673 123.459 51.1252 123.356 51.1008 123.254C51.0804 123.155 50.9864 123.092 50.8904 123.113C50.7937 123.14 50.7354 123.243 50.7594 123.345ZM49.7581 118.889C49.7765 118.984 49.8658 119.045 49.9572 119.026C49.9604 119.026 49.9643 119.025 49.9678 119.024C50.0649 118.998 50.1235 118.896 50.0988 118.796C50.0755 118.699 49.9834 118.638 49.8894 118.657C49.7916 118.684 49.7334 118.787 49.7581 118.889ZM39.7915 118.695C39.8738 118.748 39.9821 118.727 40.039 118.645C40.0902 118.556 40.0672 118.441 39.9864 118.38C39.9126 118.323 39.8095 118.338 39.7541 118.415C39.7509 118.419 39.7477 118.424 39.7452 118.429C39.688 118.517 39.7089 118.635 39.7915 118.695ZM42.162 114.9C42.2454 114.955 42.3555 114.93 42.4085 114.844C42.46 114.757 42.4374 114.644 42.3569 114.586C42.2835 114.528 42.18 114.544 42.125 114.621C42.1218 114.626 42.1183 114.63 42.1154 114.635C42.0589 114.722 42.0798 114.84 42.162 114.9ZM50.1744 133.738C50.1913 133.838 50.2831 133.905 50.3795 133.888C50.4748 133.866 50.5366 133.768 50.5179 133.668C50.5031 133.566 50.4113 133.496 50.3142 133.512C50.3135 133.512 50.3128 133.512 50.3124 133.512C50.215 133.535 50.1535 133.636 50.1744 133.738ZM49.3492 129.256C49.3672 129.357 49.4608 129.423 49.5579 129.405C49.559 129.405 49.5597 129.404 49.5607 129.404C49.6596 129.38 49.7207 129.276 49.697 129.174C49.6748 129.076 49.583 129.012 49.4876 129.029C49.3905 129.055 49.3302 129.154 49.3492 129.256ZM48.5234 124.773C48.5414 124.874 48.635 124.941 48.7321 124.922C48.7331 124.922 48.7338 124.922 48.7345 124.922C48.8299 124.899 48.8916 124.802 48.8729 124.701C48.856 124.602 48.7642 124.535 48.6678 124.553C48.5718 124.575 48.5082 124.672 48.5234 124.773ZM47.7039 120.29C47.7166 120.387 47.8024 120.455 47.8953 120.442C47.8999 120.441 47.9041 120.441 47.909 120.44C48.0044 120.417 48.0662 120.32 48.0474 120.22C48.0326 120.121 47.944 120.054 47.8494 120.07C47.8469 120.07 47.8448 120.071 47.8423 120.071C47.7459 120.091 47.6838 120.189 47.7032 120.29C47.7039 120.289 47.7039 120.29 47.7039 120.29ZM46.8784 115.808C46.8932 115.907 46.9819 115.974 47.0765 115.958C47.079 115.958 47.0811 115.957 47.0832 115.957C47.1026 115.954 47.121 115.944 47.1351 115.929C47.1415 115.928 47.1464 115.921 47.1584 115.919C47.2361 115.854 47.2477 115.735 47.1845 115.655C47.1443 115.603 47.08 115.577 47.0168 115.588C46.9204 115.608 46.8583 115.706 46.8777 115.806C46.8784 115.807 46.8784 115.808 46.8784 115.808ZM42.1553 126.71C42.1359 126.811 42.1977 126.908 42.2948 126.929C42.3919 126.949 42.4858 126.885 42.5056 126.784C42.5243 126.681 42.4625 126.582 42.3651 126.559C42.268 126.542 42.1747 126.609 42.1553 126.71ZM42.9949 122.226C42.9738 122.327 43.0348 122.428 43.1326 122.45C43.1337 122.45 43.1344 122.451 43.1355 122.451C43.2315 122.468 43.3226 122.401 43.3392 122.301C43.3568 122.2 43.2951 122.101 43.1987 122.077C43.104 122.058 43.0133 122.123 42.9956 122.222C42.9956 122.223 42.9949 122.224 42.9949 122.226ZM43.8293 117.749C43.8105 117.85 43.8723 117.947 43.9687 117.968C44.0626 117.99 44.1562 117.929 44.1777 117.831C44.1784 117.828 44.1788 117.826 44.1792 117.823C44.1979 117.721 44.1361 117.622 44.0386 117.599C43.9408 117.581 43.8473 117.648 43.8293 117.749ZM57.351 128.087C57.4046 128.171 57.5137 128.195 57.5949 128.139C57.5964 128.138 57.5974 128.138 57.5988 128.136C57.6786 128.077 57.6995 127.963 57.6458 127.877C57.5995 127.793 57.4961 127.764 57.4156 127.812C57.4113 127.814 57.4075 127.817 57.4032 127.82C57.3185 127.879 57.2952 127.998 57.351 128.087ZM54.991 124.284C55.0447 124.369 55.1538 124.392 55.235 124.336C55.2364 124.335 55.2375 124.335 55.2389 124.334C55.3187 124.274 55.3395 124.16 55.2858 124.074C55.2396 123.99 55.1361 123.961 55.0556 124.009C55.0514 124.012 55.0475 124.014 55.0433 124.017C54.9585 124.076 54.9356 124.196 54.991 124.284ZM52.6314 120.482C52.6851 120.566 52.7942 120.59 52.8754 120.534C52.8768 120.533 52.8779 120.532 52.8793 120.531C52.9591 120.472 52.9799 120.357 52.9262 120.272C52.8761 120.187 52.7691 120.16 52.6876 120.213C52.6861 120.214 52.6851 120.214 52.6837 120.215C52.5986 120.274 52.5756 120.393 52.6314 120.482ZM50.2718 116.679C50.3269 116.764 50.4374 116.786 50.5193 116.729L50.52 116.728C50.5998 116.669 50.6207 116.554 50.567 116.469C50.514 116.385 50.407 116.36 50.3244 116.412C50.24 116.472 50.2171 116.59 50.2718 116.679ZM40.4073 116.51C40.4768 116.539 40.5552 116.503 40.5827 116.431C40.6096 116.359 40.5774 116.276 40.5089 116.243C40.4433 116.215 40.3684 116.248 40.3416 116.316C40.3409 116.318 40.3402 116.319 40.3398 116.322C40.3109 116.393 40.3405 116.475 40.4073 116.51ZM41.6038 113.309C41.6695 113.337 41.7443 113.304 41.7712 113.236C41.7719 113.235 41.7726 113.233 41.7729 113.231C41.8023 113.158 41.7691 113.074 41.6992 113.042C41.6338 113.015 41.56 113.049 41.5339 113.116C41.5325 113.12 41.5314 113.123 41.5307 113.127C41.5018 113.196 41.5321 113.276 41.5992 113.306C41.6006 113.308 41.6021 113.308 41.6038 113.309ZM50.2658 125.85C50.2919 125.92 50.3675 125.954 50.4342 125.927C50.4371 125.926 50.4399 125.925 50.4424 125.924C50.508 125.891 50.5384 125.811 50.5119 125.741C50.4893 125.673 50.4173 125.637 50.3516 125.66C50.346 125.662 50.3407 125.665 50.3354 125.668C50.269 125.7 50.2386 125.78 50.2658 125.85ZM49.0039 122.689C49.0332 122.759 49.1123 122.792 49.1805 122.762C49.2475 122.728 49.2776 122.645 49.249 122.573C49.2228 122.503 49.1473 122.468 49.0805 122.496C49.0777 122.497 49.0749 122.498 49.0724 122.499C49.0046 122.533 48.975 122.617 49.0039 122.689ZM47.741 119.52C47.7703 119.591 47.8494 119.624 47.9175 119.594C47.9846 119.56 48.0146 119.477 47.986 119.404C47.9567 119.334 47.8776 119.301 47.8095 119.331C47.7424 119.366 47.712 119.449 47.741 119.52ZM46.478 116.353C46.5024 116.421 46.5755 116.455 46.6408 116.43C46.6436 116.429 46.6461 116.429 46.6489 116.427C46.7202 116.401 46.7566 116.319 46.7315 116.245C46.7061 116.171 46.6274 116.133 46.5564 116.158C46.4851 116.185 46.4487 116.267 46.4738 116.341C46.4748 116.345 46.4763 116.349 46.478 116.353ZM39.067 113.174C39.0917 113.131 39.092 113.077 39.0677 113.034C39.0645 113.081 39.0642 113.128 39.067 113.174ZM43.4614 125.506C43.4628 125.583 43.5231 125.645 43.5973 125.645C43.67 125.639 43.7265 125.576 43.7269 125.499C43.7269 125.422 43.6672 125.36 43.593 125.36C43.5923 125.36 43.592 125.36 43.5916 125.36C43.5193 125.36 43.4617 125.421 43.4617 125.496C43.4606 125.499 43.4606 125.502 43.4614 125.506ZM43.419 122.056C43.4207 122.134 43.4801 122.198 43.5553 122.202C43.6294 122.2 43.6877 122.135 43.6848 122.057C43.6848 122.057 43.6848 122.057 43.6848 122.056C43.6877 121.982 43.6319 121.919 43.5606 121.916C43.5592 121.916 43.5574 121.916 43.556 121.916C43.4818 121.914 43.4207 121.976 43.4193 122.053C43.419 122.055 43.419 122.056 43.419 122.056ZM43.3837 118.613C43.383 118.69 43.4419 118.752 43.5157 118.753C43.5895 118.754 43.6492 118.692 43.6499 118.615C43.6499 118.615 43.6499 118.614 43.6499 118.614C43.6481 118.535 43.5888 118.472 43.5136 118.468C43.4395 118.47 43.3812 118.535 43.384 118.612C43.3837 118.612 43.3837 118.613 43.3837 118.613ZM43.3424 115.171C43.3424 115.248 43.402 115.31 43.4762 115.31H43.4776C43.55 115.31 43.6075 115.249 43.6075 115.174C43.6075 115.171 43.6075 115.167 43.6068 115.164C43.6082 115.088 43.5507 115.025 43.4776 115.024C43.4776 115.024 43.4776 115.024 43.4769 115.024C43.4031 115.028 43.3434 115.092 43.3424 115.171ZM54.8272 120.515C54.8745 120.567 54.955 120.571 55.0055 120.521C55.008 120.519 55.0101 120.517 55.0126 120.514C55.0666 120.459 55.0676 120.368 55.0143 120.312C55.0133 120.311 55.0118 120.309 55.0111 120.308C54.9624 120.257 54.883 120.257 54.8339 120.308C54.8314 120.31 54.8293 120.313 54.8268 120.315C54.7739 120.371 54.7742 120.46 54.8272 120.515ZM52.5301 118.111C52.583 118.164 52.6674 118.162 52.7176 118.107C52.7186 118.105 52.72 118.104 52.7207 118.103C52.7702 118.046 52.7695 117.96 52.7197 117.904C52.6657 117.851 52.5813 117.852 52.5276 117.906C52.4796 117.965 52.4799 118.053 52.5301 118.111ZM50.2386 115.701C50.2859 115.753 50.3664 115.757 50.4169 115.707C50.4194 115.705 50.4215 115.702 50.424 115.7C50.4734 115.643 50.4727 115.557 50.4229 115.501C50.3756 115.446 50.2944 115.442 50.2418 115.492C50.2379 115.495 50.2347 115.499 50.2312 115.503C50.1807 115.56 50.1839 115.648 50.2386 115.701ZM42.6553 117.91C42.6606 117.953 42.6973 117.983 42.7386 117.977C42.7799 117.967 42.8067 117.925 42.8 117.882C42.7891 117.842 42.7517 117.816 42.7118 117.822C42.6743 117.832 42.6496 117.87 42.6553 117.91ZM42.3552 116.061C42.3608 116.101 42.3958 116.128 42.4346 116.122C42.4357 116.122 42.4364 116.122 42.4374 116.122C42.4745 116.116 42.501 116.081 42.4957 116.043C42.495 116.04 42.4946 116.037 42.4939 116.033C42.4911 115.993 42.4565 115.962 42.4173 115.965C42.4148 115.965 42.4131 115.966 42.4106 115.966C42.3721 115.98 42.3488 116.019 42.3552 116.061ZM42.0536 114.206C42.0565 114.247 42.0911 114.277 42.1303 114.274C42.132 114.274 42.1345 114.273 42.1366 114.273C42.1765 114.262 42.2012 114.22 42.1924 114.178C42.1868 114.139 42.1511 114.111 42.113 114.117C42.1119 114.117 42.1112 114.118 42.1101 114.118C42.0713 114.125 42.0459 114.164 42.0533 114.205C42.0536 114.205 42.0536 114.205 42.0536 114.206ZM39.4123 114.943C39.4042 114.984 39.4285 115.024 39.4674 115.035C39.508 115.042 39.5479 115.016 39.5585 114.975C39.5666 114.934 39.5422 114.894 39.5034 114.883C39.4635 114.877 39.425 114.903 39.4123 114.943ZM39.7947 113.106C39.7865 113.146 39.8109 113.187 39.8497 113.197C39.8875 113.209 39.9278 113.186 39.9391 113.146C39.9401 113.144 39.9405 113.14 39.9408 113.137C39.949 113.096 39.9246 113.056 39.8858 113.046C39.8455 113.04 39.8074 113.065 39.7947 113.106ZM45.6582 115.657C45.6769 115.692 45.7189 115.703 45.7521 115.684C45.7532 115.683 45.7535 115.683 45.7546 115.683C45.7892 115.658 45.7994 115.61 45.7772 115.573C45.7592 115.539 45.7186 115.526 45.685 115.545C45.6836 115.546 45.6822 115.547 45.6808 115.548C45.6462 115.571 45.6359 115.62 45.6582 115.657ZM44.7165 114.069C44.737 114.105 44.7819 114.117 44.8157 114.096C44.8168 114.095 44.8175 114.094 44.8186 114.094C44.8507 114.068 44.8602 114.022 44.8412 113.985C44.8193 113.948 44.7727 113.937 44.7381 113.96C44.7031 113.983 44.6925 114.031 44.7148 114.067C44.7155 114.068 44.7158 114.068 44.7165 114.069ZM44.7059 120.948C44.7405 121.005 44.8129 121.023 44.8673 120.986C44.8687 120.985 44.8701 120.985 44.8712 120.983C44.9252 120.949 44.9425 120.875 44.909 120.819C44.9075 120.817 44.9061 120.815 44.9047 120.812C44.8772 120.756 44.8105 120.734 44.7568 120.763C44.7525 120.765 44.7487 120.768 44.7448 120.77C44.6869 120.807 44.6689 120.885 44.7042 120.946C44.7045 120.946 44.7052 120.947 44.7059 120.948ZM43.1648 118.307C43.1923 118.363 43.259 118.386 43.3127 118.357C43.3169 118.355 43.3208 118.352 43.3247 118.349C43.3823 118.313 43.4006 118.234 43.3653 118.174C43.3646 118.173 43.3639 118.172 43.3635 118.171C43.33 118.111 43.2562 118.092 43.2001 118.127C43.199 118.128 43.1987 118.128 43.1976 118.129C43.1418 118.168 43.1263 118.246 43.1641 118.305C43.1637 118.305 43.1644 118.306 43.1648 118.307ZM41.6176 115.673C41.6525 115.731 41.7267 115.75 41.7835 115.714C41.8414 115.676 41.8591 115.596 41.8224 115.536C41.7888 115.477 41.715 115.457 41.6589 115.493C41.6578 115.493 41.6575 115.494 41.6564 115.494C41.6014 115.534 41.5841 115.612 41.6176 115.673ZM40.0775 113.037C40.1146 113.094 40.1862 113.112 40.2434 113.079C40.2978 113.039 40.3147 112.961 40.2823 112.901C40.2512 112.842 40.1795 112.821 40.1237 112.854C40.1209 112.856 40.1184 112.857 40.1163 112.859C40.0591 112.898 40.0429 112.977 40.0775 113.037ZM47.9864 115.47C48.0369 115.511 48.1103 115.501 48.1491 115.448C48.1516 115.445 48.1534 115.442 48.1555 115.438C48.1929 115.382 48.1802 115.304 48.1265 115.264C48.0771 115.223 48.0051 115.232 47.9662 115.283C47.9648 115.284 47.9638 115.286 47.9631 115.288C47.9235 115.346 47.9341 115.425 47.9864 115.47Z" fill="white"/>
<path d="M80.9153 70.8921L55.585 116.085C46.2899 115.489 28.2641 106.107 28.2641 106.107C26.2596 94.7623 33.6449 90.5225 39.2655 86.8247C44.8861 83.127 45.08 78.5481 55.0564 72.5681C61.3595 68.8582 68.0757 65.9668 75.055 63.9568C77.4305 71.5996 80.9153 70.8921 80.9153 70.8921Z" fill="url(#paint7_linear_61_83)"/>
<path d="M88.5044 120.716C88.5044 120.716 93.7772 124.531 98.0582 125.997C102.339 127.463 102.668 127.103 104.287 125.166C105.759 123.333 107.068 121.364 108.197 119.283C108.674 118.318 110.131 118.276 109.821 120.776C109.51 123.276 106.328 124.707 107.642 125.983C108.957 127.26 113.534 127.515 116.957 127.317C120.38 127.118 122.246 127.127 119.27 131.656C116.293 136.185 112.688 138.855 103.066 134.59C93.4442 130.324 86.6497 131.08 83.2704 131.426L88.5044 120.716Z" fill="url(#paint8_linear_61_83)"/>
<path d="M80.7312 70.9156C80.7312 70.9156 76.7337 84.4172 76.8573 93.551C76.9808 102.685 78.5764 104.248 85.4635 106.911C92.3509 109.574 93.9397 109.686 93.9397 109.686L86.7006 138.571C86.7006 138.571 79.1653 139.901 73.8056 133.485C68.446 127.069 66.3462 125.417 62.5913 123.903C58.8363 122.389 51.2932 116.702 53.9303 103.047C56.5675 89.3926 61.9942 77.2929 75.0562 63.9568" fill="#3DB59E"/>
<path d="M85.5981 62.1602C85.5981 62.1602 81.4612 66.7778 80.9135 70.8909C80.9135 70.8909 77.4294 71.5992 75.056 63.9568C76.797 62.4042 78.328 60.6136 79.6072 58.6331L85.5981 62.1602Z" fill="url(#paint9_linear_61_83)"/>
<path d="M96.7258 58.8499C97.163 61.0485 97.6566 62.5263 94.129 62.3037C94.129 62.3037 87.2069 70.6544 79.4732 60.9645C79.4732 60.9645 79.3214 60.7371 79.0841 60.342C79.5664 60.7437 80.1292 61.0275 80.7315 61.1723C80.7315 61.1723 82.4027 58.83 80.793 57.3279C79.1837 55.8258 78.1011 53.6961 79.9763 52.2828C81.8564 50.8696 82.141 53.5329 84.2111 53.2215C86.2861 52.9104 88.6927 50.2567 88.6927 50.2567C90.3084 51.5469 92.1334 52.5242 94.081 53.1422C95.0226 53.541 96.0193 53.7776 97.0341 53.8439L97.0623 53.9032C97.063 53.9036 96.2937 56.6509 96.7258 58.8499Z" fill="#FFBEB6"/>
<path d="M106.701 46.6282C105.635 49.9626 102.978 52.4792 99.6875 53.2701C102.298 52.4656 104.894 50.2058 106.863 45.2769L74.17 40.8586C74.17 40.8586 72.2309 46.1171 73.6086 51.6187C74.9863 57.1204 78.9905 60.9088 80.7319 61.1734C80.7319 61.1734 82.402 58.83 80.793 57.3271C79.184 55.8243 78.098 53.6954 79.9756 52.2836C81.8533 50.8717 82.14 53.5343 84.2118 53.2214C86.2837 52.9086 88.6941 50.2567 88.6941 50.2567C90.3098 51.5469 92.1352 52.5246 94.0824 53.1433C99.0862 55.2572 105.041 52.6565 107.044 46.7259C107.12 46.5011 106.776 46.4042 106.701 46.6282Z" fill="black"/>
<path d="M99.7394 58.8944C100.55 57.6665 100.598 56.0033 99.8478 55.1845V55.1837C99.0964 54.3671 97.8254 54.701 97.0147 55.9289C96.9211 56.0719 96.8367 56.2215 96.7626 56.3763C96.2189 56.0512 95.5576 56.0184 94.9866 56.2889C94.9955 56.2005 95.0121 56.112 95.0149 56.0236C95.0763 55.3002 94.8549 54.5812 94.4002 54.0303C93.5309 53.085 92.0589 53.4749 91.119 54.8985C90.6689 55.5788 90.4111 56.377 90.3744 57.2021C90.337 57.7807 90.4652 58.3585 90.7423 58.8616C90.8133 58.9817 90.8959 59.0934 90.9891 59.1955C91.4064 59.6568 92.0392 59.8323 92.6217 59.6476C93.3042 59.4243 93.8879 58.9563 94.2699 58.3276C94.5827 57.8489 94.8034 57.3108 94.9192 56.7444C95.4509 56.5473 96.1133 56.3693 96.6062 56.7518C96.5942 56.785 96.5857 56.8185 96.5748 56.852C96.5779 56.8911 96.5719 56.9302 96.5571 56.9663C96.5553 56.9703 96.5543 56.974 96.5525 56.9781C96.5518 56.9829 96.5536 56.9865 96.5532 56.9913C96.4681 57.5139 96.4734 58.0471 96.5688 58.5675C96.6207 58.7905 96.6874 59.0071 96.7541 59.2242C96.7725 59.2725 96.7845 59.3255 96.8 59.3753C96.8212 59.4446 96.8424 59.5131 96.8629 59.5828C96.8777 59.6016 96.889 59.6226 96.9049 59.6403C97.658 60.4562 98.9291 60.1219 99.7394 58.8944ZM94.0231 58.0575C93.6845 58.6172 93.1665 59.0344 92.5614 59.2345C92.0794 59.3911 91.554 59.25 91.2048 58.8701C90.8295 58.4105 90.648 57.8128 90.7021 57.2121C90.7356 56.4798 90.9655 55.7719 91.3662 55.1683C92.1882 53.923 93.4525 53.5589 94.1844 54.356C94.26 54.4382 94.3264 54.5285 94.3836 54.6247C94.6141 55.0459 94.7197 55.5294 94.6872 56.0136C94.654 56.7463 94.4238 57.4542 94.0231 58.0575ZM97.1213 59.3138C96.5056 58.6427 96.5698 57.2478 97.2618 56.1997C97.9542 55.1513 99.0173 54.8417 99.632 55.5102C100.249 56.1806 100.184 57.5773 99.4915 58.6246C98.7998 59.6731 97.7364 59.9823 97.1213 59.3138Z" fill="#3E8AF8"/>
</g>
<defs>
<linearGradient id="paint0_linear_61_83" x1="187.676" y1="47.3036" x2="191.985" y2="47.3036" gradientUnits="userSpaceOnUse">
<stop stop-color="#23286B"/>
<stop offset="1" stop-color="#151A4F"/>
</linearGradient>
<linearGradient id="paint1_linear_61_83" x1="177.056" y1="20.8204" x2="209.835" y2="28.7598" gradientUnits="userSpaceOnUse">
<stop stop-color="#23286B"/>
<stop offset="1" stop-color="#151A4F"/>
</linearGradient>
<linearGradient id="paint2_linear_61_83" x1="81.7116" y1="79.7908" x2="67.3245" y2="114.328" gradientUnits="userSpaceOnUse">
<stop stop-color="#23286B"/>
<stop offset="0.285" stop-color="#1F2463"/>
<stop offset="1" stop-color="#151A4F"/>
</linearGradient>
<linearGradient id="paint3_linear_61_83" x1="90.5693" y1="87.9866" x2="112.205" y2="92.3111" gradientUnits="userSpaceOnUse">
<stop stop-color="#FFBEB6"/>
<stop offset="1" stop-color="#F2A19C"/>
</linearGradient>
<linearGradient id="paint4_linear_61_83" x1="76.0918" y1="226.586" x2="133.958" y2="248.916" gradientUnits="userSpaceOnUse">
<stop stop-color="#23286B"/>
<stop offset="0.6454" stop-color="#1A1F59"/>
<stop offset="1" stop-color="#151A4F"/>
</linearGradient>
<linearGradient id="paint5_linear_61_83" x1="28.1226" y1="230.548" x2="93.6119" y2="243.858" gradientUnits="userSpaceOnUse">
<stop stop-color="#23286B"/>
<stop offset="0.6454" stop-color="#1A1F59"/>
<stop offset="1" stop-color="#151A4F"/>
</linearGradient>
<linearGradient id="paint6_linear_61_83" x1="30.9868" y1="164.554" x2="71.3072" y2="164.554" gradientUnits="userSpaceOnUse">
<stop offset="0.1291" stop-color="#F15A22"/>
<stop offset="0.9987" stop-color="#C2400F"/>
</linearGradient>
<linearGradient id="paint7_linear_61_83" x1="50.5623" y1="73.3199" x2="67.7073" y2="132.637" gradientUnits="userSpaceOnUse">
<stop stop-color="#24947B"/>
<stop offset="1" stop-color="#151A4F"/>
</linearGradient>
<linearGradient id="paint8_linear_61_83" x1="100.516" y1="125.965" x2="141.783" y2="133.99" gradientUnits="userSpaceOnUse">
<stop stop-color="#FFBEB6"/>
<stop offset="0.5136" stop-color="#F8AFA9"/>
<stop offset="1" stop-color="#F2A19C"/>
</linearGradient>
<linearGradient id="paint9_linear_61_83" x1="66.5051" y1="81.2825" x2="84.5124" y2="61.3278" gradientUnits="userSpaceOnUse">
<stop stop-color="#FFBEB6"/>
<stop offset="1" stop-color="#F2A19C"/>
</linearGradient>
<clipPath id="clip0_61_83">
<rect width="119.817" height="119.817" fill="white" transform="matrix(0.914483 0.404624 -0.376316 0.926491 190.447 86.813)"/>
</clipPath>
<clipPath id="clip1_61_83">
<rect width="63.0979" height="169.123" fill="white" transform="translate(163.043 4.4823)"/>
</clipPath>
<clipPath id="clip2_61_83">
<rect width="113.973" height="76.8898" fill="white" transform="translate(104.072 79.8203)"/>
</clipPath>
<clipPath id="clip3_61_83">
<rect width="43.2766" height="43.4444" fill="white" transform="translate(66.4121 65.1666)"/>
</clipPath>
<clipPath id="clip4_61_83">
<rect width="94.9772" height="200.844" fill="white" transform="translate(27.9272 40.8585)"/>
</clipPath>
</defs>
</svg>
